<svg width="273" height="360" viewBox="0 0 273 360" fill="none" xmlns="http://www.w3.org/2000/svg">
<g clip-path="url(#clip0_1614_10375)">
<path d="M167.057 26.6718C169.481 25.6199 168.345 26.3818 170.298 26.5637C172.971 26.8082 176.479 27.2574 178.817 28.9574C179.215 29.2474 178.959 30.0093 179.232 30.4698C179.623 31.1294 181.508 31.5217 181.831 32.7213C182.342 32.4314 182.864 31.8628 183.415 31.7036C188.421 30.2424 194.079 30.6631 198.257 34.012C198.671 34.3418 201.844 38.8847 202.008 39.3168C202.457 40.4937 203.336 45.4403 203.251 46.6854C203.24 46.856 201.764 47.0607 202.871 47.4701C204.477 48.0671 205.505 47.2426 206.759 47.2995C213.059 47.5838 218.536 51.7798 220.012 57.8408C220.086 58.1535 220.733 58.0966 220.721 58.2558C220.693 58.6993 220.103 59.5465 220.103 60.2231C220.103 61.7582 220.347 61.184 220.063 63.2138C219.944 64.0723 220.999 64.9422 219.637 64.8172V65.5563C221.209 66.0055 223.179 66.9777 224.32 68.1433C225.075 68.9165 227.504 73.7608 227.702 74.7728C227.901 75.7849 227.538 77.8772 227.152 78.8722C226.437 80.7087 223.656 83.2331 223.457 84.4499C223.309 85.3767 224.297 88.1001 224.036 89.5215C223.979 89.8342 222.458 93.1433 222.197 93.5982C221.936 94.053 221.175 94.3885 220.909 94.7979C219.614 96.7992 220.693 96.6514 220.784 98.5561C220.806 99.0451 220.534 102.343 220.358 102.616C220.279 102.735 218.57 104.435 218.371 104.6C216.964 105.754 213.076 107.392 212.35 108.057C211.833 108.529 211.856 109.313 211.441 109.774C209.932 111.434 207.588 112.907 205.737 113.925C205.033 114.311 203.739 114.016 203.297 115.022L204.54 120.406C207.599 128.776 210.21 137.418 213.774 145.833C217.072 153.616 218.542 160.405 220.619 168.462C221.033 170.071 222.061 170.782 222.52 172.152C222.821 173.045 224.513 181.277 224.416 181.755C223.485 186.309 224.019 191.62 223.729 196.663C223.184 206.226 221.749 214.448 222.078 224.273C222.288 230.561 223.61 236.719 224.127 242.893C224.683 249.54 223.639 255.561 222.64 261.992C222.191 264.863 223.026 268.792 222.64 271.657C222.492 272.726 221.754 274.062 221.533 275.433C221.147 277.775 221.703 281.084 220.994 283.506C217.798 294.468 212.168 309.917 205.675 318.82C205.158 319.525 197.746 326.928 197.019 327.394C194.851 328.776 188.052 331.209 185.458 331.772C181.644 332.597 177.699 331.329 174.43 329.219C173.613 328.691 172.96 327.485 172.625 327.121C172.443 326.922 171.876 327.133 171.575 326.792C171.007 326.149 170.19 323.414 169.725 322.476C167.437 317.831 165.894 312.492 165.627 307.085C165.4 302.474 165.729 298.898 166.79 294.491C167.732 290.579 168.737 285.513 169.713 281.988C171.365 276.013 172.971 268.405 174.061 262.117C174.765 258.057 174.333 252.752 174.98 248.534C175.503 245.088 176.626 241.438 177.12 237.697C178.306 228.673 179.969 216.205 183.403 207.67C184.601 204.697 186.655 201.831 187.467 198.374C188.018 196.02 186.945 192.836 184.782 191.677C182.433 190.426 178.108 189.453 175.86 187.759C173.936 186.309 172.687 183.785 171.081 182.079C168.868 179.731 165.899 178.577 163.124 177.491C159.452 176.058 154.343 174.506 150.847 172.715C150.421 172.499 149.059 171.015 148.594 170.77C147.095 169.974 144.922 169.383 143.423 168.57C142.895 168.286 139.734 166.421 139.603 166.239C139.552 166.165 140.035 165.556 139.791 165.158C139.575 164.8 138.639 164.544 138.247 164.061C137.594 163.254 136.033 159.558 135.08 159.712C133.354 161.087 132.026 162.987 130.346 164.391C126.941 167.239 122.054 170.691 118.047 172.504C109.721 176.268 102.268 174.148 95.1567 180.675C94.2884 181.471 93.7265 182.142 92.8978 182.932C89.7478 185.923 84.248 190.016 82.0685 193.536C79.9741 196.913 81.4158 196.805 81.972 199.904C82.4942 202.809 82.1933 205.572 82.9482 209.029C83.9358 213.567 84.8382 217.876 85.6101 222.374C86.8361 229.492 89.2142 235.991 90.7013 243.018C91.1043 244.918 91.0305 247.59 91.5016 249.29C92.7559 253.821 93.4143 259.348 94.6403 264.437C96.8765 273.767 99.7825 283.131 101.814 292.609C102.285 294.81 102.314 298.249 102.887 300.2C103.108 300.956 103.676 300.865 103.744 301.109C103.988 301.974 103.256 307.42 103.233 308.904C103.171 312.64 103.704 319.122 102.694 322.658C102.592 323.011 102.002 322.96 101.843 323.375C101.094 325.313 101.06 325.569 100.117 327.309C98.0911 331.062 96.8368 333.904 92.58 335.718C87.0972 338.055 83.1071 336.418 77.9876 334.069C75.9954 333.16 69.3775 329.771 68.0551 328.355C63.5826 323.562 59.7571 317.99 56.6525 312.196C51.2208 302.07 48.4454 291.978 47.6281 279.816C47.6167 279.634 48.3205 279.845 48.3773 279.106C48.6383 275.529 48.0481 270.896 48.1275 267.234C48.2694 260.701 48.82 254.35 48.5362 247.749C48.3716 243.911 47.7529 241.193 47.0548 237.555C46.9243 236.884 47.3329 235.491 47.1456 234.695C47.1002 234.496 46.4929 234.547 46.5043 234.359C47.4691 220.657 44.1772 207.892 44.2396 194.042C44.3134 177.701 49.9438 161.969 54.4446 146.458C57.7252 135.155 60.8298 123.238 65.9267 112.099C66.3921 111.082 68.2424 109.928 66.5737 109.2C66.6021 109.456 66.6191 109.854 66.3183 109.939C64.1615 110.547 57.3279 109.99 55.1314 109.274C49.7621 107.528 45.2499 100.285 44.6142 94.7979C44.2056 91.2557 46.4191 88.8734 48.6611 86.582C47.8948 83.6823 46.6575 81.6923 47.0321 78.5481C47.0605 78.3264 48.5419 74.5454 48.6667 74.3578C48.7689 74.2042 50.2559 73.7494 50.4943 73.2149C50.1992 71.7764 49.5975 68.0239 49.9892 66.665C50.4205 65.1526 55.6309 59.9445 57.0328 58.9552C57.3506 58.7334 57.9522 58.887 58.0033 58.8301C58.1282 58.705 57.7025 57.5679 57.8047 56.9652C58.0204 55.7087 60.932 50.239 61.8515 49.2611C62.3112 48.7778 63.2137 48.6811 63.6053 48.1239C64.2126 47.2654 64.6212 45.0934 65.1037 44.2008C67.2832 40.1696 74.1905 36.4341 78.436 35.5528C79.5541 35.3197 82.8461 34.7227 83.9358 34.609C86.1153 34.3759 88.9475 35.1491 91.0305 33.7277C91.3597 33.5003 92.387 31.8912 92.9205 31.6354C93.227 31.4876 93.9308 31.6638 94.4757 31.4023C97.9038 29.7818 101.048 28.2581 104.737 27.4848L105.118 28.2694C107.099 27.1607 111.923 28.1387 113.949 29.0086C114.528 29.2588 114.42 30.2708 115.169 30.1173C115.317 30.0832 116.219 28.6731 116.611 28.4002C121.157 25.2503 126.952 23.3741 132.645 24.1814C135.188 24.5396 135.909 26.9447 138.922 26.3022C139.813 26.1089 140.483 25.3129 141.232 25.0854C143.565 24.3747 145.699 25.4607 147.589 25.6313C148.157 25.6824 148.707 25.2617 149.354 25.3356C151.653 25.6028 155.808 29.0313 157.261 29.0313C158.424 29.0313 158.731 27.9852 159.656 27.6668C161.54 27.0186 166.711 26.8139 167.057 26.6661V26.6718ZM134.348 28.9972C133.508 27.4848 127.894 26.9504 126.43 27.229C125.732 27.3597 121.254 29.1962 120.601 29.5942C119.404 30.3163 118.694 32.1016 117.218 32.3631V32.9033C119.25 34.2963 118.354 35.6097 118.535 37.2642C118.615 37.9806 119.091 38.6402 119.114 39.6352C119.137 40.8007 118.416 42.3188 118.762 43.2968C118.853 43.5526 121.129 45.6393 121.645 46.7935C122.06 47.7146 121.56 48.8062 122.616 49.5112C123.967 47.2256 126.243 46.3443 128.348 44.9968C126.913 41.1191 128.712 36.0418 130.693 32.6133C131.391 31.4023 131.981 31.1464 132.821 30.2538C133.292 29.7534 132.866 28.6561 134.348 28.9972ZM151.744 33.7391C151.982 33.5003 152.845 31.5558 153.344 31.0611C153.248 30.6233 149.354 29.1735 148.685 28.9745C148.106 28.8039 144.15 27.951 143.906 27.9738C143.344 28.0363 142.805 28.639 142.209 28.7868C141.613 28.9347 139.95 28.3945 139.603 29.617C139.45 30.1628 140.795 34.4896 140.966 35.6438C141.074 36.3545 140.483 38.3445 141.312 38.7027L146.959 39.3907C147.288 38.0545 148.338 37.4234 149.178 36.201C150.807 33.8301 150.592 34.9047 151.738 33.7334L151.744 33.7391ZM175.406 32.2608C175.213 32.0618 175.298 31.4989 175.111 31.2715C174.214 30.1685 166.467 29.4123 164.781 29.833C163.958 30.0377 163.254 30.7427 162.539 30.9531C161.665 31.2146 160.354 30.828 159.344 31.6581C158.839 32.7327 160.048 33.4662 160.218 34.1769C160.49 35.3027 160.206 38.3388 159.809 39.4817C159.61 40.0559 157.266 43.8824 156.96 44.1951C156.614 44.5476 154.644 45.2299 154.502 45.4744C154.048 46.1453 155.569 48.141 156.114 48.05C156.829 47.942 157.073 47.2711 157.709 46.9868C159.469 46.2022 163.09 45.173 165.201 44.8831C166.342 44.7239 169.94 45.0934 170.741 44.5704C171.285 43.581 171.921 42.6258 172.483 41.6479C172.983 40.7837 174.782 37.2187 175.4 36.5535C176.212 35.6779 180.077 35.2344 177.364 33.1023C176.694 32.5792 175.593 32.4598 175.4 32.2665L175.406 32.2608ZM112.746 31.9879C110.771 32.0277 108.796 30.5608 106.894 30.6233C104.624 30.6972 99.7427 32.0902 97.5008 32.9488C95.9343 33.5515 94.26 34.4498 93 35.5244C93.3462 36.69 94.3735 36.4853 95.1454 37.088C96.9957 38.5378 97.41 40.4994 98.216 42.6145L102.058 44.2178L108.279 41.1362C109.284 39.4191 109.999 37.3097 110.924 35.5813C111.492 34.518 113.035 33.7277 112.735 31.9879H112.746ZM131.737 42.8021C132.231 41.0452 135.017 40.9656 136.482 39.9081C138.991 38.1 136.777 33.2615 136.578 30.8678L133.377 34.7455C132.617 36.7582 131.079 38.5094 130.993 40.7552C130.982 41.1021 131.158 42.785 131.731 42.8021H131.737ZM150.49 39.9422L150.155 41.682L152.601 43.3707C154.037 41.3977 155.933 40.2208 156.727 37.7646C157.125 36.5308 156.897 33.2729 154.996 34.5692C153.571 35.5415 152.226 38.9529 150.495 39.9365L150.49 39.9422ZM198.455 42.7623C198.376 42.6543 198.824 41.972 198.756 41.5399C197.916 35.9451 190.123 33.1819 185.271 35.0582C184.516 35.3481 184.357 36.2863 183.142 35.8997C183.891 39.5271 183.42 42.7339 180.906 45.6052C180.906 46.0998 183.772 45.969 184.606 46.3727C186.479 47.2768 189.641 50.546 190.384 52.519C190.759 53.5197 190.112 55.0207 191.327 54.7421C191.395 53.0023 193.512 52.1778 194.709 51.2113C195.129 50.8701 195.322 50.0912 195.515 49.9775C196.338 49.4999 197.723 50.2617 198.739 48.539C199.335 47.5269 199.954 44.0871 199.341 43.1603C199.159 42.8874 198.546 42.8703 198.467 42.7566L198.455 42.7623ZM112.377 40.5619C113.552 40.4312 114.937 41.5854 115.714 40.3288C116.492 31.0327 111.923 40.1185 112.377 40.5619ZM85.9337 37.9579C85.2639 37.2358 82.0458 37.8612 81.0071 38.0545C77.3746 38.7198 72.573 40.7325 69.7181 43.1717C69.7748 43.6152 67.9359 44.6045 68.4353 45.0366C68.8383 45.3834 69.9054 44.2861 70.3254 44.1098C70.7 43.9563 72.1189 43.8085 72.5673 43.7061C75.5698 43.0466 74.1508 43.7061 75.0135 43.9108C76.1827 44.1894 77.5846 43.7118 79.0944 44.2292C79.4349 44.3486 81.7279 46.2761 81.8414 46.151C81.8187 45.6677 81.5804 45.2356 81.7166 44.7352C81.8982 44.0871 84.1515 39.6295 84.5488 39.1689C84.8155 38.8562 86.6431 38.7141 85.9393 37.9522L85.9337 37.9579ZM174.572 45.7871C176.519 45.8781 177.517 44.6272 178.431 43.1262C178.948 42.2733 180.798 38.0545 179.6 37.5826C178.176 40.5164 174.992 42.3927 174.577 45.7871H174.572ZM92.9148 38.7994C92.3927 38.3673 90.2472 38.1967 89.5548 38.4071C89.3107 38.481 86.7283 41.193 86.4331 41.6252C85.3774 43.1603 83.5385 48.7891 84.2366 50.4664C84.5431 51.1999 85.5704 51.5581 85.5761 52.5076C86.331 52.3711 86.0415 51.9277 86.1153 51.524C86.348 50.2106 86.1323 48.0841 86.4104 47.1005C86.4729 46.8844 87.4321 46.3443 87.6591 46.0373C88.011 45.5654 87.8975 44.866 88.2777 44.3998C88.431 44.2122 92.1032 42.1084 92.4097 42.0004C93.1986 41.7218 94.05 41.6763 94.8786 41.682C94.9354 41.1419 94.3565 41.3579 94.0102 40.8576C93.664 40.3573 93.1532 38.987 92.9205 38.7994H92.9148ZM145.069 42.8703C144.229 41.591 141.266 42.3586 139.938 42.063C141.142 43.3024 143.491 42.3074 144.967 43.9222C145.319 43.8767 145.205 43.075 145.069 42.8703ZM112.252 49.0223C113.092 48.2661 115.3 44.5078 113.779 43.8312C109.17 41.7787 109.721 49.8979 110.697 49.8808C111.009 49.3009 111.923 49.3122 112.252 49.0166V49.0223ZM94.8673 44.6727C91.3029 44.9058 88.6353 47.7316 88.9077 51.3875C91.757 52.1665 90.8432 49.7841 92.6367 49.8922L92.2791 49.1758C92.8127 49.3748 94.6232 47.8567 94.7992 47.5667C94.9638 47.2938 94.5721 45.264 94.8673 44.6727ZM148.872 45.0423H148.128L148.69 45.7871L148.872 45.0423ZM107.161 48.0216L106.786 45.4118L104.93 45.7871C104.493 46.168 106.775 48.4594 107.161 48.0216ZM148.259 58.6027C148.968 58.1137 149.763 58.4378 149.99 57.1471C150.399 54.816 148.753 51.2113 147.203 49.5112C145.347 47.4758 141.176 45.3095 138.429 45.5824C136.59 45.7644 134.79 47.5383 133.247 47.8567C132.429 48.0273 131.629 47.4701 130.891 47.6293C129.983 47.8283 129.2 51.1828 129.137 52.121C130.886 51.8481 131.135 53.2922 131.867 53.8949C132.117 54.0996 132.679 53.9233 132.844 54.0143C133.054 54.1337 132.367 58.216 134.728 57.7271C133.746 59.086 135.71 58.4264 136.493 58.7278C136.947 58.8983 136.834 59.4498 137.742 59.7171C141.034 60.6893 144.337 61.0816 147.498 59.4953C147.992 59.2508 148.021 58.7676 148.259 58.6027ZM99.3398 45.7871H97.8527V48.0216C98.3125 47.7885 99.8392 46.2818 99.3398 45.7871ZM79.0263 47.8567C75.8706 44.7978 70.4673 47.2768 67.1242 49.1417C66.568 50.9725 66.9142 52.4621 68.3218 53.6277C70.5524 53.4969 74.3097 52.3086 76.4211 52.519C77.4314 52.6213 77.9649 53.7243 79.1171 52.7578C80.9163 51.2567 80.5985 49.3805 79.0263 47.8567ZM117.956 46.1624C117.099 45.9975 117.366 46.2249 117.139 46.64C116.168 48.3855 115.436 50.6939 113.677 51.7514L114.051 52.4905C114.528 51.831 115.3 51.8537 115.975 51.6036C116.1 51.5581 116.1 51.0464 116.339 51.0236C116.656 51.0009 117.059 51.3648 117.61 51.2226C120.175 50.5745 118.728 47.7146 117.962 46.1567L117.956 46.1624ZM151.846 48.0273L150.739 48.5845C151.46 48.6641 152.255 50.9952 152.408 51.0009C153.589 51.0521 151.642 48.3798 151.846 48.0273ZM166.745 48.4025C166.609 48.2547 165.598 48.1353 165.246 48.1865C164.622 48.2774 159.508 50.0286 158.816 50.3413C156.131 51.541 156.994 52.1551 156.143 54.0029C155.019 56.4364 152.919 58.813 154.9 61.383L159.991 60.6552C160.502 58.6993 159.957 56.8174 160.763 54.8785C161.075 54.1223 163.703 51.2795 164.418 50.6313C164.56 50.5005 167.335 49.0393 166.745 48.4025ZM167.863 48.0273H167.119V48.7721L167.863 48.0273ZM168.425 48.0273V48.4025C168.669 48.2774 168.669 48.1523 168.425 48.0273ZM97.6711 48.4082L97.1149 48.9654L97.2908 49.1417C97.4952 48.9029 98.04 48.6527 97.6711 48.4082ZM105.532 51.5183C103.914 50.529 103.92 48.1865 101.519 48.5958C100.367 48.7891 100.821 49.8126 100.452 50.3413C99.8903 51.143 98.0854 52.0925 98.7722 53.6049C99.5725 55.3732 104.011 57.3575 101.951 60.7007C102.552 61.2067 104.777 57.892 105.328 57.5451C105.958 57.1528 107.212 57.5281 107.433 55.9759C107.524 55.3107 106.009 52.2404 105.532 51.5183ZM175.083 61.2238C178.329 58.9097 182.864 56.516 186.871 56.8117C188.682 51.5069 181.627 47.9363 177.177 49.1473C177.864 50.8246 178.057 52.6327 177.33 54.3327C176.825 55.5267 172.432 59.3987 171.172 60.098C170.122 60.6836 164.31 62.6225 164.162 63.1626L166.064 65.8463C167.664 65.7837 170.048 65.869 171.371 64.766C171.95 64.2827 171.83 63.7084 172.233 63.2991C172.636 62.8897 174.458 61.6673 175.083 61.2238ZM96.7346 50.2674C96.0535 50.1423 95.4973 50.6768 95.6222 51.3818L96.7346 50.2674ZM174.197 51.3818C172.676 52.3086 171.853 50.7393 171.2 50.7905C169.725 50.8929 167.471 52.8715 166.365 53.7983C166.001 54.0996 165.377 54.1451 165.15 54.3441C164.106 55.2595 163.271 58.1592 163.776 59.592C164.31 59.6545 164.747 59.592 165.246 59.3873C167.505 58.4776 169.532 56.5899 171.342 55.2367C172.863 54.1053 174.81 54.4464 174.197 51.3875V51.3818ZM215.653 56.499C214.597 54.6113 214.83 54.2133 212.645 52.9738C209.478 51.1715 202.44 49.7216 200.107 53.2752C199.5 54.2019 198.013 56.9425 197.19 57.619C196.497 58.1933 194.613 57.9943 194.851 59.6375C194.88 59.8308 197.309 62.4633 197.468 62.5827C198.234 63.1626 199.636 63.4014 200.55 63.9813C201.463 64.5613 202.355 66.0396 203.756 66.2613C207.19 63.2081 211.464 62.4462 215.851 63.6345C217.202 62.4121 217.157 58.7789 216.589 57.2211C216.396 56.698 215.755 56.6638 215.664 56.499H215.653ZM95.2419 52.5019V51.7571H94.8786V52.5019H95.2419ZM64.3318 52.1267L63.2023 52.3029C62.6234 53.4912 61.9139 54.4749 61.352 55.6745C61.159 56.0839 60.8071 56.499 61.5507 56.607C62.6404 56.7605 63.5826 54.3441 65.081 54.7364L64.3318 52.1323V52.1267ZM113.12 52.5076C112.156 52.5645 110.697 53.1615 110.146 53.9916C111.622 54.0427 112.263 53.7755 113.12 52.5076ZM83.4761 54.6056C83.0788 54.1621 83.0107 53.4457 82.2217 53.6334C80.4339 56.1578 81.9833 56.8572 84.072 54.924C84.2026 54.6454 83.6747 54.8274 83.4761 54.6056ZM127.157 54.4805C125.783 52.6043 123.36 54.7193 125.777 54.3668C125.522 55.6802 126.555 57.6134 127.673 58.2672C128.019 58.4719 128.553 58.3582 128.854 58.4946C129.086 58.6027 129.836 60.2856 129.705 58.0853C127.775 57.5451 127.883 55.4755 127.157 54.4805ZM119.08 53.9973C118.433 53.5026 111.929 56.5843 111.066 57.3404C109.255 58.9268 109.88 61.4342 107.916 62.7589C108.659 62.5997 109.579 63.0091 110.214 62.8442C112.916 62.1506 116.713 58.9381 117.951 56.7037C118.41 55.8735 118.501 54.7989 119.074 53.9973H119.08ZM95.3497 58.398C95.2192 58.1308 95.7357 56.4307 94.873 55.6745C94.1351 55.1401 90.6218 54.6341 90.4118 55.6973C90.2472 56.5217 94.6913 61.0816 95.6676 61.599C95.9457 61.7469 97.4497 62.5542 97.4725 61.6502C97.4725 61.4853 96.2635 59.3475 95.9854 58.7334C95.8832 58.5117 95.3838 58.4833 95.3497 58.4037V58.398ZM123.552 58.4662C123.927 57.7669 121.975 55.2652 121.691 55.4869L120.198 59.5863C121.628 59.7284 122.037 58.0739 123.552 58.4662ZM87.7896 56.607C86.1777 56.408 81.779 59.9161 82.7496 61.4569C83.2547 62.2643 86.1266 62.7476 86.6772 63.191C87.2902 63.6857 87.4377 64.6352 87.9088 65.073C89.2369 66.2954 94.3281 66.9095 95.4405 65.1924C96.2692 63.9188 92.4437 63.1342 92.001 62.8442C91.9102 62.7873 90.6786 61.5024 90.531 61.3318C89.5151 60.1264 88.465 57.9829 87.7896 56.6127V56.607ZM77.369 58.0966C75.8081 57.6987 74.1054 59.1371 72.783 59.0973C72.5162 59.0916 69.5818 58.7732 69.4172 58.7391C68.8951 58.6254 68.424 57.7384 67.7088 57.5053C65.6145 56.8231 63.0547 58.9722 61.3974 60.1378C62.158 62.2813 64.2466 63.2252 66.4205 63.2877C66.6021 63.2877 66.5283 62.6736 66.7496 62.6282C69.9621 61.9857 71.8351 62.2643 75.2122 60.3027L77.369 58.0966ZM133.23 60.7121H132.486L133.048 61.4569L133.23 60.7121ZM79.5995 62.196L78.7255 61.1214L77.3633 62.5713L79.5939 62.196H79.5995ZM125.783 61.8322C125.04 61.7696 124.756 61.0703 123.916 61.2181C123.717 61.2522 120.573 62.6054 120.227 62.7874C119.727 63.0489 119.386 63.6857 118.853 64.0211C118.274 64.3907 117.258 64.1747 117.224 64.8058C119.063 65.6643 119.018 64.5556 119.358 64.459C121.061 63.9757 121.259 63.9359 122.707 63.3275C123.728 62.8954 125.187 62.8158 125.789 61.8322H125.783ZM191.327 61.0816H190.583V61.4455H191.327V61.0816ZM61.2044 64.5954C59.8536 63.5834 59.445 62.8954 58.5652 61.4626C56.4255 64.3054 52.0154 65.8861 52.8554 70.1617L53.7125 70.7871C54.893 70.4915 56.8341 69.5249 57.9182 69.3543C59.0023 69.1838 60.5574 69.9684 61.8572 69.3089C62.0899 70.0309 64.5248 71.3102 64.6156 71.5945C64.7064 71.8788 64.3488 74.4658 64.1331 74.8638C64.031 75.0571 61.0853 77.6725 60.8866 77.7635C59.0136 78.5879 56.329 78.5879 54.3879 77.9454C52.6625 77.3769 53.5989 77.1494 53.196 76.5695C51.7316 74.4658 50.8859 76.1942 50.2786 77.7692C49.4103 80.015 49.4046 81.9937 51.1754 83.8245C53.6954 83.2104 55.4038 81.8231 57.9977 81.0726C58.3609 80.9645 58.9455 81.3114 59.0874 81.2033C59.1782 81.1351 59.4223 80.0435 59.8706 79.5374C62.8845 76.126 66.7383 74.8638 71.137 76.3989C71.8805 76.6605 74.1565 80.305 74.3324 81.1181C74.5084 81.9311 73.6911 84.592 74.5878 84.5693C74.9908 84.5579 80.1047 79.8047 80.5871 79.2247C80.922 78.8267 80.8255 78.1103 81.0866 77.7578C81.6144 77.0414 82.9879 76.2568 83.3342 75.0571C83.6577 74.2838 81.6825 74.7444 81.5463 74.7671C78.5893 75.3357 76.2906 76.1601 73.1178 75.6029C72.5332 75.5006 69.2924 73.6925 68.9064 73.2775C68.2083 72.5156 68.7589 70.3209 68.5489 69.36L73.027 64.9365L74.7695 64.0666C71.0802 64.9024 67.5726 66.2215 63.7699 66.2386C63.0831 65.3573 62.3396 65.4369 61.2101 64.5897L61.2044 64.5954ZM75.8819 63.3161H76.4325L76.9887 62.7589L75.8819 62.9522V63.3161ZM124.909 73.2604C126.583 71.8447 130.869 65.4824 128.95 63.3275C128.553 63.6459 128.252 64.169 127.832 64.4362C124.983 66.2556 119.943 68.0125 116.566 68.4731C116.072 68.5413 115.782 68.2854 115.362 68.166L115.419 69.6045C117.281 69.7865 118.461 72.4303 118.336 74.136C120.55 73.92 123.076 74.8069 124.909 73.2604ZM161.16 65.181L158.555 64.0666C158.901 64.9024 160.337 65.2663 161.16 65.181ZM140.676 64.8115C138.065 65.0218 134.91 65.6871 132.486 64.4362C132.605 66.1988 132.588 67.552 131.368 68.9109L138.434 67.2279L140.676 64.8172V64.8115ZM85.8372 69.5647C86.7226 67.7908 82.4034 65.0446 81.132 64.9081C77.7549 64.5442 73.1576 68.5868 71.0348 70.9577C72.993 74.0848 77.8173 72.5781 80.9504 72.0266C81.3931 71.947 81.8812 72.2711 82.5736 72.1062C84.4069 71.6684 84.4182 71.1965 85.2299 69.9627C85.4172 69.6727 85.8088 69.6273 85.8372 69.5647ZM154.088 65.1867C153.923 65.0332 150.575 64.8854 150.098 65.0787C148.821 65.6018 146.233 69.1781 144.581 70.3948C143.968 70.8497 140.035 72.5213 140.682 73.3798C143.628 74.8808 145.325 74.625 148.486 74.1133C148.628 72.2597 149.173 70.4631 150.211 68.9336C150.983 67.7908 152.357 66.7219 153.549 65.96C153.742 65.8349 154.786 65.8406 154.094 65.1867H154.088ZM112.002 65.1867H111.259V65.5506H112.002V65.1867ZM174.969 68.9563C174.941 70.861 176.882 71.1851 178.409 70.7075C179.141 70.4744 179.26 69.5875 179.816 69.1383C180.878 68.2854 183.312 68.0637 184.243 66.4831C181.025 66.6764 177.937 67.751 174.969 68.9507V68.9563ZM213.672 66.6764C210.948 67.0914 209.495 66.9948 207.077 68.4617C206.821 68.6209 206.384 68.3593 206.634 69.0587C206.776 69.4567 207.69 70.7815 208.206 70.7416C209.024 70.6791 209.676 69.0303 211.027 69.0985L213.666 66.6821L213.672 66.6764ZM193.188 67.7965C189.919 68.0466 186.86 69.3543 183.88 70.5881C184.362 71.3216 184.686 70.9748 185.288 70.9179C186.008 70.8497 187.972 70.4858 188.642 70.2754C188.727 70.247 189.879 69.849 190.101 69.758C190.878 69.4283 192.507 68.3935 193.194 67.8021L193.188 67.7965ZM163.022 69.2918C157.817 66.8015 159.633 70.1731 157.652 72.3052C157.102 72.8965 156.421 72.8397 156.063 73.141C155.598 73.5333 155.444 74.4658 154.451 74.6989C156.608 76.5297 158.453 74.0394 160.802 74.6989L163.016 69.3032L163.022 69.2918ZM220.653 69.758C220.528 69.6273 217.713 68.4048 217.293 68.5868C216.351 68.7801 215.034 71.242 214.705 71.4296C214.274 71.6798 213.343 71.4637 212.639 71.7878C211.685 72.2256 211.572 73.7778 210.323 73.7608V74.3123C211.907 74.9093 211.192 75.6712 211.606 76.7514C211.833 77.3484 212.406 77.7066 212.542 78.4344C212.843 80.0264 212.219 80.9247 211.816 82.3348C213.258 82.7271 214.938 81.4933 216.084 81.3967C218.916 81.1579 220.886 83.3014 222.895 79.4465C224.541 76.2966 224.376 74.4544 222.242 71.7082C222.021 71.4183 220.75 69.849 220.659 69.758H220.653ZM89.2824 68.9165H88.5388V69.2804H89.2824V68.9165ZM94.2202 71.6172C94.5381 71.2363 96.3827 70.7985 96.7289 69.8376L95.8492 68.9563C94.0954 69.9684 92.0918 71.4751 90.3664 72.4189C89.6059 72.834 88.0337 72.8965 87.4264 73.5731C87.2391 73.7778 86.4331 75.512 85.945 76.2738C85.2299 77.3826 84.6736 78.5993 83.7031 79.5431C85.4683 80.4415 86.2856 79.5431 87.1312 81.7037C89.5321 87.8442 84.1799 94.6102 83.1525 100.626L78.8617 111.429C80.3317 111.628 80.1274 110.53 80.4793 110.087C82.1309 108.006 84.6623 105.8 86.1266 103.571C86.6148 102.832 86.3253 102.212 86.3764 102.161C86.5637 101.968 87.3526 101.928 87.784 101.535C88.6353 100.751 89.8045 98.522 90.6218 97.6578C93.3746 94.7524 99.9584 89.6864 103.438 87.7988C104.272 87.3439 106.366 87.577 106.792 85.877L101.44 85.6609C96.6495 85.4506 90.4005 80.6746 92.2564 75.421C92.3586 75.1367 94.0954 71.7821 94.2316 71.6172H94.2202ZM104.834 69.0303C104.017 69.1497 100.378 70.7303 100.146 71.3955C99.4873 73.2888 101.082 76.3989 102.978 77.013C106.315 78.099 110.351 77.6896 113.109 75.438C113.109 75.2504 111.242 73.7494 110.93 73.1524C110.373 72.1005 110.527 70.1219 109.755 69.4737C108.983 68.8256 105.821 68.8824 104.828 69.0189L104.834 69.0303ZM155.575 68.9165C153.554 68.9279 152.72 71.1908 151.852 72.6407L155.325 70.0309L155.575 68.9222V68.9165ZM136.584 71.1453L136.402 70.4119C135.279 70.9577 133.599 71.1169 132.861 72.2654L136.584 71.1453ZM190.214 73.7608C190.941 73.1922 195.606 72.2825 195.424 71.3443C195.334 70.8554 194.477 70.6109 194.04 71.0657L190.22 73.7608H190.214ZM166.745 71.151L165.678 71.2022L165.258 72.2654C165.945 72.3564 166.353 72.2882 166.745 71.7025V71.151ZM54.876 74.2668C56.8568 77.0073 59.8706 75.313 61.7209 73.2036C60.7788 71.731 59.8933 72.6009 58.5539 72.6691C56.8171 72.7601 56.4993 72.4019 54.6603 73.5788C53.7238 74.1758 54.7398 74.0735 54.876 74.2611V74.2668ZM170.843 72.6464C169.906 72.5497 169.583 73.2377 169.73 74.136L170.843 72.6464ZM100.197 79.2475L97.9038 76.1317L96.7346 73.3912C95.8549 75.2106 94.2827 76.1829 95.1738 78.497C95.9741 80.5779 96.8481 79.998 97.3873 80.5893C97.5519 80.7712 97.3987 81.3171 97.5576 81.4876C99.879 84.0348 112.695 82.0676 115.544 79.7364L119.818 77.121C116.463 75.9441 116.685 77.6214 114.812 78.6277C113.79 79.1792 112.332 79.6284 111.514 79.8672C107.428 81.0385 104.119 81.0669 100.197 79.2418V79.2475ZM138.003 74.1986C137.049 73.63 135.369 75.0344 134.524 75.2845C133.286 75.6484 129.677 76.126 128.751 76.9277C127.957 77.6157 127.991 83.0853 128.195 84.2225C128.263 84.6148 128.224 85.4278 128.757 85.3255C128.899 83.6937 129.688 82.3462 130.795 81.2147C131.578 80.4187 134.694 78.423 135.67 78.2638C136.646 78.1046 138.179 78.1501 139.178 78.4572C140.585 78.8836 140.483 80.4756 141.721 80.9304C141.238 82.0846 141.845 83.5117 141.732 84.3248C141.482 86.0533 137.742 90.255 136.102 91.0055C134.138 91.9038 133.44 91.341 131.833 91.3694C130.114 91.4035 131.158 95.6223 133.848 95.2982C137.01 94.9173 135.954 93.8484 136.845 91.7731C137.912 89.2827 141.204 90.9543 140.585 93.3423C140.529 93.5698 137.923 96.7992 137.657 97.0494C135.534 99.0167 131.096 98.7324 129.353 96.4865C127.259 93.7858 128.507 91.7162 127.543 89.351C127.264 88.663 126.583 88.3616 126.248 87.6623C124.75 84.5636 124.767 81.1408 125.136 77.7919C125.187 77.32 125.851 77.0528 124.852 77.1324L119.108 81.4933C119.687 84.1542 121.855 84.9616 120.709 87.9011C119.449 91.1363 116.883 91.8129 115.147 93.8995C112.814 96.7026 111.049 99.0053 108.046 101.319C106.741 102.331 104.272 103.287 103.04 104.526C101.497 106.084 98.0287 110.883 96.7857 112.81C96.326 113.521 96.0081 114.249 95.6165 114.993C96.973 114.726 97.5292 113.373 98.3806 112.537C98.9425 111.98 99.8392 110.752 99.9528 110.689C101.78 109.717 105.044 109.149 107.03 108.336C110.623 106.869 125.017 105.225 129.171 106.056C130.346 106.289 132.208 107.494 133.786 107.352C134.666 107.272 134.615 106.374 135.108 106.061C141.005 102.292 147.141 104.515 153.543 105.442C157.204 105.97 161.444 106.317 164.588 107.062C166.529 107.522 168.93 108.341 170.44 109.416C170.911 109.751 171.297 110.792 172.143 111.065C171.285 109.149 169.736 106.698 168.181 105.339C164.98 102.547 161.869 99.7729 158.623 96.9016C153.94 92.751 151.823 91.9607 150.183 85.3141C150.053 84.791 149.428 84.5409 149.417 83.8188C149.383 81.9595 150.666 80.5552 151.528 79.0712C153.083 78.7926 155.104 79.1735 156.5 79.003C157.045 78.9347 157.641 78.7016 157.051 78.2525C154.514 79.1338 151.75 77.104 149.786 77.1267C148.231 77.1494 145.909 78.0648 143.86 77.8829C142.22 77.7351 140.126 77.0471 138.934 75.8872C138.519 75.4835 138.173 74.3123 137.997 74.2099L138.003 74.1986ZM169.356 74.5113C167.42 73.9427 168.011 75.9384 166.387 75.8133L168.612 77.121L169.361 74.5113H169.356ZM174.305 75.512C174.072 75.3755 174.328 74.7614 174.01 74.8865C173.147 75.6825 172.205 76.5468 172.336 77.8658C174.106 78.2638 174.231 76.7116 175.31 75.8133C175.23 75.4494 174.68 75.728 174.305 75.512ZM196.911 75.2561C196.503 74.8979 188.977 77.8317 187.603 77.6782C188.506 78.9461 189.334 77.7806 190.038 77.701C192.252 77.4508 195.986 77.7692 196.911 75.2561ZM167.364 80.2481C166.648 79.9866 165.791 80.0264 165.144 79.6625C164.253 79.1679 163.833 77.6043 162.074 77.502C161.688 77.4792 157.471 78.3776 157.817 78.9802C158.464 79.509 159.503 79.6455 160.03 79.9411C160.36 80.1231 160.36 80.7485 160.882 80.9816C161.404 81.2147 162.323 81.0783 162.596 81.3057C162.726 81.4137 162.556 82.005 162.897 82.3632C165.644 85.2629 176.416 90.5279 178.147 93.2855C178.97 94.5932 179.521 96.0317 180.514 97.3507C181.139 98.1809 182.875 98.7494 182.018 100.245L183.074 100.29C183.352 100.575 183.778 104.174 184.175 104.992C184.669 105.999 186.252 107.636 187.013 108.859C187.683 109.928 187.791 112.333 189.84 112.179C189.192 110.53 189.09 108.705 188.455 107.051C186.031 100.717 181.173 93.3025 180.645 86.3375C180.514 84.6034 181.042 83.5857 180.98 82.3917L181.615 82.3177L181.644 81.7833C181.553 81.5502 179.141 80.0946 178.857 80.1003C178.272 80.1003 177.801 80.8395 177.222 81.0043C173.255 82.1187 170.888 81.5445 167.364 80.2481ZM186.672 77.4906V77.8658C186.916 77.7408 186.916 77.6157 186.672 77.4906ZM69.8202 79.0826C66.4999 77.7635 64.3658 79.4806 61.7777 81.2886C61.369 82.386 62.8447 84.5579 62.8447 85.1435C62.8447 85.7747 61.9877 86.0419 62.2772 86.4513C64.7745 88.157 68.2878 87.3098 70.9497 86.3546C71.8011 83.6994 71.3243 81.3739 69.8259 79.0883L69.8202 79.0826ZM209.018 78.6107V78.9859C209.262 78.8608 209.262 78.7358 209.018 78.6107ZM209.018 79.7307V80.106C209.262 79.9809 209.262 79.8558 209.018 79.7307ZM204.069 82.2268C203.949 82.1585 203.836 81.5729 203.365 81.3C202.411 80.7428 200.334 81.4649 199.227 81.8515C198.245 82.1927 197.104 83.182 195.243 83.3753C194.267 83.4776 190.594 82.8067 190.589 83.6482C191.605 85.1208 193.058 86.582 193.954 88.1058C195.402 90.5677 197.4 95.0367 198.353 97.5725C198.841 98.8745 201.038 107.682 201.566 107.699C203.966 105.515 206.725 105.993 209.415 105.299C210.255 105.083 214.608 102.889 215.068 102.371C215.233 102.184 215.091 101.666 215.255 101.484C215.573 101.132 217.407 101.007 217.407 99.6819L216.657 98.7551C216.481 100.364 214.631 100.29 213.7 100.836C211.85 101.928 210.079 103.264 208.03 104.105C205.862 104.998 204.381 105.373 202.042 104.611C200.226 104.02 200.289 102.911 200.663 101.234C201.066 99.4488 202.298 98.4936 203.705 97.4076C205.505 96.026 205.425 96.424 207.258 95.8838C209.092 95.3437 210.159 94.5591 212.321 94.2122C214.092 93.928 215.324 94.3373 217.021 94.0928C218.241 91.7276 220.999 90.3801 220.364 87.3894C219.847 86.3944 219.603 87.7817 219.353 87.9239C217.548 88.9416 215.136 90.164 213.127 90.9373C211.844 91.4319 209.625 92.0517 208.325 91.6025C208.178 91.5513 206.549 89.6352 206.452 89.4362C205.913 88.2764 206.583 86.0248 207.463 85.081L210.306 83.0853C209.211 83.3469 206.628 83.5857 205.732 83.0853C205.505 82.9602 205.453 82.4599 205.198 82.3177C204.755 82.0676 204.262 82.3405 204.057 82.2211L204.069 82.2268ZM136.005 87.361C138.27 85.6894 139.836 80.3732 136.016 81.5843C135.46 81.7605 133.213 82.9204 132.878 83.29C132.724 83.4606 131.01 86.8151 130.988 87.0255C130.766 89.277 134.756 88.2821 135.999 87.361H136.005ZM158.816 83.2104C157.289 82.3917 154.633 81.5161 153.021 82.386C152.59 83.0683 153.889 86.6844 154.332 87.5088C155.462 89.6409 157.414 90.7838 158.85 92.4838L158.572 93.132C160.303 93.1774 161.659 95.7303 162.545 96.5377C163.339 97.2598 165.933 98.2207 166.682 98.8063C166.785 98.8859 166.745 100.41 167.761 101.012C168.896 101.689 169.577 101.098 170.877 102.673C173.062 105.322 177.245 111.309 178.199 114.709C178.471 115.687 178.851 116.847 178.67 117.87C177.54 119.633 175.389 119.133 174.106 117.791C173.141 116.784 171.745 114.812 170.525 113.834C164.946 109.342 159.145 109.655 152.521 108.739C149.144 108.273 145.143 106.965 141.63 107.17C140.682 107.227 138.207 107.915 137.509 108.432C136.692 109.035 137.43 110.911 137.867 111.679C138.491 112.77 143.997 114.874 145.393 115.13C146.307 115.301 147.521 114.954 148.293 115.221C148.787 115.391 148.707 116.136 149.167 116.284C152.907 117.49 156.863 117.319 160.632 117.774C161.852 117.922 162.959 118.496 164.162 118.729C164.651 118.826 165.224 118.485 165.264 118.53C165.349 118.632 165.247 119.286 165.479 119.616C165.894 120.219 166.688 120.122 167.057 120.48C167.358 120.776 167.386 121.515 167.914 122.044C168.538 122.664 169.725 122.817 170.02 123.113C170.179 123.272 172.199 126.632 172.324 126.956C173.062 128.832 172.54 131.562 170.292 131.931C166.262 132.591 162.795 129.958 159.032 129.452C156.29 129.083 154.763 129.856 152.55 131.329C149.962 133.051 141.215 140.585 139.218 142.956C136.698 145.941 137.861 146.811 137.356 150.228C138.514 149.898 139.467 150.467 140.727 150.063C141.039 149.961 146.091 147.152 146.477 146.873C147.867 145.878 150.007 142.234 151.318 140.915C152.856 139.368 156.12 139.243 156.716 136.23C154.412 134.677 157.136 131.761 159.349 133.688C160.013 134.928 159.548 136.053 159.349 137.316C159.576 138.185 161.977 137.657 162.778 137.918C163.169 138.049 163.141 138.686 163.674 138.953C165.661 139.954 165.519 139.027 167.681 140.915C170.406 143.297 172.812 145.816 175.701 147.436C176.053 147.635 176.984 149.216 177.841 149.437C180.27 150.063 181.224 143.689 184.249 145.037C185.061 145.594 183.721 149.176 183.312 149.818C182.96 150.37 181.275 151.41 180.968 151.934C180.072 153.48 180.497 154.89 178.511 156.573C177.886 157.102 170.729 161.11 170.139 161.264C168.845 161.599 166.472 162.191 164.929 162.361C163.691 162.492 161.733 162.281 160.451 162.168C160.218 162.492 162.743 165.937 159.418 166.193C157.028 166.381 157.965 164.897 157.749 164.317C156.455 160.871 155.195 161.241 152.368 159.803C150.461 158.836 147.964 157.682 146.034 156.454C145.773 156.289 145.694 155.589 144.916 155.152C144.451 154.89 141.301 153.759 140.841 153.616C140.739 153.582 138.82 153.582 138.724 153.616C137.549 154.009 137.889 157.096 138.321 158.034C138.434 158.279 139.989 160.735 140.194 161.002C141.704 162.981 143.599 164.573 145.654 165.608C147.572 166.569 150.592 167.694 152.17 168.593C152.414 168.729 152.629 169.781 153.64 170.287C155.081 171.003 157.664 171.526 159.225 172.152C160.144 172.516 160.814 173.414 161.461 173.642C165.451 175.012 170.156 176.001 173.351 179.083C174.481 180.174 176.604 183.91 177.421 184.518C179.266 185.894 182.302 187.043 184.152 187.867C185.061 188.277 184.839 188.203 185.668 188.663C186.383 189.061 188.341 189.613 188.648 189.869C188.841 190.028 191.122 193.991 191.19 194.235C191.253 194.457 191.224 196.521 191.179 196.873C190.691 200.683 189.192 204.259 187.739 207.591C183.454 217.41 181.581 229.077 180.225 239.613C179.754 243.28 178.607 246.402 178.147 249.654C177.54 253.963 177.886 258.142 177.046 262.475C174.691 274.614 172.364 286.833 169.736 298.863C168.084 306.425 169.583 317.797 174.254 324.119C174.702 324.728 178.125 327.599 178.687 327.952C178.959 328.128 181.417 328.151 181.865 328.247C182.058 328.287 182.047 329.202 184.113 328.924C185.634 328.719 186.128 327.741 186.826 327.463C188.755 326.684 191.576 326.206 193.313 325.45C194.573 324.904 202.621 317.376 203.439 316.199C203.983 315.409 203.825 314.113 204.216 313.612C204.511 313.237 205.158 313.442 205.516 312.97C207.508 310.326 209.313 303.759 210.851 300.501C213.008 295.93 213.184 294.918 214.631 290.113C217.265 281.369 219.586 272.976 218.536 263.851C219.921 263.436 218.945 262.754 218.979 261.616C219.019 260.132 219.728 259.251 219.876 258.069C220.409 253.81 220.795 248.21 220.426 244.082C220.358 243.314 219.91 240.198 219.575 239.857C219.036 239.311 217.895 239.823 217.81 238.055C217.713 235.997 220.142 234.257 217.537 232.506C217.776 231.539 218.678 230.862 218.877 229.885C219.229 228.179 218.712 222.954 218.718 220.691C218.735 214.863 218.587 209.979 219.268 204.123C219.807 199.46 219.79 195.622 220.017 191.097C220.335 184.717 221.459 180.635 218.894 174.42C216.198 167.882 214.943 158.967 212.497 151.655C211.93 149.961 210.908 147.277 210 145.685C205.993 138.686 204.42 129.429 201.202 121.538C200.89 120.19 200.93 117.683 200.612 116.568C200.169 115.033 196.582 115.602 196.264 113.43C196.026 111.798 198.013 111.912 198.484 111.207C198.87 110.633 197.655 106.636 197.349 105.663C195.419 99.4715 192.325 91.5286 188.216 86.4569C187.722 85.8486 186.332 81.2431 184.851 83.1194C184.635 83.3923 183.982 85.4961 183.976 85.9054C183.954 87.3269 185.282 91.4604 186.02 92.7738C187.075 94.6557 186.638 95.0139 187.138 96.0601C187.427 96.6571 188.12 96.623 188.313 97.1574C188.636 98.0558 188.426 99.824 188.835 100.751C189.107 101.371 189.771 101.388 190.038 101.78C190.509 102.474 190.452 104.071 190.912 105.009C191.905 107.045 191.667 105.692 192.184 108.205C192.371 109.114 193.194 109.928 193.347 111.144C193.421 111.741 193.114 114.891 192.819 115.323C191.185 117.723 185.764 114.493 184.652 112.77C181.649 108.131 180.537 102.82 177.336 98.8347C176.343 97.5952 176.422 97.1745 175.701 96.0771C173.442 92.643 169.146 91.7162 166.41 89.2486C166.013 88.8904 166.194 88.3105 165.746 87.9636C165.184 87.5315 163.788 87.5031 163.328 87.2302C162.324 86.6332 160.292 84.0178 158.839 83.2388L158.816 83.2104ZM82.795 91.8982C83.4761 90.2379 86.0642 84.9389 84.2763 83.4151C82.2331 81.6696 80.3828 86.7583 79.7357 87.8329C78.5155 89.8684 77.1192 92.1654 75.7287 94.3146C74.6162 99.5511 71.3413 105.368 70.0643 110.32C69.894 110.974 70.28 111.707 70.2346 111.764C68.9235 113.6 68.8099 114.254 67.8053 116.284C60.4552 131.215 57.5266 147.828 52.6738 163.356C48.5078 176.678 46.0162 189.181 47.174 203.332L47.9005 203.725C49.1832 221.618 50.9143 239.084 51.3684 257.091C51.6976 270.105 49.1832 284.251 53.0427 296.743C54.1949 300.484 61.1193 316.25 63.4464 318.11C65.5577 319.793 64.7745 319.821 66.2048 321.896C69.3491 326.451 75.1441 329.43 79.4974 331.494C83.0788 333.194 87.1823 334.951 91.144 333.108C92.1372 332.648 92.2791 331.96 92.7502 331.625C93.261 331.266 94.1578 331.34 94.7084 330.783C95.3554 330.129 95.0603 329.418 95.3384 328.986C96.0649 327.849 96.4508 327.366 97.2681 325.888C97.6541 325.188 98.9141 323.898 98.9481 323.767C103.432 306.949 97.6143 287.629 93.1986 271.441C90.5821 261.85 89.5945 252.394 87.6421 242.723C86.8077 238.595 84.7474 235.206 84.3672 231.346C83.4817 222.362 80.1047 213.112 79.0263 204.117C78.8844 202.934 79.4349 201.149 79.0547 199.801C78.7709 198.789 77.5449 198.67 77.8798 196.453C78.7993 190.42 86.8077 184.541 90.9737 180.442C91.7116 179.714 92.5459 178.816 92.9205 178.452C93.7605 177.633 95.3157 175.529 96.0592 174.938C96.7289 174.403 106.65 172.499 108.37 172.135C110.09 171.771 110.566 171.981 111.719 171.794C116.299 171.049 127.673 162.93 130.976 159.336C132.265 157.938 131.913 158.734 132.878 156.846C133.02 156.567 133.485 156.584 133.565 156.312C133.655 155.987 133.309 154.737 133.627 154.179C133.536 153.798 131.016 153.128 130.42 153.264C129.586 153.457 129.188 154.088 128.496 154.248C127.656 154.441 126.776 154.174 126.033 154.327C125.516 154.43 122.412 157.636 121.787 158.068C120.817 158.734 117.758 160.07 116.543 160.559C115.748 160.877 114.483 160.843 113.875 161.241C112.678 162.031 113.722 166.563 110.737 165.915C110.595 165.886 109.528 163.72 109.528 163.464C109.528 162.753 110.81 161.679 110.51 160.667C109.409 160.633 108.5 161.082 107.365 161.048C103.841 160.94 93.874 157.869 90.7013 156.147C88.8226 155.129 87.2504 153.412 85.1391 152.297C84.3728 151.894 82.7325 152.104 83.3569 150.097C84.0663 147.8 87.6818 150.637 87.9429 150.609C90.3948 150.336 91.0305 148.363 92.6197 147.038C94.7992 145.23 98.1819 142.654 100.492 141.119C102.041 140.09 106.673 138.413 107.53 137.35C108.052 136.696 108.035 132.631 110.249 134.154C111.872 135.274 109.193 138.066 111.548 139.368C115.362 141.472 118.984 143.78 123.025 146.06C124.455 146.868 129.137 149.779 130.227 150.063C130.959 150.256 132.248 149.608 133.241 150.063C134.91 147.698 131.992 146.299 130.63 144.713C127.174 140.693 123.91 136.338 119.841 133.228C118.7 132.358 116.764 131.596 115.357 131.363C110.163 130.504 107.666 132.221 103.182 132.648C100.248 132.932 97.5803 132.432 97.1262 129.122C101.105 125.461 102.62 121.441 108.262 119.804C112.984 118.433 117.746 117.632 122.508 116.17C124.262 115.63 128.11 114.379 129.597 113.572C130.38 113.146 130.375 112.469 130.829 111.804C131.005 111.542 131.595 111.468 131.657 111.36C132.333 110.183 129.784 109.336 128.91 109.205C124.966 108.614 116.293 109.251 112.36 110.081C107.11 111.184 101.343 112.651 98.1649 117.16C96.3316 117.546 95.083 120.782 93.0056 119.821C90.9964 118.894 91.9954 117.484 92.0862 116.477C92.1373 115.869 91.5981 115.102 91.967 114.487C92.0578 114.334 92.6367 114.271 92.7786 114.021C95.5143 109.296 98.9652 103.963 103.29 100.285C105.038 98.7949 108.364 97.1063 110.107 95.5484C111.083 94.6785 111.809 92.8477 112.479 92.1426C114.074 90.4483 114.789 91.6309 115.822 88.7483C116.026 88.174 119.114 86.9232 117.576 84.575C116.912 85.1492 116.095 84.9957 115.465 85.2459C110.317 87.2586 105.095 91.0624 100.884 93.4845C92.6481 98.2263 89.3845 104.68 83.4874 111.411C82.795 112.202 81.9323 113.282 81.3363 113.93C80.1104 115.261 76.5346 116.455 75.916 114.152C75.8592 113.942 76.1771 110.235 76.2565 109.774C76.4381 108.711 78.3055 105.726 78.8617 104.179C80.3431 100.046 81.342 95.4006 82.778 91.8982H82.795ZM57.6287 84.575C57.0271 83.9609 53.7919 86.1101 53.1676 86.6275C54.439 88.2991 56.1701 88.555 57.9749 87.5202L57.6287 84.575ZM107.723 85.3255V85.7007C107.967 85.5757 107.967 85.4506 107.723 85.3255ZM215.534 85.3312C214.824 85.2857 209.432 87.361 210.323 88.3105C211.878 86.7355 214.523 87.3951 215.534 85.3312ZM77.3633 86.076C73.9124 86.9459 73.9919 89.1918 72.6694 91.6252C71.5059 93.7688 69.4116 97.2711 67.9245 98.9996C66.778 100.33 64.1161 101.405 63.1399 103.122C61.6358 102.997 59.8252 103.4 58.3382 102.991C53.0427 101.53 56.0452 91.7788 53.9168 90.4028C53.7238 90.2777 52.146 89.9821 51.5954 89.7603C51.2492 89.6239 51.113 88.5777 49.8076 89.0553L50.1254 89.7433C48.9505 90.2095 47.0037 92.4781 47.1797 93.6835C47.2137 93.9223 47.8324 93.8597 47.8835 94.0815C47.9402 94.326 47.56 95.537 47.6791 96.225C48.014 98.1411 48.7575 98.8973 49.433 100.154C50.307 101.786 49.1605 100.933 50.8178 102.189C51.113 102.411 51.0676 103.088 51.4422 103.469C54.2971 106.374 59.0931 107.653 63.0434 107.522C63.8664 107.494 66.778 106.323 67.5159 105.857C67.8224 105.663 70.0359 103.781 70.0983 103.622C70.2686 103.179 69.8259 102.536 69.9167 101.996C69.9564 101.751 71.1994 98.4708 71.5059 97.5384C72.8 93.5925 74.5197 90.7838 76.2395 87.3439C76.6425 86.5422 77.1476 86.6787 77.369 86.076H77.3633ZM62.3453 89.5955C58.7355 88.6289 60.529 89.8399 57.606 91.1476C57.0952 91.864 57.2655 94.8661 57.4074 95.8952C57.8671 99.2896 58.4574 101.643 62.192 99.7729C65.2172 98.2605 65.9607 96.5604 67.6748 94.0758C67.9416 93.6892 68.5545 93.6721 68.827 93.2684C68.9291 93.1206 70.2629 90.164 70.3027 89.9878C70.4275 89.4021 70.331 89.3737 69.7975 89.4817C68.4467 89.749 67.2661 90.3516 65.7734 90.3346C64.6042 90.3232 63.0661 89.7831 62.3453 89.5898V89.5955ZM210.692 98.3855C209.001 98.3685 208.121 99.0053 206.969 100.057L208.569 100.159L210.692 98.3855ZM206.594 100.25C206.14 100.165 204.687 100.796 205.107 100.99C205.561 101.075 207.014 100.444 206.594 100.25ZM138.673 116.062C136.908 115.033 136.113 114.226 134.904 112.56C134.024 113.197 133.638 114.26 132.832 114.954C128.672 118.575 119.012 120.099 113.489 121.691C112.735 121.907 111.9 122.703 111.265 122.834C110.447 123.005 109.987 122.516 108.756 122.908C108.069 123.124 105.549 124.597 104.947 125.074C103.614 126.143 103.188 127.735 101.599 128.27L101.945 129.708C103.494 128.935 105.753 129.014 107.621 128.565C107.944 128.486 107.768 127.911 108.432 127.815C111.753 127.36 118.609 128.633 121.487 130.47C124.83 132.602 128.927 137.48 131.561 140.511C131.896 140.898 134.49 144.406 134.705 144.258C134.83 143.536 135.398 142.888 135.829 142.313C139.479 137.469 145.739 132.335 151.068 128.753C151.795 128.27 152.272 127.349 152.981 126.939C154.832 125.876 158.504 126.035 160.592 126.348C162.925 126.695 165.468 128.025 167.449 128.395C167.869 128.474 168.192 128.247 168.59 128.207C169.044 126.126 167.244 125.83 166.501 125.091C160.706 119.315 160.104 122.459 153.549 120.719C152.198 120.361 150.382 119.286 149.315 118.991C145.404 117.905 142.339 118.217 138.656 116.062H138.673ZM163.022 141.654C161.461 140.852 157.868 140.67 156.296 141.443C153.038 143.041 151.948 146.271 149.264 148.562C148.758 148.994 147.674 149.932 147.198 150.233C146.38 150.751 144.859 150.728 144.399 151.712C147.464 152.206 148.951 154.617 151.948 155.908C152.641 156.203 153.276 156.05 153.81 156.221C154.048 156.3 154.173 156.971 155.019 156.931C154.332 155.561 153.14 154.958 152.686 153.309C152.181 151.479 152.521 147.669 153.816 146.236C154.116 145.901 158.407 143.331 159.043 143.069C160.502 142.467 162.153 142.939 163.022 141.659V141.654ZM111.628 143.138C110.407 141.239 108.268 141.392 106.31 141.762C104.516 142.097 97.9549 146.35 96.2635 147.629C95.5824 148.147 91.1553 152.229 91.1497 152.656C91.8762 153.23 92.8354 153.838 93.664 154.236C96.3997 155.544 99.1525 155.885 101.604 156.402C102.036 156.493 102.297 156.863 102.683 156.948C102.836 156.778 101.792 154.828 101.576 154.503C101.025 153.668 100.208 154.344 100.452 151.939C100.64 150.097 101.894 146.998 103.103 145.617C104.448 144.082 109.488 142.387 111.622 143.143L111.628 143.138ZM112.746 143.143H112.002V143.888H112.746V143.143ZM165.071 143.138V143.513C165.315 143.388 165.315 143.263 165.071 143.138ZM125.783 151.342L124.795 150.279L113.302 144.263C114.114 145.895 115.323 146.572 115.788 148.488C115.998 149.358 116.242 152.951 115.924 153.577C115.521 154.361 112.984 155.379 112.445 156.545L106.792 157.682C110.249 157.756 113.143 158.324 116.435 157.09C118.842 156.192 121.231 154.515 123.132 152.957C124.058 152.201 124.228 150.921 125.783 151.337V151.342ZM170.235 157.085C171.217 156.619 177.046 153.98 176.802 153.031C175.826 151.752 173.737 151.132 172.733 150.393C172.046 149.887 171.348 148.278 170.105 147.993C170.27 149.921 170.621 151.035 169.361 152.678C169.106 153.008 168.442 153.099 168.323 153.304C168.107 153.679 168.38 154.35 168.187 154.64C168.107 154.765 166.047 156.357 165.916 156.425C165.439 156.664 160.797 158.159 160.223 158.233C158.396 158.478 157.255 157.5 155.586 157.125C156.727 159.188 160.309 159.285 162.488 159.194C165.689 159.058 167.585 158.347 170.241 157.085H170.235ZM105.299 156.943L103.063 156.567L104.806 157.625L105.299 156.943ZM106.417 157.318H105.674V157.682H106.417V157.318Z" fill="black"/>
<path d="M143.043 174.705C143.837 175.239 145.035 175.921 145.722 176.689C148.758 180.106 150.643 185.388 150.637 189.88C150.637 190.869 149.82 191.722 149.683 192.564C148.509 199.904 148.883 210.621 148.838 218.263C148.838 219.059 148.111 219.872 148.696 220.742C148.86 220.986 149.428 221.015 149.536 221.163C149.797 221.527 149.666 227.008 149.752 227.946C150.126 232.091 151.057 236.651 150.904 240.909C150.853 242.319 148.86 246.947 147.839 247.959C145.892 249.893 143.996 249.313 142.997 249.91C142.822 250.012 142.833 250.626 142.294 250.865C141.999 250.99 136.374 252.082 136.056 252.082C135.642 252.082 133.701 251.729 133.337 251.575C133.229 251.53 131.629 250.285 131.567 250.188C130.778 249.023 131.584 247.431 128.791 247.038C128.53 246.998 124.58 247.846 123.762 247.993C123.223 248.09 122.837 248.522 122.309 248.613C121.572 248.738 119.829 248.079 119.182 247.669C118.932 247.516 116.793 245.52 116.696 245.372C115.402 243.314 113.347 237.97 113.115 235.462C112.967 233.825 113.535 231.573 113.041 229.947C112.882 229.413 112.133 229.106 112.048 228.702C111.945 228.207 114.335 220.674 114.522 218.979C114.823 216.335 114.426 212.788 114.426 210.098C114.426 208.313 115.623 206.096 113.853 204.509L114.613 203.781C111.582 199.068 111.701 195.145 113.03 189.869C113.132 189.453 112.734 188.913 112.814 188.72C112.831 188.675 113.364 188.663 113.591 188.197C115.181 184.882 117.088 180.487 120.544 178.946L120.187 178.236C121.929 177.496 125.244 176.99 126.867 178.042C127.866 178.696 128.07 179.958 129.665 179.725C130.823 179.56 132.577 176.069 133.298 174.932C135.698 174.034 139.808 172.692 142.384 173.886C142.736 174.051 142.753 174.523 143.037 174.716L143.043 174.705ZM145.154 203.565C146 203.383 145.71 202.843 145.779 202.366C146.255 199.04 146.67 194.969 146.857 191.751C147.05 188.35 147.26 185.178 145.535 182.108C145.154 181.425 142.81 178.287 142.305 177.883C140.472 176.433 138.326 176.496 136.221 177.275C132.849 178.526 133.791 183.114 129.637 183.313C126.248 183.478 125.635 178.503 121.872 181.567C117.86 184.837 116.27 188.766 115.572 193.132C115.447 193.934 114.982 194.724 114.971 195.56C114.92 198.249 117.451 201.331 117.224 203.929C117.894 204.418 117.865 203.889 117.956 203.372C118.387 200.967 118.853 197.63 119.681 195.395C120.624 192.854 122.928 191.864 123.564 189.215L121.112 187.907C120.522 186.48 121.623 184.888 123.223 185.11C124.625 185.303 125.096 187.191 126.685 187.156C127.628 186.099 129.597 184.945 131.135 185.041C132.282 185.115 134.336 185.94 135.613 185.564C136.26 185.377 138.99 180.868 140.597 182.767C141.737 184.12 139.569 186.213 138.48 186.957C138.48 187.219 140.432 189.254 140.767 189.863C142.084 192.251 143.957 196.083 144.615 198.698C144.905 199.858 144.842 202.241 145.16 203.554L145.154 203.565ZM135.006 193.035L136.056 189.755C134.512 188.515 132.849 188.464 131.005 188.271V193.121C132.015 192.547 134.433 193.763 135.012 193.035H135.006ZM126.895 191.262C126.01 190.352 124.092 195.162 124.29 195.361L126.464 194.559L126.895 191.262ZM140.301 196.475C137.032 197.004 132.344 195.844 129.228 196.589C127.185 197.078 125.17 199.347 122.309 198.38L121.844 198.693C121.39 199.341 122.043 200.148 121.946 200.717C121.787 201.632 120.726 203.395 120.663 204.179C120.493 206.209 121.055 210.007 120.402 212.321C120.198 213.038 119.398 213.675 119.279 214.698C119.165 215.659 119.687 217.029 119.449 218.109C122.593 216.773 124.898 215.5 128.49 216.262C128.751 216.318 130.079 218.098 131.476 217.694C132.197 217.484 133.298 215.119 134.614 214.465C134.978 214.283 139.893 212.674 140.182 212.634C140.79 212.554 141.493 213.032 142.163 212.89C141.198 207.466 142.441 201.74 140.301 196.475ZM145.892 203.941H145.342L144.791 204.521V205.226L145.336 205.806L145.892 203.946V203.941ZM145.517 209.905C145.608 209.217 145.54 208.813 144.961 208.421C144.91 208.995 144.825 209.814 145.517 209.905ZM143.605 217.416L140.5 215.841C137.617 216.66 133.956 217.24 133.979 220.912C133.984 222.004 134.66 223.352 134.365 224.58C131.521 226.285 131.288 222.567 130.227 221.299C129.807 220.799 127.162 219.161 126.521 219.008C125.431 218.741 120.839 220.594 120.028 221.487C119.903 221.623 118.087 224.494 118.053 224.682C117.899 225.484 118.501 227.724 118.336 228.719C118.132 229.987 116.753 229.708 117.962 231.914C119.12 231.391 118.433 230.066 119.046 229.089C120.062 227.474 122.236 228.037 123.717 227.991C124.296 227.974 124.863 227.514 125.283 227.514C125.817 227.514 126.118 228.094 126.651 228.111C127.452 228.133 127.611 227.224 127.906 227.07C130.59 225.688 133.422 226.701 135.829 226.166C136.737 225.967 137.651 225.262 138.763 225.046C139.586 224.887 143.815 224.983 144.025 224.824C143.571 223.596 144.206 218.126 143.599 217.416H143.605ZM139.189 231.914C141.346 232.039 143.1 229.89 142.163 227.809L138.599 228.918L139.189 231.92V231.914ZM135.835 232.284C135.659 229.128 132.355 228.941 129.915 229.708L129.932 231.295C130.272 232.329 134.603 231.533 135.835 232.278V232.284ZM126.101 231.221C124.846 230.499 123.734 230.959 122.434 231.175C122.417 234.968 123.376 233.353 126.106 232.614V231.221H126.101ZM147.663 239.3C147.924 238.959 146.687 236.309 146.664 235.837C146.647 235.462 148.032 231.016 146.817 230.794C145.932 230.629 146.079 231.869 145.784 232.176C145.563 232.409 140.665 235.331 140.307 235.457C139.019 235.9 135.897 235.906 134.592 235.638C134.308 235.582 134.365 235.024 134.155 234.95C133.712 234.797 125.783 235.911 125 236.184C124.216 236.457 124.313 237.026 124.097 237.06C122.207 237.384 116.787 234.581 116.463 234.894C116.35 235.599 116.974 235.991 117.093 236.633C117.207 237.236 116.838 237.708 117.127 238.498C117.32 239.021 120.187 244.372 120.448 244.605C120.811 244.923 122.026 245.316 122.565 245.31C124.092 245.293 127.02 243.439 128.388 243.604C129.041 243.684 132.089 244.918 132.668 245.327C134.018 246.276 133.99 247.516 134.944 248.653L143.764 246.765C145.319 245.935 145.029 245.35 145.722 244.235C146.647 242.746 148.055 241.762 146.982 239.567L147.652 239.283L147.663 239.3Z" fill="black"/>
</g>
<defs>
<clipPath id="clip0_1614_10375">
<rect width="183.52" height="312.85" fill="white" transform="translate(44.2402 24)"/>
</clipPath>
</defs>
</svg>
