<svg width="270" height="360" viewBox="0 0 270 360" fill="none" xmlns="http://www.w3.org/2000/svg">
<g clip-path="url(#clip0_1614_10359)">
<path d="M189.812 236.508V217.126C190.782 217.274 191.719 217.659 192.628 218.038C193.323 218.324 194.045 218.62 194.767 218.807C196.988 219.373 201.012 219.983 203.641 219.983C203.762 219.983 203.883 219.983 203.999 219.983C217.057 219.67 224.321 207.089 226.763 195.42C227.805 190.448 227.369 186.097 226.912 181.487C226.675 179.125 226.432 176.675 226.405 174.137C226.393 172.884 226.399 171.681 226.405 170.489C226.421 167.396 226.438 164.478 226.129 161.166C226.079 160.638 226.035 160.012 225.986 159.358C225.875 157.886 225.754 156.21 225.556 155.106C224.883 151.348 219.95 143.415 217.602 140.393C216.064 138.416 214.268 136.641 212.526 134.916C210.509 132.922 208.42 130.856 206.749 128.483C206.727 128.45 206.694 128.422 206.656 128.4L203.079 126.45C206.336 127.043 209.478 127.758 212.752 129.422C215.359 130.752 217.933 132.131 219.807 133.208C221.78 134.339 222.976 135.691 224.244 137.114C224.96 137.921 225.705 138.756 226.608 139.564C227.049 139.959 227.667 140.339 228.323 140.74C229.017 141.168 229.734 141.608 230.197 142.053C232.908 144.679 235.675 154.941 235.94 159.067C236.144 162.275 235.152 166.055 234.193 169.714C233.476 172.434 232.738 175.241 232.495 177.812C232.462 178.186 232.528 178.691 232.594 179.185C232.655 179.647 232.721 180.125 232.682 180.389C232.638 180.696 232.445 181.092 232.247 181.515C231.668 182.718 230.88 184.366 232.93 185.437C233.531 185.751 234.121 185.789 234.639 185.817C235.659 185.877 236.397 185.926 236.882 188.047C237.373 190.179 236.232 191.744 235.025 193.398C234.463 194.173 233.878 194.969 233.476 195.832C233.085 196.661 233.03 197.315 233.305 197.821C233.752 198.656 234.97 198.837 236.045 199.002C236.695 199.101 237.367 199.199 237.632 199.43C237.891 199.655 237.919 200.139 237.698 200.727C237.362 201.633 236.612 202.408 235.979 202.49C235.251 201.567 234.468 200.743 233.653 200.04C233.46 199.875 233.228 199.771 233.008 199.666C232.738 199.54 232.479 199.425 232.302 199.205C232.093 198.947 232.027 198.683 231.96 198.425C231.839 197.936 231.701 197.381 230.566 197.222C230.329 197.189 230.097 197.172 229.877 197.172C228.339 197.172 228.064 197.98 228.042 198.458C227.986 199.403 229.436 200.364 230.974 201.381C231.889 201.985 232.831 202.611 233.079 203.045C234.082 204.776 231.685 207.539 230.059 208.599C229.783 208.781 229.408 208.94 229.017 209.105C228.174 209.462 227.303 209.836 227.027 210.561C226.884 210.934 226.928 211.363 227.149 211.83C227.512 212.593 228.791 212.918 230.274 213.297C231.767 213.676 233.454 214.11 233.961 215.016C233.818 217.258 232.01 218.609 230.323 219.697C230.097 219.84 229.816 219.944 229.519 220.054C228.907 220.274 228.174 220.543 227.86 221.29C227.661 221.076 227.468 220.862 227.281 220.647C226.901 220.219 226.509 219.774 226.068 219.373C225.699 219.038 225.302 218.763 224.922 218.499C223.941 217.818 223.092 217.23 222.987 215.84C222.976 215.719 222.888 215.615 222.767 215.593C222.249 215.489 221.78 215.434 221.367 215.434C220.264 215.434 219.857 215.818 219.708 216.142C219.46 216.675 219.724 217.406 220.49 218.313C220.904 218.801 221.78 219.466 222.712 220.169C223.792 220.988 225.275 222.103 225.346 222.548C225.6 224.109 224.101 224.691 221.962 225.339C220.595 225.751 219.416 226.108 219.272 226.982C219.267 227.02 219.272 227.059 219.272 227.092C219.642 228.542 220.601 228.685 221.615 228.833C222.017 228.894 222.436 228.954 222.86 229.102C224.26 229.586 225.313 230.608 225.545 231.712C225.727 232.602 225.385 233.476 224.547 234.234C224.101 234.64 223.731 234.849 223.456 234.849C223.142 234.849 222.899 234.552 222.618 234.212C222.458 234.014 222.287 233.811 222.083 233.635C220.738 232.481 218.859 232.382 217.2 232.382C216.963 232.382 216.224 232.388 216.092 232.393C217.938 230.031 218.6 228.185 218.186 226.619C217.79 225.13 216.428 223.96 214.025 223.037L213.744 222.927C213.149 222.691 212.338 222.361 211.633 222.361C211.148 222.361 210.768 222.515 210.509 222.823C210.481 222.85 210.464 222.889 210.453 222.927L210.238 223.691C210.227 223.735 210.227 223.784 210.238 223.834C210.404 224.482 211.517 224.894 212.807 225.372C213.92 225.784 215.298 226.301 215.475 226.855C215.993 228.531 213.871 230.838 212.278 231.866C212.168 231.937 211.958 232.025 211.732 232.113C211.093 232.377 210.216 232.739 209.979 233.399C209.869 233.706 209.908 234.036 210.09 234.382C210.376 234.915 210.79 235.179 211.357 235.179C211.561 235.179 211.76 235.146 211.953 235.118C212.112 235.091 212.256 235.069 212.438 235.069H212.454C212.763 235.085 213.281 235.102 213.915 235.118C215.634 235.168 219.664 235.288 220.132 235.662C220.204 235.717 220.237 235.865 220.237 236.063C220.226 236.711 219.796 237.678 219.449 238.041C219.157 237.969 218.815 237.937 218.418 237.937C216.362 237.937 212.956 238.958 212.294 240.563C211.853 241.628 212.118 242.376 212.41 242.821C212.928 243.595 214.003 244.079 215.21 244.079C215.585 244.079 215.954 244.029 216.307 243.936C215.932 244.243 215.359 244.628 215.155 244.716C214.499 245.002 213.959 245.139 213.496 245.139C212.906 245.139 212.493 244.919 212.008 244.661C211.572 244.43 211.071 244.167 210.387 244.046C210.277 244.024 210.183 244.018 210.101 244.018C209.704 244.018 209.555 244.221 209.5 244.342C209.213 244.974 210.283 246.205 210.404 246.342C211.253 247.298 212.377 247.803 213.65 247.803C216.737 247.803 219.967 245.018 220.931 242.524C221.075 242.156 221.13 241.777 221.185 241.409C221.24 241.041 221.29 240.694 221.422 240.376C221.51 240.173 222.64 238.288 222.745 238.156C223.235 237.7 224.795 237.7 225.308 237.7H225.616C225.616 237.92 225.556 238.118 225.462 238.376C225.093 239.387 223.219 242.491 222.475 243.397C222.37 243.524 222.094 243.754 221.808 243.991C220.738 244.881 219.928 245.617 220.044 246.293C220.149 246.913 221.124 247.413 221.863 247.413C222.001 247.413 222.127 247.397 222.238 247.358C224.299 246.716 228.714 239.662 228.769 237.53C228.797 236.426 228.174 235.81 227.76 235.404C227.65 235.294 227.501 235.146 227.485 235.091C227.474 235.025 227.656 234.794 227.744 234.684C227.898 234.492 228.053 234.294 228.124 234.074C229.105 230.976 227.909 228.251 225.148 227.202L225.197 227.042C227.253 226.284 228.367 224.757 228.328 222.779C228.565 223.032 228.841 223.317 229.227 223.499C229.535 223.642 230.009 223.779 230.555 223.927C231.558 224.207 232.93 224.592 233.167 225.075C233.934 227.482 232.572 228.707 231.001 230.124C230.34 230.718 229.656 231.333 229.133 232.058C229.094 232.113 229.078 232.179 229.083 232.245C229.204 233.629 230.472 233.629 231.084 233.629C231.266 233.629 231.459 233.624 231.652 233.618C231.845 233.613 232.043 233.607 232.236 233.607C233.223 233.607 233.95 233.767 234.297 234.563C234.876 235.887 234.86 237.464 234.253 238.783C233.757 239.865 232.908 240.656 231.856 241.03L230.704 239.876C230.649 239.821 230.577 239.793 230.511 239.793C230.45 239.793 230.39 239.815 230.34 239.854C229.486 240.519 228.962 241.551 229.039 242.425C229.083 242.886 229.309 243.535 230.153 243.974C230.45 244.128 230.797 244.205 231.189 244.205C232.016 244.205 232.908 243.848 233.597 243.54C237.362 241.848 238.338 237.426 237.384 233.975C238.084 233.822 238.503 233.19 238.878 232.618C239.06 232.344 239.23 232.08 239.423 231.888C239.908 231.399 240.432 230.926 240.989 230.432C243.089 228.564 245.26 226.636 244.99 223.504C244.83 221.664 243.552 220.543 241.551 220.477C241.782 220.235 242.052 220.027 242.334 219.812C242.67 219.56 243.012 219.296 243.309 218.955C244.445 217.648 244.847 216.291 244.456 215.126C244.097 214.06 243.094 213.28 241.628 212.901C241.705 212.714 241.782 212.533 241.854 212.352C242.648 210.451 243.331 208.814 242.356 206.462C241.854 205.248 241.132 204.847 240.371 204.419C240.008 204.215 239.638 204.007 239.264 203.693C240.735 202.04 241.264 200.177 240.675 198.661C240.145 197.299 238.806 196.431 236.871 196.2C237.208 195.442 237.676 194.755 238.134 194.09C238.944 192.898 239.787 191.673 239.93 189.986C240.096 188.063 239.286 185.718 237.957 184.273C237.114 183.355 236.116 182.861 235.008 182.822L234.942 182.751C235.372 181.515 235.477 180.394 235.598 179.103C235.912 175.686 236.535 172.758 237.13 169.923C238.371 164.05 239.445 158.974 237.467 151.628C236.43 147.783 234.672 142.349 231.36 139.514C229.816 138.196 228.554 136.998 227.215 135.735C226.344 134.911 225.445 134.059 224.47 133.175C222.227 131.153 217.26 128.659 214.295 127.164L214.064 127.049C210.674 125.346 207.345 124.643 203.817 123.896C202.423 123.599 200.984 123.297 199.529 122.923C199.507 122.918 199.485 122.912 199.463 122.912H199.457C198.879 122.929 198.427 123.143 198.223 123.505C198.124 123.687 198.085 123.89 198.113 124.104C197.826 123.983 197.556 123.808 197.28 123.626C196.784 123.297 196.266 122.962 195.605 122.962C195.335 122.962 195.07 123.016 194.789 123.126C194.635 123.187 193.317 124.165 193.312 124.17C190.297 126.868 187.216 130.68 184.146 135.504C183.92 135.861 183.694 136.202 183.468 136.542C182.25 138.394 181.098 140.146 180.806 142.547C180.458 142.371 180.034 142.261 179.648 142.261C178.992 142.261 178.535 142.564 178.386 143.091C178.165 143.866 178.254 146.283 178.325 148.222C178.353 148.969 178.375 149.623 178.375 150.019C178.336 150.282 177.405 153.112 177.311 153.32C177.057 153.815 175.9 154.963 174.88 155.969C174.109 156.727 173.387 157.446 172.995 157.93C168.476 163.501 165.406 170.379 162.435 177.032C162.043 177.911 161.652 178.784 161.261 179.647C161.057 180.092 160.814 180.427 160.577 180.751C160.158 181.328 159.723 181.921 159.569 183.086C159.337 184.85 159.618 186.196 160.423 187.195C161.895 189.025 164.794 189.283 167.599 189.53C168.707 189.629 169.76 189.723 170.691 189.909C171.342 190.041 171.987 190.261 172.67 190.492C173.772 190.865 174.913 191.255 176.132 191.255C176.352 191.255 176.572 191.244 176.782 191.217L177.013 191.453L177.267 193.574C175.883 193.909 175.106 194.381 174.902 195.03C174.627 195.892 175.432 196.771 176.082 197.48C176.308 197.727 176.594 198.035 176.716 198.249C176.335 198.447 176.28 198.87 176.253 199.073C176.253 199.079 176.253 199.084 176.253 199.09C176.242 199.09 176.115 199.09 176.071 199.09C176.01 199.09 175.95 199.084 175.883 199.084C175.746 199.084 175.558 199.095 175.398 199.188C175.139 199.337 173.976 200.628 173.905 201.089C173.795 201.809 174.235 202.293 174.555 202.644C174.709 202.814 174.886 203.007 174.875 203.111C174.847 203.402 174.384 204.353 173.976 205.188C173.524 206.111 173.061 207.067 172.88 207.676C171.706 211.736 171 216.236 170.322 220.581C169.98 222.768 169.661 224.834 169.28 226.855C169.043 228.13 168.487 229.333 167.952 230.498C167.627 231.201 167.296 231.921 167.026 232.662C167.021 232.662 167.01 232.662 167.004 232.662C167.004 232.607 166.993 232.542 166.976 232.465C166.806 231.712 166.53 230.822 166.271 229.965C165.907 228.773 165.527 227.537 165.411 226.652C165.213 225.185 165.356 223.592 165.51 221.906C165.643 220.417 165.78 218.884 165.665 217.428C165.301 212.846 160.07 199.243 157.601 195.672C155.716 192.948 151.091 190.486 148.44 189.503C146.682 188.849 142.344 188.547 139.065 188.547C136.684 188.547 134.81 188.69 133.784 188.943C130.869 189.668 124.922 193.343 122.992 195.601C118.539 200.82 118.611 210.901 118.666 219.801C118.688 223.537 118.715 227.064 118.385 229.817C118.263 230.849 117.828 233.662 117.58 234.195C117.398 234.58 117.001 234.821 116.577 235.074C116.544 235.096 116.511 235.118 116.472 235.135C116.323 234.739 116.059 234.382 115.827 234.096C113.49 231.218 112.013 227.548 110.58 223.993C109.544 221.422 108.474 218.769 107.091 216.423C106.727 215.807 105.84 214.983 105.189 214.384C104.974 214.187 104.732 213.961 104.655 213.874C104.627 213.681 104.633 213.005 104.633 212.506C104.633 211.852 104.638 211.176 104.605 210.846C104.561 210.473 104.451 210.105 104.34 209.748C104.208 209.308 104.081 208.891 104.076 208.468C105.47 208.16 106.237 207.237 106.126 205.979C106.005 204.55 104.704 203.023 102.963 203.023H102.907C102.103 203.04 101.044 203.397 100.019 203.737C99.187 204.018 98.4043 204.281 97.8035 204.353C97.7594 204.353 97.7153 204.358 97.6712 204.358C97.5004 204.358 97.2964 204.325 97.087 204.292C96.8334 204.254 96.5744 204.21 96.2988 204.21C96.2547 204.21 96.2106 204.21 96.1665 204.21C96.9768 203.737 98.2334 203.408 99.4515 203.095C101.353 202.6 103.321 202.089 104.07 200.952C104.225 200.716 104.274 200.48 104.318 200.265C104.379 199.963 104.412 199.793 104.726 199.672C104.853 199.623 104.925 199.496 104.897 199.364C104.776 198.722 104.583 198.15 104.396 197.595C104.214 197.062 104.032 196.513 103.905 195.898C103.844 195.596 103.839 195.282 103.839 194.953C103.839 194.618 103.839 194.277 103.767 193.925C103.718 193.662 103.602 193.2 103.47 192.64C103.155 191.343 102.34 187.97 102.56 187.36C103.563 186.844 104.677 186.712 105.851 186.575C106.446 186.503 107.069 186.432 107.664 186.305L108.392 186.146C110.883 185.608 112.388 185.278 115.116 185.075C116.511 184.97 117.552 184.432 118.203 183.471C119.525 181.52 118.803 178.592 118.434 177.422C118.148 176.515 117.585 175.576 117.045 174.664C116.626 173.955 116.191 173.225 115.893 172.521C115.502 171.609 115.188 170.599 114.879 169.621C114.504 168.429 114.118 167.198 113.589 166.077C112.167 163.083 110.514 160.155 108.915 157.32C107.074 154.057 105.167 150.683 103.618 147.206C103.282 146.453 103.029 145.662 102.764 144.822C102.483 143.937 102.191 143.025 101.789 142.152C100.774 139.932 99.413 137.91 97.8476 136.301C97.8807 136.158 98.0626 135.839 98.1893 135.614C98.6193 134.861 99.209 133.828 98.3878 133.295C98.2224 133.186 98.0736 133.136 97.9248 133.136C97.5886 133.136 97.4012 133.394 97.2468 133.598C97.0704 133.834 96.9492 133.977 96.7232 133.977C96.6516 133.977 96.5634 133.96 96.4697 133.933C95.8027 133.724 95.4665 133.12 95.1689 132.592C94.9539 132.213 94.772 131.884 94.4799 131.735C93.5925 131.279 89.9217 129.763 89.0894 129.604C88.7807 129.543 88.439 129.521 88.0201 129.521C87.8051 129.521 87.5847 129.527 87.3697 129.532C87.2815 129.532 87.1878 129.538 87.0996 129.538C87.0996 129.527 87.1106 129.516 87.1106 129.505C87.2264 129.17 87.2154 128.895 87.0721 128.697C86.9288 128.494 86.6752 128.395 86.3114 128.395C85.9091 128.395 85.4296 128.51 85.0051 128.609C84.7571 128.67 84.4981 128.73 84.3768 128.73C83.9744 128.703 83.3351 128.494 82.6571 128.274C82.0343 128.071 81.3894 127.857 80.8493 127.763L80.6729 127.736C78.2312 127.313 74.5328 126.675 71.2036 126.675C68.5745 126.675 66.5737 127.082 65.2454 127.879C62.6934 129.411 57.1927 134.779 55.5281 137.125C51.1628 143.278 45.8604 152.013 44.0691 158.078C43.5014 159.99 43.6006 161.49 43.6998 163.078C43.7494 163.869 43.799 164.682 43.766 165.577C43.7219 166.819 43.4904 168.071 43.2644 169.286C42.9447 171.011 42.614 172.791 42.7904 174.642C42.8731 175.488 43.1101 176.301 43.3416 177.081C43.562 177.839 43.7935 178.62 43.8707 179.411C44.0305 181.048 44.1022 182.559 44.1683 184.02C44.3833 188.684 44.5652 192.706 47.6793 197.711C47.9274 198.106 48.2526 198.485 48.5667 198.853C49.3384 199.754 50.0714 200.606 49.7297 201.694C46.7919 202.293 45.1439 204.968 45.0392 207.347C44.951 209.286 45.899 211.643 48.8092 212.5L48.8644 212.687C48.4951 212.885 48.0707 213.088 47.6187 213.302C46.4943 213.835 45.2266 214.445 44.499 215.148C44.014 215.621 42.4542 217.313 42.0794 217.818C41.225 218.944 40.6959 220.576 40.4589 222.79C38.3313 222.252 36.7329 222.01 35.3109 222.01C31.7172 222.01 29.3692 223.62 27.9306 227.081C25.9408 231.86 25.1251 239.03 28.0519 243.463C29.055 244.985 30.4605 246.034 31.8164 247.056C32.6873 247.705 33.5802 248.38 34.3518 249.16C33.1282 249.567 31.6345 250.567 30.8463 251.21C26.7676 254.533 24.4912 259.549 24.607 264.966C24.7172 270.229 27.1093 274.992 31.166 278.036C33.2219 279.574 35.0188 280.261 36.9865 280.261C38.5022 280.261 40.1116 279.86 42.0573 279.256C42.4101 279.146 42.7242 278.992 43.0274 278.838C43.2975 278.701 43.5565 278.574 43.8321 278.486C42.9888 285.497 43.8431 297.715 52.2817 300.978C54.299 301.758 56.3163 302.154 58.284 302.154C66.0281 302.154 72.8737 295.726 74.9461 286.513C74.9792 286.376 74.9957 286.282 75.0343 286.211C76.7595 288.381 78.5123 290.43 80.8107 291.798C83.28 293.265 86.1075 294.045 88.9902 294.045C90.5776 294.045 92.1264 293.809 93.587 293.336C97.7925 291.985 100.559 286.793 101.43 282.244C102.026 279.146 101.403 275.382 99.7271 271.921C99.5838 271.63 99.2256 271.158 98.8783 270.702C98.6689 270.427 98.4098 270.086 98.3823 270.037C98.3492 269.779 98.6578 268.74 98.9059 267.905C99.2256 266.829 99.5618 265.719 99.6004 265.054C99.661 264.093 99.4901 262.109 99.0823 261.197C98.8838 260.758 98.5917 260.577 98.3767 260.445C98.261 260.373 98.1728 260.318 98.1232 260.247C98.0516 260.137 98.013 259.989 97.9689 259.818C97.9027 259.566 97.8201 259.247 97.5886 258.917C97.0815 258.198 94.3697 256.16 93.6201 255.802C92.6776 255.357 91.7791 255.138 90.8752 255.138C89.9713 255.138 89.139 255.324 88.0532 255.747C89.2713 253.281 88.9847 249.984 88.6705 248.139L88.6374 247.93C88.4776 246.963 88.3508 246.205 88.202 245.199C88.1028 244.529 87.1382 241.321 86.802 240.645C85.7603 238.568 83.3406 237.277 81.5878 236.799C80.8327 236.596 80.0666 236.492 79.317 236.492C76.8587 236.492 74.6705 237.612 72.6643 238.865C72.5816 238.568 72.6918 238.332 72.8241 238.052C72.9343 237.821 73.0446 237.585 73.0556 237.305C73.0832 236.332 73.1217 236.266 73.1713 236.167C73.2154 236.085 73.2706 235.981 73.3367 235.711C73.8383 233.679 72.069 229.152 70.5753 227.844C69.5942 226.982 66.9651 226.075 65.047 225.411C64.2312 225.13 63.3879 224.834 63.2832 224.768C62.7816 224.059 63.4651 221.702 64.0273 220.779C64.1926 220.746 64.6005 220.746 64.9422 220.741C66.1273 220.73 67.6044 220.719 67.9958 219.966C68.1832 219.615 68.1005 219.181 67.7477 218.664C67.4115 218.17 65.5485 217.818 65.0304 217.818C65.0304 217.818 64.9753 217.818 64.9698 217.818C64.5674 217.84 64.2367 217.95 63.9391 218.054C63.6911 218.142 63.4706 218.214 63.2722 218.214C63.0076 218.214 62.6328 218.093 62.0486 217.159C60.7478 215.088 62.5115 211.149 64.2533 209.451C64.4186 209.292 64.6722 209.149 64.9147 209.006C65.4604 208.698 66.1383 208.308 65.9068 207.589C65.7635 207.144 65.4438 206.902 65.0084 206.902C63.9667 206.902 62.4454 208.319 62.1257 208.671C60.0202 210.978 59.0446 213.769 59.469 216.219C58.1903 216.082 55.8478 215.511 55.0155 213.132C54.8557 212.681 54.9108 212.396 54.9549 212.143C54.988 211.973 55.0155 211.797 54.9769 211.605C54.9108 211.302 54.6683 211.099 54.4588 210.918C54.3155 210.797 54.1777 210.682 54.1116 210.555C53.7147 209.803 53.7919 207.902 54.4478 206.748C54.6407 206.407 54.9714 205.99 55.4454 205.968C55.5722 205.968 55.947 206.127 56.2446 206.248C56.7187 206.451 57.2147 206.655 57.562 206.655C57.8265 206.655 57.9643 206.539 58.0305 206.44C58.1958 206.204 58.1021 205.88 58.0194 205.66C57.7549 204.974 55.7982 204.111 55.1588 204.111C52.6675 204.166 51.8077 207.204 51.8297 209.792C51.8297 210.116 51.8958 210.412 51.9455 210.649C51.9895 210.835 52.0447 211.094 51.9951 211.154C51.9895 211.165 51.9124 211.242 51.51 211.242C51.3612 211.242 51.1848 211.231 50.9754 211.209C50.0274 211.116 47.5305 209.572 47.3486 208.665C47.0841 207.325 47.9053 204.836 49.0738 204.232C49.2943 204.116 49.7077 204.045 50.11 203.979C50.9478 203.836 51.9014 203.677 52.0116 202.963C52.1053 202.369 51.747 200.342 51.5155 199.699C51.2234 198.892 50.5785 198.046 49.8951 197.156C49.2447 196.304 48.5722 195.42 48.1864 194.535C46.4337 190.508 46.351 187.498 46.2573 184.009C46.2187 182.553 46.1746 181.048 46.0148 179.356C45.9376 178.581 45.7006 177.812 45.4691 177.065C45.2431 176.34 45.0116 175.592 44.9455 174.867C44.7856 173.181 45.0667 171.576 45.3423 170.033C45.5187 169.049 45.6951 168.027 45.7667 166.984C45.8549 165.616 45.8604 164.511 45.866 163.539C45.8825 161.006 45.888 159.336 47.277 155.908C52.1329 143.926 60.5879 133.581 66.0832 129.933C67.3288 129.109 68.9714 128.703 71.0989 128.703C73.0611 128.703 75.1501 129.032 77.1674 129.351C78.7438 129.598 80.2319 129.834 81.5603 129.895L82.6792 130.235C82.0122 130.4 81.3619 130.647 80.7225 130.895C80.1382 131.12 79.5816 131.334 79.0414 131.477C78.0162 131.741 76.9414 131.933 75.806 132.142C73.9871 132.471 72.1076 132.812 70.3879 133.471C65.747 135.257 61.8777 140.344 61.1777 145.569C60.6375 149.629 59.9761 153.765 59.3423 157.77C58.5706 162.616 57.7714 167.626 57.1761 172.538C56.7297 176.202 57.4572 178.664 58.295 181.515C58.5982 182.537 58.9068 183.591 59.1935 184.789C59.469 185.943 59.706 187.108 59.9375 188.234C60.599 191.459 61.2218 194.502 62.6769 197.513C64.1651 200.589 66.1769 203.111 68.1225 205.545C69.7816 207.627 71.3525 209.588 72.6367 211.885C72.7304 212.05 72.8186 212.39 72.9178 212.753C73.0391 213.203 73.1713 213.72 73.3698 214.099C74.5383 216.346 78.4351 220.746 80.1438 222.526C82.7784 225.273 85.2311 225.795 88.8414 225.795C89.128 225.795 89.4256 225.795 89.7287 225.784C89.6185 227.482 90.1146 229.135 90.5941 230.74C90.8807 231.69 91.1728 232.673 91.3272 233.629C91.6248 235.514 91.6248 237.338 91.6303 239.107C91.6303 241.87 91.6413 244.727 92.7657 247.858C93.4933 249.88 94.1547 250.259 95.0752 250.787C95.4831 251.017 95.9405 251.281 96.4917 251.748C96.9547 252.138 97.3295 252.682 97.7208 253.248C98.2114 253.957 98.713 254.687 99.4405 255.193C100.289 255.78 101.585 256.269 102.957 256.786C104.076 257.209 105.228 257.643 106.082 258.126C106.666 258.456 107.229 258.884 107.769 259.297C108.612 259.939 109.477 260.599 110.486 260.945C111.87 261.417 113.611 261.659 115.298 261.895C116.389 262.049 117.42 262.192 118.362 262.395C119.222 262.576 120.126 262.862 121.003 263.142C122.37 263.571 123.781 264.016 125.147 264.131C126.035 264.208 126.994 264.246 127.992 264.246C131.977 264.246 136.243 263.653 140.366 263.076C142.581 262.769 144.67 262.477 146.693 262.274C147.939 262.153 149.146 262.038 150.331 261.928C156.465 261.357 161.762 260.862 168.139 259.28C181.456 255.967 187.723 249.38 189.779 236.486L189.812 236.508ZM120.154 260.511C119.068 260.258 117.8 260.066 116.45 259.862C114.256 259.527 111.991 259.181 110.492 258.566C109.759 258.264 109.059 257.725 108.314 257.159C107.697 256.687 107.063 256.204 106.374 255.83C105.696 255.462 104.589 255.066 103.519 254.676C102.241 254.215 100.923 253.737 100.433 253.358C100.212 253.187 99.9145 252.731 99.6279 252.292C99.3799 251.913 99.1264 251.523 98.8893 251.265C98.6523 251.012 98.3437 250.748 98.046 250.501C97.4012 249.963 96.6736 249.353 96.8334 248.886C96.872 248.765 96.8279 248.633 96.7177 248.567C93.7083 246.694 93.7634 243.013 93.8185 239.453C93.835 238.409 93.846 237.426 93.7854 236.503C93.6642 234.75 93.2563 233.052 92.8594 231.41C92.4185 229.586 91.9996 227.855 91.939 226.042C92.0437 226.031 92.1594 226.026 92.2807 226.026C92.6776 226.026 93.1075 226.092 93.5264 226.152C93.9508 226.218 94.3531 226.279 94.7334 226.279C94.8823 226.279 95.0256 226.268 95.1579 226.246C99.0216 225.625 103.194 221.257 104.528 217.725C104.622 217.472 104.627 217.197 104.627 216.956C104.627 216.818 104.627 216.593 104.71 216.544H104.726C105.559 218.516 106.529 220.466 107.471 222.351C108.149 223.718 108.855 225.136 109.5 226.542C109.863 227.333 110.161 228.196 110.481 229.108C110.944 230.443 111.423 231.822 112.118 232.965C112.415 233.459 115.276 237.233 115.656 237.524C115.932 237.733 116.213 237.843 116.505 237.843C117.023 237.843 117.459 237.519 117.916 237.173L117.971 237.134C119.939 235.657 120.132 234.333 120.435 232.333C120.473 232.069 120.518 231.794 120.562 231.509C121.212 227.504 121.129 223.131 121.047 218.906C120.92 212.352 120.788 205.578 123.307 199.694C124.96 195.826 132.197 191.08 136.662 190.937C136.733 190.937 136.799 190.937 136.871 190.937C137.654 190.937 138.431 191.074 139.18 191.211C139.814 191.327 140.47 191.442 141.132 191.481C141.396 191.492 141.655 191.497 141.914 191.497C142.416 191.497 142.906 191.475 143.392 191.459C143.86 191.437 144.329 191.42 144.791 191.42C145.817 191.42 147.04 191.503 148.341 192.101C149.388 192.585 154.139 195.266 154.724 195.903C156.355 197.694 157.221 200.139 158.058 202.507C158.268 203.1 158.472 203.682 158.687 204.237C159.045 205.166 159.392 206.045 159.728 206.891C161.586 211.555 163.052 215.241 163.036 220.933V222.329C163.008 226.317 163.002 226.932 164.254 231.696C164.347 232.058 164.386 232.432 164.419 232.8C164.524 233.893 164.634 235.019 166.282 235.613C166.298 235.618 166.321 235.624 166.337 235.629C166.442 235.646 166.541 235.651 166.646 235.651C168.845 235.651 170.482 232.261 171.463 229.421C171.86 228.273 171.898 227.586 171.943 226.855C171.965 226.449 171.992 226.026 172.08 225.482C172.731 221.411 174.059 213.78 175.591 208.402C176.076 206.715 177.091 204.364 177.658 204.358C177.785 205.056 177.846 205.699 177.912 206.33C178.05 207.72 178.182 209.033 178.937 210.544C179.648 211.962 182.376 214.571 183.617 215.34C184.002 215.582 184.603 215.752 185.242 215.934C185.854 216.109 186.78 216.368 186.885 216.615C187.304 217.565 187.216 218.538 187.133 219.477C187.094 219.873 187.061 220.285 187.061 220.686C187.067 222.246 187.128 223.933 187.194 225.718C187.315 229.102 187.442 232.596 187.194 235.47C187.072 236.865 185.033 244.633 184.41 245.771C181.891 250.358 176.881 254.028 170.669 255.835C162.661 258.17 155.176 258.95 147.255 259.774C145.866 259.917 144.461 260.066 143.033 260.225C141.275 260.417 139.495 260.681 137.775 260.939C134.435 261.439 130.984 261.95 127.562 261.95C126.393 261.95 125.302 261.895 124.227 261.774C123.56 261.703 122.766 261.406 122 261.12C121.399 260.895 120.782 260.67 120.203 260.533L120.154 260.511ZM80.706 219.543C80.0941 218.714 79.4548 217.851 78.5949 217.005C78.2918 216.708 77.9005 216.483 77.5532 216.285C77.2721 216.126 77.002 215.972 76.8973 215.84C75.9327 214.61 75.139 212.94 74.2957 211.171C73.2871 209.05 72.2398 206.858 70.7517 205.034C64.7052 197.634 64.11 195.205 62.1423 187.162C61.9604 186.41 61.7619 185.613 61.547 184.756C61.299 183.756 60.9738 182.74 60.6596 181.757C59.921 179.444 59.1549 177.048 59.3037 174.664C59.3809 173.406 59.695 172.065 59.9927 170.774C60.2242 169.78 60.4667 168.747 60.5934 167.775C61.3155 162.193 62.0706 157.282 63.206 150.832C63.3934 149.771 63.4926 148.75 63.5863 147.761C63.8068 145.437 64.0218 143.245 65.3115 140.882C67.869 136.213 72.5265 135.152 77.4595 134.026C78.3304 133.828 79.2343 133.62 80.1107 133.394C79.9288 134.218 80.028 134.977 80.1272 135.713C80.1823 136.103 80.2319 136.471 80.2375 136.839C80.2375 137.015 80.1823 137.207 80.1162 137.416C80.039 137.652 79.9619 137.899 79.9674 138.168C79.9729 138.52 80.05 138.866 80.1272 139.201C80.243 139.718 80.3477 140.207 80.243 140.756C80.1878 140.954 79.4603 141.547 79.113 141.833C78.9312 141.981 78.7658 142.113 78.6445 142.223C78.4075 142.432 78.1595 142.64 77.917 142.844C77.3989 143.278 76.8642 143.723 76.3902 144.239C75.2658 143.113 74.5162 141.608 74.417 140.245C74.395 139.976 74.4446 139.696 74.4942 139.421C74.5713 138.965 74.654 138.498 74.3674 138.157C74.1469 137.899 73.7666 137.773 73.1603 137.773C73.1052 137.773 73.0446 137.773 72.9784 137.773C72.9509 137.773 72.9233 137.778 72.9013 137.789C72.5926 137.894 72.2013 138.158 72.0855 138.839C71.7438 140.811 74.0257 145.03 75.0674 146.047C75.0178 146.168 74.902 146.365 74.8028 146.536C74.3729 147.294 73.7225 148.436 73.9265 149.513C73.932 149.552 73.9485 149.59 73.9761 149.629C74.3233 150.096 74.654 150.744 75.0013 151.431C75.806 153.013 76.7209 154.809 78.2532 155.161C78.5508 155.232 78.8926 155.26 79.317 155.26C79.6146 155.26 79.9233 155.243 80.2319 155.227C80.5296 155.21 80.8272 155.194 81.1138 155.194C81.3067 155.194 81.4941 155.199 81.676 155.221C82.3044 155.287 82.8776 155.359 83.4233 155.43C84.6634 155.589 85.7382 155.721 86.8902 155.721C88.0421 155.721 89.2547 155.573 90.572 155.249C94.8382 154.205 97.5831 152.573 98.9665 150.26C100.069 148.414 100.262 146.118 99.5508 143.443C99.2641 142.366 98.3547 141.146 97.6271 140.163C97.2193 139.613 96.7949 139.047 96.7563 138.833C96.7342 138.718 96.7894 138.355 96.8555 138.168C98.5311 139.833 99.4074 142.327 100.256 144.739C100.62 145.777 100.962 146.755 101.364 147.656C102.885 151.068 104.655 154.392 106.363 157.6C107.526 159.792 108.733 162.056 109.852 164.33C111.192 167.055 111.864 168.731 112.878 171.269L113.352 172.445C113.705 173.318 114.179 174.203 114.637 175.054C115.904 177.411 117.216 179.845 116.119 182.388C115.948 182.383 115.777 182.377 115.607 182.377C112.823 182.377 110.111 183.114 107.493 183.822C106.655 184.047 105.785 184.284 104.93 184.492C104.506 184.597 104.026 184.646 103.525 184.707C102.318 184.844 101.066 184.981 100.405 185.844C99.9972 186.371 99.8704 187.091 100.014 188.042C100.168 189.052 100.471 190.162 100.769 191.233C101.022 192.14 101.259 192.997 101.408 193.794C101.491 194.228 101.535 194.684 101.585 195.129C101.656 195.826 101.733 196.546 101.943 197.244L101.711 197.37C101.1 197.139 100.317 197.018 99.4405 197.018C97.8311 197.018 96.0287 197.425 94.8492 198.051C93.2012 198.93 90.8201 202.402 90.9469 204.243C91.0075 205.127 92.2311 205.825 92.9642 206.237C93.0468 206.287 93.1405 206.336 93.2012 206.369C92.9146 207.374 93.2398 208.017 94.1712 208.286C94.7169 208.446 95.4996 208.517 96.7122 208.517C97.2689 208.517 97.8642 208.501 98.4594 208.49C99.0547 208.473 99.6555 208.462 100.223 208.462C101.089 208.462 101.733 208.495 102.229 208.572C102.13 209.341 102.274 210.132 102.406 210.907C102.538 211.654 102.67 212.423 102.599 213.187C101.976 212.824 101.408 212.599 100.785 212.599C100.273 212.599 99.7437 212.747 99.0602 213.071C97.7264 213.714 94.5461 217.208 93.7303 218.247C93.3224 218.769 92.7437 219.856 92.1815 220.906C91.6579 221.889 91.0681 222.999 90.8256 223.213C90.7264 223.306 90.1366 223.455 88.5878 223.455C87.7721 223.455 86.9508 223.411 86.5595 223.367C83.2965 223.015 82.1611 221.477 80.7225 219.527L80.706 219.543ZM90.6768 132.796C91.5587 132.894 92.1209 133.136 92.3524 133.521C92.7492 134.18 92.2421 135.301 91.7075 136.482C91.5256 136.877 91.3437 137.289 91.1839 137.696C90.9579 137.751 90.5224 137.811 90.076 137.811C89.4366 137.811 89.1721 137.691 89.1114 137.564C89.2161 137.13 89.4752 136.641 89.7508 136.125C90.2799 135.13 90.8697 134.021 90.6713 132.796H90.6768ZM94.8878 137.734L93.6201 137.756L94.2264 135.746C94.6949 135.922 94.9705 136.119 95.0862 136.372C95.2185 136.663 95.1634 137.075 94.8878 137.734ZM81.6981 149.222C82.1721 150.837 85.65 153.013 87.4965 153.447C87.0004 153.496 86.5264 153.524 86.091 153.524H85.9973C85.4516 153.524 84.8233 153.408 84.2114 153.304C83.7264 153.222 83.2304 153.134 82.7839 153.101C82.6296 153.09 82.4642 153.084 82.2878 153.084C82.0233 153.084 81.7422 153.095 81.4445 153.106C81.1304 153.117 80.7997 153.128 80.4745 153.128C79.6146 153.128 78.5674 153.062 78.0548 152.546C77.9005 152.348 76.4784 149.843 76.3847 149.607C76.2469 149.167 76.2194 148.31 76.3627 148.2H76.3682C76.5666 148.409 76.7981 148.612 77.0847 148.612C77.3052 148.612 77.5091 148.491 77.6965 148.239C77.9501 147.832 77.8453 147.426 77.7516 147.063C77.6855 146.799 77.6194 146.547 77.691 146.31C77.9005 145.624 79.3721 144.256 80.3256 143.536L80.4965 144.327C80.5241 144.448 80.6288 144.536 80.75 144.541H80.8603C81.3067 144.541 81.6044 144.409 81.8193 144.195C81.665 145.519 81.4886 148.535 81.6926 149.222H81.6981ZM83.1752 141.476C83.087 141.597 82.9989 141.717 82.9052 141.838C82.7839 142.003 82.6571 142.168 82.5414 142.338C82.6626 141.992 82.8445 141.69 83.1752 141.481V141.476ZM90.0209 146.343C89.7232 146.942 88.9295 147.31 87.9429 147.31C87.8272 147.31 87.7059 147.31 87.5847 147.294C87.5295 147.101 87.6012 146.794 87.7941 146.431C88.2902 145.486 89.2988 144.602 89.6461 144.503C90.1366 145.184 90.2689 145.838 90.0209 146.343ZM90.8697 140.19C90.8697 140.19 90.8697 140.201 90.8752 140.212C90.8421 140.201 90.8091 140.185 90.776 140.174C90.8091 140.174 90.8421 140.185 90.8697 140.19ZM96.8445 149.239C95.439 151.376 91.8453 152.749 88.7421 153.282C89.9272 152.755 92.2091 151.557 92.2366 151.546C93.2342 150.98 94.7445 150.123 95.0531 148.755C95.461 146.948 94.4909 143.778 92.9366 141.838C92.6224 141.448 92.2972 141.119 91.9555 140.849C92.402 140.784 92.5839 140.443 92.6886 140.251C92.7051 140.218 92.7272 140.179 92.7437 140.157C92.9752 140.108 93.2012 140.086 93.4216 140.086C94.6783 140.086 95.8083 140.888 96.6019 142.344C97.7925 144.541 97.9027 147.634 96.85 149.239H96.8445ZM82.117 132.955C84.2445 132.274 86.1792 131.938 88.0256 131.938C88.224 131.938 88.4169 131.938 88.6154 131.949L86.6146 137.745C85.0933 138.031 83.7429 138.85 82.4311 139.635L82.365 139.674L82.1225 132.949L82.117 132.955ZM102.125 205.649L103.277 205.506L103.519 205.858C103.42 205.847 103.321 205.842 103.216 205.831C102.825 205.798 102.428 205.765 102.125 205.649ZM99.9476 215.082C100.223 214.994 100.482 214.95 100.747 214.95C101.331 214.95 101.866 215.17 102.483 215.439C102.406 217.631 100.692 220.279 99.0382 221.62C98.2775 222.235 97.4287 222.625 96.5303 223.048C96.0783 223.257 95.6098 223.477 95.1634 223.718C94.9705 223.823 94.9043 224.032 94.8547 224.185C94.8547 224.191 94.8547 224.196 94.8492 224.202C94.7224 224.163 94.5516 224.081 94.3972 224.004C94.0334 223.823 93.576 223.603 93.113 223.603H93.0909C93.5429 222.642 95.1523 220.065 95.472 219.653C96.2051 218.714 99.4185 215.252 99.9421 215.082H99.9476ZM175.415 188.223C174.12 188.052 173.078 187.849 172.075 187.657C170.416 187.338 168.85 187.036 166.48 186.943C166.48 186.932 166.475 186.915 166.469 186.904C166.425 186.745 166.348 186.476 166.084 186.41C165.869 186.36 165.632 186.349 165.455 186.349C165.356 186.349 164.948 186.36 164.843 186.36C164.639 186.36 164.375 186.355 164.116 186.294C163.19 186.086 162.622 185.734 162.374 185.223C161.95 184.35 162.512 183.031 163.124 181.762C163.741 180.477 164.347 179.18 164.954 177.878C166.839 173.834 168.79 169.654 171.16 165.748C172.99 162.731 174.991 159.589 177.598 157.056C178.876 161.407 183.032 162.731 187.194 163.709C189.194 164.176 192.242 164.484 194.971 164.484C196.685 164.484 199.083 164.369 200.78 163.808C201.436 163.594 202.081 163.078 202.704 162.572C203.178 162.193 203.624 161.83 203.983 161.688C204.286 161.567 204.655 161.545 205.046 161.517C205.432 161.49 205.835 161.462 206.253 161.352C206.816 161.199 211.379 158.853 211.694 158.248C211.853 157.935 211.809 157.534 211.572 157.15C211.308 156.721 210.762 156.26 210.172 156.26C210.172 156.26 210.112 156.26 210.106 156.26C209.726 156.282 209.015 156.71 207.885 157.408C207.427 157.694 206.799 158.078 206.402 158.276C206.579 157.523 206.391 156.875 206.193 156.199C206.149 156.034 206.099 155.87 206.055 155.699C206.402 155.622 206.799 155.507 207.168 155.331L207.378 155.232C211.831 153.117 211.958 152.98 212.035 152.892C212.294 152.606 212.421 152.255 212.388 151.898C212.36 151.551 212.179 151.238 211.886 151.008C211.611 150.793 211.269 150.689 210.867 150.689C209.786 150.689 208.409 151.464 207.196 152.145C206.501 152.535 205.846 152.903 205.388 153.04C205.239 152.93 204.936 152.535 204.716 152.238C204.137 151.48 203.487 150.629 202.77 150.469C202.957 149.777 205.41 148.365 206.733 147.607C207.835 146.975 208.127 146.794 208.227 146.634C208.497 146.195 208.502 145.651 208.238 145.179C207.962 144.695 207.477 144.404 206.931 144.404C206.849 144.404 206.766 144.409 206.678 144.426C205.338 144.64 203.238 146.2 200.444 149.057L197.032 147.898C197.319 147.041 198.741 145.821 199.799 144.915C200.813 144.047 201.348 143.574 201.447 143.206C201.574 142.756 201.502 142.327 201.249 141.998C200.979 141.641 200.527 141.437 200.02 141.437C199.926 141.437 199.832 141.443 199.738 141.459C198.316 141.668 195.197 145.536 194.37 146.959L191.757 147.008C192.05 146.266 193.031 144.366 193.29 143.904C193.472 143.58 193.731 143.223 194.001 142.849C194.8 141.734 195.709 140.47 195.175 139.267C194.888 138.85 194.552 138.635 194.183 138.635C193.494 138.635 192.915 139.383 192.446 139.981L192.303 140.163C191.333 141.388 190.6 142.91 189.889 144.377C189.47 145.245 189.035 146.14 188.566 146.942C188.528 146.959 188.489 146.975 188.439 146.997C188.054 147.167 187.249 147.524 186.802 147.524C186.698 147.524 186.654 147.503 186.642 147.497C186.642 147.497 186.631 147.475 186.631 147.426C186.643 146.772 186.846 145.563 186.968 144.898C187.045 144.475 187.287 143.723 187.524 142.992C187.855 141.976 188.169 141.02 188.164 140.586C188.164 140.141 187.883 139.729 187.475 139.547C187.166 139.41 186.885 139.344 186.626 139.344C185.524 139.344 185.165 140.525 184.901 141.388C184.68 142.108 184.526 143.289 184.366 144.541C184.184 145.948 183.975 147.535 183.688 148.024C183.451 148.431 182.889 148.585 182.299 148.75C182.134 148.794 181.963 148.843 181.803 148.898C181.93 148.568 182.062 148.239 182.194 147.915C182.481 147.206 182.784 146.475 182.994 145.717C183.176 145.058 183.291 144.355 183.402 143.673C183.517 142.954 183.639 142.206 183.843 141.547C184.317 139.998 188.731 133.18 190.038 131.461C190.655 130.642 194.673 126.571 195.401 126.088L195.5 126.022C195.627 125.934 195.704 125.884 195.776 125.884C195.809 125.884 195.842 125.89 195.864 125.901L204.589 130.378C205.945 131.977 207.416 133.521 208.844 135.015C209.572 135.773 210.288 136.526 210.994 137.284C213.716 140.223 222.634 150.414 222.971 158.012C223.026 159.281 223.086 160.567 223.153 161.863C223.279 164.511 223.412 167.253 223.489 169.895C223.571 172.73 223.786 175.543 223.996 178.268C224.216 181.141 224.442 184.113 224.508 187.086C224.63 192.426 223.059 199.128 220.408 204.578C218.159 209.198 214.157 215.016 207.863 216.483C206.457 216.813 205.035 216.972 203.52 216.972C199.485 216.972 195.489 215.791 191.631 214.648C190.765 214.39 189.9 214.137 189.035 213.89C188.66 212.824 188.147 211.813 187.646 210.835C187.348 210.248 187.034 209.643 186.764 209.033C186.532 208.523 186.356 207.979 186.174 207.402C185.766 206.133 185.342 204.82 184.283 203.831L187.48 202.754C187.591 202.716 187.668 202.611 187.668 202.49L187.657 200.87C187.657 200.782 187.613 200.705 187.546 200.65C186.891 200.161 186.279 199.227 185.689 198.326C185.05 197.348 184.443 196.42 183.743 195.958C183.225 195.618 182.624 195.48 182.046 195.348C181.478 195.222 180.938 195.101 180.497 194.799L179.417 188.8C179.406 188.745 179.378 188.695 179.339 188.657C178.97 188.278 178.149 188.228 177.322 188.228C177.091 188.228 176.854 188.228 176.628 188.239C176.418 188.239 176.214 188.245 176.027 188.245C175.757 188.245 175.569 188.234 175.426 188.217L175.415 188.223ZM194.039 161.561C194.276 161.451 194.541 161.33 194.778 161.116C197.093 159.007 197.159 154.249 195.665 151.722C195.29 151.084 194.789 150.672 194.309 150.271C194.194 150.173 194.078 150.079 193.968 149.98C195.621 150.145 197.528 150.81 198.603 151.233C201.508 152.37 202.985 153.452 203.531 156.518C203.878 158.485 203.277 158.886 201.673 159.963C200.075 161.034 197.694 161.611 194.365 161.715C194.205 161.715 194.045 161.682 193.868 161.644C193.924 161.616 193.984 161.589 194.045 161.561H194.039ZM183.346 151.887C183.462 151.887 183.578 151.914 183.71 151.947C183.854 151.98 184.002 152.018 184.162 152.018C184.234 152.018 184.294 152.013 184.361 151.996C184.614 151.942 184.868 151.793 185.143 151.634C185.546 151.403 185.998 151.139 186.494 151.139C186.571 151.139 186.643 151.145 186.72 151.156C185.303 153.441 184.978 156.1 185.865 158.331C186.157 159.067 186.593 159.583 187.017 160.078C187.249 160.353 187.475 160.616 187.673 160.913C184.906 160.358 181.787 159.457 180.596 157.507C180.061 156.633 179.962 155.595 180.309 154.425C180.436 154.002 182.724 152.018 183.225 151.898C183.264 151.887 183.302 151.881 183.352 151.881L183.346 151.887ZM185.661 213.06C184.669 212.577 182.123 210.324 181.759 209.726C181.031 208.55 180.161 205.907 181.197 204.792L183.253 207.001L185.667 213.06H185.661ZM235.058 230.031C235.471 229.492 235.94 228.877 236.138 228.328C237.031 225.856 236.353 223.707 234.231 222.296C234.033 222.164 233.79 222.087 233.553 222.01C233.063 221.856 232.826 221.752 232.787 221.493C234.545 220.658 236.155 218.725 236.656 216.818C237.015 215.45 236.805 214.203 236.05 213.209C235.003 211.824 233.311 211.242 231.762 210.764C233.581 209.314 235.317 207.704 235.879 205.6C236.221 205.765 236.645 205.913 237.092 206.067C238.128 206.429 239.412 206.874 239.616 207.561C239.952 208.704 239.55 210.671 238.784 211.61C238.63 211.797 238.349 212.006 238.056 212.225C237.439 212.681 236.745 213.203 236.734 213.895C236.728 214.313 236.96 214.709 237.45 215.099C238.018 215.555 239.06 215.632 239.975 215.703C240.487 215.741 241.446 215.813 241.507 216C241.744 216.719 240.471 217.675 239.352 218.516C238.156 219.411 237.02 220.263 237.02 221.175C237.02 223.262 240.382 223.367 242.003 223.422H242.047C242.047 223.46 242.047 223.499 242.047 223.543C242.058 223.806 242.064 224.054 242.025 224.29C241.711 226.24 238.999 228.553 237.015 230.245C236.491 230.69 235.995 231.113 235.587 231.492C235.411 231.399 235.185 231.338 234.948 231.272C234.755 231.223 234.397 231.13 234.353 231.058C234.441 230.822 234.733 230.437 235.041 230.031H235.058ZM69.9525 238.486C69.8918 238.134 69.7485 237.799 69.5225 237.519C69.1588 237.057 68.6407 236.794 68.1005 236.794C67.5603 236.794 67.0698 237.047 66.6619 237.508C65.7525 237.057 65.1407 236.178 64.9312 235.014C64.617 233.256 65.2619 231.174 66.4635 230.064C66.9816 229.586 67.4281 229.355 67.8194 229.355C68.3265 229.355 68.8281 229.745 69.4013 230.586C71.0603 233.014 70.5202 235.788 69.9469 238.486H69.9525ZM63.4541 237.557C63.6525 237.871 64.0604 238.244 64.4627 238.601C64.7989 238.903 65.3005 239.359 65.3446 239.535C65.4218 239.854 64.8651 241.216 64.4627 242.211C64.0879 243.128 63.7352 244.002 63.6415 244.507C63.421 245.732 62.7541 249.457 65.2123 250.567C65.7359 250.803 66.3478 250.929 66.9761 250.929C68.3816 250.929 69.754 250.325 70.5532 249.353C71.1926 248.578 71.4296 247.639 71.2312 246.633C71.2147 246.551 71.1595 246.479 71.0824 246.441C71.0438 246.424 71.0052 246.413 70.9611 246.413C70.917 246.413 70.8729 246.424 70.8343 246.441C70.2225 246.754 69.754 247.172 69.3076 247.578C68.6462 248.172 68.0784 248.682 67.1966 248.682C66.8879 248.682 66.5572 248.622 66.1824 248.496C65.8682 248.391 65.769 247.902 65.7359 247.518C65.5485 245.188 67.2903 240.519 67.9076 240.194C68.0288 240.129 68.3265 240.09 68.591 240.057C69.0044 240.002 69.4233 239.942 69.6824 239.766C69.5446 240.442 69.4288 241.117 69.3627 241.771C69.2855 242.551 69.2855 243.908 70.1343 244.221C70.3052 244.287 70.4761 244.315 70.6304 244.315C71.3028 244.315 71.6997 243.782 72.0855 243.266C72.2839 243.002 72.4879 242.727 72.7194 242.535C74.395 241.145 76.9249 239.293 79.5981 239.293C79.9784 239.293 80.3587 239.332 80.728 239.409C82.6902 239.821 83.8201 240.799 84.4981 242.672C85.5233 245.507 86.7414 251.819 85.5122 254.314C85.3359 254.676 84.8453 255.319 84.2831 256.066C82.5193 258.401 81.2241 260.258 81.8359 261.192C81.8579 261.23 81.891 261.258 81.9296 261.28C82.5138 261.62 83.0319 261.78 83.517 261.78C84.4374 261.78 85.0217 261.186 85.5894 260.61C85.865 260.329 86.1296 260.06 86.4272 259.857C86.7855 259.621 89.365 258.346 89.6791 258.253C90.2413 258.088 90.7815 258 91.2776 258C91.5256 258 91.7626 258.022 91.9886 258.066C92.4902 258.159 95.1193 260.088 95.5437 260.61C97.4177 262.917 96.5854 266.224 95.935 268.686C95.7035 268.68 95.2571 268.466 94.8657 268.273C94.3642 268.032 93.8902 267.801 93.5319 267.801C93.2839 267.801 93.1405 267.911 93.0689 268.004C92.9256 268.18 92.898 268.438 92.9807 268.806C93.1516 269.559 93.6862 269.856 94.0775 270.064C94.2539 270.158 94.4193 270.251 94.4799 270.345C94.5571 270.471 94.5295 270.663 94.4964 270.889C94.4358 271.333 94.3421 272.009 95.2571 272.427C95.5271 272.548 95.7697 272.608 95.9957 272.608C96.3539 272.608 96.624 272.465 96.8886 272.322C97.0264 272.251 97.1697 272.174 97.3295 272.114C99.6279 277.316 99.6114 281.854 97.2909 286.376C95.5933 289.672 92.5673 291.49 88.7642 291.49C87.3091 291.49 85.8154 291.221 84.3272 290.683C79.1571 288.826 76.754 284.244 74.5548 279.316C74.5328 279.267 74.4997 279.228 74.4556 279.201C73.8438 278.8 73.3643 278.602 72.995 278.602C72.7469 278.602 72.5375 278.69 72.3832 278.86C71.9753 279.322 72.091 280.283 72.2013 281.217C72.2454 281.585 72.2895 281.931 72.295 282.217C72.4162 287.864 71.7713 290.485 67.7202 294.858C64.8596 297.94 61.5194 299.572 58.0525 299.572C56.195 299.572 54.3045 299.105 52.436 298.182C49.3659 296.666 48.0376 293.402 47.2274 290.727C46.5825 288.595 45.9652 285.639 46.0313 283.827C46.0534 283.316 46.0534 282.799 46.0589 282.294C46.0589 281.7 46.0699 281.135 46.0974 280.58V280.519C46.1581 279.486 46.3014 276.739 47.0234 276.086C47.1943 275.932 47.4974 275.811 47.7896 275.69C48.225 275.514 48.6715 275.333 48.9195 274.992C49.0959 274.751 49.151 274.481 49.2006 274.24C49.2392 274.069 49.2722 273.91 49.3439 273.778C49.4486 273.586 49.5864 273.416 49.7187 273.256C50.2313 272.619 50.5344 272.059 49.3935 271.13C48.9856 270.801 47.9604 270.773 47.6573 270.773C47.4258 270.773 46.8415 270.79 46.5219 270.921C45.3093 271.421 44.9951 272.482 44.7195 273.421C44.5982 273.828 44.4825 274.212 44.3061 274.531C43.4408 276.08 39.7589 277.492 36.5731 277.492C35.2282 277.492 34.181 277.239 33.5361 276.761C33.4865 276.723 33.4203 276.597 33.3652 276.487C33.266 276.294 33.1503 276.075 32.9518 275.915C29.4188 273.004 28.14 270.691 27.4731 266.032C26.4479 258.874 29.755 255.791 34.9251 251.902C35.1235 251.753 35.2282 251.506 35.3109 251.308C35.3274 251.265 35.355 251.204 35.3715 251.171C35.4266 251.155 35.5589 251.133 35.8676 251.133C35.9778 251.133 36.088 251.133 36.2093 251.133C36.3416 251.133 36.4739 251.133 36.6062 251.133C36.9093 251.133 37.3006 251.122 37.6258 251.028C38.2928 250.836 39.7313 250.089 39.6542 249.138C39.5715 248.067 38.3203 247.809 37.3117 247.6C36.9258 247.518 36.5565 247.441 36.3195 247.336C35.1125 246.798 34.0983 245.804 33.1172 244.842C32.792 244.524 32.4778 244.216 32.1637 243.93C31.9542 243.743 31.607 243.496 31.2377 243.233C30.8353 242.947 30.229 242.524 30.1353 242.365C29.5731 241.447 29.2755 239.502 29.033 237.937C28.9448 237.376 28.8676 236.86 28.7849 236.448C28.7408 236.228 28.6085 236.036 28.4928 235.865C28.4432 235.794 28.3715 235.684 28.3605 235.657C28.3605 235.58 28.5148 235.376 28.6141 235.256C28.7684 235.058 28.9337 234.86 28.9889 234.624C29.1211 234.096 29.0881 233.547 29.055 233.014C29.0274 232.569 28.9999 232.151 29.0715 231.772C29.1101 231.553 29.9038 229.201 30.1739 228.427C30.3007 228.064 31.9818 225.757 32.318 225.487C33.04 224.905 34.0762 224.614 35.3936 224.614C38.0613 224.614 41.2967 225.801 43.0329 226.443C43.066 226.454 43.099 226.46 43.1266 226.46C43.2093 226.46 43.2864 226.421 43.3416 226.355C44.1793 225.301 44.0526 224.839 43.7384 224.207C43.6282 223.982 43.5069 223.746 43.4463 223.411C42.7573 219.615 46.373 217.087 50.1376 215.115C50.0439 215.511 49.6966 215.857 49.3053 216.247C48.936 216.615 48.5557 216.994 48.3242 217.472C47.5415 219.087 47.547 220.115 47.5636 221.669C47.5636 221.829 47.525 221.977 47.4754 222.147C47.3927 222.449 47.2935 222.79 47.4093 223.251C47.503 223.62 47.8667 224.037 48.2911 224.521C49.0628 225.4 49.625 226.114 49.2722 226.564C49.2447 226.564 49.2116 226.575 49.173 226.581C48.9581 226.614 48.6274 226.663 48.3793 226.888C47.7344 227.471 47.0234 231.289 47.1337 232.02C47.31 233.206 48.2636 234.217 48.8974 234.882C49.1234 235.118 49.399 235.415 49.4266 235.508C49.4541 235.64 49.2667 236.135 49.1344 236.497C48.914 237.096 48.6604 237.777 48.6549 238.327C48.6549 239.684 49.4541 241.952 50.7604 243.26C51.4053 243.903 52.0832 244.232 52.7832 244.232C52.9431 244.232 53.1084 244.216 53.2683 244.177C53.8636 244.046 54.299 243.754 54.5525 243.309C54.9218 242.672 54.9108 241.749 54.5195 240.497C54.5029 240.442 54.4643 240.392 54.4147 240.354C54.3045 240.277 54.1943 240.238 54.073 240.238C53.6762 240.238 53.4447 240.65 53.1966 241.09C52.9982 241.436 52.7557 241.87 52.5242 241.87C52.4415 241.87 52.2596 241.815 51.962 241.447C51.0305 240.293 50.7273 238.409 51.284 237.25C51.6092 236.569 52.199 236.211 52.9872 236.211C53.1911 236.211 53.4116 236.233 53.6486 236.283C53.384 237.629 54.7013 238.991 55.6824 240.002C56.1013 240.436 56.5368 240.887 56.5919 241.095C56.6139 241.183 56.5809 241.348 56.5478 241.502C56.5037 241.716 56.4541 241.958 56.4927 242.211C56.5147 242.343 56.5313 242.485 56.5478 242.628C56.7076 243.853 56.9502 245.705 58.6147 245.87C58.6753 245.875 58.736 245.881 58.7966 245.881C59.5021 245.881 60.1415 245.48 60.6486 244.721C61.4257 243.551 61.7068 241.76 61.2659 240.733C61.2659 240.733 61.321 240.678 61.3486 240.65C62.1533 239.859 62.1423 239.261 61.9934 238.903C61.7509 238.316 60.9572 237.947 59.921 237.947C59.1053 237.947 58.058 238.2 57.4352 238.898C56.432 238.414 55.947 236.975 55.9084 235.701C55.8698 234.398 56.2777 232.899 57.2643 232.492C57.3801 232.492 57.6612 232.564 57.9313 232.635C58.3998 232.756 58.9895 232.904 59.4856 232.904C59.9375 232.904 60.2627 232.778 60.4612 232.531C60.6706 232.272 60.7202 231.893 60.6155 231.404C60.4005 230.448 59.4194 230.295 58.5486 230.157C58.0415 230.08 57.5179 229.998 57.1816 229.773C56.6691 229.432 55.3242 227.927 55.3572 227.575C55.4344 227.158 56.1565 226.921 56.8565 226.691C57.4352 226.498 58.0305 226.306 58.4328 225.965C58.8517 226.465 59.7005 226.625 60.5273 226.779C61.0234 226.872 61.5415 226.965 61.8942 227.13C62.258 227.3 62.6493 227.614 63.0572 227.949C63.4816 228.295 63.9171 228.646 64.3856 228.894C62.3297 231.146 61.8887 234.992 63.4596 237.513L63.4541 237.557ZM59.8218 241.42C59.9982 241.376 60.1856 241.326 60.3675 241.266C60.2903 241.381 60.2021 241.518 60.0974 241.683C59.7777 242.183 59.0667 243.287 58.725 243.529C58.4328 241.771 58.962 241.639 59.8163 241.425L59.8218 241.42ZM60.8966 222.768C60.3123 222.076 58.9785 221.856 57.9202 221.675C57.4628 221.598 57.0328 221.526 56.7297 221.433L56.6525 221.411C55.473 221.048 55.1258 220.807 55.0265 220.724L60.5438 218.829L61.8171 219.911C61.3265 220.834 61.0123 221.79 60.8911 222.763L60.8966 222.768ZM56.4155 217.708C56.0407 217.944 55.6053 218.115 55.1864 218.28C54.0069 218.747 52.673 219.274 52.7943 221.384C52.8935 221.834 53.4832 222.175 54.051 222.504C54.299 222.647 54.6628 222.856 54.762 222.977C54.4202 223.729 53.1525 224.449 52.1549 224.449C51.9951 224.449 51.8462 224.433 51.714 224.394C51.6699 224.345 51.5651 224.18 51.5045 223.696C51.2399 221.735 51.9179 217.395 52.4746 216.736C52.5903 216.598 52.9817 216.461 53.3289 216.346C53.6872 216.225 54.051 216.099 54.3321 215.917C54.8722 216.653 55.5502 217.461 56.6525 217.604C56.5919 217.626 56.5037 217.653 56.4155 217.708ZM53.599 229.091C53.7202 229.152 54.062 229.63 54.288 229.943C54.5911 230.366 54.9053 230.806 55.1974 231.069L53.8084 233.651C53.4336 233.723 52.0116 233.833 51.2179 233.833C50.9809 233.833 50.9203 233.822 50.9147 233.822C50.2533 233.668 49.8124 233.173 49.6085 232.366C49.2502 230.948 49.7352 228.872 50.6171 227.839C51.1958 228.646 52.0226 228.773 52.7061 228.872C53.0423 228.921 53.3565 228.971 53.599 229.086V229.091Z" fill="black"/>
<path d="M102.725 98.8775C102.615 98.8775 102.516 98.8939 102.433 98.9214C102.329 98.9599 102.262 99.0533 102.257 99.1631L101.97 104.223C101.375 104.399 100.785 104.536 100.212 104.673C99.1979 104.915 98.1452 105.168 97.0648 105.607C95.3286 106.316 90.6546 108.629 89.2822 109.574C88.6759 109.991 88.1302 110.447 88.2129 110.953C88.2129 110.986 88.2295 111.019 88.246 111.046C88.5602 111.59 89.0121 111.892 89.5137 111.892C89.657 111.892 89.8003 111.87 89.9822 111.804C91.1231 111.261 92.2531 110.623 93.3499 110.008C96.0507 108.486 98.8396 106.92 101.97 106.618L101.452 113.502L97.6767 114.936C97.5719 114.974 97.5058 115.073 97.5003 115.183L97.4782 115.7C97.4782 115.831 97.5609 115.947 97.6877 115.98C97.8144 116.007 97.8861 116.035 97.9302 116.051C97.9192 116.073 97.9081 116.095 97.8971 116.117C97.8255 116.265 97.7152 116.496 97.7428 116.787C97.9963 119.271 100.51 121.127 101.436 121.732C101.728 123.677 101.844 125.621 101.959 127.506C102.097 129.808 102.24 132.192 102.703 134.609C106.209 153.102 115.392 161.875 122.474 165.985C129.386 169.99 135.195 172.022 139.737 172.022C141.732 172.022 143.513 171.627 145.028 170.852C152.045 167.259 165.461 157.892 170.509 151.404C173.447 147.63 175.106 143.91 176.859 139.966C177.515 138.493 178.193 136.972 178.953 135.417C179.747 133.791 180.684 132.099 181.594 130.456C183.115 127.704 184.691 124.852 185.755 122.072C187.039 118.721 188.792 111.793 189.431 108.497C189.845 106.382 190.236 101.866 190.093 99.8059C190.005 98.5918 189.701 97.6578 189.409 96.7568C189.007 95.5152 188.621 94.345 188.764 92.4552C188.924 90.2741 189.586 87.703 190.22 85.2143C190.947 82.3795 191.697 79.4458 191.702 77.0999C191.702 76.3198 191.504 75.7045 191.123 75.3309C190.853 75.0617 190.506 74.9188 190.115 74.9188C189.393 74.9188 188.61 75.4078 188.009 76.2209C186.874 77.7702 186.4 79.7095 185.948 81.5829C185.832 82.0718 185.711 82.5553 185.584 83.0223C185.606 81.8905 185.656 80.7533 185.705 79.649C185.838 76.6549 185.981 73.5619 185.501 70.5183C185.099 67.9582 183.804 67.5791 183.065 67.5791C181.902 67.5791 180.53 68.4636 179.389 69.9469C176.826 73.2872 175.95 77.6768 175.106 81.9235C174.875 83.0772 174.66 84.1705 174.412 85.2363C174.395 85.3132 174.384 85.3791 174.384 85.4395C173.861 82.9618 173.706 80.3907 173.552 77.8965C173.442 76.0726 173.326 74.1827 173.067 72.3368L173.028 72.0621C172.692 69.6118 172.064 65.0574 168.795 65.0574C168.685 65.0574 168.569 65.0574 168.453 65.0739C163.62 65.5299 161.426 72.8916 159.976 77.7647C159.629 78.9239 159.331 79.9237 159.039 80.7148C159.017 80.7753 159.006 80.8302 158.995 80.8797C158.758 79.0997 158.764 77.2208 158.769 75.4023C158.78 72.8147 158.791 70.1337 158.102 67.6395C157.469 65.3431 156.432 64.1839 155.016 64.1839C152.695 64.1839 150.259 67.3703 149.184 69.2547C146.853 73.3476 145.987 78.0339 145.144 82.5663L145.006 83.3134L144.874 83.4013C144.251 80.7478 143.926 77.9734 143.617 75.2814C143.182 71.5401 142.736 67.6725 141.451 64.0521C140.961 63.1566 140.173 62.6621 139.236 62.6621C138.199 62.6621 137.058 63.2609 136.254 64.2333C132.561 68.6943 131.607 76.4736 130.913 82.1542L130.847 82.7146C130.819 82.9508 130.797 83.1376 130.769 83.286C130.356 80.8082 130.29 78.1547 130.224 75.5836C130.136 72.2818 130.047 68.8646 129.243 65.7442C129.039 64.9585 128.658 63.4917 127.528 63.4917C127.253 63.4917 126.955 63.5851 126.641 63.7664C125.566 64.3927 124.277 67.0297 122.821 71.6061C121.901 74.4958 121.008 77.5339 120.826 80.55C120.771 79.9292 120.721 79.3084 120.672 78.6821C120.413 75.4737 120.148 72.15 119.013 69.0295C118.44 67.4527 117.712 66.6506 116.858 66.6506C115.452 66.6506 114.184 68.7987 113.369 70.6007C111.721 74.2431 111.528 78.2261 111.346 82.0718C111.318 82.6102 111.296 83.1541 111.269 83.654L110.855 85.8076C110.624 84.0276 110.216 82.341 109.819 80.8632C109.152 78.369 107.366 72.6829 106.27 70.8205C105.895 70.1832 105.454 69.859 104.958 69.859C103.04 69.859 101.403 75.0397 101.386 75.0947C100.631 77.5174 100.664 79.9567 100.692 82.3081C100.703 83.3684 100.719 84.4671 100.664 85.5549C100.587 87.0108 100.433 88.5875 100.273 90.2631C99.953 93.5869 99.6223 97.0205 99.8483 99.8663L99.8593 99.9817C99.9365 100.993 100.063 102.679 101.281 102.882C101.298 102.882 101.309 102.882 101.325 102.882C101.392 102.882 101.452 102.86 101.507 102.817C101.568 102.762 101.607 102.685 101.601 102.608C101.568 99.1302 101.866 95.6031 102.152 92.197C102.29 90.5488 102.439 88.8512 102.544 87.1701C102.621 85.901 102.637 84.6265 102.648 83.3958C102.681 79.5776 102.714 75.9682 104.627 72.5235L105.641 74.5947C105.955 75.655 106.341 76.7153 106.71 77.7372C107.162 78.9733 107.625 80.2479 107.962 81.5279C108.116 82.1158 108.298 83.209 108.513 84.4781C109.103 87.9997 109.61 90.7411 110.282 91.3399C110.558 91.5871 110.833 91.708 111.092 91.708C112.178 91.708 112.531 89.7357 112.773 87.8898C112.801 87.6975 112.823 87.5327 112.84 87.4118C113.148 85.511 113.286 83.5716 113.418 81.6982C113.738 77.1164 114.047 72.7818 116.687 68.8482C116.814 68.9525 116.891 69.1393 116.984 69.403C117.006 69.469 117.029 69.5349 117.056 69.5953C118.373 72.9466 118.517 76.5505 118.649 80.0281C118.721 81.8411 118.792 83.72 119.035 85.5165C119.035 85.5549 119.691 89.505 121.129 89.505C121.471 89.505 121.796 89.2852 122.094 88.8567C122.441 88.3568 122.606 86.2911 122.805 83.4288C122.871 82.4289 122.932 81.5719 122.992 81.1269C123.34 78.5887 123.786 76.3637 124.348 74.3255C124.8 72.6939 126.239 68.1175 126.955 66.9858C126.988 66.9308 127.016 66.8814 127.043 66.8374C127.077 66.777 127.104 66.733 127.126 66.7056C127.065 67.3978 127.225 68.0461 127.385 68.6724C127.479 69.0514 127.573 69.4085 127.611 69.7601C127.837 71.8753 127.876 74.0618 127.914 76.1769C127.953 78.4734 127.997 80.8522 128.278 83.1706L128.306 83.4233C128.532 85.3187 129.05 89.7632 131.111 89.7632C131.431 89.7632 131.773 89.6533 132.12 89.4336C132.186 89.3951 132.23 89.3292 132.241 89.2523C132.682 87.0547 132.974 84.7199 133.261 82.4619C133.895 77.4405 134.55 72.2543 136.838 67.8263C137.968 65.6343 138.767 65.1783 139.236 65.1783C139.252 65.1783 139.269 65.1783 139.285 65.1783C139.963 65.898 140.828 73.2487 141.203 76.4187C141.352 77.7042 141.473 78.7206 141.556 79.215L141.65 79.8248C142.19 83.2585 142.78 86.5713 143.397 87.5657C143.783 88.192 144.61 88.8237 145.442 88.8237C145.993 88.8237 146.456 88.5381 146.748 88.0162C146.759 87.9942 146.77 87.9667 146.776 87.9447C147.106 86.4449 147.387 84.8792 147.652 83.3684C148.468 78.781 149.311 74.0398 151.786 70.0623C152.75 68.513 154.139 66.8429 154.911 66.8429C154.955 66.8429 154.999 66.8484 155.038 66.8649C155.104 67.2495 155.286 67.6175 155.457 67.9692C155.6 68.2603 155.732 68.5295 155.776 68.7603C156.228 71.1776 156.278 73.7157 156.328 76.4022C156.377 78.9294 156.427 81.5444 156.846 84.0551L156.89 84.3243C157.105 85.6483 157.424 87.6481 158.681 87.6481C159.078 87.6481 159.508 87.4393 159.993 87.0108C160.026 86.9778 160.054 86.9394 160.07 86.8954C160.765 84.9341 161.321 82.8904 161.856 80.9126C162.583 78.2261 163.339 75.4408 164.452 72.8587C166.205 68.7877 167.676 67.9362 168.602 67.9362C168.768 67.9362 168.939 67.9637 169.098 68.0131C169.517 68.2274 170.201 71.205 170.394 72.6719C170.636 74.4903 170.735 76.3582 170.829 78.1657C170.994 81.3082 171.165 84.5605 172.091 87.681C172.499 89.0545 173.574 90.4719 174.665 90.4719C175.112 90.4719 175.751 90.2412 176.264 89.1259C177.085 87.3514 177.498 84.8572 177.934 82.2202C178.32 79.8853 178.716 77.468 179.427 75.5946C179.631 75.0507 181.88 70.9303 182.646 70.3535C182.966 73.1443 182.927 76.0176 182.889 78.803C182.883 79.2919 182.878 79.7809 182.872 80.2698C182.872 80.5445 182.938 80.8027 182.999 81.0335C183.049 81.2313 183.098 81.4181 183.098 81.5774C183.087 82.5058 182.95 83.5607 182.806 84.6759C182.536 86.7361 182.255 88.8677 182.729 90.6037C182.972 91.4937 183.87 92.6145 184.669 93.5979C185.165 94.2132 185.727 94.9109 185.766 95.1636C185.843 95.6416 185.535 96.0921 185.242 96.5316C184.884 97.0645 184.471 97.6743 184.917 98.2841C184.928 98.3006 184.945 98.3171 184.961 98.3336C185.231 98.5643 185.557 98.6852 185.909 98.6852C186.334 98.6852 186.758 98.5039 187.072 98.2017C187.265 98.5204 187.557 99.9323 186.918 106.08C186.918 106.118 186.912 106.157 186.907 106.19C186.455 106.03 185.992 105.86 185.524 105.69C182.481 104.586 179.036 103.338 175.839 102.932C174.257 102.729 172.213 102.624 169.914 102.624C162.302 102.624 151.929 103.778 147.735 107.03C147.525 107.19 146.114 108.635 146.037 109.036C145.883 109.805 146.081 110.453 146.252 111.03C146.357 111.381 146.456 111.711 146.472 112.041C146.605 114.908 146.269 118.408 145.943 121.798C145.822 123.072 145.701 124.303 145.618 125.451C145.354 128.929 144.802 132.428 144.268 135.834C144.224 136.131 144.169 136.527 144.102 136.988C143.794 139.23 143.149 143.894 142.129 144.822C141.584 145.317 138.282 146.822 137.576 146.954C137.295 147.003 136.932 147.031 136.496 147.031C134.198 147.031 130.328 146.273 128.973 145.328C127.291 144.158 127.005 137.73 127.22 133.956C127.352 131.621 127.65 129.236 127.936 126.934C128.477 122.583 129.039 118.084 128.554 113.551L128.041 105.624C128.041 105.574 128.025 105.53 127.997 105.492C126.729 103.58 117.492 102.888 116.218 102.86C115.832 102.849 115.452 102.85 115.066 102.85C110.999 102.85 107.14 103.36 103.872 103.877V99.5752C103.872 99.0862 103.117 98.8775 102.731 98.8775H102.725ZM126.2 112.777C126.277 114.354 126.36 115.98 126.349 117.535C126.327 120.677 125.941 123.841 125.572 126.907C125.191 130.066 124.795 133.329 124.789 136.598C124.789 139.197 124.91 141.966 125.869 144.619C126.79 147.174 128.956 148.064 131.089 148.75C131.514 148.888 131.971 148.932 132.417 148.976C133.608 149.097 134.286 149.217 134.297 150.333C134.308 151.371 134.148 151.437 133.801 151.591C133.613 151.673 133.388 151.772 133.134 151.986C132.93 152.168 132.665 152.448 132.384 152.75C132.004 153.162 131.53 153.673 131.315 153.777C130.885 153.986 126.685 155.162 126.173 155.211C126.051 155.211 125.875 155.184 125.671 155.162C125.384 155.123 125.054 155.079 124.756 155.079C124.486 155.079 124.1 155.107 123.874 155.365C123.786 155.469 123.692 155.651 123.736 155.931C123.869 156.777 124.745 157.26 125.632 157.348C125.18 158.31 126.002 159.09 126.47 159.535C127.865 160.853 133.018 163.771 134.721 164.413C135.581 164.738 136.353 164.897 137.086 164.897C138.37 164.897 139.489 164.424 140.779 163.71C143.419 162.249 147.751 157.683 146.621 154.162C146.021 152.289 144.896 151.256 143.452 151.256C143.149 151.256 142.835 151.3 142.51 151.388C141.947 151.541 141.55 151.893 141.198 152.195C140.955 152.409 140.735 152.602 140.481 152.723C140.481 152.58 140.481 152.431 140.481 152.272C140.465 150.943 140.448 149.124 141.038 148.327C141.203 148.102 141.81 147.828 142.35 147.586C142.967 147.311 143.606 147.02 143.959 146.679C145.618 145.075 146.302 140.51 146.715 137.779L146.814 137.126C147.884 130.225 148.672 122.715 148.98 116.518C149.052 115.128 148.98 113.722 148.92 112.365C148.87 111.315 148.815 110.228 148.832 109.162C149.168 109.052 149.41 108.838 149.614 108.656C149.746 108.541 149.868 108.431 149.984 108.376C154.839 106.102 163.03 105.289 169.082 105.289C172.157 105.289 174.93 105.487 177.09 105.866C179.119 106.223 183.28 107.459 185.264 108.222C185.402 108.277 186.091 108.744 186.339 108.953L183.065 121.534C180.596 125.468 178.628 129.863 176.721 134.115C173.464 141.383 170.091 148.899 164.138 154.31C159.056 158.931 149.3 165.803 143.678 168.726C142.559 169.308 141.198 169.6 139.632 169.6C135.829 169.6 130.885 167.94 124.514 164.534C115.072 159.48 108.689 150.3 105.536 137.235C104.566 133.225 104.258 129.44 103.927 125.435C103.844 124.418 103.756 123.391 103.662 122.353C105.062 122.946 106.595 123.237 108.325 123.237C110.503 123.237 112.647 122.798 115.028 122.259C117.53 121.699 122.733 120.529 124.784 117.705C125.522 116.688 126.399 114.414 125.919 112.777C125.71 112.057 125.252 111.541 124.596 111.277C123.808 110.964 120.247 110.783 120.209 110.783C119.553 110.75 118.88 110.733 118.208 110.733C113.914 110.733 109.273 111.398 103.629 112.826L103.872 106.025L113.286 104.976C114.625 105.113 115.97 105.179 117.271 105.239C120.308 105.382 123.18 105.52 126.095 106.53C126.002 108.585 126.112 110.711 126.211 112.766L126.2 112.777ZM138.425 154.277C136.888 152.882 136.127 151.679 136.485 149.69L138.326 149.454V154.03C138.326 154.123 138.365 154.195 138.42 154.277H138.425ZM136.033 160.315C135.713 160.408 135.372 160.458 135.008 160.458C133.173 160.458 131.051 159.222 129.684 157.876C130.725 157.914 131.751 158.161 132.748 158.398C133.851 158.661 134.991 158.936 136.171 158.936C136.402 158.936 136.639 158.925 136.876 158.903C137.251 158.865 137.593 158.76 137.924 158.661C138.293 158.546 138.646 158.442 139.004 158.442C139.092 158.442 139.18 158.447 139.263 158.464L136.028 160.32L136.033 160.315ZM115.491 119.21C115.689 118.886 115.915 118.512 115.998 118.067C116.532 115.2 115 113.909 113.143 113.145C114.262 112.98 115.474 112.903 116.874 112.903C118.274 112.903 119.696 112.98 121.08 113.057C121.962 113.106 122.866 113.156 123.764 113.183C124.1 117.782 119.652 118.87 115.722 119.831C115.518 119.88 115.32 119.93 115.127 119.979C115.166 119.738 115.314 119.496 115.491 119.21ZM105.123 119.567C105.283 119.952 105.608 120.243 105.928 120.523C106.077 120.655 106.225 120.787 106.347 120.919L103.321 119.963L103.365 115.029L106.022 114.436C105.024 115.815 104.467 117.958 105.123 119.567ZM99.8593 117.002C99.92 116.787 100.67 116.342 101.193 116.172V118.968C100.609 118.446 100.041 117.705 99.8593 117.002Z" fill="black"/>
<path d="M259.762 73.1334C260.07 72.7544 260.407 72.3863 260.732 72.0292C261.437 71.2545 262.165 70.4524 262.677 69.5295C264.243 66.7166 264.447 63.9587 263.284 61.3327C260.506 55.0697 250.877 51.3174 245.624 50.0868C243.067 49.488 240.388 49.1693 237.88 49.1693C235.24 49.1693 232.881 49.5154 230.874 50.1967C230.544 50.3121 230.296 50.4714 230.053 50.6197C230.042 50.6252 230.031 50.6307 230.026 50.6362C228.797 46.4444 225.049 43.3459 221.885 41.8241C220.071 40.9506 216.334 39.9727 214.053 39.9727C213.959 39.9727 213.865 39.9727 213.777 39.9727C213.468 39.9836 213.226 40.121 213.011 40.2419C212.845 40.3352 212.702 40.4177 212.548 40.4177C212.178 40.3847 211.793 40.3737 211.407 40.3737C205.498 40.3737 199.545 43.8348 197.258 45.3236C193.846 47.5432 189.393 51.1471 190.076 56.7453C190.368 59.1626 192.948 60.4537 194.331 61.1514C194.579 61.2777 194.849 61.4096 195.004 61.5085C193.444 63.4643 192.557 65.2168 192.204 67.0133C191.146 72.4302 195.197 82.6488 198.989 86.3186C199.584 86.8955 200.67 87.6097 201.541 88.1206L201.276 88.3568C197.512 91.7246 192.358 96.3339 196.36 101.696C199.281 105.613 207.108 106.426 210.332 106.591C211.06 106.629 211.853 106.646 212.757 106.646C213.661 106.646 214.565 106.629 215.469 106.613C216.367 106.596 217.26 106.58 218.153 106.58C218.297 106.58 218.445 106.58 218.589 106.58C217.101 111.019 218.451 116.617 223.389 118.589C223.671 118.699 224.095 118.782 224.547 118.87C224.971 118.952 225.671 119.084 225.804 119.161C225.737 119.886 225.545 120.919 225.319 122.116C224.767 125.083 224.078 128.78 224.872 130.324C225.203 130.973 225.793 131.33 226.526 131.33C227.259 131.33 228.008 130.978 228.488 130.434C228.697 130.198 228.879 129.742 229.089 129.209C229.26 128.78 229.43 128.341 229.612 128.055C231.42 125.193 233.856 122.512 236.215 119.919C236.508 119.595 236.8 119.276 237.092 118.952C238.685 121.924 242.19 126.028 245.966 126.034C246.561 126.034 247.151 125.929 247.718 125.731C250.436 124.759 252.315 122.254 253.412 120.325C254.746 117.98 255.655 115.15 255.848 112.76C256.047 110.31 255.429 108.118 254.834 105.998C254.57 105.053 254.294 104.075 254.09 103.069C258.588 101.163 263.692 97.4546 264.772 92.6365C265.103 91.1697 265.362 88.5052 265.439 87.1702C265.759 81.3302 265.323 75.1277 259.778 73.1279L259.762 73.1334ZM253.28 100.031C252.8 100.235 252.459 100.333 252.244 100.333C252.067 100.333 251.974 100.267 251.814 100.158C251.626 100.026 251.389 99.8609 250.959 99.762C250.678 99.6961 250.403 99.6632 250.127 99.6632C248.959 99.6632 248.005 100.262 247.757 101.157C247.531 101.976 247.972 102.811 248.942 103.388C249.262 103.58 249.559 103.652 249.824 103.718C250.204 103.811 250.502 103.882 250.833 104.278C251.643 105.256 252.674 109.805 252.635 111.206C252.569 113.447 252.111 115.59 251.323 117.403C249.841 120.803 247.801 122.748 245.718 122.748C244.158 122.748 242.609 121.693 241.115 119.617C240.724 119.073 239.622 117.221 239.528 116.82C239.5 116.694 239.517 116.408 239.539 116.134C239.589 115.425 239.649 114.551 239.186 114.057C238.977 113.832 238.685 113.716 238.326 113.716C238.222 113.716 238.106 113.727 237.979 113.749C237.092 113.898 234.821 116.645 231.453 120.82C230.07 122.534 228.741 124.177 227.898 125.089C227.959 124.633 228.003 124.111 228.052 123.572C228.223 121.6 228.444 119.144 229.403 118.474C229.822 118.183 230.34 117.969 230.885 117.738C231.784 117.359 232.71 116.969 233.426 116.189C234.182 115.37 234.413 114.392 234.055 113.579C233.757 112.903 233.096 112.469 232.374 112.469C231.916 112.469 230.83 112.662 230.125 114.348C230.125 114.315 230.125 114.282 230.119 114.255C230.097 113.942 230.064 113.546 229.783 113.343C229.574 113.189 229.348 113.112 229.116 113.112C228.201 113.112 227.441 114.288 226.884 115.15C226.724 115.403 226.52 115.711 226.471 115.771C224.712 115.738 223.301 115.079 222.392 113.859C221.35 112.464 221.097 110.492 221.692 108.448C221.923 107.662 222.508 106.25 223.048 105.734C223.417 105.377 223.863 105.228 224.332 105.075C224.663 104.965 225.01 104.849 225.324 104.657C226.636 103.86 227.22 102.679 226.889 101.504C226.586 100.438 225.6 99.6906 224.481 99.6906C224.211 99.6906 223.935 99.7346 223.665 99.8225C222.899 100.064 222.375 100.718 221.868 101.35C221.256 102.108 220.628 102.894 219.542 103.075C218.197 103.3 216.417 103.415 214.405 103.415C209.869 103.415 205.25 102.839 202.643 101.949C200.19 101.108 198.812 100.053 198.432 98.7292C198.046 97.3832 198.686 95.7296 200.372 93.6749C200.962 92.9552 204.308 89.9885 204.969 89.7193C205.785 89.3897 206.749 89.3348 207.775 89.2798C209.125 89.2084 210.652 89.1205 212.14 88.3788C213.804 87.5438 214.78 86.1758 214.515 85.0551C214.29 84.1046 213.253 83.5607 211.666 83.5607C211.589 83.5607 211.512 83.5607 211.429 83.5607C210.167 83.5992 208.667 84.2749 207.223 84.9287C206.049 85.4616 204.936 85.9615 204.236 85.9615C204.175 85.9615 204.115 85.9615 204.06 85.9505C202.086 85.6319 199.066 81.539 198.151 79.5008C192.882 67.8209 196.795 63.75 198.719 62.5468C199.215 62.2337 199.843 62.1952 200.389 62.1952C200.631 62.1952 200.879 62.2062 201.122 62.2172C201.37 62.2282 201.612 62.2392 201.844 62.2392C202.792 62.2392 203.817 62.0853 204.253 60.9371C204.451 60.4152 204.456 59.9482 204.264 59.5637C204.049 59.1297 203.591 58.8055 202.902 58.5968C202.318 58.4209 201.761 58.3385 201.205 58.3385C200.516 58.3385 199.926 58.4704 199.353 58.5913C198.796 58.7121 198.267 58.8275 197.66 58.8275C197.197 58.8275 196.734 58.7561 196.249 58.6132C194.563 58.1188 193.582 57.2727 193.328 56.0916C192.904 54.0973 194.673 51.5152 196.497 49.9604C201.199 45.9609 207.675 43.4722 213.402 43.4722C217.398 43.4722 220.86 44.604 223.687 46.829C224.784 47.6915 226.636 49.5154 226.895 52.103C226.63 52.3613 226.327 52.614 226.035 52.8557C224.839 53.8446 223.489 54.9653 224.872 56.9047C225.484 57.7672 226.36 58.2616 227.264 58.2616C228.256 58.2616 229.122 57.6793 229.634 56.6574C229.91 56.119 229.982 55.663 230.048 55.2675C230.158 54.5917 230.224 54.1852 231.211 53.7182C232.831 52.9546 235.063 52.5535 237.665 52.5535C245.778 52.5535 255.678 56.2234 259.282 60.5745C261.277 62.9808 261.316 67.1781 257.54 70.5568C255.97 71.9632 255.198 72.0402 254.222 72.1336C253.589 72.194 252.872 72.2654 251.858 72.7049C249.741 73.6169 249.73 74.7651 249.824 75.2156C250.022 76.177 251.18 76.8528 252.641 76.8528C253.197 76.8528 253.77 76.7594 254.355 76.5781C254.95 76.3913 255.352 76.188 255.672 76.0232C256.074 75.8199 256.344 75.6826 256.763 75.6826C257.155 75.6826 257.667 75.7979 258.422 76.0562C260.252 76.677 261.349 77.968 261.774 79.9952C262.336 82.6488 261.939 91.5927 260.715 93.9551C259.508 96.2899 255.578 99.0698 253.291 100.037L253.28 100.031Z" fill="black"/>
<path d="M245.144 256.809C243.943 256.359 242.774 256.144 241.584 255.969C241.892 253.65 240.52 250.788 238.966 249.48C236.358 247.294 231.624 246.514 228.366 246.514C227.143 246.514 225.985 246.613 225.015 246.805C222.011 247.398 217.519 249.618 214.918 251.425C212.393 253.178 210.205 255.386 208.088 257.529L207.317 258.309H207.212C205.95 256.117 201.513 254.26 199.181 254.183H199.077C198.057 254.183 194.326 254.579 193.565 254.958C193.256 255.112 193.13 255.392 193.041 255.578C193.025 255.611 193.008 255.65 192.992 255.677C192.689 255.699 192.43 255.71 192.198 255.721C191.349 255.754 190.793 255.782 189.481 256.436C185.187 258.589 182.503 263.632 183.065 268.357L172.207 261.83C171.683 261.583 171.165 261.451 170.702 261.451C170.145 261.451 169.704 261.638 169.418 261.99C169.186 262.27 168.96 262.803 169.159 263.731C169.489 265.248 170.476 267.901 171.132 269.659L171.369 270.302C171.485 270.621 171.848 271.445 172.306 272.489C173.116 274.334 174.737 278.037 174.93 278.955C171.027 279.499 166.954 282.191 163.994 286.196C162.032 288.855 159.629 292.821 161.464 296.595C162.462 298.645 165.835 300.073 168.244 300.073C168.304 300.073 168.36 300.073 168.415 300.073C168.784 300.062 169.214 299.93 169.627 299.804C170.019 299.688 170.421 299.562 170.708 299.562C170.735 299.562 170.763 299.562 170.79 299.562C171.077 299.59 171.22 299.787 171.452 300.133C171.678 300.469 171.937 300.853 172.438 301.018C174.742 301.776 178.242 301.935 180.772 301.935C185.011 301.935 189.751 301.479 192.562 300.798C193.703 300.524 194.976 300.018 196.106 299.568L196.47 299.425C200.94 304.847 207.824 305.995 212.834 305.995C215.546 305.995 218.362 305.671 221.207 305.034C225.324 304.111 229.761 301.842 233.068 298.963C235.912 296.491 236.799 293.887 235.774 291.019C238.414 290.305 240.779 289.327 242.796 288.108C247.112 285.503 253.213 280.18 256.019 275.455C258.582 271.143 258.654 266.802 256.217 263.539C254.211 260.847 247.873 257.836 245.122 256.804L245.144 256.809ZM247.79 279.927C247.492 280.185 247.189 280.449 246.897 280.707C243.485 283.762 240.327 286.382 236.166 287.547C235.846 287.635 235.504 287.673 235.14 287.717C234.738 287.761 234.319 287.811 233.922 287.932C233.542 287.899 233.134 287.58 232.699 287.239C232.065 286.745 231.354 286.185 230.4 286.185C230.224 286.185 230.047 286.207 229.866 286.245C228.598 286.52 227.694 287.399 227.562 288.481C227.435 289.508 228.041 290.481 229.138 291.019C229.766 291.327 230.411 291.343 230.984 291.36C232.043 291.387 232.682 291.404 232.781 293.107C232.864 294.579 231.519 295.942 230.34 296.964C226.31 300.447 219.415 302.694 212.768 302.694C208.777 302.694 205.228 301.908 202.494 300.419C201.199 299.71 199.76 298.656 199.666 298.024C199.644 297.639 199.876 297.392 200.262 297.029C200.51 296.793 200.791 296.524 200.978 296.167C201.529 295.112 201.673 293.651 201.359 292.343C201.342 292.283 201.309 292.228 201.254 292.184C200.774 291.832 200.306 291.651 199.854 291.651C198.537 291.651 197.721 293.134 197.004 294.447C196.602 295.184 196.222 295.876 195.852 296.118C192.744 298.139 185.325 298.683 181.434 298.683C181.004 298.683 180.607 298.678 180.243 298.667C177.856 298.595 175.04 298.419 174.081 298.145C174.097 298.134 174.114 298.117 174.13 298.106C174.467 297.804 174.814 297.524 175.145 297.26C176.622 296.079 178.016 294.964 177.14 292.102C176.93 291.635 176.556 291.387 176.065 291.387C174.356 291.387 171.259 294.711 170.917 296.128C169.815 296.562 168.696 296.793 167.676 296.793C166.155 296.793 164.997 296.293 164.413 295.381C163.746 294.343 163.845 292.805 164.705 290.942C166.37 287.327 171.578 282.081 175.96 282.081C176.181 282.081 176.401 282.097 176.616 282.125C176.831 282.152 177.057 282.328 177.272 282.493C177.52 282.685 177.752 282.866 178.066 282.883C178.374 282.883 178.606 282.674 178.76 282.537C178.777 282.526 178.788 282.509 178.804 282.493C178.843 282.537 178.893 282.592 178.931 282.636C179.19 282.938 179.631 283.438 180.364 283.465H180.463C181.93 283.465 182.646 282.427 182.69 281.46C182.745 280.35 181.957 279.147 180.348 278.988C180.287 278.982 180.221 278.977 180.16 278.977C179.923 278.977 179.692 279.015 179.466 279.054C179.251 279.092 179.047 279.125 178.848 279.125C178.567 279.125 178.231 279.065 177.867 278.642L173.094 265.852L185.948 273.78C185.992 273.807 186.041 273.824 186.091 273.824C186.124 273.824 186.157 273.818 186.19 273.802C186.719 273.593 187.078 273.285 187.248 272.89C187.563 272.153 187.199 271.263 186.846 270.406C186.642 269.917 186.438 269.406 186.378 268.972C185.788 264.544 187.998 260.435 191.752 258.974C193.157 258.424 195.918 257.507 198.614 257.507C199.237 257.507 199.832 257.556 200.372 257.655C201.755 257.908 205.311 259.699 205.173 261.056C205.156 261.232 205.029 261.523 204.892 261.83C204.462 262.814 203.74 264.462 205.603 265.314C205.983 265.489 206.341 265.577 206.661 265.577C208.111 265.577 208.507 263.902 208.8 262.682C208.893 262.281 208.981 261.902 209.086 261.693C209.896 260.056 214.278 255.919 216.092 254.579C220.209 251.535 224.822 249.859 229.083 249.859C231.244 249.859 233.31 250.288 235.223 251.128C237.014 251.914 238.668 253.963 238.337 256.023C238.277 256.403 237.648 256.881 237.047 257.342C235.862 258.249 234.385 259.375 235.107 261.017C235.488 261.88 236.182 262.336 237.125 262.336C238.381 262.336 239.71 261.523 240.41 260.765C240.603 260.556 240.713 260.298 240.823 260.056C240.994 259.66 241.11 259.435 241.374 259.413H241.446C243.75 259.413 248.898 262.034 251.009 263.369C253.098 264.693 254.294 266.291 254.564 268.126C254.944 270.752 253.528 273.851 250.237 277.609C249.504 278.444 248.633 279.202 247.79 279.933V279.927Z" fill="black"/>
<path d="M32.4329 107.514C30.8951 110.502 29.7211 112.865 29.8258 113.87C29.8589 114.178 30.0298 114.386 30.1675 114.557C30.2282 114.628 30.2778 114.689 30.3109 114.743C30.0794 114.765 29.8809 114.87 29.7156 115.04C29.1203 115.677 29.1754 117.144 29.2746 118.463L29.2857 118.639C29.5613 122.561 31.6171 125.66 34.9352 127.149C37.4431 128.275 42.0069 128.396 43.8478 128.396C45.0439 128.396 46.2454 128.346 47.2265 128.264C54.3092 127.654 59.5343 123.567 62.7698 116.128C63.2052 115.128 63.5635 113.837 63.7343 112.7C65.7406 114.485 68.3642 115.496 71.0154 115.496C73.6666 115.496 76.3784 114.414 78.3075 112.453C81.0744 109.64 82.9539 104.113 83.1744 100.394C83.2516 99.0476 83.1413 97.7016 83.0366 96.3996C82.9429 95.2349 82.8437 94.0317 82.8823 92.8396C86.1673 92.7956 90.4114 91.9715 93.0736 90.8398C93.7625 90.5486 94.1484 90.1586 94.2255 89.6806C94.3192 89.1038 93.961 88.472 93.1342 87.7523C93.1177 87.7358 93.0956 87.7193 93.0736 87.7083C89.8933 86.203 85.9634 84.3406 82.6177 81.9068C83.6429 81.3849 84.7673 80.7696 85.7208 79.962C87.2035 78.7094 89.9649 75.3472 91.0287 73.7815C94.6554 68.436 94.457 64.0903 90.3893 60.1128C88.835 58.591 87.0767 57.8823 85.2248 57.1297C85.0264 57.0472 84.8224 56.9648 84.6185 56.8824C87.1704 52.5863 85.1035 47.7846 83.0035 44.0598C81.7579 41.8568 80.1374 40.0988 77.8996 38.533C75.5406 36.8794 72.7296 36.0059 69.7642 36.0059C65.8123 36.0059 61.8769 37.5716 58.9611 40.2965C58.0737 41.1261 57.0596 42.4831 56.7178 43.7027C54.3753 41.8348 50.9029 39.5219 46.7029 39.4175C46.532 39.4175 46.3612 39.412 46.1903 39.412C41.9021 39.412 37.6636 40.7635 33.9431 43.3291C32.4219 44.3785 30.9833 45.9003 30.0077 47.5045C29.8754 47.7187 29.7487 47.9824 29.5998 48.2846C29.429 48.6307 29.2361 49.0208 29.0046 49.4053C27.8306 51.3886 26.414 59.981 26.7117 62.2719C27.1636 65.7495 29.5613 67.1119 32.0967 68.5513C32.3612 68.6997 32.6258 68.8535 32.8959 69.0073C32.6423 69.3534 32.3557 69.3864 31.9809 69.4303C31.7439 69.4578 31.4794 69.4853 31.2203 69.6116C30.1896 70.1061 29.2195 71.2873 28.514 72.1498C28.1998 72.5289 27.9077 72.886 27.7644 72.9849C27.7258 73.0068 27.588 73.0233 27.4888 73.0343C27.2518 73.0618 26.9266 73.1002 26.629 73.2815C25.014 74.2649 21.4203 79.6324 20.6432 81.2915C17.6448 87.7083 18.9125 96.0425 23.6526 101.102C25.9455 103.547 29.1644 104.706 33.7778 104.739C33.6014 105.245 32.9841 106.442 32.4329 107.514ZM35.9053 70.9576C36.5502 70.8148 37.2116 70.6665 37.9006 70.4577C38.0218 70.4192 38.099 70.2599 38.0935 70.1281C38.0604 69.6611 38.0163 69.0128 37.6691 68.6502C37.3715 68.3426 33.3313 66.2494 32.8683 66.0297C32.5927 65.8978 32.3006 65.8868 32.0416 65.8813C31.8762 65.8813 31.7108 65.8703 31.6557 65.8484C31.4077 65.6396 29.4896 63.2663 29.3738 62.9751C28.966 61.1621 29.8754 56.2232 30.4542 53.9817C31.6447 49.3833 33.3975 46.0706 38.4463 43.7796C40.7006 42.7578 43.3793 42.1919 45.9809 42.1919C49.9879 42.1919 53.2785 43.5214 55.2352 45.9442C55.4611 46.2189 55.632 46.5485 55.7974 46.8672C56.1777 47.5924 56.5745 48.334 57.5391 48.334C57.8036 48.334 58.0903 48.2791 58.4155 48.1637C58.5036 48.1308 58.5698 48.0593 58.5918 47.9659C58.7076 47.488 58.7792 46.988 58.8454 46.5046C58.9942 45.4882 59.143 44.4334 59.6832 43.5709C61.5517 40.5657 65.3879 38.6978 69.6926 38.6978C72.1949 38.6978 74.6091 39.3406 76.4831 40.4998C79.4319 42.3238 83.3122 49.4383 83.1744 52.7675C83.1579 52.9543 82.7114 55.02 82.6122 55.3442C82.5791 55.3606 82.5185 55.3881 82.4744 55.4046C82.276 55.487 82.0335 55.5859 81.8846 55.7837C81.7634 55.9485 81.4547 56.3221 81.124 56.7341C80.2256 57.8548 79.9114 58.2449 79.8618 58.3548C79.6413 58.8272 79.6579 59.3382 79.9114 59.7337C80.1539 60.1128 80.5783 60.3326 81.0689 60.3326C81.102 60.3326 81.135 60.3326 81.1736 60.3326C81.6146 60.3051 81.9067 60.1293 82.1878 59.9535C82.524 59.7502 82.8713 59.536 83.5657 59.536C83.7752 59.536 84.0067 59.5579 84.2602 59.5909C87.5893 60.0963 91.398 63.7332 91.0838 67.2603C90.7641 70.8807 84.5468 78.7808 81.0028 80.0664C80.898 80.1049 80.639 80.1488 80.3634 80.1983C79.239 80.396 77.6957 80.6597 77.8445 81.6212C78.0705 83.0715 79.0516 83.3188 79.8343 83.522C80.1043 83.5934 80.3634 83.6594 80.5839 83.7638C81.0028 83.967 81.3941 84.2802 81.8075 84.6153C82.1547 84.8955 82.513 85.1812 82.8933 85.4064C82.9925 85.4614 83.2571 85.6042 83.6264 85.802C86.6468 87.4227 88.4712 88.483 89.0775 88.9609C88.8846 89.0543 88.7248 89.1862 88.5815 89.3125C88.3941 89.4719 88.2287 89.6092 88.0248 89.6477C87.198 89.8015 85.1917 89.9443 83.8964 89.9443C83.5382 89.9443 83.2626 89.9333 83.0642 89.9114C82.7004 89.8729 82.3697 89.763 82.0224 89.6477C81.565 89.4993 81.0965 89.3455 80.5398 89.3455C80.4791 89.3455 80.4185 89.3455 80.3579 89.3455C80.2201 89.351 80.0988 89.4389 79.8067 89.6477C79.6358 89.7685 79.2776 90.0267 79.1563 90.0432C79.0406 90.0542 78.9413 90.1421 78.9193 90.2575C78.798 90.8233 79.2059 91.4057 79.6028 91.9661C79.8728 92.3506 80.1484 92.7462 80.187 93.0483C80.898 98.6081 80.2146 106.618 75.9374 110.87C74.7634 112.041 72.724 112.738 70.4863 112.738C69.3508 112.738 68.2871 112.551 67.4217 112.2C66.876 111.98 66.1264 111.107 65.3934 110.261C64.4233 109.14 63.591 108.173 62.869 108.167C62.428 108.167 62.0698 108.299 61.8107 108.568C61.254 109.14 61.2761 110.145 61.2926 111.035C61.3036 111.447 61.3091 111.837 61.2485 112.062C61.0776 112.711 60.3721 114.233 59.9091 115.243C59.7934 115.491 59.6942 115.71 59.6115 115.886C58.1344 119.161 56.7344 121.336 53.5982 123.429L53.3722 123.583C52.8926 123.907 51.432 124.891 51.2777 124.962C50.8147 125.094 50.3131 125.094 49.784 125.094C49.1722 125.094 48.5383 125.094 47.8879 125.292C47.4415 125.429 47.0005 125.764 46.7415 125.967C46.7194 125.984 46.7029 125.995 46.6864 126.011H46.6753C46.4604 125.858 46.1076 125.616 45.6722 125.577C45.5344 125.566 45.3856 125.561 45.2313 125.561C44.6029 125.561 43.8919 125.649 43.2084 125.737C42.6407 125.808 42.1116 125.879 41.7258 125.879C41.6266 125.879 41.5329 125.879 41.4557 125.863C41.3179 125.841 41.1801 125.748 41.0258 125.649C40.8384 125.522 40.6234 125.38 40.3588 125.347C39.9565 125.292 39.5486 125.248 39.1407 125.204C37.0628 124.979 34.9077 124.742 33.3644 123.056C32.929 122.578 32.6699 121.545 32.4274 120.539C32.2069 119.649 31.9809 118.727 31.6061 118.078C32.229 117.672 32.3557 116.628 32.466 115.688C32.5156 115.271 32.5597 114.875 32.6479 114.579C33.4305 111.832 35.4644 106.893 37.2392 104.767C37.3384 104.651 37.6195 104.426 37.9226 104.184C38.9203 103.388 40.2872 102.294 40.1108 101.333C40.0281 100.894 39.6478 100.564 38.9809 100.35C38.8045 100.295 38.6281 100.267 38.4573 100.267C37.6305 100.267 37.0407 100.899 36.5171 101.454C36.203 101.789 35.8998 102.108 35.6187 102.212C35.6187 102.212 35.5911 102.223 35.536 102.223C35.4148 102.223 35.2329 102.19 35.0455 102.157C34.7919 102.113 34.5108 102.058 34.2352 102.058C34.136 102.058 34.0368 102.064 33.9431 102.08C33.6896 102.124 33.4471 102.289 33.2597 102.432C33.1604 102.19 32.9455 102.02 32.6203 101.926C32.4329 101.871 32.2455 101.849 32.0471 101.849C31.8321 101.849 31.6392 101.877 31.4628 101.904C31.3305 101.926 31.2038 101.948 31.0825 101.948C31.0384 101.948 30.9888 101.948 30.9447 101.937C30.4652 101.844 26.9101 100.861 26.651 100.734C26.6235 100.707 26.5683 100.591 26.5353 100.509C26.4636 100.344 26.3754 100.152 26.2321 100.026C22.9581 97.0863 21.4038 93.1857 21.7345 88.7522C22.181 82.7089 26.2266 76.1713 31.7935 72.4904C33.166 71.5784 34.5108 71.2818 35.9329 70.9631L35.9053 70.9576Z" fill="black"/>
<path d="M136.513 212.285C140.542 212.285 144.714 210.928 146.665 208.984C147.553 208.099 147.961 207.105 147.873 206.033C147.751 204.55 146.649 202.962 144.852 201.677C144.648 201.528 142.361 200.133 142.157 200.056C142.08 200.029 141.997 200.018 141.909 200.018C141.782 200.018 141.661 200.045 141.545 200.073C141.446 200.094 141.358 200.116 141.275 200.116C141.22 200.116 141.176 200.105 141.137 200.084C140.244 199.545 140.52 198.501 141.01 197.089C141.17 196.628 141.319 196.188 141.374 195.809L141.512 195.705C142.091 195.727 142.708 195.87 143.309 196.013C143.976 196.172 144.665 196.331 145.332 196.331C145.999 196.331 146.5 196.183 146.969 195.875C147.029 195.837 147.073 195.771 147.09 195.699C147.106 195.628 147.09 195.551 147.046 195.491L145.811 193.722C145.762 193.65 145.673 193.606 145.585 193.606C145.585 193.606 145.42 193.606 145.343 193.606C144.626 193.606 143.899 193.452 143.199 193.31C142.471 193.156 141.721 193.002 140.955 193.002H140.862C139.583 193.024 134.418 194.584 133.503 195.463C132.958 195.985 132.77 196.458 132.936 196.87C133.244 197.633 134.655 197.749 135.466 197.749C136.392 197.749 137.483 197.595 138.205 197.298C138.018 198.205 137.935 199.095 138.227 199.946C136.342 200.204 133.167 200.869 130.758 202.528C130.709 202.561 130.676 202.605 130.654 202.66C130.466 203.188 130.202 203.742 129.954 204.275C129.028 206.248 127.975 208.484 130.092 210.401C131.442 211.626 133.724 212.296 136.518 212.296L136.513 212.285Z" fill="black"/>
<path d="M122.408 245.232L125.374 246.402C125.456 246.715 125.556 247.77 125.644 248.633C125.815 250.413 125.953 251.709 126.162 252.16C126.327 252.511 126.713 252.759 127.099 252.759C127.463 252.759 127.887 252.533 128.003 251.901C128.212 250.72 127.887 249.391 127.573 248.105C127.457 247.633 127.347 247.177 127.27 246.748L131.519 247.254C131.745 247.633 131.894 248.506 132.021 249.281C132.253 250.66 132.451 251.858 133.156 251.973C133.239 251.984 133.316 251.995 133.388 251.995C133.691 251.995 133.939 251.88 134.11 251.654C134.628 250.968 134.248 249.451 133.779 247.825C133.713 247.594 133.641 247.347 133.603 247.182L137.053 246.485C137.478 246.803 137.72 247.386 137.946 247.946C138.271 248.743 138.641 249.644 139.633 249.644C139.743 249.644 139.864 249.633 139.991 249.605C140.09 249.583 140.173 249.512 140.201 249.413C140.575 248.177 139.969 247.309 139.434 246.545C138.933 245.836 138.552 245.292 138.889 244.567L140.884 247.649C140.906 247.682 140.928 247.71 140.961 247.726C141.204 247.886 141.606 248.078 141.953 248.078C142.212 248.078 142.361 247.973 142.444 247.885C142.571 247.748 142.626 247.561 142.609 247.325C142.571 246.721 142.019 245.88 141.435 244.99C140.895 244.166 140.333 243.32 140.256 242.76C140.217 242.469 140.344 242.15 140.471 241.815C140.603 241.48 140.735 241.134 140.752 240.749C140.851 238.194 136.684 233.64 134.391 232.646C133.267 232.157 131.773 231.898 130.075 231.898C127.088 231.898 123.643 232.712 121.51 233.92C121.097 234.151 119.239 236.343 119.041 236.684C118.401 237.766 118.418 238.881 118.434 239.963C118.445 240.601 118.451 241.26 118.324 241.903C118.214 242.452 117.696 243.672 117.194 244.858C116.263 247.056 115.706 248.429 115.838 248.995C116.042 249.512 116.456 249.83 116.93 249.83C117.283 249.83 117.619 249.649 117.878 249.325C118.098 249.045 118.374 248.116 118.809 246.627C119.118 245.567 119.614 243.859 119.901 243.37C120.771 244.221 120.568 245.682 120.353 247.232C120.187 248.396 120.022 249.605 120.342 250.583C120.347 250.605 120.358 250.627 120.375 250.649L120.584 250.968C120.612 251.011 120.65 251.044 120.7 251.066C120.97 251.193 121.207 251.253 121.422 251.253C121.99 251.253 122.331 250.847 122.436 250.039C122.546 249.182 122.497 248.221 122.453 247.292C122.42 246.605 122.381 245.897 122.414 245.243L122.408 245.232ZM120.749 238.343C121.003 237.365 121.201 237.299 121.499 237.299C121.703 237.299 121.979 237.354 122.364 237.442C122.386 237.442 122.408 237.447 122.425 237.447C122.491 237.447 122.552 237.425 122.601 237.381C122.668 237.326 122.706 237.244 122.701 237.156C122.679 236.656 122.684 236.304 122.982 236.035C123.279 235.821 126.542 234.404 126.856 234.354C126.901 234.354 126.939 234.354 126.989 234.354C127.248 234.354 127.573 234.398 127.915 234.442C128.317 234.497 128.736 234.552 129.138 234.552H129.205C129.623 234.546 130.015 234.508 130.39 234.475C130.792 234.437 131.172 234.404 131.569 234.404C132.087 234.404 132.55 234.464 133.03 234.596C134.771 235.074 138.53 239.315 138.271 240.919C138.178 241.32 136.375 243.996 136.056 244.205C135.405 244.633 134.341 244.847 132.809 244.847C132.749 244.847 132.693 244.847 132.638 244.847C132.688 244.809 132.743 244.776 132.798 244.738C133.09 244.534 133.416 244.309 133.658 243.919C134.253 242.974 134.286 240.744 134.049 239.683C133.73 238.249 131.244 237.227 129.998 237.156C129.932 237.156 129.866 237.151 129.8 237.151C128.29 237.151 127.066 238.233 126.614 239.98C126.239 241.414 126.46 243.282 127.683 244.43C125.456 244.309 122.712 243.37 121.405 241.683C120.65 240.711 120.435 239.59 120.755 238.348L120.749 238.343Z" fill="black"/>
<path d="M146.241 240.909C146.368 241.063 146.478 241.195 146.522 241.31C146.484 241.425 146.351 241.722 146.247 241.964C145.993 242.53 145.684 243.233 145.585 243.661C145.304 244.887 145.078 246.227 145.519 246.919C145.547 246.958 145.58 246.991 145.618 247.013L146.307 247.386C146.346 247.408 146.395 247.419 146.439 247.419C146.45 247.419 146.467 247.419 146.478 247.419C147.624 247.249 147.85 244.497 147.895 243.414L150.761 244.782C150.761 245.777 150.827 250.611 152.26 250.875C152.276 250.875 152.293 250.875 152.309 250.875C152.348 250.875 152.387 250.869 152.42 250.853L153.318 250.463C153.423 250.419 153.489 250.309 153.483 250.194L153.23 245.661L156.394 245.914C156.697 247.09 158.262 250.413 159.552 250.413C159.624 250.413 159.701 250.402 159.767 250.38C160.142 250.271 160.302 250.034 160.373 249.859C160.66 249.122 159.938 247.941 159.249 246.793C158.946 246.299 158.505 245.568 158.455 245.326L161.145 244.639C161.762 245.419 163.906 247.754 165.091 247.754C165.174 247.754 165.251 247.743 165.323 247.721C165.383 247.705 165.439 247.666 165.472 247.612L165.918 246.958C165.946 246.919 165.962 246.875 165.962 246.826C166.034 245.985 165.168 245.337 164.331 244.716C163.78 244.304 163.212 243.881 163.041 243.519C163.002 243.37 163.074 243.162 163.234 242.958C163.449 242.678 163.774 242.475 164.005 242.475C164.033 242.475 164.055 242.475 164.077 242.486C164.215 242.53 164.711 242.953 165.113 243.299C166.111 244.156 167.357 245.216 168.183 245.222C168.404 245.222 168.591 245.15 168.74 245.013C168.85 244.909 168.861 244.766 168.872 244.584C168.878 244.48 168.889 244.282 168.933 244.227C168.977 244.183 169.176 244.09 169.308 244.035C169.705 243.859 170.201 243.639 170.256 243.205C170.289 242.931 170.14 242.667 169.793 242.392C169.578 242.222 169.319 242.074 169.049 241.92C168.498 241.607 167.935 241.288 167.621 240.739C167.577 240.667 167.505 240.612 167.417 240.601C167.406 240.601 167.395 240.601 167.379 240.601C167.307 240.601 167.235 240.629 167.186 240.684L166.309 241.563L165.047 240.524C165.389 239.519 165.284 238.415 164.728 237.316C163.642 235.173 161.161 233.531 159.376 233.069C159.067 232.992 158.747 232.954 158.389 232.954C157.954 232.954 157.546 233.014 157.187 233.064C156.901 233.102 156.658 233.141 156.449 233.141C156.383 233.141 156.322 233.141 156.283 233.135C156.25 233.108 156.195 232.981 156.168 232.91C156.113 232.767 156.052 232.619 155.92 232.536C155.302 232.141 154.228 231.91 152.965 231.91C151.775 231.91 150.678 232.119 150.044 232.476C148.749 233.196 145.795 236.91 145.547 238.387C145.31 239.816 145.866 240.475 146.235 240.915L146.241 240.909ZM162.335 239.651C162.065 240.81 160.709 241.876 158.951 242.337C159.844 239.849 159.128 237.398 157.033 235.728C157.248 235.695 157.463 235.679 157.672 235.679C158.725 235.679 159.794 236.08 160.853 236.866C162.038 237.75 162.55 238.712 162.33 239.651H162.335ZM151.174 236.08C151.091 236.151 151.058 236.267 151.097 236.371C151.444 237.426 152.106 237.651 152.602 237.651C152.734 237.651 152.872 237.635 153.015 237.607C152.976 237.717 152.932 237.822 152.894 237.926C152.458 239.074 152.05 240.156 152.717 241.612C152.927 242.068 153.329 242.453 153.721 242.821C153.798 242.892 153.869 242.964 153.941 243.03C152.376 243.019 150.077 241.931 148.903 240.64C148.528 240.228 148.098 239.602 148.165 238.942C148.236 238.239 150.248 235.261 150.849 234.728C151.466 234.185 152.039 234.179 152.761 234.174C152.949 234.174 153.142 234.174 153.346 234.157L151.169 236.069L151.174 236.08Z" fill="black"/>
<path d="M152.365 114.908C152.376 115.095 152.326 115.254 152.265 115.446C152.155 115.809 152.017 116.254 152.282 116.974C153.412 120.072 157.331 121.193 158.962 121.533C161.933 122.149 164.507 122.44 167.054 122.44C169.071 122.44 171.121 122.264 173.497 121.891C175.85 121.522 179.213 120.512 181.439 119.083C182.498 118.402 184.267 116.748 184.509 115.199C184.603 114.595 184.465 114.067 184.102 113.622C183.859 113.326 179.852 111.738 179.598 111.672C177.471 111.101 172.962 110.266 170.735 110.266H170.554C161.035 110.48 155.341 111.172 153.147 112.375C152.414 112.776 152.045 113.122 151.94 113.485C151.841 113.837 152.006 114.122 152.155 114.375C152.26 114.556 152.359 114.727 152.37 114.913L152.365 114.908ZM181.616 115.276C181.362 116.106 177.939 117.979 177.157 118.27C175.906 118.732 174.566 118.962 173.271 119.188C172.813 119.265 172.361 119.347 171.909 119.435C172.549 117.287 172.163 115.26 170.796 113.54C170.769 113.507 170.735 113.48 170.697 113.463L169.501 112.908C169.572 112.908 169.65 112.908 169.721 112.908C173.717 112.908 177.829 113.721 181.627 115.254C181.627 115.26 181.627 115.271 181.621 115.281L181.616 115.276ZM161.321 119.237C159.023 119.105 156.024 118.6 154.63 116.215L155.534 114.238C155.997 113.716 158.461 113.375 162.854 113.221C161.343 114.886 160.792 117.029 161.321 119.232V119.237Z" fill="black"/>
</g>
<defs>
<clipPath id="clip0_1614_10359">
<rect width="246.471" height="270" fill="white" transform="translate(19.0344 36)"/>
</clipPath>
</defs>
</svg>
