<svg width="291" height="360" viewBox="0 0 291 360" fill="none" xmlns="http://www.w3.org/2000/svg">
<g clip-path="url(#clip0_1614_10383)">
<path d="M136.942 47.9722L139.139 47.5366C139.54 49.3144 138.709 49.1202 137.819 50.168C140.023 49.9267 141.136 51.3395 139.764 53.2174C139.316 53.8296 138.297 53.7707 138.42 54.5949C138.562 55.525 139.546 56.3963 139.805 57.2027C140.129 58.2094 140.494 61.3471 141.001 61.9475C141.307 62.3066 142.703 62.3655 143.558 63.1367C147.587 66.8159 147.452 76.5704 140.465 76.123C141.125 80.6264 140.883 84.9767 139.581 89.3153C141.914 89.4801 144.43 90.7458 146.486 91.8819C156.024 97.1683 165.715 103.485 174.134 110.443C175.548 111.615 176.727 113.163 178.111 114.381C185.322 106.475 194.825 101.165 204.01 95.8379C208.205 93.4066 214.32 90.9283 218.102 88.3616C222.745 85.2181 219.634 85.4594 217.519 83.3696L214.874 79.6374C215.587 82.2217 213.466 83.0753 212.729 84.2938C211.18 86.8546 209.79 89.645 207.35 91.6994C203.35 95.0667 199.904 91.1402 202.201 86.5544C203.344 84.2644 206.926 83.817 207.604 82.7103C207.993 82.0804 208.01 80.3026 208.488 79.1959C209.46 76.9236 210.773 76.3761 211.345 73.6917C211.392 73.4621 209.96 73.4268 209.348 73.0677C206.031 71.1074 204.635 65.7739 209.153 64.2375L207.409 62.2948C208.028 60.7113 210.697 60.517 211.392 59.6575C211.905 59.0218 212.187 56.8907 212.759 55.7428C213.33 54.5949 215.993 50.9215 216.924 50.2328C218.945 48.7375 220.865 49.75 222.704 48.9965C223.493 48.6728 224.3 46.4829 225.785 45.8824C228.336 44.8522 233.155 45.3055 235.706 46.3004C239.871 47.9251 246.487 54.1887 246.588 58.9629C251.749 55.4544 254.93 63.325 252.691 67.487C251.778 69.1824 248.897 69.2001 250.617 71.8727C251.336 72.9853 252.214 72.4084 253.204 72.8087C255.307 73.6564 255.177 75.6638 256.397 76.8706C257.44 77.8949 259.767 78.7956 260.898 79.6374C262.801 81.0443 264.704 85.0474 261.882 86.3601C259.661 87.3903 258.158 85.377 256.391 85.0179C255.278 84.7883 254.052 85.1239 253.051 84.8354C252.308 84.6235 247.813 80.7206 247.247 80.6676C246.859 80.6322 245.993 81.1679 245.362 81.2857C244.19 81.5035 243.713 80.7735 242.587 82.4866C240.62 85.4889 249.08 87.2549 251.277 88.3675C261.517 93.5479 282.714 107.211 288.193 117.024C297.655 133.955 279.503 142.691 266.059 146.835C265.464 147.018 264.798 146.929 264.185 146.941C263.761 147.336 267.756 154.206 261.552 151.78L261.917 155.236C259.419 156.419 258.005 158.073 254.918 157.744C252.856 157.52 252.703 156.213 250.983 155.742C250.411 160.157 252.45 164.09 253.139 168.322C257.186 193.3 254.441 217.383 254.93 242.19C254.971 244.191 255.378 251.12 255.89 252.68C256.132 253.41 257.175 253.228 257.163 253.616C256.856 254.446 256.379 254.805 256.244 255.782C255.348 262.346 258.618 273.637 259.349 280.884C259.602 283.374 259.078 286.011 259.82 288.548C261.988 289.149 265.075 288.295 266.943 289.131C268.009 289.608 269.405 291.127 270.796 291.88C274.236 293.741 277.394 293.723 280.039 297.161C282.973 300.975 282.343 303.006 278.036 304.843C277.394 305.856 280.098 308.134 277.129 310.065C274.584 311.725 273.647 310.33 271.414 310.171C267.485 309.888 262.607 310.465 259.131 310.129C256.862 309.912 254.193 308.934 251.666 308.787C248.496 308.605 245.256 309.37 242.422 309.252C240.867 309.188 234.204 307.486 233.326 306.409L234.269 251.844C234.163 250.214 229.968 250.219 228.742 250.29C228.047 250.331 224.1 251.079 223.799 251.285C222.156 252.427 223.316 256.295 223.263 257.984C222.981 266.414 220.771 275.344 220.577 283.957C220.447 289.514 221.172 295.465 220.612 301.105C220.459 302.636 220.123 304.561 218.733 305.385C216.105 306.945 204.552 309.582 200.893 310.436C196.805 311.395 192.463 312.543 188.274 312.779C184.285 313.002 176.674 313.979 179.666 307.922C176.326 308.581 175.342 305.585 172.208 307.51C173.321 310.765 173.151 313.891 168.879 313.856C166.093 313.832 161.809 312.832 158.758 312.726C157.055 312.667 155.629 313.302 153.927 313.202C151.835 313.085 149.231 312.025 146.88 311.854C140.306 311.377 133.831 313.367 127.828 309.558C127.244 309.064 127.769 302.812 127.733 301.517C127.562 295.471 127.951 291.515 128.175 285.723C128.57 275.468 128.481 265.166 128.599 254.923C128.269 252.333 119.656 253.339 118.036 254.481C116.416 255.624 117.653 259.373 117.6 261.057C117.311 269.487 115.108 278.417 114.913 287.03C114.784 292.587 115.508 298.538 114.949 304.178C114.43 309.435 111.414 309.07 107.031 310.341C99.7017 312.472 89.1913 315.51 81.7268 315.857C77.7618 316.04 71.0691 316.846 74.0031 311.001C71.0279 311.436 66.8685 309.6 69.1662 306.38C73.5377 300.257 84.1777 297.82 90.7761 294.871L94.5054 253.381C92.8381 252.698 91.595 250.973 90.2753 250.102C86.87 247.859 77.0313 246.252 73.0192 246.882C70.7569 247.235 68.5829 248.871 66.4326 249.537C61.1538 251.179 55.0738 251.344 49.6831 250.19C45.2056 249.23 42.6959 245.745 38.6543 244.056C35.1548 242.59 31.5139 242.19 27.9319 240.253C26.3294 239.388 23.7312 236.927 22.2525 236.692C17.8987 235.997 7.68289 236.745 4.23049 239.747C3.09344 240.736 2.44538 242.349 1.13748 243.261L0.0475558 242.596C-0.305932 240.848 7.83018 226.908 9.37374 224.653C12.0779 220.703 15.7247 217.412 18.4584 213.492C32.321 193.618 45.9303 173.485 61.254 154.641C62.2202 153.458 66.8803 149.484 66.3206 148.248C64.9479 146.871 63.4574 145.77 62.7916 143.857C60.0816 136.086 62.7327 129.899 67.2397 123.677C76.7721 110.502 88.7435 104.58 102.488 96.874C105.752 95.0432 108.721 92.7355 112.321 91.5111C109.994 87.3668 110.601 82.4572 110.118 77.889C103.024 80.2555 101.31 69.4473 106.571 66.6452C107.296 66.2625 108.727 66.0918 108.804 66.0094C108.851 65.9564 108.309 65.1735 108.439 64.5907C108.539 64.1492 109.163 63.7548 109.234 63.1367C109.352 62.13 108.368 60.2815 108.798 58.9747H107.037C106.83 58.7981 107.967 56.7259 108.203 56.3845C110.56 52.976 113.117 52.5993 116.174 50.6154C120.699 47.6779 122.284 46.8066 127.945 47.1069C129.96 47.2128 134.385 48.9318 135.039 46.6654C135.369 45.5292 134.061 43.875 135.439 44.0163C137.395 44.3518 136.995 46.5417 136.983 47.984L136.942 47.9722ZM226.757 47.0951C225.962 46.9479 225.314 47.6897 224.995 48.4079C225.791 48.555 226.439 47.8133 226.757 47.0951ZM230.498 48.4137V48.8553C230.787 48.7081 230.787 48.5609 230.498 48.4137ZM228.954 48.8553H228.077V49.285H228.954V48.8553ZM121.965 49.2909C121.612 48.9553 119.515 50.2681 119.768 50.6095L122.407 51.051L121.965 49.2968V49.2909ZM234.245 62.9247L235.576 62.7128C236.301 62.183 235.576 61.4059 235.677 60.623C235.8 59.6517 236.454 58.18 236.407 57.3911C236.278 55.1483 226.733 53.2645 225.149 51.0922L224.542 51.2453C224.112 53.2174 220.913 55.9253 220.341 57.2086C220.153 57.6325 221.007 58.074 220.966 59.063C220.919 60.1108 220.07 61.8651 219.717 62.9247C220.706 62.9542 220.683 63.2426 221.148 62.3773C221.561 61.6061 222.444 58.1858 223.458 58.1034C224.518 58.0092 223.687 59.2572 223.593 59.5457C223.399 60.1285 222.038 62.6598 222.356 62.9306C224.848 63.7136 224.63 61.247 226.757 61.1763L225.856 63.5664C228.831 65.6739 227.381 71.3311 228.141 74.7513L232.189 75.2694C234.875 72.4731 233.002 69.877 232.884 66.6746C232.837 65.4325 233.432 64.3434 233.349 63.2073C233.279 62.236 232.307 60.9526 232.478 60.0873C232.866 58.1388 235.158 61.6649 234.239 62.9365L234.245 62.9247ZM229.396 51.4984C229.332 51.4396 227.788 50.9863 227.641 51.0569C227.517 51.6927 228.725 51.8163 229.396 51.9282C229.373 51.7869 229.455 51.5573 229.396 51.4984ZM121.965 54.1357C121.901 54.0769 120.357 53.6236 120.21 53.6942C120.086 54.33 121.294 54.4536 121.965 54.5655C121.942 54.4242 122.024 54.1946 121.965 54.1357ZM135.616 55.89C129.972 58.4331 122.449 59.063 117.576 54.5713C116.805 57.6207 112.457 58.5508 113.134 61.8121L114.436 62.0711L114.489 64.2434C116.84 64.6554 116.033 61.9063 117.352 60.7289C117.906 60.6053 118.442 61.1587 118.389 61.7533C118.36 62.0535 116.316 66.3744 119.096 63.796C119.621 63.3133 120.051 61.2764 120.428 61.1528L121.535 61.3883L120.652 64.2375C122.248 64.2081 122.089 61.5413 124.169 62.0417L122.425 64.8556L124.646 66.2508C123.974 69.7534 123.868 73.4739 124.646 76.9589L129.454 76.9942C130.113 76.3054 126.802 65.097 128.794 65.1264L129.89 65.9976V61.3883L130.779 60.935C131.952 61.7297 131.121 64.0256 132.311 63.7901C134.691 63.325 133.047 59.5987 134.09 59.4044C135.81 59.6811 135.257 61.871 134.744 62.9188C135.922 64.1374 138.332 60.8408 138.096 59.8459C137.619 57.8032 135.457 57.6443 135.622 55.8841L135.616 55.89ZM131.215 55.4544L125.936 55.6663C126.543 56.461 127.468 56.3845 128.358 56.3609C128.97 56.3433 131.015 56.2138 131.215 55.4544ZM240.849 56.773L238.652 56.3315C238.575 57.0791 240.066 56.9025 240.637 57.6443L240.855 56.773H240.849ZM239.4 60.6112C239.754 60.2521 240.072 59.4515 239.777 58.9688L238.004 58.0917C237.314 58.2447 236.92 60.8526 236.89 61.6061C237.079 61.8003 239.153 60.8761 239.406 60.6112H239.4ZM217.077 62.9306C218.479 64.1786 219.834 59.4751 219.711 58.5332C218.609 59.1336 215.775 61.7709 217.077 62.9306ZM241.727 59.4103H240.849V59.84H241.727V59.4103ZM247.966 68.1228C249.139 69.9006 252.002 66.6982 252.214 64.7908C252.444 62.7481 250.558 58.18 247.878 59.634C246.423 60.2462 247.666 67.6754 247.966 68.1228ZM245.244 60.2933L244.367 60.5111L245.238 61.1705V60.2933H245.244ZM243.907 61.6179L241.285 62.0476L242.169 65.562C244.673 65.6798 244.696 63.5193 243.901 61.6179H243.907ZM213.542 65.1205L215.534 62.495C215.098 62.8953 212.17 64.3199 213.542 65.1205ZM139.139 86.4602C139.775 82.9163 138.668 77.6712 139.139 73.9272C140.294 73.5799 140.27 75.0751 140.5 75.2223C140.606 75.287 142.538 74.4982 142.821 74.3098C146.362 71.9021 144.942 65.6503 141.549 63.7842L138.249 64.6967L138.491 67.3281C135.946 69.465 131.957 70.3657 129.448 67.7696C130.667 71.2487 130.974 74.6512 130.767 78.3305L123.916 78.3717C121.983 75.9405 122.49 72.844 122.837 69.9771C120.775 70.3833 115.45 70.9897 113.788 70.0066C110.884 68.2817 113.776 65.4207 113.158 62.9424L110.43 67.2456C107.425 67.2456 105.522 67.7696 105.216 71.0544C104.975 73.6446 104.857 77.1237 108.35 76.7764C108.486 76.7646 110.365 76.1347 110.436 76.0464C110.53 75.9346 110.736 72.9029 111.626 74.3628C112.71 76.1406 111.361 77.3239 111.355 78.9839C111.349 80.644 111.767 84.4763 112.038 86.2659C112.439 88.968 113.158 91.4699 116.003 92.4235C119.002 93.4302 127.586 93.1535 130.797 92.6413C132.152 92.4235 135.498 91.2697 136.494 90.4161C136.771 90.1748 139.092 86.7251 139.139 86.4602ZM238.204 67.3222L237.108 62.9306C235.665 63.8254 234.221 64.626 234.734 66.604C235.123 67.7637 237.244 67.2339 238.204 67.3222ZM137.814 64.2434V63.3662H137.383V64.2434H137.814ZM217.001 65.0499L215.304 64.4612C212.688 67.7048 216.476 68.6938 219.269 68.6467C218.344 67.1338 219.127 65.8269 219.269 64.2551C218.244 64.2964 217.065 63.7901 217.001 65.0558V65.0499ZM239.96 65.1264V64.2493H239.53V65.1264H239.96ZM136.936 66.8807C137.124 65.8093 136.388 64.6201 135.18 64.6908C135.722 65.668 135.716 66.3508 135.18 67.3222L136.936 66.8807ZM223.682 68.6467C224.919 68.1287 225.349 66.8983 225.861 65.7798L223.452 64.6967L223.682 68.6467ZM226.757 76.123V68.6467C225.349 69.0058 224.471 70.036 222.91 70.3009C219.469 70.8896 215.681 70.189 213.112 67.7696C213.872 73.0206 215.51 79.9317 219.829 83.2636C229.697 90.8871 240.914 85.6125 246.057 75.393C247.536 72.4555 246.523 68.6408 246.116 65.3501C246.057 64.8791 246.37 64.573 245.692 64.6908C243.978 67.9638 238.186 68.8704 234.681 68.6467C236.272 75.2223 233.226 78.3011 226.751 76.123H226.757ZM211.787 65.1264C205.106 64.8674 207.427 72.5555 212.665 72.1611L211.787 65.1264ZM116.687 69.0823L115.143 65.5797C113.111 67.2869 113.67 69.6592 116.687 69.0823ZM119.768 69.0823C120.11 69.3413 122.802 68.4819 122.837 67.9874C122.266 66.8277 121.541 66.1801 120.422 65.5679L119.762 69.0823H119.768ZM132.535 67.7637L131.881 65.5679L131.239 66.2508V67.0808L131.887 67.7578H132.541L132.535 67.7637ZM118.884 66.4509H118.006V67.7696L118.878 67.1044V66.4509H118.884ZM212.447 74.8043V75.2458C212.735 75.0986 212.735 74.9515 212.447 74.8043ZM259.561 81.839V82.2806C259.849 82.1334 259.849 81.9862 259.561 81.839ZM261.104 84.9178C261.953 84.7 262.094 83.9465 261.976 83.1636C261.764 82.7103 260.927 84.3468 261.104 84.9178ZM258.677 83.5992V84.0407C258.966 83.8935 258.966 83.7464 258.677 83.5992ZM210.467 85.795C210.679 85.6301 209.695 84.6294 209.147 84.9237C208.935 85.0886 209.919 86.0893 210.467 85.795ZM206.502 88.0084L204.587 87.1725L203.427 88.656L205.395 89.3388L206.502 88.0143V88.0084ZM205.182 91.0813H203.869V91.5111H205.182V91.0813ZM263.738 150.897L261.587 146.217L262.218 145.205C263.113 145.528 263.749 145.634 264.71 145.528C266.353 145.352 272.38 142.974 274.166 142.179C282.325 138.535 291.157 132.772 288.806 122.558C287.144 115.329 276.717 106.599 270.931 102.149C265.841 98.2279 258.889 95.5023 253.634 91.6936C251.913 91.0284 251.725 93.1829 250.252 94.0954C241.757 99.3288 222.827 99.3229 213.454 96.2323C212.223 95.8261 211.469 95.0961 210.326 94.6664C199.332 100.624 188.215 106.728 179.236 115.553C186.288 124.077 188.009 132.966 178.971 140.772L173.922 144.516C175.065 147.465 187.402 148.943 190.413 149.161C193.824 149.408 203.945 148.684 206.072 151.551C208.034 154.194 205.1 159.598 208.034 159.286C209.666 159.109 210.332 154.476 210.909 153.105L212.146 153.841L212.223 158.379C214.526 157.708 214.22 153.246 213.984 151.345C216.158 150.915 215.563 153.446 216.842 154.412C218.998 154.394 216.04 146.07 215.392 144.875C213.065 140.578 206.084 139.995 202.095 138.364C200.84 137.852 199.874 136.916 198.737 136.439C192.227 133.731 183.637 132.695 188.81 123.777C191.938 118.384 199.155 113.81 204.729 111.314L206.09 126.897L208.323 138.523C211.581 139.547 216.488 141.967 217.113 145.576C227.859 146.176 238.546 145.493 249.368 145.564C250.358 145.234 250.193 143.386 250.776 142.573C251.195 141.996 252.473 141.731 252.562 141.031C252.668 140.189 252.196 138.529 252.344 137.099C252.685 133.825 254.288 130.093 254.889 126.891C256.085 120.509 255.896 113.987 257.127 107.641C257.911 106.269 258.966 108.589 259.36 108.865C260.162 109.442 261.14 109.666 261.935 110.255C264.645 112.25 271.344 118.579 271.997 121.752C273.417 128.604 267.832 135.88 261.988 138.823C259.519 140.065 253.752 141.331 252.084 143.444C251.236 144.522 250.435 148.772 250.57 150.191C251.006 154.735 253.846 157.355 258.447 155.736C258.736 155.448 251.855 149.873 255.154 149.143C256.373 148.872 256.962 153.434 259.991 153.982C260.88 154.147 260.621 154.082 260.444 153.534C260.15 152.64 259.973 151.545 259.661 150.791C259.508 150.426 257.322 148.001 259.113 147.83C259.726 147.771 262.123 151.374 263.738 150.897ZM155.877 148.26C157.043 148.331 157.809 148.778 159.058 148.613C162.304 148.189 172.438 143.503 175.395 141.59C188.91 132.854 183.584 120.751 173.492 111.968C165.804 105.28 158.711 101.33 150.009 96.2794C149.143 95.779 147.098 93.701 146.403 93.6951C145.272 93.6833 145.172 95.7908 144.206 96.8033C138.344 102.961 115.102 101.937 107.443 99.2169C106.153 98.7577 105.505 97.857 104.338 97.4214C91.377 104.368 78.1684 111.538 69.2074 123.488C67.2633 126.078 63.8639 131.318 63.4456 134.449C61.8608 146.341 69.6375 150.344 79.9712 151.733C85.5798 152.487 93.604 151.533 98.6471 153.311C103.125 154.888 100.244 160.852 100.886 161.847L102.394 162.329C104.297 162.282 104.48 156.407 105.458 156.189C106.96 155.854 106.518 159.115 106.548 159.933C106.571 160.61 106.141 161.676 107.201 161.464C108.533 159.433 108.698 156.725 108.309 154.435C110.483 154.005 109.888 156.537 111.166 157.502C113.099 155 110.247 147.93 108.085 146.076C104.45 142.956 101.033 143.256 97.0505 141.702C95.5246 141.107 93.8043 139.806 92.1665 139.1C85.1144 136.051 76.9429 134.814 84.0834 125.184C86.1513 122.399 94.5702 115.877 97.7516 114.646C98.1993 114.47 98.541 114.305 99.0477 114.411C99.6604 119.568 99.6722 124.825 100.426 129.97C100.998 133.884 102.341 137.652 102.63 141.62C106.07 142.573 110.1 144.952 111.673 148.295C118.719 147.977 125.754 149.373 132.782 149.555C134.096 149.59 136.152 149.196 137.572 149.172C139.292 149.143 141.172 149.997 143.222 149.078C145.137 145.793 147.04 143.132 147.446 139.224C149.278 131.118 149.52 122.505 151.152 114.34C151.423 112.998 151.435 111.42 152.554 110.467C153.591 112.48 155.623 112.762 157.32 114.052C159.995 116.083 163.63 119.885 165.28 122.811C169.215 129.775 162.752 138.476 156.59 141.767C153.891 143.209 147.54 144.422 146.073 147.094C143.175 152.357 145.384 161.399 152.772 158.838C152.513 157.985 146.333 152.94 149.479 152.245C150.675 151.98 151.493 156.584 154.316 157.084C155.211 157.243 154.952 157.184 154.769 156.637C154.475 155.742 154.298 154.647 153.986 153.894C153.773 153.387 151.647 151.315 153.444 150.927C154.227 150.756 156.319 154.506 158.057 154L155.859 148.283L155.877 148.26ZM221.03 95.9203H219.717V96.35H221.03V95.9203ZM115.361 98.9991H114.047V99.4288H115.361V98.9991ZM254.058 140.336L260.957 137.781C266.141 134.909 272.015 128.61 270.684 122.187C270.071 119.238 262.029 111.191 259.072 110.037C258.359 109.76 258.524 110.137 258.359 110.537C257.281 113.127 257.84 115.906 257.522 118.514C256.633 125.878 254.6 132.966 254.058 140.342V140.336ZM148.395 143.421C150.451 141.943 153.096 141.89 155.293 140.86C160.926 138.217 167.913 129.404 163.989 123.217C162.522 120.904 155.671 113.116 153.025 113.057L148.395 143.415V143.421ZM198.136 122.311H197.258V122.741H198.136V122.311ZM92.4728 125.819L91.595 124.942V125.819H92.4728ZM191.314 131.106V131.547C191.603 131.4 191.603 131.253 191.314 131.106ZM85.6446 134.185V134.626C85.9333 134.479 85.9333 134.332 85.6446 134.185ZM172.161 145.181L158.51 150.02C158.204 150.314 161.998 157.326 155.871 154.859C157.756 159.145 152.118 161.117 148.624 160.552C147.004 160.293 146.721 159.021 145.302 158.821C144.707 163.077 146.704 166.945 147.387 171.024C147.688 172.814 147.234 174.633 147.947 176.411L172.155 145.187L172.161 145.181ZM228.954 147.383C225.231 147.818 221.572 146.482 217.949 147.383C218.497 149.42 219.74 150.85 219.039 153.099C219.593 153.994 220.653 153.069 221.59 153.187C222.344 153.281 223.316 154.07 224.483 154.176C226.144 154.329 228.465 153.676 230.274 153.982C230.28 152.516 228.424 152.84 228.159 151.033C227.982 149.838 228.919 148.578 228.954 147.389V147.383ZM239.088 152.651C242.481 152.763 245.945 152.063 248.985 153.976C250.223 153.181 249.251 152.192 249.221 151.109C249.18 149.72 249.245 148.325 249.215 146.935C246.046 148.825 242.87 146.835 239.536 147.818C240.437 149.461 239.854 151.086 239.094 152.646L239.088 152.651ZM238.11 148.366C237.721 148.007 231.081 147.253 230.563 147.424C229.538 147.76 229.667 150.15 229.932 151.033C231.034 154.747 240.296 153.14 238.11 148.372V148.366ZM120.652 150.456C117.771 150.721 115.096 149.331 112.286 150.462C112.71 152.41 114.366 154.129 113.164 156.172C116.563 156.496 119.762 157.449 123.291 157.049C121.441 154.965 120.098 153.487 120.652 150.456ZM123.427 155.159C125.801 156.819 132.959 154.353 132.063 151.609C131.887 151.074 131.486 150.991 130.997 150.903C128.582 150.456 124.587 150.85 121.971 150.462C121.7 151.939 122.16 154.276 123.427 155.165V155.159ZM131.215 155.736H138.479C138.65 155.736 138.874 155.524 139.457 155.595C140.541 155.73 143.263 157.432 143.77 156.625L143.54 150.462L133.849 151.103C133.395 152.08 133.849 152.846 133.171 153.947C132.547 154.959 131.592 154.9 131.221 155.742L131.215 155.736ZM189.77 154.418H188.457V155.295L189.77 154.847V154.418ZM221.472 255.141C221.307 252.227 222.886 249.254 223.193 246.517C223.923 239.935 223.446 232.783 225.331 226.184L226.804 212.302L232.071 189.373C228.801 178.041 220.671 169.034 216.088 158.262C215.71 157.373 216.076 155.942 215.316 155.742C215.758 158.197 213.395 159.486 212.871 160.999C211.345 165.373 212.187 171.654 211.787 176.187C210.62 189.256 208.358 202.313 206.95 215.34C206.826 216.5 207.05 217.689 206.944 218.849L201.223 253.816L221.472 255.141ZM84.1011 157.496L82.3454 157.708L82.9994 158.356L84.1011 157.92V157.49V157.496ZM164.019 157.944L162.923 159.039L163.129 159.245L164.225 158.15L164.019 157.944ZM118.631 176.67C116.127 172.231 112.262 165.885 110.418 161.34C110.077 160.493 110.018 159.716 110.077 158.821C109.187 159.274 109.434 160.922 108.945 161.864C106.942 165.738 106.477 166.55 106.123 171.36C105.216 183.587 104.709 195.79 102.164 207.87C102.441 220.026 99.142 231.688 97.3686 243.544C96.7088 247.965 96.8679 252.58 95.5541 256.901L115.785 257.76C115.797 255.035 117.235 252.186 117.523 249.601C118.077 244.598 117.482 239.099 118.89 234.037C113.476 233.878 109.959 236.062 106.777 240.188C104.745 240.636 106.712 236.48 107.066 235.632C110.512 227.373 115.691 221.804 120.652 214.893C124.169 209.989 123.692 198.592 126.384 192.858C125.023 187.036 122.36 182.498 119.468 177.4C119.244 177.005 118.719 176.829 118.631 176.67ZM58.3554 161.022L57.2596 162.117L57.4658 162.323L58.5616 161.229L58.3554 161.022ZM178.323 163.66H177.445V164.09H178.323V163.66ZM236.001 252.945C238.345 253.563 240.814 252.097 242.847 252.05C245.71 251.98 248.491 252.78 252.073 252.592C252.897 252.551 253.822 253.492 254.4 252.303C254.152 250.084 253.663 247.459 253.593 245.269C252.738 218.76 255.419 194.183 251.366 167.439C251.171 166.168 250.576 164.961 250.523 163.66C249.18 164.113 249.869 168.004 249.203 168.493C248.149 168.999 247.89 166.721 247.454 167.18C246.293 168.393 245.568 171.236 244.726 172.596C242.517 176.181 239.359 179.872 237.297 183.646C236.66 184.817 236.49 186.795 235.753 187.825C235.241 188.543 234.28 188.743 234.015 189.167C232.955 190.898 234.528 210.254 234.746 213.957C235.17 221.168 236.395 228.326 236.012 235.591L235.518 239.082L235.995 252.945H236.001ZM128.134 203.237L146.427 177.965L145.637 170.135L144.43 166.733L143.54 171.566C142.491 172.072 142.226 169.794 141.79 170.253C140.612 171.489 139.917 174.338 139.074 175.681C136.841 179.242 133.701 182.933 131.633 186.724C130.991 187.902 130.832 189.844 130.09 190.898C129.677 191.487 128.134 192.276 128.134 192.464V203.243V203.237ZM66.0496 171.13C65.1895 170.889 64.453 172.366 64.1231 172.937C63.7932 173.508 63.2453 173.891 63.4161 174.65C64.1997 173.473 66.2853 172.625 66.0496 171.136V171.13ZM203.857 190.922V190.044H203.427V190.922H203.857ZM98.1934 194V193.123H97.7634V194H98.1934ZM61.2068 196.638L60.9888 195.761L60.329 196.632H61.2068V196.638ZM206.938 201.477V200.6H206.508V201.477H206.938ZM101.275 204.555V203.678H100.845V204.555H101.275ZM56.5879 207.199V207.64C56.8766 207.493 56.8766 207.346 56.5879 207.199ZM55.7101 208.517V208.959C55.9988 208.812 55.9988 208.664 55.7101 208.517ZM84.1011 214.675C83.671 213.397 85.2558 211.355 83.671 210.719L82.8698 213.515L84.1011 214.675ZM178.111 229.639L177.457 230.293L177.663 230.499C177.905 230.216 178.547 229.928 178.111 229.639ZM72.4419 232.718L71.7879 233.371L71.9941 233.577C72.2356 233.295 72.8778 233.006 72.4419 232.718ZM147.876 242.896L130.343 235.349V256.024C132.688 256.565 135.015 255.105 137.165 255.111C139.227 255.111 142.35 256.047 144.654 256.03C145.796 256.018 146.875 255.194 148.165 256.012L148.66 255.117L147.882 242.896H147.876ZM194.613 239.305L193.488 238.016L190.212 237.769L194.613 239.305ZM88.9497 242.384C89.1088 241.024 87.0409 240.824 86.057 240.642C85.4031 240.518 85.2322 239.835 84.5488 240.854L88.9497 242.39V242.384ZM200.281 250.378C195.485 246.193 189.747 244.221 183.384 243.715C177.092 243.214 175.613 245.745 170.423 247.029C165.232 248.312 159.27 248.259 154.262 246.858C152.33 246.316 151.058 245.269 149.267 244.592C150.091 247.835 149.225 252.763 150.209 255.753C150.451 256.483 151.493 256.3 151.482 256.689C149.832 260.51 150.209 266.078 151.865 269.923L154.209 291.103C156.501 292.469 159.3 291.168 161.562 292.345C162.705 292.94 164.178 294.529 165.698 295.248C167.047 295.889 168.649 296.095 169.957 296.708C172.544 297.926 174.158 300.039 175.902 302.194C181.181 296.649 189.358 294.847 196.263 291.975L200.281 250.378ZM173.262 244.144V244.586C173.551 244.439 173.551 244.291 173.262 244.144ZM172.603 244.592H171.725V245.021H172.603V244.592ZM67.5932 247.223V247.665C67.8819 247.517 67.8819 247.37 67.5932 247.223ZM66.2735 247.665V248.106C66.5622 247.959 66.5622 247.812 66.2735 247.665ZM180.963 311.001V309.688H180.533V311.001H180.963ZM75.2933 314.08V312.767H74.8632V314.08H75.2933Z" fill="black"/>
<path d="M123.945 109.808C128.759 109.726 133.672 110.161 138.12 112.11C140.571 113.187 148.106 117.479 147.01 120.687C137.443 128.781 120.905 131.843 109.529 126.156C107.579 125.185 102.536 121.028 103.113 118.68C103.797 115.901 110.442 112.375 113.052 111.409C116.752 110.044 120.039 109.867 123.945 109.802V109.808ZM117.129 126.703C112.257 121.723 114.543 117.043 117.353 111.763C114.601 112.01 105.099 116.066 104.786 119.027C104.415 122.553 114.16 126.539 117.129 126.703ZM133.419 125.385C134.126 125.944 145.726 120.658 145.738 119.892C142.816 115.613 137.985 113.364 133.195 111.763C136.253 116.36 137.684 120.923 133.419 125.385ZM132.971 116.148C134.055 114.759 128.676 112.581 127.716 112.387C124.387 111.698 116.41 111.916 116.699 116.772C116.734 117.385 116.946 117.973 117.435 118.374C120.204 120.658 127.84 118.597 131.427 119.233C132.011 119.339 132.676 119.651 132.529 120.322C130.014 123.413 123.615 124.537 119.998 123.177C118.49 122.612 117.677 120.363 116.251 122.088C118.372 125.061 122.355 125.238 125.725 124.961C128.323 124.749 134.939 122.594 133.796 119.086C132.788 116.001 120.699 119.368 118.06 117.414C117.312 112.928 124.311 113.099 127.362 113.617C129.242 113.935 131.198 115.442 132.965 116.154L132.971 116.148Z" fill="black"/>
<path d="M253.999 117.421C241.621 124.679 227.134 129.553 213.684 121.947C210.985 120.423 209.73 118.61 208.269 115.943C209.595 112.228 214.214 110.339 217.725 109.108C229.897 104.846 241.338 105.099 251.418 113.729C252.155 114.359 254.57 116.455 253.999 117.421ZM239.088 122.307C243.359 121.453 247.565 119.375 251.212 117.038C252.214 115.678 244.578 111.157 243.512 110.633C241.644 109.726 237.355 108.549 235.305 108.272C232.218 107.854 226.262 107.996 224.359 110.892C220.406 116.902 233.444 113.983 235.771 113.93C237.308 113.894 240.472 113.741 240.36 115.937C240.148 120.105 230.091 119.975 227.193 119.022C225.897 118.598 225.337 117.65 224.559 117.25C223.369 116.638 222.963 117.844 223.999 118.816C227.31 121.918 236.755 121.553 240.201 118.804C240.967 118.192 240.985 117.25 241.727 117.038C241.491 119.293 240.596 120.717 239.088 122.307ZM222.792 123.625C219.198 119.44 219.345 117.114 221.266 112.205C221.725 111.039 222.597 110.28 222.792 109.114C218.408 110.433 205.206 114.112 213.136 119.864C214.255 120.676 221.996 124.22 222.792 123.625Z" fill="black"/>
<path d="M136.052 79.6566C137.13 81.1047 132.051 85.0548 130.773 85.5787C128.511 86.5029 121.565 87.7863 122.224 84.0423C124.233 84.5426 125.971 82.5588 127.592 82.3527C128.599 82.2291 129.4 82.8296 130.349 82.5529C131.68 82.1585 134.832 78.0201 136.052 79.6566Z" fill="black"/>
<path d="M238.204 76.1234C238.151 79.679 233.214 82.9403 230.05 83.1699C228.536 83.2818 226.22 83.2405 226.751 81.398C229.237 82.3104 229.779 79.6084 230.356 79.2728C231.081 78.849 232.218 79.7556 233.049 79.5672C234.074 79.3376 237.326 75.2698 238.198 76.1234H238.204Z" fill="black"/>
<path d="M241.721 115.266C240.885 115.213 241.503 114.177 240.602 113.53C237.615 111.405 229.868 114.213 226.097 113.506C223.634 113.041 225.349 110.845 227.093 110.104C231.352 108.285 234.928 109.633 239.229 110.062C240.154 110.38 242.081 114.089 241.721 115.26V115.266Z" fill="black"/>
</g>
<defs>
<clipPath id="clip0_1614_10383">
<rect width="290.809" height="272" fill="white" transform="translate(0 44)"/>
</clipPath>
</defs>
</svg>
