<svg width="294" height="360" viewBox="0 0 294 360" fill="none" xmlns="http://www.w3.org/2000/svg">
<g clip-path="url(#clip0_1614_10300)">
<path d="M244.305 243.574C245.495 243.684 246.663 243.339 247.848 243.385C248.05 243.394 248.253 243.372 248.455 243.385C249.066 243.436 249.659 243.413 250.252 243.229C250.578 243.128 250.932 243.11 251.272 243.045C251.837 242.939 252.407 242.857 252.959 242.668C253.363 242.526 253.79 242.406 254.218 242.365C255.146 242.278 256.015 241.993 256.902 241.735C257.715 241.496 258.464 241.166 259.186 240.734C259.553 240.513 259.972 240.366 260.367 240.191C260.734 240.03 261.12 239.897 261.479 239.709C262.15 239.355 262.876 239.166 263.575 238.9C264.664 238.486 265.771 238.238 266.929 238.109C267.784 238.013 268.616 237.714 269.485 237.668C270.808 237.599 272.132 237.54 273.451 237.691C273.85 237.737 274.246 237.825 274.632 237.935C275.519 238.188 276.419 238.404 277.325 238.569C277.904 238.675 278.368 239.033 278.892 239.263C279.117 239.364 279.338 239.52 279.554 239.654C281.19 240.669 282.596 241.933 283.63 243.569C284.076 244.272 284.466 245.003 284.885 245.724C284.912 245.775 284.953 245.83 284.953 245.881C284.986 246.515 285.367 246.997 285.647 247.531C285.859 247.93 286.033 248.358 286.162 248.808C286.328 249.387 286.419 249.985 286.668 250.55C286.851 250.973 286.874 251.451 286.792 251.915C286.511 253.445 286.158 254.957 285.546 256.396C285.422 256.685 285.289 256.979 285.123 257.25C284.301 258.611 283.487 259.971 282.803 261.409C282.564 261.91 282.233 262.347 281.934 262.806C281.727 263.119 281.511 263.427 281.318 263.749C281.125 264.07 280.932 264.383 280.661 264.658C280.464 264.856 280.353 265.141 280.202 265.385C279.82 265.991 279.094 266.166 278.469 265.798C278.248 265.67 278.078 265.477 277.807 265.403C277.449 265.306 277.334 264.989 277.394 264.645C277.499 264.015 277.651 263.399 277.968 262.839C278.538 261.832 279.103 260.826 279.875 259.953C280.146 259.649 280.339 259.295 280.532 258.937C281.19 257.719 281.87 256.51 282.417 255.237C282.633 254.732 282.83 254.222 283.023 253.707C283.359 252.82 283.18 251.947 282.913 251.083C282.904 251.055 282.904 251.023 282.885 251C282.288 250.288 282.274 249.332 281.874 248.551C281.534 247.894 281.19 247.218 280.762 246.621C280.326 246.019 279.825 245.449 279.42 244.828C278.97 244.134 278.331 243.716 277.628 243.381C277.228 243.188 276.87 242.976 276.576 242.65C276.314 242.36 276.006 242.195 275.597 242.167C274.843 242.121 274.14 241.809 273.414 241.639C272.738 241.478 272.063 241.359 271.36 241.395C270.868 241.423 270.381 241.349 269.894 241.326C269.011 241.285 268.12 241.156 267.242 241.533C266.746 241.745 266.167 241.699 265.638 241.869C264.595 242.204 263.538 242.503 262.485 242.806C262.118 242.912 261.791 243.082 261.479 243.293C260.831 243.739 260.128 244.056 259.374 244.291C258.85 244.451 258.354 244.686 257.848 244.902C256.911 245.302 255.946 245.582 254.93 245.66C254.608 245.688 254.301 245.752 254.002 245.858C253.097 246.179 252.168 246.372 251.217 246.469C250.215 246.575 249.218 246.745 248.221 246.855C247.251 246.961 246.258 246.924 245.279 246.924C244.645 246.924 244.011 246.887 243.381 246.997C243.184 247.03 242.977 247.007 242.775 247.002C242.6 246.997 242.425 246.947 242.255 246.974C241.497 247.103 240.789 246.993 240.059 246.74C239.135 246.418 238.151 246.276 237.301 245.747C237.255 245.72 237.196 245.692 237.14 245.688C236.382 245.605 235.794 245.224 235.311 244.654C235.293 244.631 235.27 244.608 235.247 244.599C234.314 244.121 233.602 243.358 232.825 242.682C232.209 242.149 231.635 241.588 231.529 240.72C231.024 239.842 231.171 238.799 230.808 237.884C230.789 237.834 230.78 237.769 230.789 237.714C230.89 237.011 230.702 236.336 230.601 235.655C230.537 235.214 230.679 234.796 230.753 234.373C230.817 234.006 230.927 233.643 230.89 233.261C230.881 233.151 230.89 233.018 230.936 232.921C231.217 232.333 231.253 231.699 231.309 231.069C231.341 230.692 231.469 230.329 231.658 230.003C232.09 229.249 232.37 228.431 232.655 227.618C232.83 227.117 233.05 226.643 233.354 226.234C233.979 225.389 234.089 224.442 234.043 223.449C234.034 223.21 234.029 222.999 234.149 222.783C234.296 222.521 234.291 222.236 234.227 221.942C234.112 221.409 233.979 220.876 233.979 220.32C233.979 220.127 233.891 219.925 233.809 219.745C233.344 218.721 233.482 218.385 232.531 219.539C232.191 219.948 231.718 220.182 231.309 220.494C230.321 221.244 229.153 221.441 227.972 221.561C227.513 221.607 227.053 221.662 226.603 221.74C226.083 221.836 225.582 221.836 225.077 221.62C224.737 221.473 224.355 221.423 223.992 221.322C223.344 221.138 222.752 220.867 222.283 220.352C221.993 220.035 221.685 219.736 221.23 219.626C220.913 219.548 220.693 219.281 220.518 219.015C219.875 218.045 219.314 217.038 219.208 215.848C219.194 215.706 219.158 215.554 219.19 215.421C219.337 214.856 219.319 214.272 219.369 213.697C219.401 213.339 219.498 213.036 219.764 212.769C220.068 212.461 220.343 212.126 220.596 211.777C220.771 211.538 220.968 211.335 221.203 211.17C222.205 210.462 223.271 209.911 224.516 209.768C224.718 209.745 224.916 209.695 225.114 209.672C225.284 209.653 225.477 209.607 225.628 209.663C226.203 209.879 226.828 209.865 227.393 210.076C228.326 210.421 229.273 210.31 230.219 210.232C230.881 210.177 231.525 210.026 232.154 209.796C233.05 209.469 233.956 209.175 234.852 208.858C235.095 208.771 235.321 208.642 235.55 208.518C235.592 208.495 235.628 208.426 235.624 208.38C235.624 208.279 235.537 208.224 235.449 208.229C234.521 208.293 233.68 208.054 232.899 207.562C232.83 207.516 232.738 207.484 232.655 207.48C231.869 207.443 231.235 207.066 230.638 206.606C230.477 206.482 230.298 206.377 230.091 206.367C229.585 206.344 229.153 206.096 228.694 205.931C228.239 205.765 227.908 205.393 227.43 205.255C226.989 205.127 226.612 204.837 226.249 204.543C225.794 204.175 225.403 203.757 225.086 203.27C224.613 202.539 224.047 201.887 223.51 201.207C223.239 200.862 222.977 200.536 222.894 200.085C222.848 199.832 222.765 199.57 222.632 199.354C222.315 198.84 222.338 198.247 222.205 197.691C222.122 197.332 222.14 196.928 222.306 196.583C222.508 196.156 222.581 195.701 222.618 195.241C222.646 194.915 222.788 194.713 223.036 194.529C223.501 194.18 224.002 193.886 224.553 193.702C225.541 193.376 226.212 192.672 226.791 191.868C227.108 191.422 227.356 190.931 227.793 190.572C227.903 190.485 227.991 190.356 228.05 190.228C228.262 189.782 228.487 189.35 228.799 188.968C228.942 188.794 228.896 188.569 228.712 188.44C228.547 188.325 228.372 188.219 228.184 188.15C227.26 187.806 226.382 187.378 225.573 186.808C225.33 186.634 225.059 186.546 224.764 186.537C224.466 186.528 224.213 186.399 223.96 186.252C223.34 185.889 222.719 185.512 222.071 185.2C221.295 184.823 220.486 184.515 219.695 184.161C219.011 183.853 218.335 183.532 217.839 182.934C217.77 182.847 217.669 182.755 217.568 182.732C217.08 182.622 216.791 182.25 216.46 181.932C216.29 181.767 216.138 181.592 216.074 181.367C215.978 181.027 215.794 180.738 215.587 180.457C215.389 180.195 215.311 179.897 215.353 179.561C215.458 178.761 215.518 177.953 215.826 177.194C215.881 177.061 215.918 176.914 215.996 176.795C216.515 175.995 216.947 175.145 217.545 174.396C217.761 174.124 218 173.862 218.151 173.555C218.501 172.847 218.997 172.24 219.484 171.638C220.21 170.742 221.001 169.896 221.92 169.184C222.172 168.991 222.388 168.761 222.586 168.509C223.252 167.635 223.937 166.776 224.778 166.059C224.888 165.967 225.003 165.861 225.068 165.737C225.449 164.975 226.12 164.441 226.621 163.775C226.832 163.499 227.062 163.247 227.154 162.897C227.182 162.787 227.237 162.681 227.297 162.585C227.784 161.836 228.354 161.128 228.749 160.333C229.277 159.271 230.077 158.371 230.468 157.235C230.514 157.102 230.605 156.983 230.697 156.868C231.267 156.169 231.699 155.388 232.182 154.634C232.43 154.248 232.719 153.881 232.908 153.467C233.234 152.764 233.496 152.029 233.786 151.312C233.859 151.123 233.919 150.926 234.02 150.756C234.305 150.259 234.613 149.777 234.907 149.285C234.994 149.138 235.082 148.986 235.146 148.825C235.394 148.177 235.642 147.534 236.056 146.964C236.139 146.854 236.18 146.702 236.203 146.56C236.327 145.811 236.594 145.112 236.879 144.414C236.943 144.257 236.97 144.083 237.012 143.917C237.058 143.734 237.049 143.577 236.833 143.499C236.63 143.43 236.594 143.269 236.626 143.081C236.626 143.053 236.635 143.026 236.644 142.998C236.92 142.194 236.966 141.376 236.879 140.526C236.81 139.855 236.708 139.216 236.355 138.637C236.295 138.54 236.235 138.43 236.221 138.32C236.116 137.562 235.789 136.891 235.477 136.206C235.178 135.549 235.27 134.85 235.33 134.165C235.371 133.678 235.477 133.196 235.541 132.709C235.601 132.272 235.707 131.858 236.033 131.537C236.226 131.348 236.341 131.141 236.405 130.87C236.469 130.595 236.589 130.323 236.722 130.071C237.072 129.409 237.425 128.747 237.816 128.108C238.069 127.69 238.395 127.318 238.685 126.923C238.786 126.785 238.928 126.652 238.974 126.495C239.199 125.76 239.732 125.208 240.095 124.556C240.56 123.729 241.024 122.892 241.378 122.015C241.58 121.518 241.649 120.958 241.823 120.434C241.879 120.268 241.925 120.103 241.989 119.942C242.209 119.404 242.384 118.862 242.306 118.264C242.283 118.076 242.375 117.874 242.412 117.672C242.471 117.304 242.632 116.95 242.568 116.564C242.554 116.481 242.563 116.38 242.595 116.307C242.972 115.521 242.894 114.684 242.894 113.853C242.894 113.742 242.931 113.623 242.977 113.522C243.147 113.136 243.147 112.75 243.069 112.336C242.972 111.854 242.963 111.371 243.253 110.921C243.372 110.732 243.459 110.479 243.441 110.268C243.4 109.744 243.551 109.239 243.519 108.729C243.482 108.094 243.666 107.524 243.947 106.987C244.199 106.495 244.369 105.994 244.484 105.447C244.595 104.919 244.834 104.409 245.063 103.912C245.284 103.434 245.472 102.961 245.459 102.423C245.459 102.253 245.505 102.079 245.56 101.918C245.881 100.957 246.304 100.043 246.929 99.2386C247.159 98.9398 247.38 98.6411 247.471 98.2643C247.504 98.1264 247.563 97.9748 247.66 97.8782C248.262 97.2854 248.63 96.5225 249.172 95.8837C249.654 95.3185 250.059 94.6797 250.528 94.0914C250.688 93.8892 250.858 93.6962 251.028 93.5032C251.35 93.1401 251.75 92.8414 251.961 92.3773C252.072 92.1337 252.315 92.0004 252.508 91.8304C252.839 91.5455 253.138 91.233 253.271 90.801C253.358 90.516 253.538 90.3046 253.763 90.107C254.195 89.7302 254.595 89.312 255.068 88.9765C255.509 88.664 255.813 88.1769 256.346 87.9655C256.442 87.9287 256.506 87.8046 256.575 87.7127C257.099 87.0325 257.789 86.8855 258.584 87.0877C259.006 87.1934 259.402 87.3726 259.746 87.6484C260.247 88.0482 260.399 88.6226 260.119 89.1879C259.953 89.5234 259.737 89.8221 259.434 90.0657C258.924 90.4839 258.4 90.9021 258.051 91.4811C257.991 91.5776 257.899 91.6558 257.812 91.7293C257.168 92.2624 256.617 92.8782 256.061 93.5078C255.472 94.1788 254.93 94.8819 254.374 95.5758C254.232 95.7551 254.117 95.9711 253.947 96.1181C252.931 96.9637 252.361 98.1632 251.525 99.1512C251.424 99.7533 250.845 100.043 250.596 100.58C250.376 101.058 250.142 101.569 249.774 101.987C249.631 102.148 249.585 102.405 249.535 102.626C249.287 103.664 248.809 104.615 248.335 105.548C247.986 106.238 247.844 106.95 247.729 107.69C247.683 107.975 247.651 108.26 247.536 108.531C247.375 108.908 247.288 109.294 247.288 109.707C247.288 110.052 247.182 110.392 247.131 110.732C246.998 111.61 246.791 112.469 246.791 113.375C246.791 114.289 246.704 115.218 246.525 116.109C246.382 116.812 246.217 117.506 246.175 118.228C246.143 118.784 245.9 119.289 245.675 119.786C245.316 120.576 245.073 121.399 244.907 122.249C244.824 122.681 244.696 123.081 244.351 123.393C244.204 123.526 244.057 123.687 243.988 123.867C243.643 124.767 243.092 125.539 242.531 126.307C242.347 126.56 242.141 126.794 242.108 127.143C242.095 127.3 241.943 127.442 241.86 127.594C241.713 127.874 241.538 128.145 241.433 128.439C241.056 129.473 240.546 130.443 240.049 131.422C239.673 132.166 239.3 132.929 239.052 133.724C238.836 134.423 238.878 135.167 239.493 135.71C239.792 135.976 239.935 136.293 240.059 136.656C240.307 137.405 240.468 138.159 240.399 138.949C240.39 139.064 240.371 139.188 240.399 139.294C240.629 140.167 240.477 141.073 240.647 141.955C240.707 142.263 240.697 142.589 240.73 142.906C240.78 143.412 240.67 143.885 240.408 144.313C240.072 144.859 239.856 145.425 239.769 146.077C239.691 146.661 239.406 147.222 239.158 147.768C238.864 148.426 238.459 149.032 238.28 149.745C238.266 149.8 238.239 149.85 238.211 149.905C237.784 150.723 237.384 151.56 236.92 152.355C236.543 152.998 236.125 153.605 236.001 154.363C235.964 154.579 235.831 154.8 235.684 154.974C235.247 155.485 234.944 156.077 234.631 156.661C234.162 157.525 233.533 158.288 233.156 159.207C233.092 159.368 233.014 159.52 232.935 159.676C232.687 160.195 232.444 160.714 232.039 161.146C231.764 161.44 231.566 161.799 231.41 162.176C231.134 162.851 230.775 163.472 230.261 163.996C230.16 164.097 230.086 164.225 229.994 164.336C229.484 164.956 229.103 165.678 228.459 166.197C228.174 166.427 228.009 166.794 227.765 167.079C227.035 167.93 226.249 168.734 225.638 169.69C225.422 170.025 225.086 170.287 224.732 170.485C224.374 170.687 224.084 170.963 223.804 171.252C223.078 171.997 222.356 172.76 221.791 173.614C221.143 174.598 220.339 175.489 219.884 176.601C219.797 176.813 219.636 176.988 219.507 177.181C219.254 177.548 219.158 177.971 219.116 178.403C219.07 178.922 219.231 179.161 219.737 179.396C220.394 179.704 220.95 180.172 221.547 180.572C221.768 180.719 221.966 180.862 222.232 180.889C223.556 181.027 224.677 181.684 225.826 182.277C226.258 182.502 226.722 182.668 227.173 182.856C227.411 182.957 227.664 183.035 227.885 183.169C228.427 183.509 229.015 183.734 229.617 183.936C230.114 184.102 230.56 184.364 230.955 184.717C231.405 185.126 231.888 185.494 232.476 185.687C232.559 185.715 232.655 185.738 232.71 185.793C233.17 186.289 233.758 186.482 234.406 186.533C234.434 186.533 234.461 186.546 234.489 186.56C235.514 187.13 236.653 187.319 237.775 187.576C237.94 187.613 238.106 187.682 238.262 187.755C238.988 188.104 239.783 188.261 240.495 188.642C240.895 188.858 241.548 188.656 241.819 188.284C242.283 187.659 242.402 187.227 241.686 186.551C241.603 186.473 241.516 186.372 241.414 186.344C240.978 186.22 240.817 185.825 240.569 185.517C240.307 185.191 240.27 184.837 240.399 184.455C240.592 183.904 240.872 183.403 241.263 182.966C241.571 182.617 241.966 182.47 242.421 182.489C243.004 182.511 243.574 182.659 244.071 182.943C244.484 183.178 244.829 183.568 244.981 184.056C245.109 184.469 245.325 184.855 245.454 185.255C245.854 186.464 245.996 187.677 245.22 188.83C244.916 189.285 244.687 189.791 244.383 190.246C243.836 191.073 243.129 191.763 242.338 192.351C241.833 192.728 241.221 192.934 240.55 192.861C240.008 192.801 239.475 192.686 238.933 192.622C238.492 192.571 238.069 192.319 237.655 192.121C237.242 191.923 236.777 191.836 236.396 191.56C236.125 191.367 235.78 191.427 235.472 191.367C234.503 191.174 233.583 190.83 232.673 190.471C232.347 190.342 232.007 190.296 231.676 190.191C231.414 190.108 231.221 190.232 231.097 190.453C230.955 190.706 230.821 190.963 230.711 191.225C230.569 191.56 230.164 191.74 230.16 192.158C230.477 192.286 230.789 192.443 231.12 192.544C231.961 192.801 232.673 193.293 233.367 193.808C233.73 194.079 234.084 194.382 234.374 194.731C234.617 195.025 234.889 195.278 235.192 195.494C235.481 195.701 235.711 195.935 235.881 196.252C236.111 196.68 236.387 197.075 236.718 197.443C237.058 197.82 237.242 198.33 237.522 198.766C237.954 199.437 238.432 200.081 238.845 200.761C239.208 201.354 239.581 201.923 240.178 202.314C240.293 202.388 240.362 202.535 240.445 202.65C240.734 203.045 241.038 203.431 241.46 203.702C241.58 203.775 241.667 203.9 241.759 204.005C241.819 204.07 241.851 204.171 241.92 204.207C242.522 204.543 243.092 205.048 243.763 205.113C244.682 205.205 245.362 205.706 246.107 206.119C246.346 206.253 246.497 206.455 246.626 206.685C246.952 207.282 246.777 208.164 246.203 208.537C245.909 208.725 245.661 208.959 245.39 209.175C245.017 209.469 244.613 209.672 244.107 209.515C243.919 209.456 243.708 209.479 243.51 209.442C242.527 209.258 241.823 209.731 241.129 210.361C240.169 211.239 239.25 212.153 238.312 213.054C238 213.353 237.683 213.642 237.416 213.987C236.929 214.63 236.437 215.274 235.959 215.922C235.73 216.23 235.72 216.322 235.941 216.616C236.359 217.172 236.704 217.769 237.072 218.357C237.278 218.679 237.412 219.024 237.504 219.391C237.586 219.727 237.628 220.076 237.853 220.361C237.903 220.425 237.931 220.517 237.94 220.6C237.995 221.202 238.133 221.818 238.069 222.406C237.968 223.339 238.06 224.309 237.632 225.205C237.513 225.458 237.522 225.766 237.467 226.051C237.43 226.248 237.439 226.473 237.343 226.634C236.819 227.489 236.506 228.472 235.803 229.222C235.541 229.502 235.408 229.837 235.344 230.223C235.252 230.761 235.1 231.294 234.953 231.818C234.875 232.094 234.742 232.351 234.916 232.645C235.008 232.806 234.916 232.985 234.843 233.142C234.636 233.578 234.622 234.033 234.677 234.502C234.691 234.617 234.728 234.736 234.705 234.847C234.447 236.037 234.898 237.117 235.197 238.22C235.293 238.583 235.348 238.955 235.412 239.323C235.509 239.837 235.877 240.357 236.341 240.6C236.52 240.697 236.704 240.789 236.892 240.853C237.228 240.968 237.526 241.101 237.669 241.473C237.756 241.699 238 241.804 238.211 241.878C238.997 242.167 239.714 242.609 240.468 242.958C241.451 243.413 242.462 243.496 243.501 243.555C243.758 243.569 244.02 243.555 244.282 243.555L244.305 243.574ZM225.605 197.029C225.619 197.493 226.06 198.564 226.419 198.895C226.851 199.29 227.214 199.759 227.467 200.264C227.706 200.742 228.018 201.147 228.372 201.519C228.721 201.887 229.071 202.296 229.594 202.434C229.902 202.516 230.215 202.636 230.523 202.627C231.106 202.608 231.603 202.852 232.081 203.1C233.032 203.592 234.006 204.001 235.04 204.281C235.344 204.364 235.642 204.479 235.932 204.607C236.148 204.704 236.364 204.759 236.603 204.736C236.713 204.727 236.791 204.58 236.731 204.479C236.557 204.171 236.341 203.904 236.024 203.739C235.835 203.638 235.716 203.495 235.624 203.307C235.449 202.948 235.21 202.622 235.054 202.245C234.902 201.882 234.645 201.56 234.388 201.257C233.951 200.742 233.62 200.177 233.464 199.52C233.409 199.29 233.344 199.037 233.17 198.904C232.651 198.504 232.292 197.994 231.998 197.424C231.961 197.351 231.888 197.291 231.828 197.227C231.166 196.537 230.422 195.954 229.64 195.407C229.287 195.159 228.91 195.076 228.491 195.145C228.294 195.177 228.092 195.214 227.903 195.283C227.605 195.393 227.324 195.467 226.989 195.462C226.423 195.457 225.587 196.459 225.605 197.029ZM235.367 211.666C234.778 211.749 234.268 211.988 233.758 212.236C233.367 212.424 232.963 212.567 232.554 212.714C231.263 213.183 229.898 213.21 228.565 213.422C228.367 213.454 228.156 213.458 227.963 213.422C226.832 213.21 225.679 213.169 224.562 212.866C224.259 212.783 224.002 212.856 223.749 213.036C223.386 213.293 223.248 213.656 223.239 214.079C223.229 214.424 223.211 214.768 223.211 215.113C223.211 215.674 223.344 216.193 223.698 216.643C224.222 217.31 224.907 217.705 225.729 217.857C226.07 217.921 226.396 217.971 226.704 218.169C227.021 218.376 227.402 218.413 227.784 218.399C229.025 218.362 229.898 217.714 230.532 216.712C230.941 216.06 231.465 215.545 232.122 215.168C232.526 214.938 232.935 214.736 233.087 214.235C233.124 214.106 233.248 213.992 233.358 213.904C234.158 213.279 234.585 212.319 235.367 211.662V211.666Z" fill="black"/>
<path d="M264.195 162.709C264.292 163.022 264.398 163.325 264.701 163.477C264.981 163.619 265.142 163.835 265.216 164.129C265.34 164.648 265.694 164.933 266.158 165.168C266.696 165.439 267.196 165.788 267.688 166.133C268.06 166.395 268.079 166.629 267.854 167.024C267.688 167.318 267.417 167.507 267.123 167.603C266.521 167.801 265.91 167.989 265.285 168.081C264.857 168.146 264.439 167.911 264.081 167.659C262.923 166.85 262.224 165.71 261.797 164.391C261.672 164.01 261.53 163.633 261.535 163.215C261.535 163.022 261.392 162.907 261.195 162.893C261.08 162.884 260.96 162.879 260.85 162.893C259.581 163.058 258.318 162.999 257.063 162.746C256.925 162.718 256.778 162.704 256.636 162.714C256.479 162.723 256.351 162.81 256.365 162.985C256.429 163.817 256.654 164.575 257.394 165.076C257.656 165.25 257.867 165.494 258.161 165.627C258.313 165.696 258.451 165.825 258.557 165.954C258.979 166.477 258.897 167.02 258.286 167.314C257.385 167.746 256.438 167.98 255.455 167.539C255.326 167.479 255.174 167.429 255.082 167.332C254.646 166.868 254.214 166.376 254.002 165.779C253.865 165.393 253.708 165.034 253.478 164.704C253.221 164.336 253.129 163.931 253.148 163.477C253.194 161.997 253.414 162.236 251.944 161.795C251.553 161.675 251.213 161.473 250.854 161.252C250.606 161.445 250.666 161.749 250.533 161.96C250.409 162.153 250.262 162.351 250.206 162.567C250.091 163.035 250.216 163.481 250.496 163.872C250.698 164.157 250.965 164.382 251.268 164.556C251.415 164.644 251.571 164.722 251.705 164.832C251.875 164.975 251.921 165.168 251.856 165.384C251.787 165.609 251.672 165.816 251.479 165.954C250.528 166.611 249.182 166.698 248.359 165.894C248.134 165.673 247.904 165.448 247.697 165.209C247.463 164.933 247.426 164.57 247.398 164.235C247.343 163.633 247.339 163.026 247.33 162.424C247.33 162.286 247.385 162.144 247.421 162.006C247.66 161.064 248.129 160.255 248.846 159.589C249.094 159.359 249.076 159.281 248.855 159.005C248.511 158.578 248.157 158.159 247.821 157.727C247.716 157.594 247.61 157.433 247.582 157.272C247.417 156.289 247.091 155.333 247.003 154.336C246.925 153.421 246.856 152.502 246.966 151.578C246.985 151.436 246.98 151.28 247.04 151.156C247.187 150.829 247.215 150.494 247.196 150.145C247.178 149.736 247.288 149.368 247.472 148.986C247.849 148.214 248.285 147.465 248.501 146.62C248.593 146.261 248.621 146.211 248.35 146.041C247.734 145.65 247.274 145.085 246.718 144.625C246.695 144.607 246.686 144.575 246.663 144.561C245.9 143.996 245.344 143.292 245.078 142.364C245.018 142.153 244.834 141.978 244.696 141.794C244.31 141.289 243.915 140.783 243.818 140.131C243.763 139.754 243.368 139.492 243.451 139.087C243.52 138.752 243.685 138.435 243.768 138.099C243.874 137.677 244.044 137.281 244.227 136.891C244.448 136.417 244.825 136.128 245.312 135.962C246.061 135.705 246.636 136.008 246.824 136.78C246.934 137.226 246.98 137.69 247.063 138.141C247.123 138.462 247.219 138.747 247.385 139.019C247.568 139.317 247.725 139.621 247.771 139.974C247.789 140.112 247.84 140.255 247.904 140.379C248.364 141.303 248.915 142.167 249.581 142.957C249.931 143.366 250.409 143.568 250.891 143.757C251.011 143.803 251.13 143.793 251.213 143.715C251.723 143.228 252.385 143.118 253.037 142.98C253.235 142.939 253.428 142.874 253.612 142.792C253.786 142.713 254.044 142.727 254.09 142.493C254.131 142.3 253.865 142.226 253.828 142.075C253.667 141.408 253.161 140.967 252.762 140.466C252.647 140.324 252.592 140.19 252.536 140.025C252.311 139.317 252.426 138.591 252.403 137.874C252.394 137.543 252.596 137.268 252.817 137.042C253.079 136.776 253.364 136.532 253.658 136.298C254.016 136.008 254.462 135.981 254.894 136.008C255.34 136.036 255.795 136.721 255.698 137.176C255.666 137.314 255.606 137.451 255.547 137.58C255.303 138.086 255.321 138.6 255.556 139.087C255.854 139.708 256.098 140.356 256.594 140.875C256.865 141.16 257.091 141.509 257.123 141.937C257.146 142.249 257.343 142.424 257.624 142.429C258.29 142.442 258.947 142.525 259.6 142.649C259.738 142.677 259.889 142.645 260.032 142.626C260.188 142.608 260.303 142.52 260.308 142.35C260.317 141.895 260.399 141.45 260.28 140.976C260.101 140.273 260.11 139.57 260.551 138.908C260.804 138.531 260.873 138.049 261.227 137.713C261.319 137.626 261.24 137.479 261.112 137.47C260.505 137.424 259.903 137.378 259.297 137.337C258.033 137.254 257.035 136.702 256.296 135.678C256.093 135.397 255.882 135.121 255.634 134.878C255.386 134.634 255.202 134.34 255.137 133.982C255.11 133.839 255.055 133.706 255 133.573C254.813 133.092 254.465 132.822 253.956 132.764C253.612 132.723 253.267 132.681 252.922 132.64C252.251 132.557 251.631 132.355 251.07 131.96C250.859 131.813 250.629 131.684 250.39 131.583C249.549 131.22 248.984 130.586 248.593 129.781C248.405 129.391 248.249 128.991 248.01 128.623C247.849 128.375 247.807 128.099 247.844 127.791C247.959 126.904 248.051 126.013 248.143 125.126C248.18 124.763 248.359 124.473 248.584 124.202C248.786 123.959 249.012 123.733 249.205 123.481C249.545 123.035 249.926 122.667 250.473 122.47C250.739 122.373 250.955 122.153 251.213 122.028C252.091 121.61 253.01 121.656 253.92 121.886C254.251 121.969 254.563 122.139 254.876 122.286C255.027 122.359 255.174 122.465 255.298 122.58C255.455 122.722 255.546 122.902 255.478 123.122C255.404 123.347 255.229 123.426 255.009 123.435C254.834 123.444 254.664 123.435 254.49 123.439C253.515 123.485 252.716 123.839 252.127 124.666C251.691 125.282 251.443 125.93 251.466 126.679C251.475 126.914 251.433 127.134 251.401 127.364C251.355 127.677 251.387 127.984 251.479 128.302C251.636 128.835 251.902 129.23 252.44 129.437C252.922 129.62 253.391 129.841 253.874 130.034C254.2 130.163 254.549 130.177 254.899 130.163C255.087 130.154 255.257 130.085 255.289 129.887C255.381 129.294 255.735 128.825 256.006 128.32C256.277 127.814 256.636 127.359 256.967 126.886C257.072 126.734 257.238 126.688 257.408 126.638C257.739 126.537 258.074 126.44 258.387 126.298C258.906 126.073 259.439 125.976 259.99 126.054C260.533 126.132 261.08 126.201 261.608 126.344C263.143 126.757 263.644 128.513 262.582 129.708C262.316 130.011 262.049 130.314 261.755 130.59C261.291 131.027 260.767 131.385 260.179 131.638C259.834 131.785 259.503 131.964 259.177 132.143C258.901 132.295 258.842 132.479 258.924 132.801C258.97 132.966 259.03 133.132 259.076 133.297C259.172 133.628 259.2 133.986 259.545 134.189C259.945 134.423 260.358 134.653 260.836 134.634C261.498 134.611 262.164 134.565 262.743 134.166C263.074 133.936 263.603 133.963 263.773 133.582C263.915 133.265 263.819 132.847 263.883 132.479C264.012 131.744 264.099 131.008 264.329 130.287C264.485 129.795 264.747 129.349 264.885 128.858C264.931 128.688 265.046 128.559 265.174 128.439C265.923 127.755 266.778 127.502 267.803 127.603C268.594 127.681 269.15 128.04 269.609 128.642C269.793 128.885 269.88 129.138 269.853 129.446C269.811 129.905 269.779 130.365 269.77 130.825C269.752 131.67 270.014 132.474 270.234 133.274C270.372 133.766 270.639 134.221 270.855 134.689C270.914 134.814 271.038 134.837 271.149 134.791C271.562 134.611 271.824 134.257 272.1 133.922C272.16 133.848 272.155 133.701 272.141 133.591C272.105 133.361 272.077 133.122 271.985 132.916C271.81 132.53 271.833 132.157 271.884 131.744C271.944 131.243 272.146 130.866 272.468 130.526C272.831 130.135 273.29 129.882 273.81 129.777C274.439 129.648 275.083 129.685 275.708 129.8C276.268 129.901 276.572 130.342 276.765 130.852C277.049 131.601 277.063 132.378 276.916 133.155C276.861 133.444 276.815 133.692 277.004 133.968C277.224 134.285 277.431 134.584 277.822 134.699C278.433 134.873 279.039 135.057 279.655 135.213C280.459 135.42 281.264 135.291 282.063 135.154C282.197 135.131 282.325 135.03 282.436 134.942C282.61 134.809 282.652 134.584 282.528 134.405C282.394 134.216 282.238 134.041 282.178 133.812C282.114 133.573 281.944 133.426 281.751 133.288C281.539 133.141 281.333 132.975 281.149 132.796C280.859 132.516 280.79 132.18 280.85 131.767C280.933 131.215 281.19 130.903 281.732 130.728C282.73 130.406 283.626 130.452 284.522 131.073C285.253 131.578 285.813 132.185 286.176 132.989C286.273 133.2 286.351 133.412 286.314 133.655C286.296 133.793 286.282 133.986 286.36 134.069C286.664 134.382 286.595 134.657 286.392 134.993C286.282 135.177 286.255 135.429 286.241 135.655C286.227 135.875 286.144 136.05 285.997 136.192C285.381 136.794 284.825 137.488 283.929 137.69C283.286 137.837 282.702 138.191 282.027 138.219C281.075 138.26 280.124 138.329 279.173 138.352C278.474 138.371 277.808 138.15 277.137 137.962C276.613 137.814 276.08 137.709 275.629 137.346C275.312 137.093 274.876 137.065 274.49 136.946C274.389 136.914 274.255 136.946 274.154 136.983C273.621 137.203 273.088 137.433 272.564 137.667C272.385 137.75 272.321 137.948 272.431 138.104C272.959 138.839 273.125 139.745 273.566 140.521C274.035 141.349 274.421 142.222 274.862 143.067C274.981 143.292 275.161 143.486 275.303 143.701C275.818 144.464 276.323 145.236 276.847 145.995C277.275 146.615 277.803 147.125 278.405 147.594C279.334 148.316 280.28 149.042 280.896 150.085C280.97 150.209 281.071 150.315 281.181 150.407C282.233 151.303 283.203 152.295 284.357 153.072C284.499 153.169 284.655 153.256 284.816 153.302C285.046 153.366 285.225 153.513 285.427 153.619C285.983 153.913 286.323 154.35 286.291 155.002C286.278 155.305 286.402 155.48 286.645 155.636C287.16 155.972 287.725 156.179 288.309 156.349C288.801 156.491 289.297 156.62 289.756 156.873C290.005 157.01 290.271 157.112 290.584 157.084C290.777 157.066 290.983 157.135 291.172 157.199C291.507 157.309 291.843 157.355 292.192 157.259C292.647 157.13 293.038 157.282 293.401 157.557C293.86 157.911 293.961 158.357 293.755 158.927C293.35 160.039 292.546 160.549 291.392 160.59C291.02 160.604 290.643 160.682 290.28 160.531C290.23 160.508 290.161 160.494 290.11 160.508C289.361 160.682 288.759 160.393 288.226 159.906C288.107 159.8 288.015 159.772 287.849 159.805C287.44 159.887 287.04 159.814 286.687 159.589C285.951 159.124 285.064 158.991 284.334 158.509C284.108 158.362 283.828 158.408 283.571 158.426C283.088 158.453 282.661 158.343 282.275 158.044C281.801 157.677 281.255 157.548 280.652 157.562C279.959 157.58 279.265 157.516 278.575 157.603C278.318 157.635 278.217 157.806 278.368 158.021C278.911 158.798 279.237 159.717 279.94 160.388C280.023 160.466 280.073 160.572 280.133 160.673C280.418 161.142 280.731 161.56 281.319 161.703C281.618 161.776 281.948 161.965 281.971 162.328C281.994 162.718 281.677 162.925 281.369 163.109C281.222 163.196 281.071 163.284 280.887 163.284C280.482 163.284 280.083 163.284 279.687 163.408C279.481 163.472 279.292 163.339 279.186 163.146C279.085 162.962 278.961 162.838 278.745 162.773C278.061 162.571 277.541 162.185 277.238 161.496C277.045 161.055 276.668 160.71 276.438 160.273C276.181 159.782 275.947 159.294 275.873 158.743C275.832 158.444 275.772 158.426 275.455 158.504C275.064 158.601 274.669 158.697 274.274 158.784C273.934 158.862 273.603 158.95 273.304 159.143C272.743 159.501 272.146 159.795 271.539 160.067C271.406 160.126 271.277 160.195 271.158 160.269C270.818 160.485 270.799 160.632 271.029 160.972C271.236 161.284 271.447 161.592 271.645 161.914C271.815 162.194 272.008 162.433 272.325 162.548C272.982 162.787 273.506 163.265 274.122 163.582C274.453 163.752 274.554 164.102 274.66 164.428C274.706 164.566 274.664 164.708 274.586 164.841C274.182 165.522 273.46 165.811 272.665 165.609C272.527 165.572 272.385 165.526 272.242 165.522C271.99 165.512 271.81 165.407 271.663 165.204C271.489 164.966 271.241 164.814 270.956 164.727C270.069 164.465 269.536 163.766 269.062 163.058C268.81 162.681 268.474 162.346 268.295 161.919C268.249 161.804 268.12 161.781 267.996 161.795C266.783 161.909 265.611 162.194 264.448 162.544C264.37 162.567 264.306 162.626 264.205 162.691L264.195 162.709ZM266.172 159C266.383 159.138 266.535 159.005 266.686 158.954C267.123 158.803 267.546 158.601 267.987 158.49C268.727 158.306 269.389 157.98 270.004 157.539C270.496 157.185 271.038 156.914 271.581 156.643C272.178 156.339 272.835 156.225 273.451 155.976C273.929 155.779 274.425 155.618 274.922 155.476C275.285 155.374 275.639 155.264 275.983 155.117C276.806 154.763 277.629 154.414 278.534 154.336C278.653 154.327 278.833 154.313 278.819 154.065C278.373 153.803 277.858 153.601 277.55 153.113C277.472 152.989 277.252 152.953 277.095 152.884C276.935 152.815 276.751 152.796 276.613 152.7C275.997 152.263 275.266 152.056 274.605 151.716C274.072 151.441 273.575 151.091 272.992 150.926C272.89 150.898 272.812 150.783 272.716 150.724C272.201 150.411 271.705 150.076 271.13 149.86C270.767 149.722 270.326 149.657 270.069 149.313C269.844 149.009 269.508 148.931 269.196 148.789C268.419 148.435 267.541 148.325 266.838 147.782C266.594 147.594 266.241 147.594 266.199 147.709C266.135 147.897 266.259 148.04 266.342 148.187C266.452 148.384 266.512 148.605 266.599 148.807C266.852 149.382 267.21 149.901 267.394 150.512C267.532 150.972 267.757 151.404 267.909 151.863C268.166 152.654 268.258 153.481 268.276 154.308C268.286 154.644 268.267 154.998 268.056 155.305C267.964 155.439 267.927 155.627 267.913 155.797C267.844 156.51 267.532 157.116 267.132 157.681C266.82 158.127 266.493 158.559 266.172 159ZM259.232 158.918C259.811 158.982 260.524 158.927 261.245 158.817C262.445 158.633 263.111 157.847 263.57 156.836C263.722 156.5 263.805 156.133 263.998 155.802C264.122 155.586 264.168 155.315 264.218 155.062C264.278 154.782 264.297 154.492 264.352 154.207C264.453 153.688 264.411 153.173 264.32 152.658C264.195 151.974 263.993 151.312 263.731 150.678C263.525 150.181 263.373 149.662 262.996 149.225C262.196 148.302 261.121 147.695 260.321 146.785C260.266 146.721 260.183 146.679 260.105 146.647C259.774 146.514 259.545 146.293 259.343 145.986C259.035 145.512 258.598 145.236 257.982 145.195C257.288 145.149 256.603 145.103 255.91 145.108C255.257 145.112 254.664 145.315 254.085 145.59C254.035 145.613 253.989 145.655 253.952 145.696C253.938 145.71 253.952 145.756 253.961 145.779C253.97 145.802 253.998 145.834 254.016 145.834C254.154 145.82 254.297 145.806 254.434 145.774C255.206 145.599 255.923 145.678 256.567 146.179C256.7 146.284 256.856 146.367 257.017 146.436C257.49 146.638 257.812 147.001 258.079 147.419C258.171 147.566 258.263 147.704 258.368 147.838C258.809 148.407 259.246 148.977 259.356 149.731C259.402 150.039 259.563 150.324 259.65 150.627C259.729 150.903 259.825 151.188 259.825 151.473C259.82 152.162 259.779 152.856 259.715 153.545C259.641 154.368 259.26 155.08 258.897 155.806C258.456 156.689 257.844 157.383 257.035 157.93C256.87 158.044 256.695 158.15 256.544 158.279C256.452 158.357 256.433 158.476 256.558 158.568C256.7 158.669 256.861 158.725 257.031 158.766C257.711 158.922 258.405 158.922 259.241 158.918H259.232ZM266.732 144.285C266.751 144.042 266.732 143.775 266.801 143.531C266.939 143.054 266.99 142.576 266.971 142.079C266.962 141.882 267.008 141.679 267.049 141.482C267.215 140.737 267.592 140.094 268.024 139.478C268.175 139.262 268.332 139.065 268.552 138.913C268.69 138.821 268.897 138.747 268.846 138.541C268.81 138.394 268.626 138.371 268.488 138.329C268.267 138.26 268.042 138.205 267.821 138.145C266.985 137.929 266.126 137.773 265.533 137.033C265.386 136.854 265.142 136.803 264.894 136.891C264.54 137.015 264.182 137.13 263.823 137.249C263.662 137.304 263.58 137.41 263.635 137.576C263.754 137.952 263.704 138.251 263.474 138.619C263.226 139.014 263.175 139.538 263.047 140.011C263.033 140.062 263.014 140.14 263.042 140.177C263.253 140.508 263.166 140.921 263.309 141.252C263.621 141.969 263.786 142.727 264.035 143.463C264.136 143.757 264.333 143.876 264.618 143.885C265.202 143.899 265.753 144.06 266.3 144.248C266.434 144.294 266.562 144.368 266.732 144.285ZM269.439 145.531C269.83 145.659 270.23 145.825 270.648 145.921C271.388 146.087 272.095 146.316 272.684 146.817C272.725 146.85 272.789 146.877 272.84 146.868C272.881 146.863 272.946 146.794 272.941 146.767C272.927 146.684 272.9 146.597 272.849 146.532C272.33 145.838 271.944 145.066 271.562 144.29C271.296 143.752 270.923 143.27 270.786 142.667C270.772 142.612 270.735 142.562 270.698 142.52C270.478 142.272 270.395 141.969 270.34 141.652C270.276 141.307 270.161 140.981 269.945 140.701C269.853 140.586 269.664 140.595 269.591 140.733C269.536 140.834 269.458 140.94 269.458 141.045C269.458 141.574 269.278 142.065 269.205 142.58C269.145 143.021 269.168 143.453 269.425 143.826C269.788 144.354 269.885 144.864 269.439 145.393C269.425 145.406 269.439 145.448 269.448 145.531H269.439Z" fill="black"/>
<path d="M88.8399 171.661C88.8399 171.459 88.8031 171.257 88.6928 171.078C88.2976 170.443 87.8932 169.814 87.5163 169.166C87.0338 168.325 86.2249 167.838 85.4391 167.396C84.7497 167.01 83.9823 166.693 83.1688 166.583C82.6725 166.519 82.2175 166.349 81.8545 165.981C81.7258 165.852 81.565 165.793 81.3949 165.751C80.9997 165.65 80.6367 165.489 80.3149 165.227C80.1863 165.122 80.007 165.076 79.8416 165.03C78.7065 164.703 77.6357 164.207 76.5327 163.789C76.3397 163.715 76.1835 163.591 76.018 163.481C75.1541 162.897 74.2487 162.401 73.2377 162.107C72.5667 161.914 71.9187 161.647 71.381 161.211C70.9674 160.88 70.5354 160.632 70.0575 160.42C69.6669 160.246 69.2716 160.021 68.9683 159.726C68.6696 159.432 68.3525 159.216 67.9895 159.037C67.7229 158.908 67.4977 158.752 67.3645 158.467C67.2128 158.141 66.9279 157.934 66.62 157.764C66.2937 157.585 65.9582 157.415 65.6227 157.254C65.4619 157.176 65.3194 157.084 65.2275 156.932C64.9655 156.477 64.6714 156.059 64.2027 155.783C63.7247 155.498 63.6788 154.892 63.2789 154.547C63.233 154.51 63.1824 154.478 63.1503 154.432C62.7688 153.89 62.3414 153.357 62.3093 152.658C62.2817 152.029 62.0795 151.473 61.7486 150.953C61.4545 150.485 61.2523 149.984 61.1328 149.441C60.9581 148.651 60.6227 147.906 60.5307 147.098C60.5124 146.96 60.4388 146.826 60.3791 146.693C60.2045 146.312 60.1953 145.921 60.2734 145.512C60.3745 145.002 60.4618 144.492 60.4159 143.963C60.4021 143.798 60.425 143.614 60.4756 143.453C60.6778 142.833 60.6824 142.208 60.5767 141.574C60.494 141.077 60.5583 140.599 60.8019 140.149C61.0225 139.735 61.1512 139.299 61.1603 138.821C61.1603 138.596 61.2247 138.361 61.2936 138.145C61.3671 137.915 61.358 137.699 61.3488 137.465C61.3258 136.688 61.2569 135.898 61.358 135.131C61.4499 134.418 61.4545 133.752 61.1879 133.095C61.073 132.814 61.0271 132.539 61.1649 132.258C61.2798 132.019 61.2385 131.767 61.0638 131.619C60.7054 131.316 60.5905 130.93 60.4802 130.498C60.3837 130.112 60.2274 129.721 60.016 129.381C59.4278 128.458 58.9223 127.474 58.1502 126.679C57.8377 126.357 57.6401 125.971 57.5068 125.567C57.2173 124.708 56.7164 123.968 56.1281 123.32C55.6869 122.833 55.3698 122.332 55.209 121.711C55.163 121.546 55.1447 121.362 55.0527 121.22C54.7081 120.686 54.4737 120.084 54.129 119.565C53.7614 119.004 53.5362 118.393 53.2559 117.805C52.9571 117.189 52.7595 116.509 52.2126 116.031C51.9691 115.815 51.8358 115.498 51.7669 115.199C51.5601 114.299 51.1281 113.471 51.0132 112.543C50.9718 112.189 50.834 111.831 50.6271 111.5C50.549 111.371 50.4847 111.238 50.4249 111.1C50.4341 110.668 50.379 110.273 50.2411 109.868C50.2503 109.386 50.1354 108.949 50.0343 108.49C49.9746 108.214 49.8551 107.97 49.7264 107.736C49.7264 107.699 49.7218 107.662 49.7218 107.621C49.731 107.161 49.6713 106.688 49.4828 106.275C49.2714 105.806 49.106 105.305 48.7705 104.9C48.6556 104.763 48.6005 104.602 48.6051 104.418C48.6189 103.88 48.504 103.361 48.6786 102.805C48.8762 102.184 48.6097 101.527 48.4029 100.953C48.1961 100.392 48.1501 99.8361 48.1041 99.2754C48.072 98.8893 48.0306 98.5217 47.8376 98.2C47.5848 97.7818 47.4883 97.359 47.571 96.8811C47.594 96.7478 47.571 96.5823 47.5113 96.4629C47.1528 95.7551 47.0839 94.9739 46.9047 94.2202C46.8174 93.8479 46.6565 93.5308 46.4911 93.1908C46.151 92.5014 45.6914 91.858 45.5398 91.0768C45.4938 90.824 45.3835 90.5804 45.2686 90.3507C45.0986 90.0106 44.8642 89.6889 44.515 89.5372C43.9865 89.312 43.4304 89.1466 42.8421 89.1328C42.6261 89.1328 42.4561 89.2155 42.2999 89.3626C41.753 89.8819 41.5554 90.5391 41.6611 91.2514C41.7346 91.7569 41.8173 92.2808 42.1666 92.7082C42.332 92.9104 42.3734 93.177 42.4331 93.4343C42.548 93.9444 42.7502 94.4132 43.0535 94.8498C43.4028 95.3507 43.6326 95.916 43.5637 96.5502C43.5223 96.9224 43.6142 97.2257 43.8302 97.5198C43.9313 97.6577 44.0232 97.8186 44.0554 97.984C44.1289 98.4068 44.1887 98.8342 44.2116 99.2616C44.2254 99.5006 44.2714 99.7028 44.4047 99.9096C44.8045 100.53 44.9332 101.229 44.9745 101.95C45.0251 102.878 45.2916 103.761 45.4708 104.666C45.48 104.721 45.503 104.781 45.5398 104.822C45.8293 105.185 45.7696 105.567 45.6225 105.962C45.4984 106.298 45.4938 106.638 45.6225 106.978C45.6822 107.139 45.7052 107.313 45.7374 107.483C45.9212 108.356 46.1142 109.22 46.3486 110.084L46.3854 110.094C46.4589 110.342 46.5508 110.581 46.6795 110.81C46.7806 110.994 46.822 111.187 46.8312 111.389C46.8725 112.322 47.3734 113.154 47.401 114.087C47.401 114.115 47.424 114.138 47.4378 114.165C47.787 115.172 48.1317 116.183 48.4856 117.189C48.6005 117.515 48.674 117.892 48.8946 118.136C49.1565 118.425 49.299 118.752 49.4645 119.083C49.6988 119.547 49.9746 119.988 50.2319 120.438C50.4479 120.815 50.6777 121.187 50.7834 121.61C50.8707 121.959 51.0178 122.249 51.3303 122.456C51.5738 122.617 51.7255 122.851 51.7944 123.154C51.8864 123.582 52.1253 123.931 52.3873 124.289C52.8285 124.896 53.2375 125.516 53.7476 126.068C53.8992 126.233 53.9866 126.459 54.106 126.656C54.2531 126.904 54.3956 127.153 54.5564 127.396C54.7448 127.681 54.9241 127.961 55.0711 128.283C55.3193 128.825 55.6088 129.372 56.1006 129.763C56.2292 129.864 56.3257 130.025 56.4039 130.176C56.7439 130.838 57.2219 131.436 57.3138 132.208C57.3184 132.263 57.3506 132.318 57.3735 132.369C57.6677 133.113 57.755 133.876 57.5574 134.662C57.4701 135.006 57.47 135.356 57.5666 135.691C57.8193 136.61 57.732 137.511 57.4425 138.407C57.3552 138.683 57.3046 138.968 57.2311 139.248C57.1897 139.418 57.153 139.588 57.2127 139.758C57.4287 140.36 57.323 140.953 57.1989 141.551C57.0518 142.258 56.891 142.966 56.9232 143.692C56.9461 144.271 56.9094 144.841 56.7761 145.406C56.7347 145.572 56.7164 145.756 56.7393 145.921C56.8726 146.891 56.8313 147.883 57.107 148.839C57.2127 149.198 57.2495 149.575 57.3184 149.942C57.4655 150.705 57.6447 151.45 57.9802 152.171C58.3202 152.902 58.5822 153.66 59.0188 154.349C59.2302 154.685 59.3359 155.089 59.5059 155.457C59.6024 155.664 59.6989 155.889 59.8598 156.045C60.1355 156.312 60.3193 156.638 60.5399 156.937C60.733 157.194 60.9306 157.419 61.2063 157.599C61.8405 158.017 62.3828 158.532 62.6218 159.29C62.7688 159.759 63.0951 160.076 63.4903 160.328C63.7339 160.485 64.0234 160.586 64.2256 160.783C64.9563 161.5 65.9582 161.817 66.7119 162.493C67.2771 162.686 67.6999 163.086 68.1227 163.476C68.4812 163.812 68.904 164.06 69.2762 164.377C69.6347 164.68 70.1494 164.8 70.6044 164.984C71.0547 165.168 71.5097 165.333 71.9371 165.59C72.3231 165.825 72.723 166.087 73.2055 166.119C73.3526 166.128 73.4858 166.179 73.5961 166.284C73.7845 166.473 74.0327 166.56 74.2671 166.666C74.8186 166.914 75.4114 167.112 75.8939 167.456C76.6017 167.957 77.4151 168.164 78.1964 168.426C78.9087 168.66 79.5751 168.996 80.2414 169.308C80.9445 169.639 81.6661 169.92 82.3738 170.232C83.1321 170.572 83.9455 170.816 84.5383 171.445C84.8279 171.753 85.2185 172.043 85.269 172.47C85.3288 172.98 85.4345 173.5 85.3472 174.019C85.2874 174.391 85.2782 174.768 85.3196 175.14C85.3564 175.494 85.2966 175.829 85.1312 176.147C84.9841 176.427 84.883 176.735 84.713 177.001C84.1339 177.925 83.4308 178.702 82.3232 179.01C81.4317 179.253 80.5539 179.534 79.6762 179.819C78.4307 180.223 77.1623 180.471 75.848 180.421C75.3884 180.402 74.9335 180.347 74.4739 180.43C74.189 180.48 74.1016 180.37 74.1844 180.09C74.2947 179.722 74.359 179.341 74.2074 178.991C74.0235 178.573 73.8075 178.127 73.3755 177.907C72.3599 177.397 71.3167 177.015 70.131 177.254C69.0465 177.475 68.0262 177.865 67.0106 178.284C66.7486 178.389 66.4683 178.555 66.3075 178.775C65.9949 179.198 65.5905 179.52 65.2459 179.906C64.7174 180.503 64.5473 181.216 64.5979 181.992C64.6209 182.351 64.7495 182.663 65.0574 182.888C65.2459 183.022 65.4251 183.169 65.6043 183.311C65.7054 183.394 65.7468 183.518 65.6733 183.615C65.347 184.056 65.1494 184.58 64.7312 184.956C63.8993 185.692 63.0262 186.344 61.8727 186.478C61.7854 186.487 61.7026 186.505 61.6199 186.533C60.7559 186.799 59.8828 186.9 58.9774 186.891C58.141 186.887 57.4333 186.629 56.8588 186.064C56.2706 185.49 55.5904 184.938 55.6686 183.968C55.6777 183.858 55.5996 183.748 55.5858 183.633C55.5169 183.118 55.4664 182.603 55.4939 182.08C55.5169 181.689 55.6042 181.34 55.857 181.036C55.9719 180.903 56.073 180.765 56.096 180.586C56.1649 180.039 56.4636 179.63 56.8726 179.281C57.2081 178.996 57.4517 178.633 57.6263 178.233C57.8239 177.769 57.6677 177.291 57.2586 177.015C56.4222 176.45 54.7081 176.712 54.0739 177.502C53.5316 178.178 53.0031 178.863 52.5343 179.593C52.3919 179.814 52.2862 180.044 52.2126 180.296C51.9369 181.248 51.8909 182.231 51.8312 183.21C51.8128 183.541 51.8542 183.895 51.9966 184.226C52.2678 184.851 52.4424 185.508 52.5849 186.179C52.6814 186.625 52.8422 187.066 53.0353 187.479C53.2742 187.994 53.4948 188.559 54.1842 188.67C54.3083 188.688 54.4048 188.854 54.5242 188.922C54.947 189.161 55.3147 189.543 55.811 189.607C56.1971 189.662 56.5233 189.828 56.8634 189.979C57.1805 190.117 57.5068 190.237 57.8147 190.398C58.1732 190.586 58.5408 190.586 58.9131 190.503C59.6438 190.343 60.3699 190.136 61.1006 189.989C61.9278 189.819 62.6815 189.446 63.4765 189.189C64.1107 188.982 64.1889 189.175 64.3865 189.612C64.4324 189.718 64.4738 189.828 64.5014 189.938C64.6484 190.526 64.8093 191.105 65.2137 191.593C65.3194 191.721 65.2734 191.891 65.1448 191.974C64.7817 192.213 64.4278 192.47 64.0326 192.645C63.3065 192.967 62.801 193.491 62.4563 194.184C62.2036 194.69 61.8221 195.094 61.3809 195.407C60.9352 195.719 60.6181 196.101 60.3883 196.579C60.1401 197.08 59.7817 197.489 59.3359 197.824C59.0831 198.017 58.7844 198.178 58.6006 198.422C58.118 199.07 57.5482 199.612 56.9324 200.136C56.4774 200.526 56.05 200.945 55.5721 201.321C54.0739 202.503 52.4148 203.449 50.9029 204.603C50.7237 204.741 50.5169 204.856 50.3009 204.938C49.7907 205.131 49.2852 205.347 48.7383 205.453C48.1639 205.563 47.6676 205.867 47.1574 206.138C46.946 206.248 46.7944 206.423 46.6841 206.629C46.5141 206.933 46.3486 207.231 46.1326 207.507C45.7558 207.99 45.8615 208.863 46.73 209.051C47.0701 209.125 47.4148 209.189 47.7319 209.322C48.7154 209.732 49.6896 210.173 50.6685 210.591C50.9672 210.72 51.2016 210.908 51.4268 211.147C51.8634 211.607 52.3183 212.052 52.8193 212.438C53.4673 212.939 54.0555 213.5 54.5013 214.162C55.1033 215.053 55.7697 215.876 56.4866 216.666C56.6015 216.795 56.7439 216.928 56.7945 217.08C57.1208 218.1 57.8653 218.688 58.8074 219.084C58.835 219.093 58.8579 219.107 58.8855 219.12C59.3267 219.373 59.4692 219.608 59.2302 220.026C58.9636 220.481 58.9774 220.959 58.9039 221.432C58.7522 222.411 58.8671 223.385 59.0372 224.346C59.1612 225.049 59.4232 225.729 59.4875 226.45C59.4967 226.561 59.5519 226.676 59.6116 226.772C60.1585 227.618 60.4618 228.601 61.1833 229.341C61.4085 229.571 61.5004 229.874 61.5556 230.2C61.6521 230.738 61.7853 231.271 61.9416 231.8C62.0335 232.108 62.1622 232.393 61.9922 232.714C61.9232 232.848 61.983 232.999 62.0427 233.132C62.2679 233.624 62.2909 234.13 62.2265 234.658C62.199 234.883 62.2265 235.118 62.2495 235.348C62.3047 235.899 62.2541 236.428 62.0841 236.961C61.8451 237.701 61.6061 238.44 61.5096 239.217C61.4223 239.934 61.0317 240.435 60.3699 240.72C60.1585 240.812 59.9471 240.899 59.7311 240.986C59.5611 241.051 59.4186 241.143 59.3497 241.313C59.1796 241.736 58.7936 241.892 58.4168 242.03C57.9802 242.19 57.5803 242.42 57.1621 242.613C56.5647 242.889 55.9811 243.238 55.3239 243.349C53.8946 243.588 52.447 243.611 51.004 243.477C50.0527 243.39 49.106 243.321 48.1547 243.372C47.8973 243.385 47.617 243.436 47.378 243.358C46.5738 243.096 45.7282 243.077 44.9148 242.871C44.6344 242.797 44.3449 242.76 44.0738 242.664C43.5269 242.462 42.9616 242.365 42.3872 242.296C41.6381 242.209 40.9212 242.016 40.1951 241.809C39.2713 241.547 38.4165 241.156 37.5939 240.665C37.2722 240.476 36.9092 240.352 36.5645 240.205C36.1693 240.035 35.7557 239.893 35.3742 239.686C34.7584 239.35 34.0921 239.162 33.4395 238.941C33.1959 238.859 32.9431 238.79 32.7042 238.689C32.0884 238.427 31.4496 238.252 30.774 238.224C30.2777 238.201 29.8043 238.096 29.3218 237.99C28.8438 237.884 28.3613 237.797 27.8788 237.724C27.0791 237.604 26.2703 237.655 25.466 237.618C24.6572 237.586 23.8576 237.641 23.0579 237.788C21.8677 238.008 20.7188 238.427 19.5147 238.597C19.3493 238.62 19.17 238.679 19.0276 238.776C18.6002 239.065 18.1084 239.235 17.6627 239.493C17.1847 239.773 16.8079 240.178 16.3069 240.412C15.9393 240.582 15.6452 240.849 15.3602 241.152C14.7077 241.841 13.9953 242.475 13.4485 243.27C12.9108 244.056 12.5615 244.943 12.0376 245.738C11.9779 245.83 11.9227 245.954 11.9273 246.06C11.9319 246.529 11.6516 246.873 11.4448 247.246C11.1552 247.774 10.8749 248.298 10.7324 248.9C10.5992 249.456 10.4613 250.017 10.2499 250.555C10.0339 251.097 10.0293 251.685 10.181 252.26C10.2453 252.512 10.3234 252.76 10.3694 253.013C10.6957 254.819 11.2793 256.52 12.272 258.073C12.7223 258.776 13.1957 259.484 13.522 260.251C14.1332 261.708 15.1534 262.903 15.9025 264.268C15.9439 264.341 16.0082 264.41 16.0726 264.466C16.3391 264.7 16.5091 264.994 16.6792 265.302C17.079 266.028 17.8097 266.198 18.5174 265.757C18.6875 265.651 18.8116 265.495 19.023 265.435C19.5239 265.293 19.5744 264.999 19.5055 264.562C19.4136 263.96 19.2527 263.372 18.9494 262.839C18.3842 261.832 17.8051 260.83 17.0422 259.953C16.8538 259.737 16.6792 259.498 16.5459 259.245C15.8474 257.917 15.0799 256.625 14.4917 255.242C14.2895 254.764 14.0781 254.286 13.9172 253.794C13.5496 252.664 13.6369 251.584 14.3262 250.582C14.4227 250.444 14.4779 250.274 14.5238 250.109C14.7674 249.254 15.011 248.395 15.5854 247.682C15.659 247.595 15.7233 247.489 15.7509 247.379C15.8658 246.915 16.1829 246.575 16.4678 246.216C16.7527 245.858 17.0514 245.504 17.2858 245.104C17.7546 244.314 18.4026 243.698 19.2527 243.353C19.6985 243.169 20.0616 242.912 20.3741 242.572C20.5993 242.328 20.8566 242.181 21.2013 242.163C21.693 242.14 22.1664 242.016 22.6397 241.873C23.7197 241.552 24.8181 241.308 25.9624 241.409C26.1646 241.428 26.376 241.441 26.569 241.391C27.1664 241.235 27.7776 241.34 28.3797 241.285C28.6049 241.267 28.8576 241.276 29.0644 241.354C29.5837 241.552 30.1352 241.584 30.6637 241.717C31.9781 242.053 33.274 242.448 34.5792 242.815C34.9239 242.912 35.2088 243.105 35.4937 243.293C35.9763 243.611 36.4772 243.9 37.0333 244.075C37.5296 244.231 38.0029 244.447 38.4809 244.654C39.4873 245.086 40.4984 245.509 41.6151 245.6C42.2493 245.651 42.8605 245.826 43.4671 246.028C43.9865 246.202 44.5241 246.322 45.071 246.377C45.7328 246.446 46.3992 246.478 47.0471 246.611C48.4994 246.91 49.97 246.97 51.436 246.919C52.5619 246.883 53.6786 247.039 54.8046 246.998C55.4342 246.975 56.0638 247.108 56.6566 246.768C56.7531 246.713 56.8818 246.726 56.9921 246.694C57.8791 246.441 58.7844 246.253 59.5932 245.766C59.7862 245.651 60.0252 245.591 60.2504 245.554C60.6456 245.495 60.9352 245.306 61.2063 245.021C61.6061 244.608 62.0243 244.203 62.5712 243.978C62.7918 243.886 62.9572 243.725 63.1135 243.555C63.4398 243.192 63.7845 242.852 64.1705 242.544C64.6576 242.154 65.1815 241.754 65.301 241.069C65.3608 240.724 65.5446 240.417 65.6227 240.086C65.8203 239.277 65.9582 238.454 66.119 237.636C66.1328 237.553 66.1236 237.462 66.1144 237.379C66.0685 237.03 66.1282 236.689 66.2018 236.349C66.3166 235.812 66.3626 235.269 66.2339 234.718C66.1144 234.212 65.972 233.712 66.0179 233.183C66.0317 233.022 65.9628 232.838 65.8893 232.687C65.7008 232.314 65.6503 231.91 65.6457 231.51C65.6411 230.913 65.4481 230.38 65.1907 229.856C64.9885 229.442 64.7357 229.042 64.6071 228.606C64.3267 227.659 63.9315 226.772 63.3938 225.945C63.0721 225.453 62.9297 224.925 62.8883 224.323C62.8469 223.707 63.017 223.054 62.6631 222.471C62.6126 222.383 62.6264 222.236 62.6539 222.131C62.801 221.62 62.7964 221.115 62.6355 220.623C62.8653 220.499 63.0675 220.554 63.2651 220.577C63.5271 220.6 63.7799 220.6 64.0418 220.54C65.7146 220.164 67.199 219.405 68.4352 218.224C69.2073 217.489 69.6852 216.561 69.7082 215.467C69.7266 214.493 69.1108 213.753 68.7064 212.935C68.302 212.627 68.0906 212.181 67.8194 211.772C67.4977 211.28 67.1025 210.885 66.5372 210.66C65.4067 210.209 64.3819 209.548 63.3295 208.95C62.1208 208.256 60.8295 208.031 59.5013 208.1C58.4259 208.155 57.4425 207.948 56.459 207.59C56.3671 207.558 56.2108 207.535 56.2568 207.383C56.2752 207.319 56.3717 207.25 56.4452 207.227C57.4057 206.914 58.3662 206.593 59.3818 206.505C59.8414 206.464 60.301 206.381 60.733 206.216C61.6797 205.857 62.6218 205.499 63.5639 205.127C64.1245 204.906 64.6622 204.607 65.2367 204.433C66.2615 204.12 67.2679 203.799 68.21 203.265C68.6742 203.003 69.1062 202.723 69.4233 202.314C69.7312 201.919 70.0805 201.588 70.4895 201.312C71.0501 200.931 71.4821 200.435 71.836 199.86C72.0796 199.465 72.3185 199.07 72.5483 198.67C72.9757 197.916 73.2974 197.116 73.4812 196.266C73.5823 195.798 73.564 195.352 73.3572 194.915C73.2744 194.731 73.1549 194.552 73.132 194.359C73.0814 193.959 72.8608 193.656 72.6173 193.38C72.2174 192.93 71.8084 192.493 71.3489 192.089C70.733 191.551 70.0437 191.202 69.2762 191.087C68.7248 191.004 68.3801 190.775 68.1181 190.32C67.9481 190.021 67.7275 189.745 67.5667 189.442C67.4472 189.217 67.2955 188.982 67.3323 188.711C67.4058 188.164 67.1668 187.705 66.9417 187.245C66.7854 186.919 66.767 186.914 67.0106 186.652C67.3231 186.312 67.6678 185.995 67.8746 185.577C68.0492 185.223 68.3203 184.984 68.6788 184.823C68.8626 184.74 69.0327 184.626 69.2027 184.52C69.6669 184.23 70.1586 184.12 70.6917 184.276C70.8893 184.331 71.0823 184.387 71.2891 184.345C71.9693 184.212 72.677 184.327 73.3434 184.106C73.4766 184.06 73.6375 184.037 73.7708 184.069C74.3912 184.198 74.9702 184.042 75.5677 183.909C76.1283 183.785 76.712 183.789 77.268 183.619C77.3737 183.587 77.5024 183.587 77.6127 183.605C78.2423 183.725 78.8076 183.513 79.3774 183.293C80.3425 182.921 81.2938 182.507 82.3416 182.374C82.7323 182.323 83.1413 182.25 83.4997 182.034C84.6211 181.363 85.6597 180.595 86.4685 179.547C86.9786 178.881 87.3738 178.137 87.8518 177.456C88.4217 176.648 88.6836 175.747 88.8031 174.795C88.9318 173.761 88.8169 172.723 88.8123 171.689L88.8399 171.661ZM57.0656 211.027C57.5114 211.23 57.9802 211.234 58.4259 211.129C59.7035 210.825 60.7375 211.358 61.7532 212.002C61.8037 212.034 61.8359 212.084 61.8865 212.112C62.369 212.369 62.8791 212.585 63.3295 212.893C63.7523 213.183 64.0096 213.679 64.506 213.9C64.7312 214.001 64.8874 214.175 64.9517 214.405C65.0804 214.842 65.3883 215.141 65.6916 215.453C66.2064 215.982 66.1053 216.478 65.4435 216.832C65.1907 216.97 64.9334 217.098 64.6714 217.218C63.7201 217.659 62.8607 217.379 62.0703 216.818C61.8543 216.662 61.6383 216.57 61.3993 216.473C60.6686 216.175 60.016 215.761 59.5978 215.053C59.5105 214.906 59.391 214.778 59.2715 214.653C58.8166 214.175 58.2697 213.78 57.9572 213.174C57.9204 213.1 57.8377 213.05 57.7734 212.994C57.1024 212.452 56.5831 211.74 55.8156 211.308C55.7651 211.28 55.7145 211.239 55.6915 211.188C55.6594 211.115 55.641 211.032 55.6502 210.954C55.6502 210.922 55.7375 210.876 55.7835 210.871C55.8983 210.862 56.0132 210.876 56.1741 210.885C56.4498 210.876 56.7715 210.894 57.0656 211.027ZM68.0814 195.241C68.5501 195.113 68.9959 195.173 69.4325 195.366C69.6898 195.48 69.7818 195.66 69.7358 195.917C69.4692 197.411 68.8396 198.684 67.6724 199.704C67.0841 200.219 66.4545 200.669 65.8387 201.147C65.4251 201.469 64.9242 201.639 64.437 201.813C62.9986 202.328 61.5464 202.815 60.1447 203.431C59.5886 203.674 58.9912 203.799 58.4122 203.854C58.3248 203.849 58.2651 203.854 58.2145 203.84C58.1686 203.822 58.1088 203.78 58.0997 203.739C58.0859 203.693 58.1042 203.606 58.1364 203.587C58.6649 203.288 59.028 202.787 59.5335 202.443C60.0712 202.075 60.4802 201.519 60.9306 201.037C61.5785 200.343 62.1025 199.538 62.8515 198.932C62.9618 198.844 63.04 198.711 63.1135 198.587C63.5731 197.843 64.1935 197.236 64.7909 196.616C65.278 196.11 65.8387 195.733 66.5648 195.618C67.0749 195.54 67.5759 195.379 68.0768 195.246L68.0814 195.241Z" fill="black"/>
<path d="M12.2855 148.857C12.4601 148.71 12.6715 148.604 12.8737 148.494C13.4022 148.204 13.9629 148.117 14.5511 148.273C15.0796 148.416 15.6035 148.577 16.1274 148.747C16.371 148.825 16.4215 148.944 16.3756 149.22C16.3434 149.418 16.2837 149.615 16.2653 149.817C16.2239 150.314 15.9942 150.686 15.5805 150.952C15.098 151.26 14.8682 151.78 14.5557 152.225C14.3903 152.464 14.427 152.786 14.45 153.066C14.473 153.305 14.6338 153.494 14.8912 153.544C15.4886 153.655 16.0631 153.572 16.5043 153.135C17.1706 152.469 17.8278 151.798 18.2184 150.907C18.3517 150.608 18.5172 150.249 18.7469 150.043C19.0594 149.758 19.3122 150.304 19.6569 150.304C19.7672 150.304 19.8775 150.387 19.9878 150.396C20.1716 150.41 20.3141 150.488 20.4473 150.608C20.7506 150.87 21.0631 151.095 21.4722 151.214C21.8168 151.316 22.0144 151.61 21.9685 152.028C21.9363 152.313 21.9409 152.602 21.9547 152.892C21.9731 153.218 21.9639 153.508 21.7157 153.774C21.5135 153.995 21.5641 154.321 21.5043 154.597C21.4813 154.693 21.5411 154.827 21.6008 154.914C21.7157 155.079 21.8628 155.222 21.9961 155.373C22.212 155.617 22.474 155.672 22.7773 155.557C23.3104 155.355 23.7332 155.029 23.9952 154.514C24.2433 154.022 24.4088 153.503 24.5466 152.97C24.6431 152.593 24.7948 152.51 25.1808 152.533C25.7001 152.566 26.224 152.616 26.6928 152.864C27.065 153.062 27.4465 153.117 27.8647 153.076C28.1772 153.043 28.4989 153.085 28.816 153.094C29.0274 153.099 29.1147 153.246 29.1652 153.42C29.225 153.618 29.1974 153.82 29.1561 154.018C29.1055 154.271 29.0412 154.528 29.0366 154.785C29.0366 155.419 29.0504 156.054 29.0779 156.688C29.0963 157.074 29.2572 157.455 29.5467 157.662C29.7765 157.828 30.0706 158.021 30.4199 157.961C30.7783 157.896 31.0495 157.717 31.2655 157.419C31.5917 156.968 31.8537 156.49 31.9686 155.948C32.0881 155.364 32.2811 154.776 32.0421 154.174C32.0099 154.096 32.0099 154.004 32.0054 153.917C31.9916 153.701 32.0881 153.59 32.3041 153.595C32.9107 153.609 33.5127 153.636 34.1193 153.65C34.3997 153.659 34.7489 153.448 34.9466 153.673C35.112 153.862 35.1166 154.197 35.1717 154.473C35.1947 154.578 35.1717 154.698 35.1625 154.813C35.135 155.056 35.2039 155.282 35.3648 155.452C35.8703 155.985 36.1552 156.656 36.4723 157.299C36.578 157.52 36.7113 157.68 36.9181 157.805C37.6442 158.232 38.0578 158.204 38.715 157.658C38.738 157.639 38.7655 157.625 38.7839 157.602C39.147 157.226 39.3492 156.817 39.1332 156.279C38.9494 155.824 38.7288 155.396 38.453 154.987C38.1773 154.583 37.9061 154.174 37.6442 153.76C37.4742 153.489 37.5247 153.365 37.8464 153.25C38.2003 153.126 38.5587 153.016 38.9218 152.915C39.9604 152.621 39.9558 152.336 40.5073 153.595C40.9117 154.519 41.4907 155.36 42.5431 155.7C42.6764 155.741 42.7959 155.838 42.9062 155.925C43.4393 156.366 44.0735 156.504 44.7399 156.596C45.2959 156.674 45.7647 156.522 46.2242 156.265C46.6287 156.04 46.863 155.668 46.8584 155.203C46.8584 154.794 46.5965 154.514 46.2334 154.339C46.0266 154.238 45.8106 154.156 45.6084 154.045C45.1581 153.802 44.6617 153.627 44.3262 153.204C44.1838 153.025 43.9908 152.878 43.7564 152.823C43.3152 152.717 43.1222 152.35 42.8924 152.023C42.7362 151.803 42.7683 151.66 42.9981 151.522C43.8391 151.021 44.6112 150.419 45.4843 149.969C45.6084 149.905 45.7279 149.813 45.8198 149.702C46.1553 149.307 46.4816 148.903 46.8033 148.498C46.8906 148.388 47.0009 148.241 46.9917 148.122C46.9504 147.584 47.2215 147.12 47.3272 146.619C47.5662 145.461 47.6719 144.293 47.6673 143.117C47.6673 142.712 47.6719 142.299 47.5248 141.917C47.4053 141.61 47.3869 141.306 47.3915 140.989C47.3915 140.704 47.4513 140.392 47.2858 140.139C46.9825 139.675 46.8906 139.114 46.5413 138.678C46.431 138.54 46.3805 138.379 46.3391 138.204C46.2472 137.846 46.0174 137.483 46.0496 137.133C46.0818 136.747 46.5873 136.669 46.8493 136.403C47.3134 135.929 47.796 135.47 48.3061 135.052C48.7886 134.656 49.1517 134.197 49.3355 133.599C49.4458 133.236 49.625 132.915 49.8778 132.625C50.319 132.12 50.6728 131.563 50.8015 130.888C50.8337 130.722 50.921 130.562 51.0129 130.419C51.1829 130.148 51.1829 129.891 51.0497 129.601C50.944 129.367 50.875 129.114 50.8107 128.861C50.7004 128.443 50.5441 128.043 50.3465 127.657C50.0754 127.124 49.6158 126.853 49.0643 126.715C48.5634 126.591 48.1682 126.793 47.9062 127.257C47.7592 127.519 47.7362 127.809 47.6903 128.089C47.58 128.802 47.488 129.514 47.0515 130.125C46.955 130.263 46.8952 130.442 46.8676 130.608C46.7849 131.168 46.5 131.642 46.2013 132.092C45.8888 132.565 45.613 133.057 45.227 133.494C44.8318 133.939 44.4319 134.298 43.8759 134.509C43.6323 134.601 43.4485 134.633 43.2463 134.45C42.8694 134.105 42.3961 133.976 41.9089 133.88C41.601 133.815 41.2931 133.728 40.9944 133.622C40.4889 133.443 40.567 133.461 40.7554 132.91C40.9852 132.234 41.4448 131.747 41.8814 131.237C41.9825 131.118 42.0055 130.989 42.0468 130.856C42.2169 130.295 42.1525 129.716 42.1939 129.142C42.2398 128.53 42.0422 128.066 41.5872 127.699C41.261 127.432 41.0863 127.12 40.9944 126.692C40.8106 125.847 40.3464 125.166 39.5468 124.748C39.2113 124.574 38.8804 124.546 38.5449 124.656C38.1911 124.776 37.8602 124.96 37.5247 125.116C37.2811 125.226 37.2076 125.428 37.2168 125.681C37.2352 126.15 37.4742 126.499 37.805 126.798C37.9521 126.931 38.1727 127.023 38.26 127.188C38.5771 127.8 38.8896 128.452 38.8896 129.142C38.8896 130.038 38.7058 130.915 38.0532 131.619C37.7637 131.931 37.5109 132.276 37.465 132.735C37.4282 133.062 37.2582 133.241 36.987 133.241C36.2885 133.241 35.6083 133.37 34.9236 133.461C34.4181 133.526 34.3307 133.402 34.2664 132.836C34.225 132.487 34.2342 132.156 34.3124 131.812C34.4686 131.099 34.4962 130.392 34.055 129.748C33.9907 129.656 33.9447 129.541 33.9125 129.436C33.7057 128.737 33.3335 128.121 33.0026 127.478C32.6166 126.733 31.9916 126.311 31.2838 125.975C30.6496 125.676 30.0384 125.805 29.4915 126.214C28.8895 126.665 28.8573 127.326 29.4088 127.832C29.7259 128.121 30.0844 128.374 30.4244 128.641C30.6129 128.788 30.7461 128.962 30.7967 129.206C30.8886 129.693 31.077 130.139 31.3574 130.552C31.4677 130.718 31.5366 130.902 31.486 131.122C31.2517 132.188 30.8564 133.204 30.5577 134.247C30.475 134.537 30.2912 134.698 30.0017 134.698C29.3812 134.698 28.8114 134.891 28.2323 135.079C28.1312 135.111 28.0163 135.121 27.8693 135.153C27.8509 134.891 27.8877 134.647 27.8141 134.44C27.6165 133.875 27.6625 133.305 27.6763 132.731C27.6855 132.446 27.6533 132.147 27.5752 131.876C27.4832 131.568 27.4603 131.26 27.4235 130.943C27.3546 130.309 27.1845 129.711 26.7433 129.201C26.2654 128.65 25.7599 128.149 25.0843 127.85C25.0154 127.818 24.9465 127.731 25.0154 127.639C25.043 127.602 25.1073 127.561 25.1533 127.565C25.5577 127.574 25.9621 127.602 26.3665 127.607C26.9502 127.607 27.52 127.538 28.0347 127.225C28.6873 126.825 28.8757 126.067 28.4667 125.424C28.361 125.258 28.2231 125.111 28.0255 124.858C28.5448 124.748 28.9676 124.652 29.3904 124.564C30.2682 124.385 31.146 124.21 31.9226 123.714C32.0881 123.608 32.2949 123.562 32.4879 123.494C33.6919 123.062 34.8592 122.579 35.7554 121.614C36.1001 121.242 36.5688 121.072 37.0468 120.948C37.2719 120.892 37.4971 120.842 37.7223 120.791C38.3152 120.658 38.8896 120.483 39.3951 120.107C39.726 119.858 40.1212 119.789 40.5394 119.766C41.3483 119.721 42.1525 119.638 42.9567 119.546C43.908 119.44 44.6388 118.981 45.1075 118.13C45.2178 117.928 45.3832 117.758 45.4062 117.515C45.4522 116.991 45.443 116.471 45.204 115.989C44.9467 115.474 44.7582 114.918 44.2665 114.555C44.1562 114.472 44.0827 114.33 44.0229 114.206C43.8115 113.774 43.4761 113.47 43.0762 113.218C42.8051 113.048 42.5661 112.85 42.3731 112.584C41.8722 111.903 41.2058 111.389 40.5532 110.869C39.9282 110.373 39.1929 110.267 38.4209 110.378C37.8418 110.46 37.4052 110.865 37.2811 111.421C37.1525 112 37.3822 112.436 37.8556 112.763C37.9751 112.845 38.1084 112.905 38.2186 112.997C38.4392 113.181 38.6552 113.369 38.8574 113.576C38.9999 113.719 38.9172 113.921 38.7058 113.953C38.306 114.017 37.9016 114.054 37.5063 114.123C36.7343 114.266 36.2977 114.743 36.1644 115.506C36.0449 116.191 35.8979 116.867 36.1001 117.561C36.123 117.634 36.1001 117.731 36.0679 117.809C36.0541 117.846 35.976 117.887 35.93 117.882C35.8795 117.882 35.8243 117.836 35.783 117.795C34.7535 116.747 33.4851 116.683 32.1616 116.963C31.5963 117.083 31.146 117.478 30.9621 117.997C30.8059 118.434 30.7278 118.925 30.8886 119.436C31.0357 119.914 31.2563 120.263 31.6791 120.511C31.8537 120.612 31.8169 120.81 31.6009 120.897C31.0403 121.127 30.4888 121.389 29.9051 121.55C28.4024 121.959 26.8812 122.303 25.3784 122.712C24.6294 122.914 23.8665 123.13 23.1909 123.521C22.6946 123.806 22.1937 123.921 21.633 123.967C19.3582 124.146 17.0879 124.39 14.9418 125.258C14.7809 125.323 14.6063 125.341 14.4408 125.396C13.1495 125.828 11.904 126.347 10.9573 127.391C10.8011 127.561 10.6127 127.699 10.461 127.873C10.2128 128.149 9.89575 128.301 9.54648 128.305C8.50327 128.324 7.59333 128.802 6.64204 129.123C6.22383 129.266 5.91133 129.541 5.631 129.9C5.23577 130.405 4.95084 130.975 4.66132 131.531C4.42235 131.995 4.39937 132.552 4.60617 133.052C4.75323 133.406 4.79919 133.769 4.8911 134.128C5.04276 134.744 5.19901 135.401 5.62181 135.865C6.19626 136.499 6.84425 137.078 7.6347 137.464C8.08507 137.68 8.52165 137.685 8.97662 137.524C9.6338 137.29 9.88196 136.66 9.50971 136.072C9.15585 135.511 8.7836 134.964 8.38838 134.436C8.02992 133.962 7.87367 133.402 7.68984 132.859C7.55657 132.469 7.98396 132.193 8.03451 131.816C8.0483 131.734 8.08507 131.651 8.13102 131.577C8.19077 131.481 8.25051 131.375 8.33783 131.306C8.54003 131.145 8.76063 130.975 9.04096 131.058C9.27534 131.127 9.24776 131.38 9.3121 131.563C9.58324 132.382 10.0244 133.066 10.7689 133.54C11.2193 133.829 11.688 134.018 12.2303 133.976C12.6347 133.949 13.03 133.893 13.4298 133.806C14.3351 133.604 14.882 133.002 15.2497 132.211C15.6771 131.283 15.4473 130.47 14.6155 129.868C13.4574 129.027 13.5814 129.008 14.8085 128.347C14.8315 128.333 14.8636 128.328 14.8912 128.319C15.5668 127.997 16.2975 127.79 16.9317 127.377C17.0512 127.299 17.1936 127.248 17.3269 127.211C18.2138 126.959 18.2506 126.917 18.3058 127.855C18.3563 128.756 18.7745 129.44 19.6615 129.771C19.9372 129.877 20.2221 129.909 20.5117 129.918C20.7139 129.927 20.9161 129.909 21.1183 129.918C21.3067 129.927 21.417 130.093 21.3802 130.286C21.371 130.341 21.3435 130.396 21.3297 130.451C21.1964 131.113 20.8517 131.683 20.5438 132.271C20.1072 133.112 19.735 133.99 19.1422 134.748C18.9308 135.019 18.7056 135.295 18.5447 135.598C18.1587 136.315 17.6532 136.94 17.1523 137.575C16.9546 137.827 16.7203 138.034 16.4491 138.209C15.6633 138.71 15.0521 139.413 14.3581 140.019C14.1651 140.189 13.9951 140.401 13.871 140.621C13.6228 141.063 13.2643 141.384 12.8783 141.692C12.6531 141.871 12.4509 142.078 12.2395 142.276C11.4307 143.011 10.6586 143.774 9.50512 143.995C8.70088 144.146 8.0529 144.67 7.44627 145.213C6.31115 146.219 5.05195 147.032 3.58594 147.464C2.97472 147.644 2.38188 147.846 1.78445 148.062C1.53169 148.154 1.32489 148.296 1.10889 148.443C0.750433 148.687 0.621755 149.105 0.727455 149.431C0.888302 149.928 1.02617 150.447 1.5179 150.824C2.32674 151.444 3.2045 151.509 4.14201 151.403C4.33962 151.38 4.52805 151.339 4.73485 151.361C5.24037 151.426 5.69074 151.32 6.07218 150.925C6.30196 150.691 6.60068 150.525 6.98671 150.649C7.17054 150.709 7.38193 150.668 7.57495 150.576C8.35621 150.203 9.15585 149.872 9.9417 149.514C10.3002 149.349 10.631 149.234 11.0079 149.261C11.4904 149.293 11.9178 149.188 12.2947 148.866L12.2855 148.857ZM30.1993 143.806C30.3785 142.662 30.7967 141.591 31.2333 140.525C31.3068 140.346 31.4631 140.194 31.5963 140.047C31.6928 139.941 31.8399 139.872 31.9134 139.753C32.2305 139.257 32.6533 138.976 33.2646 138.953C33.4805 138.944 33.7011 138.815 33.9079 138.714C34.4502 138.448 34.9925 138.177 35.521 137.878C36.2104 137.492 36.9457 137.423 37.6993 137.547C38.2416 137.634 38.7747 137.758 39.2297 138.098C39.34 138.181 39.4824 138.255 39.6203 138.278C40.1856 138.383 40.6222 138.682 41.0863 139.224C40.0661 139.247 39.1424 139.303 38.2462 139.496C36.84 139.794 35.5532 140.309 34.6386 141.522C33.9815 142.395 33.7747 143.333 34.0228 144.376C34.1791 145.02 34.3951 145.649 34.5651 146.288C34.8546 147.414 35.6543 148.112 36.6194 148.604C37.0881 148.843 37.658 148.921 38.2049 148.958C38.931 149.004 39.6387 148.857 40.3418 148.714C40.613 148.659 40.8657 148.471 41.1001 148.31C41.601 147.97 42.0882 147.611 42.5707 147.248C42.8465 147.042 43.0854 146.789 43.2968 146.508C43.4117 146.352 43.4944 146.155 43.715 146.118C43.8023 146.191 43.784 146.283 43.7564 146.361C43.2233 147.685 42.3134 148.701 41.0036 149.206C39.9466 149.615 38.8207 150.001 37.6304 149.638C37.5247 149.606 37.396 149.592 37.2903 149.615C36.4631 149.79 35.6221 149.67 34.7903 149.739C34.1515 149.794 33.5265 149.652 32.9061 149.519C32.6901 149.473 32.4649 149.362 32.2857 149.225C31.6653 148.737 31.1184 148.19 30.9346 147.382C30.9162 147.299 30.9024 147.202 30.8564 147.133C30.3785 146.472 30.3555 145.677 30.2085 144.918C30.1395 144.546 30.1395 144.174 30.1947 143.802L30.1993 143.806ZM22.2856 137.005C22.6394 136.476 22.9106 135.911 23.1496 135.323C23.3656 134.794 23.6459 134.289 23.8573 133.76C24.0365 133.31 24.156 132.832 24.3031 132.368C24.3444 132.234 24.3536 132.06 24.5145 132.023C24.7305 131.977 24.8086 132.179 24.8821 132.322C24.9924 132.519 25.0843 132.735 25.1349 132.956C25.2084 133.291 25.2268 133.636 25.2865 133.976C25.3325 134.247 25.2865 134.486 25.1257 134.711C25.043 134.826 24.9786 134.96 24.9235 135.093C24.7994 135.401 24.7488 135.7 25.0246 135.971C25.1027 136.049 25.1808 136.141 25.1579 136.306C24.2571 136.77 23.1817 136.789 22.2948 137.303C22.1155 137.193 22.235 137.092 22.2902 137.014L22.2856 137.005ZM16.0263 144.707C16.3572 144.537 16.7157 144.413 16.8995 144.036C16.9455 143.944 17.0649 143.875 17.166 143.829C18.0438 143.406 18.9262 142.984 19.8131 142.584C20.0521 142.478 20.2911 142.386 20.4979 142.225C20.5898 142.156 20.6771 142.055 20.7828 142.032C21.5457 141.876 22.088 141.315 22.7543 140.985C22.906 140.906 23.0576 140.824 23.2185 140.759C23.7746 140.534 24.3674 140.387 24.7718 139.877C24.8499 139.776 25.0246 139.748 25.1533 139.693C25.5255 139.542 25.9023 139.394 26.2792 139.247C26.8077 139.041 27.3867 138.958 27.8325 138.553C27.9244 138.466 28.1037 138.462 28.2415 138.443C28.338 138.429 28.4162 138.507 28.3886 138.604C28.3426 138.769 28.2691 138.926 28.2048 139.082C28.0071 139.546 27.8233 140.019 27.5614 140.461C27.2581 140.971 27.0788 141.55 26.9042 142.12C26.8628 142.253 26.7985 142.382 26.7479 142.515C26.4033 143.439 26.2838 144.399 26.316 145.383C26.3251 145.617 26.3757 145.833 26.4906 146.044C26.5687 146.196 26.6376 146.366 26.6514 146.531C26.7296 147.336 27.088 148.011 27.5568 148.641C27.8417 149.027 28.1174 149.413 28.4024 149.804C28.3242 149.845 28.2967 149.877 28.2783 149.872C27.4832 149.615 26.7066 149.307 25.9023 149.077C25.4658 148.953 25.0659 148.701 24.6845 148.425C23.7654 147.763 22.7314 147.345 21.6652 146.95C20.4749 146.508 19.2295 146.233 18.0714 145.704C17.4694 145.429 16.8398 145.203 16.1642 145.167C15.9988 145.157 15.8287 145.121 15.7138 145.001C15.7368 144.79 15.9022 144.771 16.0263 144.712V144.707Z" fill="black"/>
<path d="M209.682 142.446C210.895 142.685 208.845 140.019 208.561 139.845C207.6 139.261 205.44 140.052 204.489 140.548C205.091 141.706 204.089 141.122 203.924 142.014C203.363 145.038 206.424 146.94 209.08 145.64L209.107 144.583L209.921 144.854C209.916 143.921 210.293 143.255 209.682 142.441V142.446Z" fill="black"/>
<path d="M192.443 145.179C192.646 145.11 192.967 145.386 193.275 145.239C195.564 144.145 194.888 139.903 191.386 140.551C191.281 140.57 190.067 141.971 189.943 142.201C189.157 143.681 190.738 146.016 192.195 145.694C192.388 145.652 192.384 145.198 192.443 145.175V145.179Z" fill="black"/>
<path d="M175.21 144.692C177.338 147.303 180.73 144.605 179.493 142.087C177.844 138.718 173.583 142.702 175.21 144.692Z" fill="black"/>
<path d="M164.442 141.979C163.496 138.803 158.514 141.951 159.81 144.777C160.931 147.218 165.605 145.88 164.442 141.979Z" fill="black"/>
<path d="M145.223 140.666C141.993 143.424 144.828 148.052 148.868 145.956C152.429 144.104 148.546 137.836 145.223 140.666Z" fill="black"/>
<path d="M129.741 145.894C130.417 146.61 133.666 146.592 134.364 145.995C136.129 144.069 134.727 139.726 132.007 140.016C129.842 140.246 128.611 142.888 129.07 144.869C129.116 145.066 129.47 145.094 129.539 145.218C129.668 145.448 129.654 145.806 129.737 145.894H129.741Z" fill="black"/>
<path d="M120.218 143.204C119.906 140.769 116.298 139.919 114.988 141.784C113.224 144.303 114.699 147.557 117.934 146.83C119.18 146.55 120.365 144.349 120.218 143.204Z" fill="black"/>
<path d="M105.361 141.978C105.223 141.514 104.097 140.54 103.624 140.392C97.7322 138.554 97.6816 147.92 103.311 146.45C105.09 145.985 105.834 143.559 105.361 141.978Z" fill="black"/>
<path d="M88.9685 145.295C89.8601 144.155 89.7544 142.372 88.8674 141.233C86.9465 138.765 82.4152 143.406 85.5724 145.69C86.5604 146.407 88.247 146.219 88.9685 145.291V145.295Z" fill="black"/>
<path d="M209.682 142.447C210.293 143.261 209.912 143.927 209.921 144.86L209.107 144.589L209.08 145.646C206.424 146.946 203.363 145.044 203.924 142.02C204.089 141.124 205.091 141.712 204.489 140.554C205.44 140.057 207.6 139.267 208.561 139.851C208.845 140.025 210.895 142.691 209.682 142.452V142.447ZM205.845 142.149H206.387V141.882H205.845V142.149Z" fill="black"/>
<path d="M105.361 141.978C105.834 143.564 105.09 145.985 103.311 146.45C97.6816 147.916 97.7322 138.554 103.624 140.393C104.097 140.54 105.223 141.514 105.361 141.978Z" fill="black"/>
<path d="M145.223 140.668C148.546 137.833 152.429 144.106 148.868 145.958C144.828 148.058 141.993 143.425 145.223 140.668Z" fill="black"/>
<path d="M129.741 145.894C129.658 145.806 129.672 145.448 129.543 145.218C129.469 145.094 129.12 145.066 129.074 144.869C128.61 142.888 129.842 140.246 132.011 140.016C134.731 139.726 136.138 144.069 134.368 145.995C133.67 146.588 130.421 146.61 129.745 145.894H129.741Z" fill="black"/>
<path d="M120.218 143.204C120.365 144.353 119.18 146.555 117.934 146.83C114.699 147.552 113.224 144.303 114.988 141.784C116.294 139.919 119.906 140.769 120.218 143.204Z" fill="black"/>
<path d="M88.9686 145.296C88.2425 146.225 86.5605 146.408 85.5725 145.696C82.4153 143.412 86.9512 138.766 88.8675 141.238C89.7545 142.378 89.8602 144.157 88.9686 145.301V145.296ZM88.7572 142.672L88.6102 142.07L88.1552 142.668H88.7572V142.672Z" fill="black"/>
<path d="M164.442 141.979C165.605 145.88 160.931 147.218 159.81 144.777C158.514 141.951 163.496 138.803 164.442 141.979Z" fill="black"/>
<path d="M192.444 145.18C192.384 145.199 192.389 145.654 192.196 145.7C190.743 146.021 189.162 143.691 189.944 142.207C190.068 141.973 191.276 140.576 191.387 140.557C194.889 139.909 195.564 144.151 193.276 145.245C192.968 145.392 192.646 145.116 192.444 145.185V145.18ZM192.692 144.183L193.294 143.581H192.692V144.183Z" fill="black"/>
<path d="M175.21 144.692C173.583 142.702 177.844 138.718 179.493 142.087C180.73 144.605 177.338 147.303 175.21 144.692Z" fill="black"/>
<path d="M206.387 141.881H205.844V142.147H206.387V141.881Z" fill="black"/>
<path d="M88.757 142.67L88.1504 142.666L88.61 142.068L88.757 142.67Z" fill="black"/>
<path d="M192.692 144.182L192.688 143.58H193.294L192.692 144.182Z" fill="black"/>
<path d="M208.864 208.298L208.91 207.88C208.124 206.809 206.607 205.688 205.596 207.117L206.497 207.42L204.673 207.88L204.686 208.937C203.473 207.94 204.585 210.472 204.765 210.669C206.368 212.429 210.013 210.605 208.303 208.477L208.864 208.303V208.298Z" fill="black"/>
<path d="M193.639 210.953C195.776 209.193 194.457 204.712 190.9 206.559C187.435 208.356 190.9 213.214 193.639 210.953Z" fill="black"/>
<path d="M175.425 210.645C178.243 213.223 181.276 208.619 178.936 206.385C176.395 203.959 173.118 208.531 175.425 210.645Z" fill="black"/>
<path d="M163.79 206.306C161.689 204.551 157.834 208.618 160.747 210.998C163.67 213.388 165.899 208.066 163.79 206.306Z" fill="black"/>
<path d="M149.599 208.824C149.466 204.449 144.07 205.888 144.571 209.665C144.838 211.678 149.709 212.556 149.599 208.824Z" fill="black"/>
<path d="M130.476 206.587C129.286 209.717 130.559 212.437 134.199 211.063C135.472 209.491 135.495 206.697 133.27 205.916L130.481 206.587H130.476Z" fill="black"/>
<path d="M118.624 210.719L119.511 208.72L118.362 207.695L118.633 206.85L116.846 206.225V207.125L116.248 206.225C116.055 207.226 114.847 207.001 115.605 208.302L114.741 209.074C115.504 210.113 116.184 210.715 117.301 211.344C117.471 210.954 118.252 210.388 118.629 210.719H118.624Z" fill="black"/>
<path d="M104.989 209.451C105.471 208.352 103.665 207.171 102.847 206.537C98.9778 206.859 99.226 211.62 103.146 211.661C103.932 211.67 104.382 210.085 104.594 209.63C104.644 209.524 104.961 209.52 104.989 209.451Z" fill="black"/>
<path d="M89.4005 210.435V208.33C88.4813 208.399 88.1459 208.045 88.1872 207.121H86.087L85.4988 211.004C86.7856 211.662 87.8426 211.574 89.0926 210.894L88.4951 209.842L89.3959 210.439L89.4005 210.435Z" fill="black"/>
<path d="M130.476 206.587L133.265 205.916C135.49 206.697 135.467 209.491 134.194 211.063C130.554 212.437 129.281 209.717 130.471 206.587H130.476Z" fill="black"/>
<path d="M175.426 210.645C173.119 208.531 176.391 203.959 178.937 206.385C181.28 208.619 178.247 213.223 175.426 210.645Z" fill="black"/>
<path d="M163.79 206.306C165.899 208.066 163.67 213.388 160.747 210.998C157.834 208.618 161.689 204.551 163.79 206.306Z" fill="black"/>
<path d="M193.639 210.953C190.895 213.214 187.435 208.356 190.9 206.559C194.457 204.712 195.78 209.193 193.639 210.953Z" fill="black"/>
<path d="M149.599 208.826C149.714 212.562 144.838 211.68 144.571 209.667C144.07 205.884 149.466 204.446 149.599 208.826Z" fill="black"/>
<path d="M104.989 209.451C104.961 209.515 104.644 209.524 104.594 209.63C104.382 210.085 103.927 211.67 103.146 211.661C99.226 211.615 98.9778 206.859 102.847 206.537C103.665 207.171 105.476 208.357 104.989 209.451Z" fill="black"/>
<path d="M208.863 208.297L208.303 208.471C210.012 210.599 206.368 212.424 204.764 210.664C204.585 210.466 203.468 207.934 204.686 208.931L204.672 207.874L206.497 207.414L205.596 207.111C206.607 205.682 208.124 206.803 208.909 207.874L208.863 208.292V208.297Z" fill="black"/>
<path d="M118.624 210.719C118.247 210.388 117.466 210.954 117.296 211.344C116.174 210.71 115.499 210.113 114.736 209.074L115.6 208.302C114.837 207.001 116.046 207.222 116.243 206.225L116.845 207.125V206.225L118.633 206.85L118.362 207.695L119.511 208.72L118.624 210.719ZM116.239 208.624H116.841V208.329H116.239V208.624Z" fill="black"/>
<path d="M89.4005 210.435L88.4998 209.838L89.0972 210.89C87.8472 211.575 86.7902 211.662 85.5034 211.001L86.0917 207.117H88.1919C88.1505 208.046 88.486 208.399 89.4097 208.33V210.435H89.4005ZM87.5944 210.435V209.833H87.3003V210.435H87.5944Z" fill="black"/>
<path d="M116.841 208.33H116.239V208.624H116.841V208.33Z" fill="black"/>
<path d="M87.5895 209.836H87.2954V210.438H87.5895V209.836Z" fill="black"/>
<path d="M99.4417 109.968C99.4417 107.027 100.14 104.527 101.464 102.468C104.184 98.2404 109.184 95.9609 115.729 95.9609C118.927 95.9609 121.685 96.5124 124.038 97.6521C128.817 99.858 131.574 104.123 131.574 109.968C131.574 113.13 130.949 115.704 129.626 117.763C127.015 121.844 122.199 123.829 115.508 123.829C105.324 123.829 99.4417 119.417 99.4417 109.968ZM119.63 109.968C119.63 107.542 118.013 105.998 115.513 105.998C113.013 105.998 111.395 107.542 111.395 109.968C111.395 112.395 113.013 113.866 115.513 113.866C118.013 113.866 119.63 112.468 119.63 109.968Z" fill="black"/>
<path d="M144.92 123.131H133.817V96.6602H144.81L154.001 108.425V96.6602H165.068V123.131H154.406L144.92 110.815V123.131Z" fill="black"/>
<path d="M168.156 123.131V96.6602H194.002V105.19H179.112V106.991H193.34V112.285H179.112V114.234H194.333V123.131H168.156Z" fill="black"/>
<path d="M113.744 175.963C113.744 173.021 114.442 170.521 115.766 168.462C118.486 164.235 123.486 161.955 130.031 161.955C133.229 161.955 135.987 162.507 138.34 163.646C143.119 165.852 145.876 170.117 145.876 175.963C145.876 179.124 145.251 181.698 143.928 183.757C141.317 187.838 136.501 189.823 129.81 189.823C119.626 189.823 113.744 185.411 113.744 175.963ZM133.932 175.963C133.932 173.536 132.315 171.992 129.815 171.992C127.315 171.992 125.697 173.536 125.697 175.963C125.697 178.389 127.315 179.86 129.815 179.86C132.315 179.86 133.932 178.463 133.932 175.963Z" fill="black"/>
<path d="M159.222 189.125H148.119V162.654H159.112L168.303 174.419V162.654H179.369V189.125H168.707L159.222 176.809V189.125Z" fill="black"/>
<path d="M99.4417 241.955C99.4417 239.014 100.14 236.514 101.464 234.455C104.184 230.227 109.184 227.947 115.729 227.947C118.927 227.947 121.685 228.499 124.038 229.638C128.817 231.844 131.574 236.109 131.574 241.955C131.574 245.117 130.949 247.69 129.626 249.749C127.015 253.83 122.199 255.815 115.508 255.815C105.324 255.815 99.4417 251.403 99.4417 241.955ZM119.63 241.955C119.63 239.528 118.013 237.984 115.513 237.984C113.013 237.984 111.395 239.528 111.395 241.955C111.395 244.381 113.013 245.852 115.513 245.852C118.013 245.852 119.63 244.455 119.63 241.955Z" fill="black"/>
<path d="M144.92 255.117H133.817V228.646H144.81L154.001 240.411V228.646H165.068V255.117H154.406L144.92 242.801V255.117Z" fill="black"/>
<path d="M168.156 255.117V228.646H194.002V237.176H179.112V238.977H193.34V244.272H179.112V246.22H194.333V255.117H168.156Z" fill="black"/>
</g>
<defs>
<clipPath id="clip0_1614_10300">
<rect width="293.169" height="179" fill="white" transform="translate(0.686035 87)"/>
</clipPath>
</defs>
</svg>
