<svg width="139" height="129" viewBox="0 0 139 129" fill="none" xmlns="http://www.w3.org/2000/svg">
<path d="M103.393 112.075C104.242 112.149 105.083 111.911 105.932 111.941C106.073 111.941 106.222 111.933 106.363 111.941C106.803 111.978 107.227 111.963 107.651 111.829C107.89 111.754 108.143 111.747 108.381 111.702C108.783 111.628 109.192 111.568 109.587 111.434C109.877 111.33 110.183 111.248 110.488 111.218C111.15 111.159 111.776 110.95 112.409 110.764C112.989 110.593 113.525 110.355 114.046 110.05C114.314 109.893 114.605 109.789 114.895 109.662C115.163 109.543 115.439 109.454 115.692 109.32C116.168 109.067 116.689 108.933 117.196 108.739C117.977 108.441 118.766 108.27 119.6 108.173C120.211 108.106 120.806 107.891 121.432 107.861C122.377 107.809 123.323 107.764 124.268 107.876C124.551 107.905 124.841 107.972 125.117 108.054C125.75 108.233 126.397 108.389 127.045 108.509C127.462 108.583 127.797 108.844 128.169 109.007C128.333 109.082 128.489 109.193 128.646 109.29C129.814 110.02 130.819 110.921 131.564 112.097C131.884 112.596 132.167 113.124 132.465 113.638C132.487 113.675 132.509 113.712 132.517 113.75C132.539 114.204 132.815 114.554 133.016 114.933C133.172 115.224 133.291 115.521 133.38 115.849C133.499 116.266 133.566 116.69 133.745 117.092C133.879 117.397 133.894 117.74 133.834 118.068C133.633 119.162 133.38 120.241 132.941 121.276C132.852 121.485 132.755 121.693 132.643 121.887C132.055 122.862 131.474 123.837 130.983 124.865C130.812 125.222 130.574 125.535 130.358 125.862C130.209 126.085 130.053 126.309 129.919 126.54C129.777 126.77 129.643 126.994 129.45 127.187C129.308 127.329 129.226 127.53 129.122 127.708C128.847 128.148 128.325 128.267 127.879 128.006C127.722 127.917 127.603 127.775 127.402 127.723C127.142 127.656 127.067 127.426 127.104 127.18C127.179 126.733 127.291 126.286 127.514 125.884C127.923 125.162 128.325 124.44 128.876 123.822C129.07 123.606 129.211 123.353 129.345 123.093C129.814 122.222 130.306 121.358 130.693 120.442C130.849 120.085 130.991 119.713 131.125 119.348C131.363 118.715 131.236 118.09 131.043 117.472C131.043 117.45 131.035 117.427 131.02 117.412C130.596 116.899 130.581 116.221 130.298 115.655C130.053 115.186 129.807 114.702 129.502 114.278C129.189 113.846 128.832 113.437 128.541 112.998C128.221 112.499 127.76 112.201 127.261 111.963C126.97 111.829 126.717 111.673 126.509 111.442C126.323 111.233 126.099 111.114 125.809 111.099C125.266 111.062 124.767 110.846 124.246 110.72C123.762 110.608 123.278 110.519 122.779 110.541C122.429 110.556 122.079 110.504 121.729 110.489C121.097 110.459 120.456 110.37 119.831 110.638C119.474 110.787 119.064 110.757 118.684 110.876C117.94 111.114 117.181 111.33 116.429 111.546C116.168 111.62 115.93 111.74 115.707 111.896C115.245 112.216 114.739 112.447 114.203 112.611C113.831 112.722 113.473 112.893 113.108 113.05C112.438 113.333 111.746 113.534 111.016 113.593C110.786 113.608 110.562 113.66 110.354 113.735C109.706 113.965 109.036 114.099 108.359 114.174C107.644 114.248 106.929 114.375 106.215 114.449C105.522 114.524 104.808 114.501 104.108 114.501C103.654 114.501 103.199 114.479 102.745 114.554C102.604 114.576 102.455 114.561 102.314 114.554C102.187 114.554 102.06 114.516 101.941 114.531C101.398 114.621 100.892 114.546 100.37 114.367C99.7079 114.137 99.0081 114.032 98.3976 113.66C98.3604 113.638 98.3232 113.623 98.2785 113.616C97.7351 113.556 97.3182 113.281 96.9683 112.871C96.9534 112.856 96.9385 112.841 96.9236 112.834C96.2536 112.491 95.7473 111.948 95.189 111.464C94.7497 111.084 94.3328 110.682 94.2584 110.057C93.8936 109.432 93.9978 108.68 93.7447 108.025C93.7298 107.987 93.7224 107.943 93.7298 107.905C93.8043 107.399 93.6703 106.923 93.5958 106.431C93.5511 106.111 93.6554 105.814 93.7075 105.516C93.7521 105.248 93.834 104.995 93.8043 104.719C93.7968 104.637 93.8043 104.548 93.834 104.473C94.035 104.049 94.0574 103.602 94.102 103.148C94.1244 102.88 94.2212 102.62 94.3477 102.389C94.6604 101.853 94.8614 101.265 95.0624 100.684C95.189 100.327 95.3453 99.9843 95.5612 99.694C96.0079 99.091 96.0898 98.406 96.0526 97.6988C96.0451 97.5276 96.0451 97.3787 96.127 97.2223C96.2312 97.0362 96.2312 96.8278 96.1866 96.6193C96.1047 96.2396 96.0079 95.8599 96.0079 95.4579C96.0079 95.3165 95.9483 95.175 95.8888 95.0485C95.5612 94.3114 95.658 94.0732 94.9731 94.8996C94.7274 95.1899 94.3924 95.3611 94.0946 95.5845C93.3874 96.1205 92.5536 96.262 91.7049 96.3513C91.3773 96.3885 91.0497 96.4257 90.7222 96.4779C90.3499 96.5449 89.9926 96.5449 89.6278 96.396C89.3821 96.2917 89.1141 96.2545 88.8535 96.1801C88.392 96.0461 87.9676 95.8525 87.6326 95.4877C87.4241 95.2569 87.2082 95.0485 86.8807 94.9666C86.6573 94.9145 86.501 94.7209 86.3744 94.5273C85.9129 93.835 85.5109 93.1128 85.4364 92.2641C85.429 92.1599 85.3992 92.0557 85.4215 91.9589C85.5257 91.5569 85.5109 91.14 85.5481 90.7231C85.5704 90.4625 85.6449 90.2466 85.831 90.0605C86.0469 89.8372 86.2479 89.5989 86.4266 89.3458C86.5531 89.1746 86.6946 89.0257 86.8583 88.9066C87.573 88.4003 88.3398 88.0058 89.2258 87.9016C89.3672 87.8867 89.5087 87.8494 89.6576 87.8345C89.7767 87.8197 89.9181 87.7899 90.0224 87.8345C90.4318 87.9909 90.8859 87.9834 91.2879 88.1323C91.958 88.378 92.6354 88.3036 93.3129 88.244C93.7894 88.2068 94.2509 88.0951 94.6976 87.9313C95.3379 87.7005 95.9856 87.4846 96.6333 87.2613C96.8045 87.2017 96.9683 87.105 97.1321 87.0156C97.1618 87.0007 97.1842 86.9486 97.1842 86.9188C97.1842 86.8444 97.1172 86.8072 97.0576 86.8072C96.395 86.8518 95.792 86.6806 95.2336 86.3307C95.1815 86.3009 95.1145 86.2786 95.055 86.2712C94.4966 86.2488 94.0425 85.9734 93.6107 85.6458C93.4916 85.5565 93.365 85.482 93.2161 85.4746C92.8513 85.4597 92.5461 85.281 92.2185 85.1619C91.891 85.0428 91.6602 84.7748 91.3177 84.678C91.0051 84.5887 90.737 84.3802 90.4765 84.1717C90.1489 83.9112 89.8735 83.6059 89.6427 83.2561C89.3077 82.7349 88.8982 82.2659 88.5111 81.782C88.3175 81.5363 88.1314 81.2981 88.0718 80.978C88.0346 80.7993 87.9825 80.6057 87.8857 80.4568C87.6549 80.092 87.6698 79.6603 87.5805 79.2657C87.5209 79.0126 87.5358 78.7222 87.6549 78.4691C87.7964 78.1639 87.8559 77.8363 87.8783 77.5087C87.8932 77.2779 88.0048 77.1291 88.1761 76.995C88.5111 76.7419 88.8684 76.5335 89.263 76.4069C89.9702 76.1761 90.4541 75.6699 90.8636 75.0966C91.0944 74.7765 91.2656 74.4266 91.5783 74.1661C91.6527 74.1065 91.7197 74.0097 91.7644 73.9204C91.9133 73.6003 92.0771 73.295 92.3004 73.0196C92.4047 72.893 92.3674 72.7292 92.2334 72.6399C92.1143 72.558 91.9878 72.4836 91.8537 72.4314C91.1912 72.1858 90.5658 71.8805 89.9851 71.4711C89.8139 71.3445 89.6203 71.285 89.4044 71.2775C89.1885 71.2775 89.0099 71.1807 88.8312 71.0691C88.3845 70.8085 87.9453 70.5405 87.4763 70.3171C86.9179 70.0491 86.3372 69.8258 85.7789 69.5727C85.2875 69.3568 84.8036 69.126 84.4463 68.6942C84.3942 68.6346 84.3271 68.5676 84.2527 68.5453C83.9028 68.4634 83.7018 68.2029 83.4636 67.9721C83.3444 67.853 83.2328 67.7264 83.1881 67.57C83.1211 67.3244 82.9871 67.1159 82.8382 66.9149C82.6968 66.7288 82.6372 66.5129 82.6744 66.2747C82.7489 65.7014 82.7935 65.1207 83.0169 64.5773C83.0541 64.4805 83.0839 64.3763 83.136 64.2944C83.5082 63.7211 83.8209 63.1107 84.2453 62.5746C84.4016 62.3811 84.5728 62.195 84.677 61.9716C84.9302 61.4654 85.2801 61.0261 85.63 60.6018C86.1511 59.9616 86.7169 59.3511 87.372 58.8448C87.5507 58.7034 87.707 58.5396 87.8485 58.3609C88.325 57.7356 88.8163 57.1251 89.4193 56.604C89.4938 56.537 89.5831 56.4625 89.6278 56.3732C89.9032 55.8223 90.3797 55.4426 90.737 54.9662C90.8859 54.7651 91.0572 54.5865 91.1167 54.3334C91.1391 54.2589 91.1763 54.177 91.2209 54.11C91.5709 53.574 91.9803 53.0678 92.2632 52.4945C92.6429 51.7351 93.2161 51.0875 93.4916 50.276C93.5214 50.1792 93.5884 50.0973 93.6554 50.0154C94.0648 49.5166 94.3701 48.9583 94.72 48.4148C94.8986 48.1394 95.1071 47.8713 95.2411 47.581C95.4719 47.0748 95.658 46.5536 95.8665 46.0399C95.9186 45.9059 95.9632 45.7645 96.0302 45.6379C96.2387 45.2806 96.4546 44.9381 96.663 44.5808C96.73 44.4766 96.7896 44.3649 96.8343 44.2532C97.0129 43.7916 97.1916 43.3301 97.482 42.9206C97.5415 42.8387 97.5713 42.7345 97.5862 42.6303C97.6755 42.0943 97.8691 41.5955 98.0701 41.0967C98.1147 40.985 98.1371 40.8584 98.1669 40.7393C98.1966 40.6053 98.1966 40.4936 98.0403 40.4415C97.8989 40.3894 97.8691 40.2777 97.8914 40.1437C97.8914 40.1214 97.8989 40.1065 97.9063 40.0842C98.0999 39.5035 98.1371 38.9228 98.0701 38.3123C98.018 37.8359 97.951 37.3743 97.6978 36.9574C97.6532 36.8904 97.6159 36.8085 97.6011 36.7341C97.5266 36.1906 97.2884 35.7067 97.065 35.2228C96.8491 34.7538 96.9161 34.255 96.9608 33.7636C96.9906 33.4137 97.065 33.0713 97.1097 32.7214C97.1544 32.4087 97.2288 32.1109 97.4596 31.8801C97.5936 31.7461 97.683 31.5972 97.7276 31.4036C97.7723 31.2026 97.8616 31.0091 97.9584 30.8304C98.2115 30.3539 98.4646 29.8849 98.7401 29.4234C98.9188 29.1256 99.157 28.8576 99.3655 28.5747C99.4399 28.4779 99.5367 28.3811 99.5739 28.2694C99.7377 27.7409 100.117 27.3463 100.378 26.8847C100.713 26.2891 101.041 25.6936 101.294 25.0682C101.435 24.7109 101.487 24.3088 101.614 23.9366C101.651 23.8175 101.688 23.6984 101.733 23.5867C101.889 23.1996 102.016 22.8125 101.956 22.3881C101.941 22.2541 102.008 22.1052 102.031 21.9638C102.075 21.7032 102.187 21.4501 102.142 21.1672C102.135 21.1076 102.142 21.0332 102.165 20.9811C102.433 20.4227 102.381 19.8197 102.381 19.2241C102.381 19.1422 102.403 19.0603 102.44 18.9859C102.567 18.7104 102.559 18.435 102.507 18.1372C102.44 17.7947 102.433 17.4448 102.634 17.1247C102.716 16.9907 102.783 16.812 102.768 16.6557C102.738 16.2834 102.85 15.9187 102.827 15.5539C102.797 15.0997 102.931 14.6903 103.132 14.3106C103.311 13.9607 103.438 13.6033 103.52 13.2088C103.602 12.8291 103.773 12.4643 103.937 12.1144C104.093 11.7719 104.227 11.4295 104.219 11.0498C104.219 10.9307 104.257 10.8041 104.294 10.685C104.525 10.0001 104.822 9.34497 105.277 8.76429C105.44 8.54839 105.597 8.33994 105.664 8.06448C105.686 7.9677 105.731 7.85603 105.798 7.78903C106.229 7.36468 106.49 6.82122 106.885 6.35964C107.227 5.95019 107.517 5.49606 107.852 5.07915C107.972 4.93026 108.091 4.79626 108.21 4.65481C108.441 4.39424 108.731 4.17835 108.88 3.85078C108.962 3.6721 109.133 3.58277 109.274 3.45621C109.513 3.24776 109.721 3.03186 109.818 2.71918C109.885 2.51817 110.011 2.36184 110.168 2.22039C110.48 1.95238 110.763 1.65459 111.106 1.40891C111.418 1.18557 111.642 0.835671 112.021 0.686776C112.088 0.656998 112.141 0.575106 112.185 0.508103C112.557 0.0241972 113.056 -0.0874734 113.622 0.0614208C113.927 0.135868 114.21 0.262428 114.456 0.463435C114.813 0.753779 114.925 1.16324 114.724 1.56525C114.605 1.80348 114.448 2.01938 114.233 2.19805C113.868 2.49584 113.496 2.79363 113.242 3.21053C113.198 3.27754 113.131 3.33709 113.071 3.38921C112.61 3.76889 112.215 4.21557 111.82 4.66225C111.396 5.13871 111.009 5.64495 110.614 6.14375C110.51 6.27031 110.428 6.42665 110.309 6.53087C109.58 7.13389 109.17 7.99748 108.575 8.70473C108.5 9.13652 108.083 9.34497 107.912 9.72465C107.756 10.0671 107.584 10.4319 107.324 10.7297C107.22 10.8488 107.19 11.0275 107.153 11.1913C106.974 11.9357 106.631 12.6132 106.296 13.2832C106.043 13.7746 105.947 14.2883 105.865 14.8168C105.835 15.0253 105.805 15.2263 105.723 15.4199C105.612 15.6879 105.545 15.9633 105.545 16.2611C105.545 16.5068 105.47 16.7525 105.433 16.9907C105.336 17.616 105.187 18.234 105.187 18.8816C105.187 19.5368 105.12 20.1994 104.994 20.8396C104.889 21.3458 104.77 21.8372 104.748 22.3583C104.726 22.7529 104.554 23.1177 104.391 23.475C104.13 24.0408 103.959 24.629 103.84 25.2394C103.78 25.5521 103.691 25.835 103.445 26.0583C103.341 26.1551 103.237 26.2668 103.185 26.4008C102.939 27.0485 102.544 27.5994 102.142 28.1503C102.008 28.3364 101.859 28.5002 101.837 28.7459C101.83 28.8576 101.718 28.9618 101.658 29.066C101.554 29.267 101.428 29.4606 101.353 29.669C101.085 30.4135 100.72 31.1059 100.363 31.8057C100.095 32.3417 99.827 32.8851 99.6484 33.4509C99.492 33.9497 99.5218 34.4858 99.961 34.8729C100.177 35.0664 100.281 35.2898 100.363 35.5504C100.542 36.0864 100.653 36.6298 100.609 37.1956C100.609 37.2775 100.586 37.3669 100.609 37.4413C100.773 38.0667 100.661 38.7144 100.787 39.3472C100.832 39.5705 100.825 39.8013 100.847 40.0246C100.884 40.3894 100.802 40.7244 100.616 41.0297C100.378 41.4242 100.222 41.8262 100.162 42.2953C100.11 42.7122 99.9015 43.1142 99.7228 43.5087C99.5144 43.9778 99.224 44.417 99.0975 44.9232C99.09 44.9605 99.0677 44.9977 99.0453 45.0349C98.7401 45.623 98.4572 46.2186 98.1222 46.7919C97.8542 47.2534 97.5564 47.6852 97.4671 48.2287C97.4447 48.385 97.3479 48.5414 97.2437 48.6679C96.931 49.0327 96.7151 49.4571 96.4918 49.874C96.1568 50.4919 95.7027 51.0428 95.4347 51.6979C95.39 51.8096 95.3304 51.9213 95.2783 52.0329C95.0996 52.4052 94.9284 52.7774 94.6381 53.0826C94.4371 53.2911 94.2956 53.5517 94.1839 53.8197C93.9904 54.3036 93.7298 54.7503 93.3576 55.1225C93.2831 55.1969 93.231 55.2863 93.164 55.3682C92.7992 55.8149 92.5238 56.3285 92.0622 56.7008C91.8612 56.8646 91.7421 57.1251 91.5634 57.3336C91.0423 57.944 90.4765 58.5173 90.0447 59.2022C89.8883 59.4404 89.6501 59.634 89.397 59.7754C89.1364 59.9169 88.9354 60.1179 88.7344 60.3263C88.2133 60.8549 87.6996 61.4058 87.2976 62.0163C86.836 62.7161 86.2553 63.3563 85.9278 64.1529C85.8682 64.3018 85.7491 64.4284 85.6597 64.5698C85.4811 64.8378 85.4066 65.1356 85.3843 65.4483C85.3545 65.8205 85.4662 65.9918 85.831 66.1556C86.3 66.3715 86.702 66.7139 87.1264 66.9968C87.2827 67.101 87.4241 67.2053 87.6177 67.2276C88.5632 67.3244 89.3672 67.7934 90.1936 68.2177C90.5063 68.3741 90.8338 68.4932 91.1539 68.6346C91.3252 68.7091 91.5038 68.7612 91.6602 68.858C92.0473 69.1037 92.4717 69.26 92.9034 69.4089C93.2608 69.528 93.5809 69.7141 93.8564 69.9672C94.1765 70.2576 94.5264 70.5256 94.9433 70.6596C95.0029 70.6819 95.0699 70.6968 95.1145 70.734C95.4421 71.0914 95.8664 71.2254 96.328 71.2626C96.3504 71.2626 96.3652 71.2701 96.3876 71.285C97.1172 71.6944 97.9361 71.8284 98.7401 72.0145C98.8592 72.0443 98.9783 72.089 99.09 72.1411C99.6111 72.3868 100.177 72.5059 100.691 72.7739C100.981 72.9302 101.443 72.7813 101.636 72.5208C101.964 72.0741 102.053 71.7614 101.539 71.2775C101.48 71.218 101.42 71.151 101.346 71.1286C101.033 71.0393 100.921 70.7564 100.743 70.533C100.557 70.3023 100.527 70.0491 100.624 69.7737C100.758 69.3791 100.966 69.0218 101.242 68.7091C101.465 68.4634 101.748 68.3517 102.068 68.3666C102.485 68.3815 102.894 68.4932 103.252 68.6942C103.549 68.8654 103.795 69.1409 103.907 69.4908C104.004 69.7886 104.152 70.064 104.249 70.3469C104.532 71.2105 104.636 72.0815 104.085 72.9079C103.87 73.2355 103.706 73.5928 103.49 73.9204C103.095 74.516 102.589 75.0073 102.023 75.4242C101.658 75.6922 101.227 75.8411 100.743 75.789C100.356 75.7443 99.9759 75.6624 99.5814 75.6178C99.2687 75.5806 98.9634 75.4019 98.6657 75.2604C98.3679 75.119 98.0403 75.0594 97.7648 74.8584C97.5713 74.717 97.3256 74.7616 97.1023 74.717C96.4099 74.5755 95.7548 74.3298 95.0996 74.0767C94.8614 73.9874 94.6232 73.9502 94.385 73.8757C94.1988 73.8162 94.0574 73.9055 93.968 74.0618C93.8638 74.2405 93.7745 74.4266 93.6926 74.6127C93.5884 74.851 93.298 74.985 93.298 75.2828C93.5288 75.3795 93.7521 75.4838 93.9829 75.5582C94.586 75.7443 95.0922 76.0942 95.591 76.459C95.8516 76.6526 96.1047 76.8685 96.3131 77.1216C96.4918 77.3301 96.6854 77.5162 96.9013 77.6651C97.1097 77.814 97.2735 77.9852 97.3926 78.2085C97.5564 78.5138 97.75 78.7967 97.9882 79.0647C98.2339 79.3327 98.3679 79.6975 98.5689 80.0102C98.8816 80.4941 99.2166 80.9556 99.5144 81.4395C99.7749 81.8639 100.043 82.2734 100.467 82.5488C100.549 82.6009 100.601 82.7051 100.661 82.787C100.869 83.0699 101.085 83.3454 101.39 83.5389C101.472 83.5911 101.539 83.6804 101.606 83.7548C101.651 83.7995 101.673 83.874 101.718 83.8963C102.15 84.1345 102.559 84.4993 103.036 84.544C103.698 84.611 104.182 84.9683 104.711 85.2661C104.882 85.3629 104.994 85.5044 105.083 85.6756C105.314 86.0999 105.195 86.7327 104.778 87.0007C104.569 87.1347 104.391 87.306 104.197 87.4549C103.929 87.6633 103.639 87.8122 103.281 87.6931C103.147 87.6484 102.991 87.6708 102.85 87.641C102.142 87.5144 101.644 87.8494 101.145 88.3036C100.46 88.9289 99.7973 89.5841 99.1272 90.2317C98.9039 90.4476 98.6731 90.6561 98.487 90.9018C98.1371 91.3633 97.7872 91.8249 97.4447 92.2865C97.2809 92.5098 97.2735 92.5694 97.4298 92.7853C97.7276 93.1798 97.9733 93.6116 98.2413 94.0285C98.3902 94.2593 98.487 94.505 98.5465 94.7656C98.6061 95.0038 98.6359 95.2569 98.7997 95.4579C98.8369 95.5026 98.8518 95.5696 98.8592 95.6292C98.8964 96.061 98.9932 96.5002 98.9486 96.9245C98.8741 97.5946 98.9486 98.2869 98.6359 98.9272C98.554 99.1058 98.554 99.3292 98.5168 99.5302C98.487 99.6716 98.4944 99.8354 98.4274 99.9471C98.0552 100.558 97.8244 101.265 97.3256 101.801C97.1395 102.002 97.0427 102.24 96.998 102.523C96.931 102.91 96.8268 103.29 96.7151 103.669C96.663 103.87 96.5662 104.049 96.6854 104.265C96.7524 104.377 96.6854 104.511 96.6333 104.622C96.4844 104.935 96.4769 105.263 96.5141 105.598C96.5216 105.68 96.5514 105.769 96.5365 105.843C96.3504 106.692 96.6779 107.466 96.8864 108.255C96.9534 108.516 96.9906 108.784 97.0427 109.045C97.1097 109.409 97.3777 109.782 97.7053 109.96C97.8318 110.027 97.9659 110.094 98.0999 110.139C98.3381 110.221 98.554 110.318 98.6582 110.586C98.7178 110.749 98.8964 110.824 99.0453 110.876C99.6111 111.084 100.117 111.397 100.661 111.65C101.361 111.978 102.09 112.037 102.835 112.075C103.021 112.082 103.207 112.075 103.393 112.075ZM90 78.752C90.0075 79.087 90.3276 79.8538 90.5807 80.0846C90.8934 80.3675 91.1465 80.7025 91.3326 81.0673C91.5038 81.4098 91.7272 81.7001 91.9803 81.9607C92.2334 82.2212 92.4791 82.519 92.8588 82.6158C93.0747 82.6754 93.3055 82.7647 93.5214 82.7573C93.9383 82.7424 94.2956 82.921 94.6381 83.0923C95.3155 83.4422 96.0153 83.7325 96.7598 83.941C96.9757 84.0005 97.1916 84.0824 97.4001 84.1717C97.5564 84.2387 97.7127 84.2834 97.8765 84.2685C97.9584 84.2685 98.0105 84.1569 97.9733 84.0824C97.8467 83.8591 97.6904 83.673 97.4671 83.5538C97.3331 83.4794 97.2437 83.3826 97.1767 83.2412C97.0502 82.9806 96.8789 82.7498 96.7673 82.4818C96.663 82.2212 96.4695 81.9905 96.2908 81.7746C95.9781 81.4023 95.7399 81.0003 95.6282 80.5313C95.591 80.3675 95.5463 80.1888 95.4198 80.092C95.0475 79.8092 94.7944 79.4444 94.5785 79.0349C94.5487 78.9828 94.5041 78.9381 94.4594 78.8934C93.9904 78.4021 93.4544 77.9852 92.896 77.5906C92.6429 77.412 92.3749 77.3524 92.0771 77.4045C91.9356 77.4268 91.7867 77.4492 91.6527 77.5013C91.4368 77.5832 91.2358 77.6353 90.9976 77.6279C90.5956 77.6279 89.9926 78.3425 90.0075 78.752H90ZM96.9906 89.2342C96.5737 89.2937 96.2015 89.4649 95.8367 89.6436C95.5612 89.7776 95.2634 89.8818 94.9731 89.9861C94.0499 90.3211 93.0747 90.3434 92.1218 90.4923C91.9803 90.5146 91.8314 90.5221 91.69 90.4923C90.8785 90.336 90.0521 90.3062 89.2555 90.0903C89.0396 90.0307 88.8535 90.0828 88.6749 90.2094C88.4143 90.3955 88.3175 90.6486 88.3101 90.9539C88.3026 91.1996 88.2877 91.4452 88.2877 91.6909C88.2877 92.0929 88.3845 92.4652 88.6376 92.7853C89.0099 93.2617 89.5012 93.5446 90.0893 93.6489C90.335 93.6935 90.5658 93.7308 90.7892 93.8722C91.0125 94.0211 91.288 94.0434 91.5634 94.036C92.4493 94.0062 93.0821 93.5446 93.5288 92.8299C93.8192 92.3609 94.1988 91.9961 94.6678 91.7281C94.9582 91.5643 95.2485 91.4229 95.3602 91.0656C95.39 90.9762 95.4719 90.8943 95.5538 90.8273C96.127 90.3806 96.4322 89.6957 96.9906 89.2193V89.2342Z" fill="black"/>
<path d="M117.626 54.1851C117.693 54.4085 117.775 54.6244 117.991 54.736C118.192 54.8403 118.304 54.9892 118.356 55.2051C118.445 55.5773 118.698 55.7783 119.033 55.9495C119.42 56.1431 119.778 56.3888 120.128 56.6419C120.396 56.828 120.403 56.9992 120.247 57.2821C120.128 57.4906 119.934 57.632 119.726 57.699C119.294 57.8405 118.855 57.9745 118.408 58.0415C118.103 58.0862 117.805 57.9224 117.544 57.7437C116.718 57.163 116.212 56.3515 115.906 55.4061C115.817 55.1306 115.713 54.8626 115.72 54.5648C115.72 54.4308 115.616 54.3415 115.475 54.334C115.393 54.334 115.311 54.3266 115.229 54.334C114.321 54.4531 113.42 54.4085 112.519 54.2298C112.422 54.2075 112.311 54.2 112.214 54.2075C112.102 54.2075 112.013 54.2745 112.02 54.401C112.065 54.9966 112.229 55.5401 112.757 55.8974C112.943 56.024 113.092 56.1952 113.308 56.292C113.42 56.3441 113.517 56.4334 113.591 56.5302C113.896 56.9025 113.837 57.2896 113.398 57.5055C112.75 57.8181 112.072 57.9819 111.373 57.6693C111.276 57.6246 111.172 57.5948 111.105 57.5204C110.792 57.1854 110.487 56.8355 110.33 56.4111C110.234 56.1357 110.122 55.8751 109.951 55.6369C109.765 55.3688 109.705 55.0859 109.712 54.7584C109.75 53.7012 109.906 53.8725 108.849 53.5523C108.566 53.4704 108.328 53.3216 108.067 53.1652C107.888 53.3067 107.933 53.5226 107.836 53.6715C107.747 53.8129 107.643 53.9543 107.606 54.1032C107.524 54.4383 107.606 54.7584 107.814 55.0338C107.963 55.2348 108.149 55.3986 108.365 55.5252C108.469 55.5847 108.581 55.6443 108.678 55.7187C108.797 55.823 108.834 55.957 108.782 56.1133C108.73 56.2771 108.648 56.426 108.514 56.5228C107.836 56.9918 106.869 57.0588 106.28 56.4781C106.117 56.3218 105.953 56.158 105.804 55.9868C105.633 55.7932 105.61 55.5326 105.588 55.2944C105.551 54.8626 105.543 54.4308 105.536 53.999C105.536 53.9022 105.573 53.798 105.603 53.7012C105.774 53.0238 106.109 52.4505 106.623 51.9741C106.802 51.8103 106.787 51.7507 106.623 51.5572C106.377 51.2519 106.124 50.9541 105.878 50.6415C105.804 50.5447 105.729 50.433 105.707 50.3139C105.588 49.6066 105.357 48.9217 105.298 48.2145C105.238 47.5593 105.193 46.8968 105.275 46.2416C105.29 46.1374 105.283 46.0257 105.327 45.9364C105.432 45.7056 105.454 45.4599 105.439 45.2143C105.424 44.9239 105.506 44.6634 105.64 44.3879C105.908 43.837 106.221 43.301 106.377 42.6979C106.444 42.4448 106.459 42.4076 106.266 42.281C105.826 41.9981 105.491 41.5961 105.097 41.2686C105.082 41.2537 105.074 41.2313 105.059 41.2239C104.516 40.8219 104.114 40.3156 103.92 39.6531C103.876 39.5042 103.749 39.3776 103.645 39.2436C103.37 38.8788 103.087 38.5215 103.012 38.0524C102.975 37.7844 102.692 37.5909 102.752 37.308C102.804 37.0697 102.915 36.839 102.975 36.6007C103.049 36.2955 103.169 36.0126 103.303 35.7371C103.459 35.3947 103.734 35.1937 104.077 35.0746C104.613 34.8884 105.022 35.1043 105.164 35.6627C105.246 35.9828 105.275 36.3104 105.335 36.638C105.38 36.8687 105.447 37.0772 105.566 37.2633C105.7 37.4792 105.811 37.6951 105.841 37.9482C105.856 38.045 105.893 38.1492 105.938 38.2386C106.266 38.9011 106.66 39.5191 107.137 40.0849C107.382 40.3752 107.725 40.5241 108.075 40.6581C108.156 40.6879 108.246 40.6879 108.305 40.6283C108.67 40.2784 109.147 40.1965 109.608 40.0997C109.75 40.07 109.891 40.0253 110.018 39.9657C110.144 39.9062 110.323 39.9211 110.36 39.7498C110.39 39.6084 110.196 39.5637 110.174 39.4521C110.055 38.9756 109.698 38.6629 109.415 38.2981C109.333 38.1939 109.296 38.0971 109.251 37.978C109.087 37.4718 109.169 36.9506 109.154 36.4369C109.154 36.1987 109.288 36.0052 109.452 35.8414C109.638 35.6478 109.846 35.4766 110.055 35.3054C110.315 35.0969 110.628 35.082 110.941 35.0969C111.261 35.1192 111.588 35.6031 111.514 35.9307C111.492 36.0275 111.447 36.1243 111.402 36.221C111.231 36.5858 111.239 36.9506 111.402 37.3005C111.618 37.7472 111.789 38.2088 112.147 38.581C112.34 38.782 112.504 39.0351 112.527 39.3404C112.541 39.5637 112.683 39.6903 112.884 39.6903C113.36 39.6977 113.829 39.7573 114.298 39.8466C114.395 39.869 114.507 39.8466 114.604 39.8317C114.715 39.8168 114.797 39.7573 114.805 39.6307C114.805 39.3032 114.872 38.983 114.782 38.648C114.656 38.1418 114.663 37.643 114.976 37.1665C115.155 36.8985 115.207 36.5486 115.46 36.3104C115.527 36.2508 115.467 36.1392 115.378 36.1317C114.946 36.1019 114.514 36.0647 114.082 36.0349C113.182 35.9754 112.46 35.5808 111.938 34.8438C111.797 34.6428 111.641 34.4492 111.462 34.2705C111.283 34.0919 111.157 33.8834 111.105 33.6303C111.082 33.5261 111.045 33.4293 111.008 33.3399C110.874 32.9975 110.626 32.8039 110.263 32.7593C110.018 32.7295 109.772 32.6997 109.526 32.6699C109.05 32.6104 108.603 32.4615 108.201 32.186C108.052 32.0818 107.888 31.985 107.717 31.918C107.114 31.6574 106.712 31.2033 106.429 30.6301C106.295 30.3546 106.184 30.0643 106.012 29.8037C105.901 29.625 105.863 29.424 105.893 29.2081C105.975 28.5753 106.042 27.9351 106.109 27.3023C106.139 27.0417 106.266 26.8333 106.422 26.6397C106.563 26.461 106.727 26.3047 106.869 26.1186C107.114 25.7985 107.39 25.5379 107.777 25.3964C107.963 25.3294 108.119 25.1657 108.305 25.0838C108.938 24.786 109.593 24.8158 110.248 24.9795C110.487 25.0391 110.71 25.1582 110.933 25.2699C111.045 25.322 111.149 25.3964 111.239 25.4783C111.35 25.5826 111.417 25.7091 111.365 25.8655C111.313 26.0292 111.186 26.0814 111.03 26.0888C110.904 26.0888 110.784 26.0888 110.658 26.0888C109.958 26.1186 109.385 26.3717 108.968 26.9673C108.655 27.4065 108.477 27.8755 108.491 28.4115C108.491 28.5753 108.469 28.7391 108.447 28.9029C108.41 29.1262 108.439 29.3496 108.506 29.5729C108.618 29.9526 108.804 30.2355 109.191 30.3844C109.541 30.5184 109.876 30.6747 110.219 30.8162C110.449 30.913 110.703 30.9204 110.956 30.913C111.09 30.913 111.209 30.8609 111.231 30.712C111.298 30.2876 111.551 29.9526 111.745 29.5878C111.938 29.223 112.199 28.9029 112.43 28.5604C112.504 28.4562 112.623 28.419 112.75 28.3818C112.988 28.3073 113.226 28.2403 113.45 28.1361C113.822 27.9723 114.202 27.9053 114.596 27.9574C114.983 28.0095 115.378 28.0616 115.758 28.1659C116.852 28.4637 117.217 29.7218 116.457 30.5705C116.264 30.7864 116.078 31.0098 115.869 31.2033C115.534 31.516 115.162 31.7691 114.738 31.9552C114.492 32.0595 114.254 32.186 114.023 32.32C113.829 32.4317 113.785 32.5583 113.844 32.789C113.874 32.9082 113.919 33.0273 113.956 33.1464C114.023 33.3846 114.045 33.6377 114.291 33.7866C114.581 33.9579 114.872 34.1216 115.214 34.1068C115.691 34.0919 116.167 34.0546 116.584 33.7717C116.822 33.608 117.194 33.6303 117.321 33.3548C117.425 33.1241 117.351 32.8263 117.403 32.5657C117.5 32.0371 117.559 31.5085 117.723 30.9949C117.835 30.645 118.021 30.3248 118.117 29.9675C118.155 29.8484 118.229 29.7516 118.326 29.6697C118.862 29.1784 119.472 28.9997 120.209 29.0741C120.775 29.1337 121.177 29.3868 121.505 29.8186C121.639 29.9898 121.698 30.1759 121.676 30.3918C121.646 30.7194 121.624 31.047 121.617 31.3745C121.602 31.985 121.788 32.5583 121.952 33.1315C122.048 33.4814 122.242 33.809 122.398 34.144C122.443 34.2333 122.532 34.2482 122.607 34.2184C122.904 34.0919 123.091 33.8387 123.284 33.6005C123.329 33.5484 123.321 33.4442 123.314 33.3623C123.292 33.1985 123.269 33.0273 123.202 32.8784C123.076 32.6029 123.091 32.3349 123.128 32.0371C123.172 31.6798 123.314 31.4118 123.545 31.1661C123.805 30.8906 124.133 30.7045 124.505 30.6301C124.959 30.5407 125.413 30.5631 125.867 30.645C126.269 30.7194 126.485 31.0321 126.619 31.3969C126.82 31.9329 126.835 32.4912 126.724 33.0422C126.686 33.2506 126.649 33.4293 126.791 33.6228C126.947 33.8536 127.096 34.0621 127.379 34.144C127.818 34.2705 128.25 34.3971 128.689 34.5162C129.262 34.6651 129.843 34.5758 130.409 34.4715C130.505 34.4567 130.595 34.3822 130.677 34.3226C130.803 34.2259 130.833 34.0695 130.744 33.9355C130.647 33.8015 130.535 33.675 130.491 33.5112C130.446 33.3399 130.327 33.2357 130.185 33.1389C130.036 33.0347 129.888 32.9156 129.754 32.789C129.545 32.588 129.493 32.3498 129.538 32.052C129.597 31.6574 129.783 31.4341 130.17 31.3075C130.885 31.0768 131.525 31.1065 132.166 31.5532C132.687 31.918 133.089 32.3498 133.349 32.923C133.416 33.0794 133.476 33.2208 133.446 33.3995C133.431 33.4963 133.424 33.6377 133.476 33.6973C133.692 33.9206 133.64 34.1216 133.498 34.3599C133.416 34.4939 133.401 34.6725 133.387 34.8363C133.379 34.9927 133.32 35.1192 133.215 35.2235C132.776 35.6553 132.374 36.154 131.734 36.2955C131.272 36.3997 130.855 36.6528 130.371 36.6752C129.687 36.705 129.009 36.7571 128.332 36.772C127.833 36.7868 127.356 36.6305 126.872 36.4891C126.493 36.3848 126.113 36.3104 125.793 36.0498C125.562 35.8711 125.257 35.8488 124.982 35.7669C124.907 35.7446 124.81 35.7669 124.743 35.7967C124.364 35.953 123.984 36.1168 123.604 36.2881C123.478 36.3476 123.433 36.4891 123.507 36.6007C123.887 37.1293 124.006 37.777 124.319 38.3353C124.654 38.9309 124.929 39.5563 125.242 40.1593C125.324 40.3231 125.458 40.4571 125.562 40.6134C125.934 41.1569 126.292 41.7152 126.664 42.2513C126.969 42.6979 127.349 43.0627 127.781 43.3978C128.443 43.9114 129.121 44.4326 129.567 45.1845C129.62 45.2738 129.694 45.3483 129.768 45.4153C130.52 46.0555 131.22 46.7702 132.039 47.3286C132.143 47.3956 132.255 47.4626 132.367 47.4923C132.53 47.537 132.657 47.6412 132.806 47.7157C133.208 47.9241 133.446 48.2368 133.424 48.7058C133.416 48.9217 133.506 49.0483 133.677 49.16C134.049 49.3982 134.451 49.5471 134.868 49.6736C135.218 49.7779 135.575 49.8672 135.903 50.0459C136.082 50.1427 136.275 50.2171 136.491 50.1948C136.625 50.1799 136.774 50.232 136.915 50.2767C137.154 50.3586 137.399 50.3883 137.645 50.3213C137.973 50.232 138.248 50.3362 138.509 50.5372C138.836 50.7903 138.911 51.1105 138.762 51.5199C138.471 52.3165 137.898 52.6813 137.072 52.7111C136.804 52.7185 136.536 52.7781 136.275 52.6664C136.238 52.6515 136.193 52.6441 136.156 52.6515C135.62 52.7781 135.188 52.5696 134.809 52.2197C134.727 52.1453 134.66 52.1229 134.541 52.1453C134.25 52.2048 133.96 52.1453 133.707 51.9889C133.178 51.6539 132.545 51.5572 132.024 51.2147C131.86 51.1105 131.659 51.1402 131.473 51.1551C131.131 51.1775 130.826 51.0956 130.543 50.8797C130.2 50.6191 129.813 50.5223 129.381 50.5372C128.883 50.5521 128.391 50.5 127.892 50.567C127.706 50.5893 127.632 50.7085 127.744 50.8648C128.131 51.4231 128.361 52.0783 128.868 52.5622C128.927 52.6143 128.964 52.6962 129.009 52.7632C129.21 53.0982 129.433 53.396 129.858 53.5002C130.074 53.5523 130.312 53.6863 130.327 53.9469C130.342 54.2298 130.118 54.3787 129.895 54.5053C129.791 54.5723 129.679 54.6318 129.553 54.6318C129.262 54.6318 128.979 54.6318 128.696 54.7212C128.548 54.7658 128.414 54.669 128.339 54.535C128.265 54.401 128.183 54.3117 128.019 54.267C127.528 54.1256 127.155 53.8427 126.939 53.3513C126.798 53.0387 126.53 52.793 126.366 52.4729C126.18 52.123 126.016 51.773 125.964 51.3785C125.934 51.1626 125.89 51.1551 125.666 51.2072C125.384 51.2743 125.101 51.3413 124.825 51.4083C124.58 51.4604 124.341 51.5274 124.133 51.6614C123.731 51.9219 123.306 52.1304 122.867 52.324C122.77 52.3686 122.681 52.4133 122.592 52.4729C122.346 52.6292 122.331 52.7334 122.495 52.9791C122.644 53.2024 122.793 53.4258 122.934 53.6566C123.053 53.8576 123.195 54.0288 123.426 54.1107C123.895 54.2819 124.274 54.6244 124.714 54.8552C124.952 54.9743 125.019 55.2274 125.093 55.4582C125.123 55.555 125.093 55.6592 125.041 55.756C124.751 56.2473 124.237 56.4483 123.664 56.3069C123.567 56.2845 123.463 56.2473 123.359 56.2473C123.18 56.2473 123.053 56.1654 122.942 56.0165C122.815 55.8453 122.636 55.7336 122.435 55.6741C121.803 55.488 121.423 54.9892 121.08 54.4829C120.902 54.2149 120.664 53.9767 120.53 53.664C120.492 53.5821 120.403 53.5672 120.314 53.5747C119.443 53.6566 118.601 53.8576 117.775 54.1107C117.723 54.1256 117.671 54.1702 117.604 54.2149L117.626 54.1851ZM119.041 51.5274C119.19 51.6242 119.301 51.5274 119.413 51.4902C119.726 51.3785 120.023 51.237 120.343 51.1551C120.872 51.0211 121.348 50.7903 121.788 50.4702C122.138 50.2171 122.525 50.0235 122.919 49.83C123.351 49.6141 123.82 49.5322 124.259 49.3535C124.602 49.2121 124.959 49.093 125.317 48.9962C125.577 48.9217 125.83 48.8473 126.076 48.7356C126.664 48.4825 127.252 48.2368 127.9 48.1773C127.982 48.1698 128.116 48.1624 128.101 47.9837C127.781 47.7976 127.416 47.6561 127.193 47.2988C127.14 47.2094 126.977 47.1797 126.865 47.135C126.753 47.0903 126.619 47.068 126.523 47.001C126.083 46.6883 125.562 46.5394 125.086 46.3012C124.706 46.1076 124.349 45.8545 123.932 45.7354C123.857 45.7131 123.805 45.6312 123.731 45.5865C123.366 45.3632 123.009 45.1249 122.592 44.9686C122.331 44.8718 122.019 44.8271 121.832 44.5815C121.669 44.3656 121.43 44.306 121.207 44.2092C120.649 43.9561 120.023 43.8742 119.517 43.4871C119.346 43.3531 119.093 43.3531 119.063 43.435C119.018 43.569 119.108 43.6732 119.167 43.7774C119.249 43.9189 119.286 44.0752 119.353 44.2241C119.532 44.6336 119.793 45.0058 119.927 45.445C120.023 45.7726 120.187 46.0853 120.291 46.4129C120.477 46.9787 120.544 47.5742 120.552 48.1624C120.552 48.4006 120.552 48.6537 120.396 48.8771C120.329 48.9738 120.306 49.1078 120.291 49.227C120.247 49.7332 120.016 50.1724 119.733 50.5744C119.51 50.8946 119.271 51.2073 119.048 51.5199L119.041 51.5274ZM114.075 51.4678C114.492 51.5125 114.998 51.4678 115.512 51.3934C116.368 51.2594 116.844 50.701 117.179 49.9789C117.291 49.7406 117.351 49.4726 117.485 49.2418C117.574 49.0855 117.604 48.8919 117.641 48.7133C117.686 48.5123 117.701 48.3038 117.738 48.1028C117.812 47.7306 117.782 47.3658 117.715 46.9935C117.626 46.5022 117.485 46.0257 117.291 45.5716C117.142 45.2143 117.031 44.842 116.763 44.5293C116.189 43.8668 115.423 43.435 114.849 42.7798C114.812 42.7352 114.752 42.7054 114.693 42.6831C114.455 42.5863 114.291 42.4299 114.149 42.2066C113.926 41.8716 113.613 41.6706 113.174 41.6408C112.675 41.6036 112.184 41.5738 111.685 41.5812C111.216 41.5812 110.792 41.7301 110.382 41.9237C110.345 41.9386 110.315 41.9684 110.286 41.9981C110.278 42.0056 110.286 42.0428 110.286 42.0577C110.286 42.0726 110.315 42.0949 110.323 42.0949C110.42 42.0875 110.524 42.0726 110.621 42.0503C111.172 41.9237 111.685 41.9833 112.147 42.3406C112.244 42.4151 112.355 42.4746 112.467 42.5267C112.802 42.6756 113.04 42.9287 113.226 43.234C113.293 43.3382 113.36 43.435 113.435 43.5318C113.747 43.9412 114.06 44.3507 114.142 44.8867C114.172 45.11 114.291 45.311 114.35 45.5269C114.403 45.7279 114.477 45.929 114.477 46.13C114.477 46.6213 114.447 47.1201 114.395 47.6115C114.343 48.1996 114.068 48.7133 113.807 49.2344C113.494 49.8672 113.055 50.366 112.474 50.7531C112.355 50.835 112.229 50.9095 112.125 51.0062C112.058 51.0658 112.043 51.1477 112.132 51.2147C112.236 51.2891 112.348 51.3264 112.474 51.3561C112.966 51.4678 113.457 51.4678 114.06 51.4678H114.075ZM119.443 40.9931C119.458 40.8219 119.443 40.6283 119.495 40.4571C119.592 40.1146 119.629 39.7722 119.614 39.4148C119.614 39.2734 119.636 39.1245 119.666 38.9905C119.785 38.4545 120.053 37.9929 120.366 37.5537C120.47 37.3973 120.589 37.2559 120.745 37.1516C120.842 37.0846 120.991 37.0325 120.954 36.8836C120.932 36.7794 120.798 36.7645 120.701 36.7347C120.544 36.6826 120.381 36.6454 120.224 36.6007C119.621 36.4444 119.011 36.3327 118.587 35.8041C118.482 35.6776 118.304 35.6404 118.132 35.6999C117.879 35.7893 117.626 35.8711 117.366 35.953C117.246 35.9903 117.194 36.0722 117.232 36.1838C117.321 36.4518 117.284 36.6677 117.12 36.9283C116.941 37.2112 116.904 37.5909 116.815 37.9259C116.807 37.9631 116.792 38.0152 116.815 38.045C116.964 38.2832 116.904 38.581 117.008 38.8193C117.232 39.3329 117.351 39.8764 117.529 40.3975C117.604 40.606 117.745 40.6953 117.946 40.7028C118.363 40.7102 118.758 40.8293 119.152 40.9633C119.249 40.9931 119.338 41.0527 119.465 40.9931H119.443ZM121.386 41.879C121.661 41.9684 121.952 42.0875 122.249 42.1545C122.778 42.2736 123.284 42.4374 123.708 42.7947C123.738 42.8171 123.783 42.8394 123.82 42.832C123.85 42.832 123.895 42.7798 123.895 42.7575C123.887 42.6979 123.865 42.6384 123.828 42.5937C123.455 42.0949 123.18 41.544 122.904 40.9857C122.711 40.5985 122.45 40.2561 122.346 39.8243C122.339 39.7871 122.309 39.7498 122.279 39.7201C122.123 39.5414 122.063 39.3255 122.019 39.1022C121.974 38.8565 121.892 38.6257 121.736 38.4247C121.669 38.3428 121.535 38.3502 121.483 38.447C121.445 38.5215 121.386 38.5959 121.386 38.6704C121.386 39.05 121.259 39.3999 121.207 39.7647C121.162 40.0774 121.185 40.3901 121.363 40.6581C121.624 41.0378 121.691 41.4026 121.371 41.7822C121.363 41.7971 121.371 41.8195 121.371 41.879H121.386Z" fill="black"/>
<path d="M63.2614 59.836C63.2614 59.6945 63.2316 59.5456 63.1572 59.4191C62.8743 58.9649 62.5839 58.5108 62.3159 58.0492C61.966 57.4462 61.3928 57.0963 60.827 56.7836C60.3356 56.5082 59.7847 56.2774 59.204 56.2029C58.8467 56.1583 58.5191 56.0317 58.266 55.7712C58.1766 55.6818 58.0575 55.6371 57.9384 55.6074C57.6555 55.5329 57.395 55.4213 57.1642 55.2277C57.0748 55.1532 56.9408 55.1235 56.8217 55.0862C56.0102 54.8555 55.2434 54.4981 54.4543 54.2003C54.3128 54.1482 54.2086 54.0589 54.0895 53.977C53.4716 53.5601 52.8239 53.2027 52.1018 52.9943C51.6253 52.8528 51.1563 52.6667 50.7692 52.354C50.4714 52.1158 50.1661 51.9371 49.8237 51.7882C49.5408 51.6617 49.2579 51.5053 49.042 51.2894C48.8261 51.081 48.6027 50.9246 48.3422 50.7981C48.1561 50.7088 47.9923 50.5971 47.8955 50.3886C47.7838 50.1578 47.5828 50.0089 47.3669 49.8824C47.1287 49.7558 46.8905 49.6293 46.6522 49.5176C46.5331 49.4655 46.4363 49.3985 46.3693 49.2868C46.1832 48.9592 45.9673 48.6615 45.6398 48.4605C45.2973 48.2594 45.2675 47.8202 44.9772 47.5745C44.9474 47.5448 44.9102 47.5224 44.8878 47.4926C44.6124 47.1055 44.3071 46.7184 44.2848 46.227C44.2625 45.7729 44.121 45.3783 43.8828 45.0061C43.6743 44.6711 43.5255 44.3138 43.4436 43.9192C43.317 43.3534 43.0788 42.8174 43.0118 42.2367C42.9969 42.1399 42.9448 42.0431 42.9001 41.9463C42.7735 41.6709 42.7661 41.3954 42.8256 41.0976C42.9001 40.7328 42.9597 40.3681 42.9299 39.9884C42.9224 39.8693 42.9299 39.7353 42.9745 39.6236C43.116 39.1769 43.1234 38.7302 43.049 38.2761C42.9894 37.9187 43.0341 37.5763 43.2128 37.2562C43.3691 36.9584 43.4659 36.6457 43.4659 36.3032C43.4659 36.1395 43.5106 35.9757 43.5627 35.8193C43.6148 35.6556 43.6073 35.4992 43.5999 35.3354C43.585 34.7771 43.5329 34.2113 43.5999 33.6678C43.6669 33.1616 43.6669 32.6851 43.4808 32.2087C43.3989 32.0076 43.3691 31.8141 43.4659 31.6131C43.5478 31.4418 43.518 31.2632 43.3914 31.1515C43.1383 30.9356 43.049 30.6527 42.9745 30.3475C42.9075 30.072 42.7959 29.7891 42.6395 29.5509C42.2226 28.8883 41.8578 28.1811 41.3069 27.6153C41.0836 27.3845 40.9421 27.109 40.8454 26.8187C40.6369 26.2008 40.2796 25.6722 39.8552 25.2106C39.5425 24.8607 39.3117 24.5034 39.1926 24.0567C39.1629 23.9376 39.148 23.8036 39.081 23.7068C38.8353 23.3271 38.6641 22.8953 38.4184 22.5231C38.1504 22.1211 37.994 21.6818 37.793 21.2649C37.5771 20.8257 37.4357 20.3343 37.0486 19.9919C36.8773 19.8355 36.7805 19.6122 36.7284 19.3963C36.5795 18.7561 36.2669 18.1605 36.185 17.4905C36.1552 17.2373 36.0584 16.9842 35.9095 16.746C35.85 16.6567 35.8053 16.5599 35.7681 16.4556C35.7681 16.1504 35.7383 15.8601 35.6415 15.5772C35.6415 15.2347 35.5671 14.922 35.4926 14.587C35.4479 14.3935 35.3661 14.2148 35.2767 14.0436C35.2767 14.0138 35.2767 13.9914 35.2767 13.9617C35.2842 13.6341 35.2395 13.2916 35.1055 12.9939C34.9491 12.6588 34.8375 12.3015 34.5918 12.0112C34.5099 11.9144 34.4727 11.7953 34.4727 11.6687C34.4801 11.2816 34.3982 10.9093 34.5248 10.5148C34.6662 10.0681 34.4801 9.59907 34.3238 9.18961C34.1749 8.7876 34.1451 8.38558 34.1079 7.99101C34.0856 7.71556 34.0558 7.44755 33.9143 7.22421C33.7357 6.92642 33.6612 6.62119 33.7208 6.27873C33.7357 6.18195 33.7208 6.06283 33.6761 5.98094C33.423 5.4747 33.3709 4.91635 33.2443 4.37288C33.1773 4.10488 33.0656 3.88153 32.9465 3.63586C32.7008 3.14451 32.3733 2.68294 32.269 2.12458C32.2318 1.94591 32.1574 1.76724 32.0755 1.60345C31.9564 1.35778 31.7851 1.12699 31.5395 1.02277C31.1598 0.858982 30.7652 0.739867 30.3409 0.732422C30.1845 0.732422 30.0654 0.79198 29.9537 0.896205C29.5666 1.26844 29.4252 1.73746 29.4996 2.25114C29.5517 2.60849 29.6113 2.98817 29.857 3.2934C29.9761 3.43485 30.0059 3.62841 30.0505 3.81453C30.1324 4.17932 30.2739 4.51433 30.4972 4.82701C30.7503 5.18436 30.9141 5.59382 30.862 6.0405C30.8322 6.30851 30.8992 6.52441 31.0556 6.73286C31.13 6.82964 31.197 6.94875 31.2119 7.06042C31.264 7.36566 31.3087 7.67089 31.3236 7.97612C31.331 8.14735 31.3682 8.29625 31.4576 8.4377C31.7405 8.87693 31.8373 9.38317 31.867 9.89686C31.9043 10.5594 32.0978 11.1922 32.2244 11.8399C32.2318 11.8772 32.2467 11.9218 32.2765 11.9516C32.4849 12.2122 32.4403 12.4876 32.3361 12.7631C32.2467 13.0013 32.2393 13.247 32.3361 13.4927C32.3807 13.6043 32.3956 13.7309 32.4179 13.8574C32.5519 14.4828 32.686 15.1007 32.8572 15.7186H32.887C32.9391 15.9047 33.0061 16.076 33.0954 16.2398C33.1699 16.3738 33.1996 16.5078 33.2071 16.6567C33.2369 17.3267 33.5942 17.9223 33.6165 18.5848C33.6165 18.6072 33.6314 18.6221 33.6389 18.6444C33.892 19.3665 34.1377 20.0887 34.3908 20.8108C34.4727 21.0416 34.5248 21.317 34.6811 21.4883C34.8673 21.6967 34.9715 21.9275 35.0906 22.1657C35.2544 22.5007 35.4554 22.8134 35.6415 23.1336C35.7978 23.4016 35.9616 23.6696 36.0361 23.9748C36.1031 24.2279 36.1999 24.4364 36.4306 24.5778C36.6093 24.6969 36.7135 24.8607 36.7657 25.0766C36.8327 25.3819 37.0039 25.635 37.19 25.8881C37.5027 26.3199 37.8005 26.7666 38.1653 27.1611C38.2769 27.2803 38.3365 27.4366 38.4258 27.578C38.5301 27.7567 38.6343 27.9354 38.7459 28.1066C38.88 28.3151 39.014 28.5086 39.1182 28.7394C39.2969 29.1265 39.5053 29.5211 39.8552 29.7966C39.9445 29.871 40.019 29.9827 40.0711 30.0944C40.3168 30.5708 40.6592 30.9952 40.7262 31.5461C40.7262 31.5833 40.756 31.6205 40.7709 31.6652C40.9794 32.2012 41.0464 32.7447 40.8975 33.3105C40.8379 33.5561 40.8379 33.8093 40.8975 34.0475C41.0761 34.7101 41.0166 35.3503 40.8081 35.9906C40.7411 36.1841 40.7114 36.3926 40.6592 36.5936C40.6295 36.7127 40.5997 36.8393 40.6443 36.9584C40.8007 37.3902 40.7262 37.8145 40.6369 38.2389C40.5327 38.7451 40.421 39.2513 40.4433 39.7725C40.4582 40.1894 40.4359 40.5914 40.3391 41.0009C40.3093 41.12 40.2944 41.254 40.3093 41.3731C40.4061 42.0654 40.3763 42.7801 40.5699 43.4651C40.6444 43.7182 40.6741 43.9936 40.7188 44.2542C40.823 44.7977 40.9496 45.3337 41.1953 45.8474C41.4409 46.3685 41.6271 46.912 41.9397 47.4033C42.0886 47.6415 42.1631 47.9319 42.2896 48.1924C42.3566 48.3413 42.4311 48.5051 42.5428 48.6168C42.7363 48.8104 42.8703 49.0411 43.0267 49.257C43.1607 49.4432 43.3096 49.5995 43.5031 49.7335C43.9572 50.0313 44.3444 50.4035 44.5156 50.947C44.6198 51.282 44.8506 51.5053 45.141 51.6915C45.3122 51.8031 45.5206 51.8776 45.6695 52.019C46.1907 52.5327 46.9128 52.7561 47.4488 53.2474C47.8508 53.3814 48.1561 53.6717 48.4613 53.9546C48.7219 54.1929 49.0196 54.3715 49.2877 54.5949C49.5482 54.8108 49.913 54.9001 50.2406 55.0267C50.5681 55.1607 50.8883 55.2724 51.1935 55.4585C51.469 55.6223 51.7593 55.8158 52.1018 55.8382C52.206 55.8382 52.3028 55.8828 52.3772 55.9573C52.5112 56.0913 52.6899 56.1508 52.8611 56.2327C53.2557 56.4114 53.68 56.5528 54.0299 56.7985C54.5362 57.1559 55.1169 57.3048 55.6827 57.4909C56.1963 57.6621 56.6654 57.9003 57.1493 58.1237C57.6555 58.3619 58.1692 58.5629 58.6754 58.7863C59.2189 59.0319 59.7996 59.2032 60.2239 59.6573C60.4324 59.8806 60.7078 60.0816 60.7451 60.3943C60.7897 60.7591 60.8642 61.1313 60.7972 61.5036C60.7525 61.7716 60.7451 62.0396 60.7748 62.3076C60.8046 62.5607 60.76 62.799 60.6408 63.0297C60.5366 63.2308 60.4622 63.4541 60.3431 63.6402C59.9261 64.3028 59.4274 64.8611 58.6308 65.077C57.9905 65.2557 57.3652 65.4493 56.7324 65.6577C55.839 65.9481 54.9308 66.1267 53.9927 66.0895C53.6651 66.0746 53.3376 66.0374 53.01 66.0895C52.809 66.1267 52.742 66.0449 52.8016 65.8513C52.8835 65.5833 52.9281 65.3153 52.8165 65.0621C52.6824 64.7644 52.5336 64.4442 52.2209 64.2879C51.4913 63.9231 50.7468 63.6477 49.8981 63.8189C49.1239 63.9752 48.3943 64.2581 47.6647 64.5559C47.4786 64.6304 47.2776 64.7495 47.1659 64.9058C46.9426 65.211 46.6522 65.4418 46.4066 65.7173C46.0269 66.1416 45.9078 66.6553 45.9375 67.2137C45.9524 67.4668 46.0492 67.6976 46.2651 67.8539C46.3991 67.9507 46.5257 68.0549 46.6597 68.1591C46.7341 68.2187 46.7639 68.308 46.7043 68.375C46.4736 68.6877 46.3321 69.0674 46.0269 69.3354C45.4313 69.864 44.8059 70.3256 43.9796 70.4223C43.92 70.4223 43.8605 70.4447 43.8009 70.4596C43.183 70.6531 42.5576 70.7201 41.91 70.7201C41.3144 70.7201 40.8081 70.534 40.3912 70.132C39.9669 69.7225 39.483 69.328 39.5425 68.6282C39.5425 68.5537 39.4904 68.4718 39.483 68.3899C39.4309 68.0251 39.3936 67.6529 39.416 67.2807C39.4309 67.0052 39.4979 66.7521 39.6765 66.5362C39.7584 66.4394 39.8329 66.3426 39.8478 66.2161C39.8999 65.8215 40.1158 65.5312 40.4061 65.278C40.6443 65.0696 40.823 64.8165 40.9421 64.5261C41.0836 64.1911 40.9719 63.8561 40.6816 63.6551C40.086 63.2531 38.8576 63.4392 38.4035 64.005C38.0164 64.4889 37.6367 64.9803 37.3017 65.5014C37.1975 65.6577 37.123 65.8215 37.0709 66.0076C36.8699 66.6925 36.8401 67.3923 36.7954 68.0921C36.7805 68.3304 36.8103 68.5835 36.9146 68.8217C37.1081 69.2684 37.2347 69.7374 37.3389 70.2213C37.4059 70.5415 37.525 70.8541 37.659 71.1519C37.8302 71.5242 37.9866 71.9262 38.4779 72.0006C38.5673 72.0155 38.6343 72.1272 38.7236 72.1793C39.0288 72.3505 39.2894 72.6185 39.6468 72.6706C39.9222 72.7079 40.153 72.827 40.3987 72.9387C40.622 73.0354 40.8602 73.1248 41.0761 73.2364C41.3293 73.3704 41.5973 73.3704 41.8578 73.3109C42.379 73.1918 42.9001 73.0503 43.4212 72.9387C44.0094 72.8195 44.5528 72.5515 45.1186 72.3654C45.5728 72.2165 45.6249 72.358 45.7738 72.6706C45.811 72.7451 45.8333 72.827 45.8556 72.9014C45.9599 73.3258 46.079 73.7352 46.3619 74.0851C46.4363 74.1745 46.4066 74.301 46.3098 74.3606C46.0492 74.5318 45.7961 74.7179 45.5132 74.8371C44.9921 75.0678 44.6273 75.4401 44.3816 75.9389C44.2029 76.3037 43.9275 76.5866 43.6073 76.8099C43.2872 77.0332 43.0639 77.3087 42.8927 77.6437C42.714 78.0011 42.4534 78.2914 42.1407 78.5371C41.9621 78.6711 41.7462 78.7902 41.6122 78.9689C41.2623 79.4304 40.8602 79.8176 40.421 80.1972C40.0934 80.4801 39.7882 80.7779 39.4458 81.0459C38.3737 81.8946 37.1826 82.5721 36.1031 83.3985C35.9765 83.4953 35.8276 83.5846 35.6713 83.6367C35.3065 83.7782 34.9417 83.927 34.5546 84.0015C34.1451 84.0834 33.7878 84.2993 33.423 84.4928C33.2741 84.5747 33.1624 84.7013 33.0805 84.8427C32.9614 85.0586 32.8423 85.2745 32.686 85.4681C32.4179 85.8106 32.4924 86.4359 33.1103 86.5774C33.356 86.6295 33.6017 86.6741 33.825 86.7709C34.5322 87.0613 35.2246 87.3814 35.9318 87.6792C36.1477 87.7685 36.3115 87.9025 36.4753 88.0737C36.788 88.4013 37.1156 88.7214 37.4729 88.9969C37.9345 89.3542 38.3588 89.7563 38.6789 90.2327C39.1107 90.873 39.5872 91.4611 40.1009 92.0269C40.1828 92.1162 40.287 92.213 40.3168 92.3247C40.5476 93.0543 41.0836 93.4786 41.7536 93.7615C41.7759 93.769 41.7908 93.7764 41.8057 93.7913C42.1184 93.97 42.2226 94.1412 42.0514 94.439C41.8653 94.7665 41.8727 95.109 41.8206 95.444C41.7164 96.1438 41.7983 96.8436 41.9174 97.5285C42.0067 98.0348 42.1928 98.5187 42.2375 99.0398C42.2375 99.1217 42.2822 99.2036 42.3269 99.2706C42.714 99.8736 42.9373 100.581 43.451 101.109C43.6073 101.273 43.6743 101.489 43.719 101.727C43.786 102.114 43.8828 102.494 43.9945 102.874C44.0615 103.097 44.1508 103.298 44.0317 103.529C43.9796 103.626 44.0243 103.73 44.0689 103.827C44.2253 104.177 44.2476 104.541 44.2029 104.921C44.1806 105.085 44.2029 105.249 44.2178 105.412C44.255 105.807 44.2178 106.187 44.0987 106.566C43.9275 107.095 43.7562 107.624 43.6892 108.182C43.6222 108.696 43.3468 109.053 42.8703 109.254C42.7214 109.321 42.5651 109.381 42.4087 109.44C42.2896 109.485 42.1854 109.552 42.1333 109.678C42.0142 109.984 41.7387 110.095 41.4633 110.192C41.1506 110.311 40.8677 110.475 40.5625 110.609C40.1307 110.81 39.7138 111.056 39.2447 111.137C38.2174 111.309 37.1826 111.324 36.1552 111.234C35.4777 111.175 34.8003 111.123 34.1153 111.16C33.9292 111.167 33.7282 111.204 33.557 111.152C32.9837 110.966 32.3733 110.951 31.7926 110.802C31.5916 110.75 31.3831 110.728 31.1896 110.654C30.795 110.512 30.393 110.438 29.9835 110.393C29.4475 110.333 28.9338 110.192 28.4127 110.043C27.7501 109.857 27.1396 109.574 26.5515 109.224C26.3207 109.09 26.0602 109.001 25.8145 108.897C25.5316 108.77 25.2338 108.673 24.9658 108.524C24.5266 108.286 24.0501 108.152 23.5811 107.988C23.4024 107.929 23.2237 107.877 23.0525 107.81C22.6133 107.624 22.1517 107.497 21.6752 107.475C21.3179 107.46 20.9829 107.385 20.633 107.303C20.2905 107.229 19.9481 107.162 19.5982 107.11C19.0249 107.028 18.4442 107.058 17.871 107.035C17.2903 107.013 16.717 107.05 16.1512 107.155C15.2951 107.311 14.4762 107.609 13.6126 107.735C13.4935 107.75 13.3669 107.795 13.2627 107.862C12.9575 108.07 12.6076 108.189 12.2874 108.375C11.945 108.576 11.677 108.867 11.3196 109.031C11.0591 109.15 10.8432 109.343 10.6422 109.559C10.1731 110.051 9.66691 110.505 9.27234 111.078C8.88521 111.636 8.63209 112.277 8.25986 112.842C8.21519 112.909 8.17796 112.999 8.17796 113.073C8.17796 113.408 7.97696 113.654 7.83551 113.922C7.62705 114.301 7.42605 114.674 7.32182 115.105C7.22504 115.5 7.12826 115.902 6.97192 116.289C6.81558 116.676 6.81558 117.101 6.91981 117.51C6.96448 117.689 7.02403 117.867 7.05381 118.054C7.2846 119.349 7.7015 120.562 8.41619 121.679C8.73632 122.185 9.07877 122.692 9.30956 123.235C9.7488 124.277 10.4784 125.134 11.0144 126.109C11.0442 126.161 11.0888 126.206 11.1335 126.25C11.3271 126.414 11.4462 126.63 11.5653 126.846C11.8557 127.367 12.3768 127.486 12.883 127.173C13.0021 127.099 13.0915 126.987 13.2478 126.943C13.6052 126.838 13.6424 126.63 13.5977 126.317C13.5307 125.885 13.419 125.469 13.2031 125.081C12.7937 124.359 12.3842 123.645 11.8408 123.012C11.7068 122.855 11.5802 122.684 11.4834 122.506C10.9846 121.553 10.4337 120.629 10.0168 119.639C9.87536 119.297 9.71902 118.954 9.60735 118.604C9.34678 117.793 9.40634 117.026 9.89769 116.304C9.96469 116.207 10.0019 116.081 10.0391 115.962C10.2178 115.351 10.389 114.733 10.7985 114.227C10.8506 114.16 10.8953 114.086 10.9176 114.011C10.9995 113.676 11.2228 113.438 11.4313 113.177C11.6398 112.917 11.8482 112.671 12.0194 112.381C12.3544 111.815 12.8235 111.376 13.4265 111.123C13.7466 110.989 14.0072 110.81 14.2305 110.564C14.3943 110.386 14.573 110.281 14.8261 110.274C15.176 110.259 15.5184 110.17 15.8535 110.065C16.6277 109.835 17.4169 109.663 18.2358 109.73C18.3772 109.745 18.5336 109.753 18.6676 109.716C19.0994 109.604 19.5311 109.678 19.9629 109.641C20.1267 109.626 20.3054 109.641 20.4543 109.693C20.8265 109.835 21.2211 109.857 21.6008 109.954C22.5388 110.192 23.4694 110.475 24.4074 110.735C24.6531 110.802 24.8541 110.944 25.0626 111.078C25.4125 111.309 25.7698 111.51 26.1644 111.636C26.5217 111.748 26.8567 111.904 27.1992 112.053C27.9213 112.366 28.6435 112.664 29.4401 112.731C29.8942 112.768 30.3334 112.894 30.7652 113.036C31.1375 113.162 31.5246 113.244 31.9117 113.289C32.3882 113.334 32.8646 113.363 33.3262 113.453C34.3685 113.669 35.4182 113.706 36.4679 113.676C37.2719 113.646 38.0759 113.765 38.88 113.728C39.3341 113.713 39.7808 113.81 40.2051 113.564C40.2721 113.527 40.3689 113.535 40.4433 113.512C41.0761 113.334 41.7313 113.192 42.3045 112.85C42.4385 112.768 42.6098 112.723 42.7735 112.701C43.0564 112.656 43.2649 112.522 43.4585 112.321C43.7413 112.023 44.0466 111.733 44.4337 111.577C44.59 111.51 44.7092 111.398 44.8208 111.271C45.0516 111.011 45.3047 110.773 45.5802 110.549C45.9301 110.266 46.3023 109.984 46.3917 109.492C46.4363 109.247 46.5629 109.023 46.6225 108.785C46.7639 108.204 46.8607 107.616 46.9798 107.028C46.9947 106.968 46.9798 106.901 46.9798 106.842C46.9426 106.589 46.9872 106.351 47.0394 106.105C47.1213 105.718 47.151 105.331 47.0617 104.936C46.9798 104.579 46.8756 104.214 46.9053 103.834C46.9128 103.715 46.8681 103.589 46.816 103.477C46.682 103.209 46.6448 102.919 46.6448 102.636C46.6448 102.211 46.5033 101.824 46.3172 101.452C46.1683 101.154 45.9897 100.871 45.9003 100.559C45.6993 99.8811 45.4164 99.2483 45.0293 98.6527C44.7985 98.3028 44.6943 97.9231 44.6645 97.4913C44.6347 97.0521 44.7538 96.5831 44.5007 96.1661C44.4635 96.1066 44.4709 95.9949 44.5007 95.9205C44.6049 95.5557 44.6049 95.1909 44.4858 94.841C44.6496 94.7516 44.7985 94.7963 44.9399 94.8038C45.1261 94.8187 45.3122 94.8187 45.4983 94.774C46.6969 94.506 47.754 93.9625 48.64 93.1138C49.1909 92.5852 49.5333 91.9227 49.5482 91.141C49.5631 90.4412 49.1164 89.9126 48.8335 89.3245C48.5432 89.1086 48.3943 88.781 48.2007 88.4906C47.9699 88.1407 47.687 87.8504 47.285 87.6941C46.4736 87.3739 45.744 86.8975 44.9921 86.4731C44.1285 85.9743 43.2053 85.8106 42.2524 85.8627C41.4856 85.8999 40.7784 85.7584 40.0786 85.4979C40.0116 85.4755 39.8999 85.4607 39.9297 85.349C39.9445 85.3043 40.0116 85.2522 40.0637 85.2373C40.7486 85.014 41.4409 84.7832 42.1631 84.7162C42.4906 84.6864 42.8182 84.6268 43.1309 84.5077C43.8084 84.2546 44.4858 83.994 45.1558 83.726C45.5579 83.5697 45.945 83.3538 46.3544 83.2272C47.084 83.0039 47.8136 82.7731 48.4836 82.3934C48.8112 82.2073 49.1239 82.0063 49.3547 81.7085C49.578 81.4256 49.8237 81.1874 50.1215 80.9938C50.5235 80.7184 50.8362 80.3685 51.0818 79.9516C51.2531 79.6687 51.4317 79.3858 51.5881 79.0954C51.8933 78.552 52.1241 77.9862 52.2581 77.3757C52.3325 77.0407 52.3177 76.7206 52.1688 76.4079C52.1092 76.2739 52.0273 76.1473 52.005 76.0059C51.9678 75.723 51.8114 75.5071 51.6327 75.3061C51.3424 74.9859 51.0521 74.6733 50.7245 74.3829C50.2853 73.9958 49.7865 73.7501 49.2355 73.6682C48.841 73.6087 48.5953 73.4449 48.4092 73.1173C48.2826 72.9014 48.1337 72.7079 48.0146 72.4845C47.9253 72.3207 47.8211 72.157 47.8508 71.9634C47.9029 71.5688 47.7317 71.2413 47.5754 70.9137C47.4637 70.6829 47.4488 70.6755 47.6275 70.4893C47.8508 70.2437 48.0965 70.0203 48.2454 69.7151C48.372 69.462 48.5655 69.2907 48.8186 69.1791C48.9526 69.1195 49.0718 69.0376 49.1909 68.9632C49.5259 68.7547 49.8758 68.6803 50.2555 68.7845C50.3969 68.8217 50.5384 68.8589 50.6798 68.8366C51.1637 68.7398 51.67 68.8217 52.1539 68.6654C52.2507 68.6356 52.3623 68.6207 52.4591 68.6356C52.8983 68.7324 53.3152 68.6133 53.747 68.5165C54.1491 68.4272 54.566 68.4272 54.968 68.308C55.0424 68.2857 55.1318 68.2857 55.2136 68.3006C55.6678 68.3899 56.0698 68.2336 56.4793 68.0773C57.1716 67.8092 57.8491 67.5189 58.601 67.4221C58.8764 67.3849 59.1742 67.3328 59.4274 67.1765C60.2314 66.6925 60.9759 66.1491 61.5491 65.3972C61.9139 64.9207 62.1968 64.3847 62.5392 63.9008C62.9487 63.3201 63.1348 62.6798 63.2167 61.9949C63.306 61.2579 63.2242 60.5134 63.2167 59.769L63.2614 59.836ZM40.5178 88.0216C40.8379 88.1631 41.1729 88.1705 41.493 88.0961C42.4087 87.8802 43.1458 88.2599 43.8754 88.7214C43.9126 88.7438 43.9349 88.781 43.9721 88.8033C44.3146 88.9894 44.6868 89.1383 45.007 89.3617C45.3122 89.5701 45.4983 89.9275 45.8482 90.0838C46.012 90.1583 46.1237 90.2774 46.1683 90.4412C46.2577 90.7538 46.481 90.9697 46.6969 91.1931C47.0617 91.5728 46.9947 91.9227 46.5182 92.1832C46.3396 92.28 46.1534 92.3768 45.9673 92.4587C45.2824 92.7714 44.6719 92.5704 44.1061 92.1758C43.9498 92.0641 43.7935 91.9971 43.6222 91.9301C43.1011 91.7142 42.6321 91.4239 42.3343 90.9102C42.2747 90.806 42.1854 90.7092 42.1035 90.6198C41.7759 90.2774 41.3888 89.9945 41.1655 89.5627C41.1357 89.5106 41.0836 89.4734 41.0315 89.4361C40.555 89.049 40.1753 88.5353 39.6319 88.2301C39.5946 88.2077 39.5574 88.178 39.5425 88.1482C39.5202 88.0961 39.5053 88.0365 39.5128 87.977C39.5128 87.9546 39.5723 87.9174 39.6095 87.9174C39.6914 87.9174 39.7733 87.9174 39.8924 87.9249C40.086 87.9249 40.3242 87.9249 40.5327 88.0291L40.5178 88.0216ZM48.4017 76.7131C48.7367 76.6238 49.0569 76.661 49.3696 76.8025C49.5557 76.8844 49.6227 77.0109 49.5854 77.197C49.3993 78.2616 48.9452 79.1773 48.1114 79.9069C47.687 80.2791 47.2404 80.5993 46.8011 80.9417C46.5033 81.1725 46.146 81.2916 45.7961 81.4182C44.7687 81.783 43.7265 82.1329 42.7214 82.5796C42.3269 82.7508 41.8951 82.8401 41.4782 82.8848C41.4186 82.8848 41.3739 82.8848 41.3367 82.8773C41.3069 82.8624 41.2623 82.8327 41.2548 82.8029C41.2474 82.7731 41.2548 82.7061 41.2846 82.6912C41.6643 82.4753 41.9248 82.118 42.2822 81.8723C42.6693 81.6117 42.9597 81.2097 43.2798 80.8673C43.7413 80.3685 44.121 79.7952 44.657 79.3634C44.7315 79.3039 44.7911 79.2071 44.8432 79.1178C45.1707 78.5817 45.6174 78.1499 46.0418 77.7033C46.3917 77.3385 46.7937 77.0705 47.3148 76.9886C47.6796 76.929 48.0369 76.8173 48.3943 76.7206L48.4017 76.7131Z" fill="black"/>
<path d="M8.4525 43.5096C8.57905 43.4054 8.72795 43.3309 8.87684 43.249C9.25652 43.0406 9.65854 42.981 10.0754 43.0927C10.4551 43.1969 10.8274 43.3086 11.1996 43.4277C11.3708 43.4873 11.408 43.5691 11.3783 43.7701C11.3559 43.9116 11.3113 44.053 11.2964 44.1945C11.2666 44.5518 11.1028 44.8124 10.805 45.006C10.4626 45.2293 10.2988 45.6015 10.0754 45.9217C9.95633 46.0929 9.97866 46.3237 10.001 46.5247C10.0159 46.6959 10.135 46.8299 10.3137 46.8671C10.738 46.949 11.1549 46.8895 11.4676 46.5768C11.9441 46.1003 12.4131 45.6239 12.696 44.9836C12.7928 44.7677 12.9119 44.5146 13.0757 44.3657C13.299 44.1647 13.4777 44.5518 13.7233 44.5518C13.8052 44.5518 13.8797 44.6114 13.9616 44.6188C14.0956 44.6263 14.1924 44.6858 14.2891 44.7677C14.505 44.9539 14.7284 45.1176 15.0187 45.1995C15.2644 45.274 15.4059 45.4824 15.3761 45.7802C15.3537 45.9812 15.3537 46.1897 15.3686 46.3981C15.3835 46.6289 15.3761 46.8374 15.1974 47.0309C15.0485 47.1873 15.0857 47.4181 15.0485 47.6191C15.0336 47.6861 15.0708 47.7829 15.1155 47.8499C15.1974 47.969 15.3016 48.0657 15.3984 48.1774C15.5547 48.3561 15.7409 48.3933 15.9568 48.3114C16.3364 48.17 16.6417 47.9317 16.8278 47.5669C17.0065 47.217 17.1256 46.8448 17.2224 46.4577C17.2894 46.1897 17.401 46.1301 17.6765 46.145C18.0487 46.1673 18.421 46.2046 18.756 46.3832C19.024 46.5247 19.292 46.5619 19.5972 46.5321C19.8206 46.5098 20.0514 46.5321 20.2821 46.547C20.431 46.547 20.498 46.6587 20.5353 46.7778C20.5799 46.9193 20.5576 47.0607 20.5353 47.2096C20.498 47.3883 20.4534 47.5744 20.4534 47.7605C20.4534 48.2146 20.4608 48.6688 20.4831 49.1229C20.498 49.3983 20.6097 49.6738 20.8182 49.8227C20.9819 49.9418 21.1978 50.0833 21.4435 50.0386C21.7041 49.9939 21.8976 49.8599 22.0465 49.6515C22.2773 49.3313 22.4709 48.9889 22.5453 48.5943C22.6347 48.1774 22.7687 47.7531 22.5974 47.3213C22.5751 47.2617 22.5751 47.2022 22.5677 47.1352C22.5528 46.9788 22.6272 46.9044 22.7836 46.9044C23.2154 46.9118 23.6472 46.9342 24.0864 46.9416C24.2874 46.9416 24.5331 46.8001 24.6745 46.9565C24.7936 47.0905 24.7936 47.3362 24.8383 47.5297C24.8532 47.6042 24.8383 47.6935 24.8383 47.7754C24.816 47.9541 24.8681 48.1104 24.9872 48.237C25.352 48.6167 25.553 49.1006 25.7838 49.5621C25.8582 49.7185 25.955 49.8376 26.1039 49.9269C26.625 50.2322 26.9228 50.2098 27.3918 49.8227C27.4067 49.8078 27.4291 49.8004 27.444 49.7855C27.7045 49.5175 27.846 49.2271 27.6971 48.84C27.5631 48.5124 27.4067 48.2072 27.2132 47.9169C27.0196 47.6265 26.8186 47.3362 26.6325 47.0384C26.5059 46.8448 26.5431 46.7555 26.7814 46.6736C27.0345 46.5842 27.2951 46.5024 27.5482 46.4354C28.2926 46.2269 28.2927 46.0185 28.6872 46.9267C28.9776 47.5893 29.387 48.1923 30.1464 48.438C30.2432 48.4678 30.3251 48.5348 30.4069 48.6018C30.7866 48.9219 31.2408 49.0112 31.7172 49.0857C32.1118 49.1452 32.4542 49.0336 32.7818 48.8474C33.0722 48.6837 33.2359 48.4156 33.2359 48.0881C33.2359 47.7977 33.0498 47.5967 32.7893 47.4702C32.6404 47.3957 32.484 47.3362 32.3426 47.2617C32.0224 47.0905 31.6651 46.9639 31.4194 46.6587C31.3152 46.5321 31.1812 46.4279 31.01 46.3832C30.6973 46.3088 30.5558 46.0408 30.3921 45.81C30.2804 45.6537 30.3027 45.5494 30.4665 45.4527C31.0695 45.0953 31.6204 44.6635 32.2458 44.3359C32.3351 44.2913 32.417 44.2243 32.484 44.1498C32.7223 43.8669 32.9605 43.5766 33.1913 43.2862C33.2508 43.2043 33.3327 43.1001 33.3253 43.0182C33.2955 42.6311 33.4891 42.3035 33.5635 41.9388C33.7347 41.1124 33.8092 40.2786 33.8092 39.4299C33.8092 39.1395 33.8092 38.8418 33.705 38.5737C33.6231 38.3504 33.6082 38.1345 33.6082 37.9112C33.6082 37.7102 33.6528 37.4868 33.5337 37.3007C33.3178 36.9731 33.2508 36.5637 33.0051 36.251C32.9307 36.1542 32.8935 36.0351 32.8563 35.916C32.7893 35.6554 32.6255 35.3949 32.6478 35.1492C32.6701 34.8737 33.0349 34.8142 33.221 34.628C33.5561 34.293 33.8985 33.958 34.2633 33.6602C34.6058 33.3773 34.8663 33.0498 35.0003 32.618C35.0822 32.3574 35.2088 32.1266 35.3875 31.9182C35.7001 31.5534 35.9533 31.1588 36.05 30.6749C36.0724 30.5558 36.1319 30.4441 36.1989 30.3399C36.318 30.1463 36.318 29.9602 36.2213 29.7518C36.1468 29.5805 36.0947 29.4019 36.05 29.2232C35.9681 28.9254 35.8565 28.6351 35.715 28.3596C35.5215 27.9799 35.1939 27.7864 34.7993 27.6821C34.442 27.5928 34.1591 27.7417 33.973 28.0693C33.8687 28.2554 33.8538 28.4638 33.8166 28.6648C33.7347 29.1711 33.6677 29.6848 33.3625 30.124C33.2955 30.2208 33.2508 30.3473 33.2285 30.4665C33.1689 30.8685 32.9679 31.2035 32.752 31.531C32.5287 31.8661 32.3351 32.2234 32.0522 32.5361C31.7693 32.8562 31.4864 33.1093 31.0844 33.2582C30.9057 33.3252 30.7792 33.3476 30.6303 33.2136C30.3623 32.9679 30.0198 32.8785 29.6774 32.8041C29.454 32.7594 29.2381 32.6924 29.0222 32.618C28.6649 32.4914 28.717 32.4989 28.851 32.1043C29.0148 31.6204 29.3424 31.2705 29.655 30.9057C29.7295 30.8164 29.7444 30.727 29.7741 30.6302C29.8933 30.2282 29.8486 29.8113 29.8784 29.4019C29.9081 28.9626 29.7667 28.6351 29.4466 28.367C29.2158 28.1735 29.0892 27.9501 29.0222 27.6449C28.8882 27.0419 28.5607 26.5505 27.9874 26.2527C27.7492 26.1262 27.511 26.1039 27.2727 26.1857C27.0196 26.2751 26.7814 26.4016 26.5431 26.5133C26.3719 26.5952 26.3124 26.7367 26.3198 26.9153C26.3347 27.2503 26.5059 27.496 26.7367 27.7119C26.8409 27.8087 26.9973 27.8757 27.0643 27.9948C27.2951 28.434 27.5184 28.8956 27.5184 29.3944C27.5184 30.0347 27.3844 30.66 26.9228 31.1663C26.7144 31.3896 26.5357 31.6353 26.4985 31.9703C26.4761 32.2011 26.3496 32.3351 26.156 32.3351C25.6572 32.3351 25.1733 32.4319 24.6745 32.4914C24.3097 32.5361 24.2502 32.4467 24.2055 32.0447C24.1757 31.7991 24.1832 31.5608 24.2353 31.3077C24.347 30.8015 24.3693 30.2952 24.0492 29.8337C24.0045 29.7667 23.9747 29.6848 23.9449 29.6103C23.796 29.1115 23.528 28.6723 23.2898 28.2107C23.0143 27.6747 22.5677 27.3769 22.0614 27.1312C21.6073 26.9153 21.1681 27.0047 20.7809 27.3025C20.3491 27.6226 20.3268 28.099 20.7214 28.4638C20.9522 28.6723 21.2053 28.851 21.451 29.0445C21.585 29.1487 21.6817 29.2753 21.719 29.4465C21.786 29.7964 21.92 30.1166 22.121 30.4069C22.2029 30.526 22.2475 30.66 22.2178 30.8164C22.0465 31.5757 21.7711 32.3053 21.5552 33.0572C21.4956 33.2657 21.3616 33.3773 21.1532 33.3773C20.7139 33.3773 20.297 33.5113 19.8876 33.6528C19.8131 33.6751 19.7312 33.6826 19.627 33.7049C19.6121 33.5188 19.6419 33.3401 19.5898 33.1987C19.4483 32.7966 19.4856 32.3872 19.493 31.9703C19.493 31.7693 19.4781 31.5534 19.4186 31.3598C19.3516 31.1365 19.3367 30.9206 19.3069 30.6898C19.2548 30.2357 19.1357 29.8113 18.823 29.4465C18.4805 29.052 18.1232 28.6946 17.6318 28.4787C17.5797 28.4564 17.535 28.3968 17.5797 28.3298C17.602 28.3 17.6467 28.2777 17.6765 28.2777C17.9668 28.2777 18.2572 28.3075 18.5475 28.3075C18.9644 28.3075 19.3739 28.2628 19.7387 28.032C20.2077 27.7417 20.3417 27.2057 20.0514 26.7441C19.9769 26.625 19.8801 26.5208 19.7312 26.3421C20.1035 26.2602 20.4087 26.1932 20.7065 26.1336C21.3393 26.0071 21.9646 25.8805 22.5156 25.5232C22.6347 25.4487 22.7836 25.4189 22.9176 25.3668C23.7812 25.0616 24.615 24.7117 25.2552 24.0193C25.5009 23.7513 25.8359 23.6322 26.1784 23.5429C26.3421 23.5057 26.4985 23.4684 26.6623 23.4312C27.0866 23.3344 27.4961 23.2079 27.8609 22.9399C28.0991 22.7612 28.382 22.7091 28.6798 22.6942C29.2605 22.6644 29.8337 22.5974 30.4069 22.5378C31.0919 22.4634 31.613 22.1358 31.948 21.5254C32.0299 21.3839 32.149 21.2573 32.1639 21.0861C32.1937 20.7139 32.1937 20.3416 32.015 19.9917C31.8289 19.627 31.6949 19.2249 31.345 18.9644C31.2705 18.9048 31.2184 18.808 31.1663 18.7113C31.0174 18.406 30.7717 18.1827 30.4888 18.004C30.2953 17.8849 30.124 17.7434 29.9826 17.5499C29.6253 17.066 29.1488 16.6937 28.6798 16.3215C28.2331 15.9642 27.7045 15.8897 27.1536 15.9716C26.7367 16.0312 26.424 16.3215 26.3421 16.7161C26.2528 17.133 26.4166 17.4382 26.7516 17.6764C26.8335 17.736 26.9303 17.7807 27.0122 17.8477C27.1685 17.9817 27.3248 18.1157 27.4737 18.2646C27.578 18.3688 27.5184 18.5103 27.3695 18.5326C27.0866 18.5773 26.7963 18.607 26.5134 18.6591C25.9625 18.7634 25.6498 19.0984 25.553 19.6493C25.4637 20.1406 25.3594 20.6245 25.5083 21.1233C25.5232 21.1755 25.5083 21.2425 25.486 21.302C25.4785 21.3318 25.419 21.3541 25.3892 21.3541C25.352 21.3541 25.3148 21.3169 25.285 21.2946C24.548 20.5427 23.6397 20.498 22.6942 20.699C22.2922 20.7809 21.9646 21.0638 21.8381 21.436C21.7264 21.7487 21.6743 22.0986 21.786 22.4634C21.8902 22.8058 22.0465 23.0515 22.3518 23.2302C22.4783 23.3046 22.4486 23.4461 22.2922 23.5057C21.8902 23.6694 21.4956 23.8556 21.0787 23.9747C20.0067 24.265 18.9123 24.5107 17.8403 24.8085C17.3043 24.9574 16.7608 25.1063 16.2769 25.3892C15.9195 25.5976 15.5622 25.6795 15.1602 25.7093C13.5298 25.8358 11.9068 26.0145 10.3732 26.6324C10.2616 26.6771 10.135 26.692 10.0159 26.7292C9.09274 27.0419 8.19938 27.4067 7.52191 28.1586C7.41024 28.2777 7.27623 28.3819 7.16456 28.5011C6.98589 28.7021 6.76255 28.8063 6.50943 28.8137C5.76496 28.8286 5.10982 29.1711 4.43235 29.4019C4.13456 29.5061 3.91122 29.6996 3.71022 29.9602C3.42732 30.325 3.21886 30.727 3.01786 31.129C2.84663 31.4566 2.83174 31.8586 2.98063 32.216C3.08486 32.4691 3.12208 32.7296 3.18164 32.9902C3.29331 33.4294 3.40498 33.9059 3.70277 34.2335C4.11223 34.6876 4.5738 35.1045 5.14704 35.38C5.46717 35.5363 5.77984 35.5363 6.10741 35.4246C6.57643 35.2608 6.7551 34.8067 6.48709 34.3824C6.23397 33.9804 5.96596 33.5858 5.68306 33.2136C5.42994 32.8711 5.31827 32.4765 5.18427 32.0894C5.08749 31.8065 5.39272 31.6129 5.42994 31.3449C5.43739 31.2854 5.46717 31.2258 5.49695 31.1737C5.54161 31.1067 5.58628 31.0248 5.64584 30.9801C5.79473 30.8685 5.95107 30.7419 6.15208 30.8015C6.32331 30.8536 6.30097 31.0323 6.34564 31.1588C6.5392 31.7469 6.85933 32.2309 7.3879 32.5733C7.70802 32.7818 8.04304 32.9158 8.43761 32.886C8.72795 32.8637 9.01085 32.8264 9.29375 32.7594C9.94144 32.6105 10.336 32.1862 10.5966 31.6204C10.9018 30.9578 10.738 30.3771 10.1424 29.9453C9.31608 29.3423 9.39797 29.3274 10.2839 28.8584C10.2988 28.851 10.3211 28.8435 10.3435 28.8361C10.8274 28.6053 11.3485 28.4564 11.8026 28.166C11.8845 28.1139 11.9887 28.0767 12.0855 28.0469C12.7183 27.8683 12.7481 27.831 12.7853 28.5085C12.8225 29.1487 13.1203 29.6401 13.7531 29.8858C13.9467 29.9602 14.1551 29.9825 14.3636 29.99C14.505 29.99 14.6539 29.9825 14.7954 29.99C14.9294 29.99 15.0113 30.1166 14.9815 30.258C14.9741 30.2952 14.9517 30.3399 14.9443 30.3771C14.8475 30.8536 14.6018 31.263 14.3859 31.6799C14.0733 32.283 13.8052 32.9083 13.3809 33.4518C13.232 33.6453 13.0682 33.8389 12.9491 34.0622C12.6736 34.5759 12.3089 35.0226 11.9515 35.4767C11.8101 35.6554 11.6388 35.8043 11.4453 35.9309C10.8795 36.2882 10.4477 36.7945 9.94888 37.2262C9.80743 37.3454 9.68832 37.5017 9.59898 37.658C9.42031 37.9782 9.16719 38.209 8.88429 38.4248C8.7205 38.5514 8.57906 38.7003 8.43016 38.8418C7.84947 39.3703 7.29857 39.9138 6.4722 40.0701C5.89152 40.1818 5.42994 40.554 4.99815 40.9412C4.18668 41.6633 3.28587 42.244 2.23616 42.5567C1.79692 42.6832 1.37258 42.8321 0.948228 42.981C0.769555 43.048 0.62066 43.1522 0.464321 43.2565C0.203757 43.4277 0.11442 43.7329 0.188867 43.9637C0.300538 44.3211 0.404764 44.6933 0.754665 44.9613C1.33535 45.408 1.96071 45.4527 2.63073 45.3782C2.77218 45.3633 2.90619 45.3335 3.05508 45.3484C3.41987 45.3931 3.73999 45.3186 4.01545 45.0357C4.17923 44.8645 4.39513 44.7454 4.67058 44.8347C4.79714 44.8794 4.95348 44.8496 5.09493 44.7826C5.65328 44.5146 6.22653 44.2764 6.78488 44.0233C7.04544 43.9042 7.27623 43.8223 7.54424 43.8446C7.8867 43.8669 8.19193 43.7925 8.46739 43.5617L8.4525 43.5096ZM21.2797 39.8915C21.4063 39.0725 21.7041 38.3057 22.0168 37.5464C22.0689 37.4198 22.1805 37.3081 22.2773 37.2039C22.3443 37.1295 22.4486 37.0774 22.5007 36.9955C22.7314 36.6381 23.0292 36.4371 23.4685 36.4222C23.6248 36.4222 23.7812 36.3254 23.93 36.251C24.3172 36.0574 24.7043 35.8639 25.084 35.6554C25.5753 35.38 26.1039 35.3278 26.6474 35.4172C27.0345 35.4767 27.4142 35.5661 27.7417 35.8118C27.8236 35.8713 27.9204 35.9234 28.0246 35.9383C28.4267 36.0128 28.7393 36.2287 29.0743 36.6158C28.3448 36.6307 27.6822 36.6753 27.0419 36.8093C26.0369 37.0252 25.1138 37.39 24.4586 38.2611C23.9896 38.8864 23.8407 39.5564 24.0194 40.3009C24.1311 40.7625 24.2874 41.2092 24.4065 41.6707C24.615 42.4748 25.1882 42.981 25.8806 43.3309C26.2156 43.5021 26.625 43.5617 27.0196 43.584C27.5407 43.6213 28.047 43.5096 28.5532 43.4128C28.7468 43.3756 28.9254 43.2416 29.0967 43.1225C29.454 42.8768 29.8039 42.6237 30.1538 42.3631C30.3548 42.2142 30.5261 42.0355 30.675 41.8345C30.7568 41.7229 30.8164 41.5814 30.9727 41.5591C31.0323 41.6112 31.0249 41.6782 31.0025 41.7303C30.6228 42.6758 29.9677 43.4054 29.0297 43.7701C28.2703 44.0679 27.4663 44.3359 26.6176 44.0828C26.5431 44.0605 26.4464 44.053 26.3719 44.0679C25.7763 44.1945 25.1808 44.1052 24.5777 44.1573C24.1236 44.1945 23.6695 44.0977 23.2302 44.0009C23.0739 43.9637 22.9101 43.8893 22.791 43.7925C22.3443 43.4426 21.9572 43.0555 21.8232 42.4748C21.8083 42.4152 21.8009 42.3482 21.7636 42.2961C21.4212 41.8196 21.4063 41.2538 21.3021 40.7104C21.25 40.4424 21.25 40.1818 21.2946 39.9063L21.2797 39.8915ZM15.6143 35.0226C15.8674 34.6429 16.061 34.2409 16.2322 33.8166C16.3886 33.4369 16.5896 33.0795 16.7385 32.6999C16.865 32.3723 16.9544 32.0373 17.0586 31.7023C17.0884 31.6055 17.0958 31.4789 17.2075 31.4566C17.3638 31.4268 17.4159 31.5683 17.4755 31.6725C17.5499 31.8139 17.6244 31.9703 17.6542 32.1266C17.7063 32.3649 17.7212 32.6105 17.7658 32.8562C17.7956 33.0498 17.7658 33.221 17.6467 33.3848C17.5872 33.4667 17.5425 33.5635 17.5053 33.6602C17.4159 33.8836 17.3787 34.0995 17.5797 34.2856C17.6393 34.3377 17.6914 34.4047 17.6765 34.5238C17.0288 34.8588 16.262 34.8663 15.6292 35.2385C15.5026 35.1641 15.5845 35.0896 15.6292 35.0301L15.6143 35.0226ZM11.1326 40.5391C11.3708 40.42 11.6314 40.3307 11.7579 40.0552C11.7877 39.9882 11.8771 39.9436 11.9515 39.9063C12.5843 39.6011 13.2097 39.3033 13.8499 39.013C14.0211 38.9385 14.1924 38.8715 14.3413 38.7524C14.4083 38.7003 14.4678 38.6333 14.5423 38.6184C15.0857 38.5067 15.4803 38.1047 15.9493 37.8665C16.061 37.8144 16.1652 37.7548 16.2843 37.7027C16.6789 37.5389 17.1107 37.4347 17.3936 37.0699C17.4531 36.9955 17.5723 36.9731 17.669 36.9359C17.9371 36.8242 18.2051 36.72 18.4731 36.6158C18.8528 36.4669 19.2697 36.4073 19.5898 36.117C19.6568 36.0574 19.7833 36.05 19.8801 36.0351C19.9471 36.0277 20.0067 36.0798 19.9844 36.1468C19.9546 36.2659 19.9025 36.3776 19.8503 36.4892C19.7089 36.8242 19.5749 37.1592 19.3888 37.4794C19.1729 37.8442 19.0463 38.2611 18.9198 38.6705C18.89 38.7673 18.8453 38.8566 18.8081 38.9534C18.5624 39.616 18.4731 40.3009 18.4954 41.0082C18.4954 41.1794 18.5401 41.3283 18.622 41.4846C18.6815 41.5889 18.7262 41.7154 18.7411 41.8345C18.8006 42.4078 19.0538 42.8917 19.3888 43.3458C19.5898 43.6213 19.7908 43.8967 19.9918 44.1796C19.9397 44.2094 19.9173 44.2317 19.9025 44.2317C19.3367 44.0456 18.7783 43.8297 18.2051 43.6659C17.8924 43.5766 17.602 43.3979 17.334 43.1969C16.6715 42.7204 15.9344 42.4227 15.1751 42.1398C14.3264 41.8271 13.433 41.6261 12.6066 41.2464C12.1749 41.0454 11.7282 40.889 11.2443 40.8593C11.1251 40.8593 11.006 40.822 10.9241 40.7402C10.939 40.5913 11.0581 40.5764 11.1475 40.5317L11.1326 40.5391Z" fill="black"/>
</svg>
