<svg width="283" height="240" viewBox="0 0 283 240" fill="none" xmlns="http://www.w3.org/2000/svg">
<path d="M269.651 109.921C277.086 103.937 281.844 94.7708 281.844 84.4888C281.844 72.2174 275.065 61.5298 265.056 55.9597C265.516 53.7753 265.766 51.5052 265.766 49.1804C265.766 31.1596 251.154 16.5479 233.133 16.5479C229.927 16.5479 226.83 17.0159 223.905 17.8819C218.35 7.81828 207.631 1 195.321 1C184.126 1 174.25 6.64029 168.375 15.2294C162.493 6.64029 152.617 1 141.422 1C130.227 1 120.351 6.64029 114.477 15.2294C108.595 6.64029 98.7183 1 87.5313 1C75.4082 1 64.8375 7.61544 59.2128 17.4294C56.2093 16.5167 53.0264 16.0252 49.7187 16.0252C31.6979 16.0252 17.0861 30.6369 17.0861 48.6577C17.0861 51.1463 17.3748 53.5725 17.9053 55.9051C7.82608 61.4517 1 72.1706 1 84.4888C1 94.7708 5.75875 103.937 13.1933 109.921C5.76655 115.904 1 125.071 1 135.353C1 147.671 7.82608 158.39 17.8975 163.944C17.367 166.277 17.0783 168.695 17.0783 171.192C17.0783 189.213 31.69 203.824 49.7109 203.824C53.0108 203.824 56.2015 203.333 59.205 202.42C59.1036 202.56 48.5329 239 48.5329 239C48.5329 239 114.422 204.667 114.469 204.62C120.343 213.209 130.22 218.849 141.414 218.849C152.609 218.849 162.486 213.209 168.36 204.62C174.234 213.209 184.111 218.849 195.305 218.849C208.731 218.849 220.254 210.744 225.262 199.159C227.782 199.783 230.403 200.119 233.118 200.119C251.139 200.119 265.75 185.507 265.75 167.486C265.75 166.176 265.665 164.888 265.516 163.617C275.268 157.976 281.837 147.437 281.837 135.361C281.837 125.079 277.078 115.912 269.643 109.929L269.651 109.921Z" fill="white" stroke="#999999" stroke-linejoin="round"/>
</svg>
